<?xml version="1.0" ?>
<svg height="240" version="1.1" width="240" xmlns="http://www.w3.org/2000/svg">
  <defs/>
  <g>
    <path d="M 26.338518142700195 24.972049713134766 C 25.79983901977539 25.263362884521484 25.8381290435791 25.24077606201172 25.980308532714844 25.146074295043945 C 16.270715713500977 30.68177032470703 15.094378471374512 33.11994552612305 17.485149383544922 31.271778106689453 C 15.586316108703613 32.3651237487793 15.469992637634277 33.01904296875 20.40863800048828 32.740352630615234 C 17.62360382080078 32.460693359375 10.445191383361816 34.19243621826172 26.338518142700195 24.972049713134766" fill="rgb(255, 73, 137)" opacity="0.2947677" stroke-width="2.0"/>
    <path d="M 46.29713439941406 223.1372833251953 C 40.762916564941406 221.97430419921875 46.74800109863281 223.10818481445312 43.379093170166016 223.1586456298828 C 47.03738784790039 222.83865356445312 41.093379974365234 222.310791015625 40.73857879638672 222.2268524169922 C 31.299835205078125 221.70851135253906 35.364837646484375 222.03787231445312 37.77245330810547 221.8346405029297 C 34.11057662963867 222.5857696533203 36.957252502441406 220.98240661621094 46.29713439941406 223.1372833251953" fill="rgb(77, 255, 48)" opacity="0.12465368" stroke-width="2.0"/>
    <path d="M 108.75212097167969 136.25201416015625 C 64.81421661376953 117.89331817626953 74.09822082519531 118.14754486083984 89.58958435058594 113.49591827392578 C 76.39453887939453 99.09294128417969 93.16896057128906 98.80015563964844 165.93734741210938 107.05921173095703 C 170.70021057128906 167.86843872070312 164.66677856445312 164.99769592285156 145.6497802734375 170.19041442871094 C 95.15906524658203 167.47817993164062 98.84576416015625 163.2900390625 108.75212097167969 136.25201416015625" fill="rgb(250, 198, 68)" opacity="1.0" stroke-width="2.0"/>
    <path d="M 237.16380310058594 137.3628387451172 C 194.9835968017578 144.055908203125 174.21482849121094 135.51229858398438 148.41336059570312 90.93333435058594 C 144.40567016601562 130.23353576660156 177.1440887451172 126.58134460449219 166.2451171875 118.09540557861328 C 160.70726013183594 110.3278579711914 155.1975555419922 106.3819808959961 150.0130615234375 55.87553405761719 C 205.69827270507812 58.71480941772461 224.8681640625 59.79548263549805 237.16380310058594 137.3628387451172" fill="rgb(255, 162, 11)" opacity="0.775545" stroke-width="2.0"/>
    <path d="M 157.4559326171875 115.1126708984375 C 141.10609436035156 92.0781021118164 120.36322021484375 98.16890716552734 122.87516021728516 117.18392181396484 C 122.4691390991211 100.31526947021484 114.9892807006836 96.96155548095703 130.4221649169922 110.55259704589844 C 132.49240112304688 111.89563751220703 121.69686126708984 97.25614166259766 132.39239501953125 78.71839904785156 C 167.49337768554688 73.19856262207031 170.68896484375 102.65287017822266 157.4559326171875 115.1126708984375" fill="rgb(196, 250, 127)" opacity="0.80831" stroke-width="2.0"/>
    <path d="M 189.99305725097656 39.965545654296875 C 202.4603271484375 89.3979263305664 208.71055603027344 84.72303009033203 201.81057739257812 89.3478775024414 C 196.8362579345703 100.76045227050781 195.63519287109375 105.01209259033203 153.7119903564453 89.24335479736328 C 146.828369140625 19.12120819091797 149.8030242919922 12.675766944885254 189.99305725097656 39.965545654296875" fill="rgb(245, 199, 0)" opacity="0.5854598" stroke-width="2.0"/>
    <path d="M 115.2329330444336 17.78135108947754 C 179.52536010742188 20.01173973083496 168.45562744140625 32.58529281616211 148.9652099609375 59.401878356933594 C 156.29408264160156 46.841426849365234 155.617431640625 48.59685134887695 146.0933380126953 35.40203857421875 C 145.7091827392578 50.00972366333008 161.21763610839844 45.217079162597656 157.25595092773438 59.955814361572266 C 152.46917724609375 90.14945983886719 147.6196746826172 97.64257049560547 119.9024429321289 91.75312805175781 C 117.97652435302734 49.15484619140625 113.56472778320312 41.65217971801758 115.2329330444336 17.78135108947754" fill="rgb(240, 193, 66)" opacity="0.8758596" stroke-width="2.0"/>
    <path d="M 53.477542877197266 38.04951858520508 C 26.776826858520508 59.98150634765625 32.92332458496094 70.07634735107422 31.074352264404297 68.91702270507812 C 30.7939395904541 68.53817749023438 25.90006446838379 67.26383209228516 28.51972007751465 67.9991226196289 C 35.62662887573242 70.6927719116211 28.1231689453125 65.4516372680664 38.56974792480469 52.48982620239258 C 40.16845703125 48.3000373840332 29.20610809326172 60.67851257324219 24.14885711669922 74.21372985839844 C 45.4841194152832 77.17070007324219 69.47579956054688 88.7611083984375 53.477542877197266 38.04951858520508" fill="rgb(255, 193, 46)" opacity="1.0" stroke-width="2.0"/>
    <path d="M 171.37344360351562 110.320068359375 C 142.7606658935547 64.88724517822266 182.60572814941406 64.07990264892578 186.898681640625 103.51338195800781 C 153.86119079589844 110.09701538085938 146.71180725097656 115.53604125976562 141.58628845214844 104.20362854003906 C 143.88851928710938 61.170169830322266 146.79965209960938 57.69391632080078 144.5977020263672 70.35095977783203 C 193.07470703125 63.63572692871094 177.70291137695312 83.72122955322266 204.3222198486328 105.92488861083984 C 214.26202392578125 100.97466278076172 210.45138549804688 100.03224182128906 171.37344360351562 110.320068359375" fill="rgb(30, 35, 48)" opacity="0.912085" stroke-width="2.0"/>
    <path d="M 168.56744384765625 27.185497283935547 C 105.40377044677734 2.134152412414551 109.5128173828125 41.105926513671875 168.62103271484375 59.76375961303711 C 183.40756225585938 20.455638885498047 174.4734344482422 87.38622283935547 141.73907470703125 89.64241790771484 C 143.8207244873047 41.90442657470703 192.92332458496094 81.71735382080078 168.56744384765625 27.185497283935547" fill="rgb(255, 178, 13)" opacity="0.5163369" stroke-width="2.0"/>
    <path d="M 106.1702880859375 108.72077941894531 C 101.78636169433594 85.88710021972656 107.8628158569336 64.9669418334961 117.88090515136719 51.6638298034668 C 159.46337890625 47.81987380981445 151.66217041015625 54.38405227661133 143.9054412841797 52.591922760009766 C 144.8676300048828 73.93555450439453 155.53042602539062 67.78360748291016 153.0016632080078 58.35975646972656 C 135.626708984375 85.42023468017578 165.76318359375 125.14435577392578 198.21963500976562 83.59851837158203 C 186.97349548339844 114.23470306396484 181.27439880371094 114.77989959716797 106.1702880859375 108.72077941894531" fill="rgb(242, 122, 22)" opacity="0.35800195" stroke-width="2.0"/>
    <path d="M 44.16000747680664 186.4185333251953 C 43.912261962890625 198.4488067626953 39.64093780517578 196.26458740234375 38.73599624633789 189.16322326660156 C 44.39817428588867 194.26707458496094 19.76027488708496 192.4607696533203 57.166683197021484 184.74935913085938 C 32.513065338134766 179.87631225585938 33.04657745361328 186.89369201660156 38.122222900390625 184.89913940429688 C 42.68572235107422 176.36874389648438 43.94508361816406 170.26348876953125 22.64671516418457 172.9907989501953 C 40.467140197753906 175.303955078125 39.530094146728516 167.05274963378906 44.16000747680664 186.4185333251953" fill="rgb(162, 255, 170)" opacity="0.46182966" stroke-width="2.0"/>
    <path d="M 42.45537185668945 242.5064239501953 C 35.99705505371094 246.65231323242188 36.79724884033203 245.5819091796875 40.25864791870117 253.2778778076172 C 43.45751953125 241.64627075195312 47.37083053588867 237.7614288330078 44.29096603393555 243.52354431152344 C 48.15591812133789 240.49053955078125 45.828617095947266 242.40074157714844 44.764183044433594 244.00918579101562 C 43.4074821472168 238.24032592773438 45.14617156982422 248.01068115234375 39.916831970214844 244.00643920898438 C 35.6031608581543 251.25062561035156 41.68911361694336 248.61846923828125 42.45537185668945 242.5064239501953" fill="rgb(144, 172, 231)" opacity="0.5754292" stroke-width="2.0"/>
    <path d="M -5.295608043670654 178.18577575683594 C -12.716800689697266 176.4681854248047 3.576160430908203 180.2720489501953 6.935192108154297 151.663818359375 C 64.32339477539062 150.7234344482422 71.3553466796875 151.0072784423828 72.6875 216.04612731933594 C 74.11636352539062 218.2056427001953 31.926685333251953 212.62269592285156 11.223528861999512 194.59213256835938 C -9.99885368347168 175.50567626953125 10.942251205444336 171.07652282714844 -11.947760581970215 150.38626098632812 C -21.129690170288086 155.06581115722656 -0.44481581449508667 183.26063537597656 -5.295608043670654 178.18577575683594" fill="rgb(250, 186, 0)" opacity="0.9052508" stroke-width="2.0"/>
    <path d="M 122.91255950927734 18.021751403808594 C 39.652713775634766 18.47233009338379 28.449140548706055 70.95494842529297 44.259307861328125 80.57817840576172 C 90.6995849609375 91.69743347167969 61.56350326538086 88.36701202392578 67.48372650146484 83.80503845214844 C 110.19770050048828 91.5217056274414 112.70558166503906 76.65872192382812 122.91255950927734 18.021751403808594" fill="rgb(255, 196, 61)" opacity="0.93493116" stroke-width="2.0"/>
    <path d="M 101.46720123291016 229.83204650878906 C 97.4949722290039 235.7124786376953 99.31574249267578 233.855712890625 97.01094055175781 234.57839965820312 C 102.39725494384766 233.08892822265625 99.75407409667969 233.71531677246094 99.0579833984375 234.2433624267578 C 99.76189422607422 233.3365020751953 98.88985443115234 234.62518310546875 98.45344543457031 234.2657470703125 C 98.99677276611328 233.75682067871094 95.71382141113281 238.51454162597656 101.46720123291016 229.83204650878906" fill="rgb(234, 99, 56)" opacity="0.11163701" stroke-width="2.0"/>
    <path d="M 53.99080276489258 123.45814514160156 C 50.86684036254883 107.11051940917969 38.42790603637695 127.5325698852539 87.64436340332031 121.17073822021484 C 82.68345642089844 136.8866729736328 80.97052764892578 143.4086151123047 97.79093170166016 90.80308532714844 C 95.38116455078125 84.57344818115234 55.08757400512695 98.66920471191406 53.99080276489258 123.45814514160156" fill="rgb(0, 14, 63)" opacity="1.0" stroke-width="2.0"/>
    <path d="M 214.2788848876953 103.21070861816406 C 233.4898223876953 96.49852752685547 234.25453186035156 109.10679626464844 240.12527465820312 169.05587768554688 C 226.4772491455078 151.43800354003906 226.09521484375 128.4286651611328 216.19168090820312 133.0250244140625 C 241.0641326904297 164.88465881347656 223.89620971679688 161.25291442871094 242.5139923095703 177.25115966796875 C 239.4263458251953 180.6949005126953 235.90945434570312 159.7807159423828 214.2788848876953 103.21070861816406" fill="rgb(255, 217, 30)" opacity="0.37941852" stroke-width="2.0"/>
    <path d="M 32.94978332519531 19.54170036315918 C 35.037986755371094 24.846054077148438 33.36850357055664 20.379743576049805 34.33603286743164 22.45779037475586 C 33.34523010253906 21.696897506713867 36.26829147338867 22.06032371520996 30.125288009643555 21.929079055786133 C 39.5810432434082 21.918670654296875 36.51070785522461 21.764179229736328 37.13127136230469 21.7148494720459 C 36.76557922363281 22.06283187866211 38.672157287597656 21.820322036743164 34.2168083190918 21.932029724121094 C 33.217323303222656 20.971176147460938 35.77265167236328 26.551443099975586 32.94978332519531 19.54170036315918" fill="rgb(255, 131, 97)" opacity="0.16656601" stroke-width="2.0"/>
    <path d="M 252.99961853027344 178.40078735351562 C 240.32962036132812 207.58665466308594 246.56454467773438 153.4541015625 238.37254333496094 182.16964721679688 C 230.64981079101562 201.19471740722656 196.2010955810547 212.58062744140625 172.6755828857422 216.68629455566406 C 175.88101196289062 151.8018798828125 226.32730102539062 150.74522399902344 252.99961853027344 178.40078735351562" fill="rgb(255, 167, 0)" opacity="0.5586281" stroke-width="2.0"/>
    <path d="M 41.12828826904297 188.8642578125 C 46.66918182373047 115.27941131591797 53.637699127197266 114.22867584228516 49.251712799072266 116.47692108154297 C 106.32388305664062 125.71424865722656 100.29500579833984 134.4231414794922 77.15789031982422 130.25137329101562 C 94.52802276611328 133.03350830078125 95.15513610839844 129.80706787109375 106.81622314453125 121.10415649414062 C 91.41214752197266 131.3869171142578 97.03314971923828 130.4097137451172 109.47183990478516 136.71115112304688 C 119.91199493408203 187.06594848632812 126.771484375 186.82504272460938 41.12828826904297 188.8642578125" fill="rgb(251, 188, 6)" opacity="0.9159037" stroke-width="2.0"/>
    <path d="M 178.6431884765625 161.83102416992188 C 184.35606384277344 139.43251037597656 175.91578674316406 190.29122924804688 175.54611206054688 110.15350341796875 C 234.48748779296875 108.04178619384766 240.99786376953125 122.43389129638672 238.80792236328125 181.04873657226562 C 187.6650390625 188.49171447753906 184.42626953125 192.99916076660156 178.6431884765625 161.83102416992188" fill="rgb(252, 189, 12)" opacity="0.90401554" stroke-width="2.0"/>
    <path d="M -6.073249816894531 180.80929565429688 C 2.392873525619507 135.33209228515625 23.43868637084961 125.44342041015625 34.15349197387695 132.60671997070312 C 24.511999130249023 130.30714416503906 34.53474807739258 129.29771423339844 56.604705810546875 160.13796997070312 C 31.725486755371094 160.57095336914062 42.51837921142578 133.4878387451172 62.721099853515625 167.9363250732422 C 56.50333786010742 175.6239776611328 36.58637619018555 172.37124633789062 -6.073249816894531 180.80929565429688" fill="rgb(250, 205, 103)" opacity="0.49889895" stroke-width="2.0"/>
    <path d="M 231.34298706054688 192.0853729248047 C 234.93026733398438 123.85546112060547 229.43328857421875 129.7165985107422 219.22412109375 127.90823364257812 C 166.88844299316406 122.89486694335938 181.7155303955078 119.721923828125 170.6046142578125 120.05862426757812 C 140.46034240722656 123.32533264160156 149.6232452392578 121.70160675048828 147.56582641601562 188.87428283691406 C 167.6761932373047 189.91123962402344 154.67822265625 153.7320098876953 144.6005859375 220.09048461914062 C 156.1115264892578 221.88131713867188 211.5515899658203 212.72531127929688 231.34298706054688 192.0853729248047" fill="rgb(251, 192, 21)" opacity="0.6335761" stroke-width="2.0"/>
    <path d="M 84.8645248413086 90.74229431152344 C 24.566211700439453 55.238059997558594 25.63529396057129 66.05962371826172 14.087206840515137 91.83256530761719 C 0.927044153213501 128.54342651367188 4.020557403564453 145.47970581054688 4.503987789154053 133.58270263671875 C 27.42844581604004 107.2974624633789 43.96365737915039 118.140869140625 84.8645248413086 90.74229431152344" fill="rgb(252, 187, 0)" opacity="0.8940781" stroke-width="2.0"/>
    <path d="M 83.60271453857422 46.669803619384766 C 21.079179763793945 58.355125427246094 32.6984748840332 62.970706939697266 24.610811233520508 75.65989685058594 C 28.897268295288086 72.07389831542969 34.98881912231445 74.07308959960938 52.022483825683594 76.83501434326172 C 39.92485427856445 67.71788787841797 29.535844802856445 63.44658660888672 24.28830337524414 74.76460266113281 C 19.48763656616211 69.2509536743164 30.32410430908203 68.3689956665039 78.8520278930664 88.85335540771484 C 70.25020599365234 101.37132263183594 79.51319122314453 108.69386291503906 83.60271453857422 46.669803619384766" fill="rgb(161, 220, 0)" opacity="0.22961728" stroke-width="2.0"/>
    <path d="M 66.05764770507812 119.30950927734375 C 68.5275650024414 87.62107849121094 69.33869171142578 87.62738800048828 61.05607604980469 71.80560302734375 C 116.20147705078125 79.3523941040039 138.74899291992188 80.33221435546875 144.90911865234375 87.68695831298828 C 140.91310119628906 139.58226013183594 141.18385314941406 138.61090087890625 66.05764770507812 119.30950927734375" fill="rgb(199, 155, 0)" opacity="0.24631839" stroke-width="2.0"/>
    <path d="M 69.66943359375 82.50840759277344 C 68.48835754394531 45.29387283325195 73.28860473632812 28.385181427001953 85.56023406982422 22.021514892578125 C 170.86532592773438 15.763742446899414 177.32276916503906 20.72146987915039 165.3047637939453 111.79749298095703 C 48.867591857910156 113.06912231445312 119.07052612304688 106.09644317626953 69.66943359375 82.50840759277344" fill="rgb(252, 194, 27)" opacity="0.9985417" stroke-width="2.0"/>
    <path d="M 40.73972702026367 210.9868621826172 C 43.484310150146484 210.680908203125 29.43984603881836 208.4854736328125 13.608949661254883 197.23545837402344 C -13.126508712768555 174.93722534179688 1.2049612998962402 163.37478637695312 70.90418243408203 176.40260314941406 C 89.67931365966797 223.3911590576172 95.86933135986328 225.99900817871094 40.73972702026367 210.9868621826172" fill="rgb(254, 196, 34)" opacity="0.27556401" stroke-width="2.0"/>
    <path d="M 187.67837524414062 98.2247543334961 C 249.7071990966797 125.12947082519531 242.4424591064453 148.14761352539062 245.05308532714844 157.2445526123047 C 187.29144287109375 158.48211669921875 188.4029998779297 177.89259338378906 233.80372619628906 190.21450805664062 C 246.85916137695312 175.8211212158203 243.78436279296875 136.365234375 236.71673583984375 132.38632202148438 C 242.16156005859375 158.1027374267578 230.8175506591797 147.69810485839844 212.05075073242188 139.6363983154297 C 186.31207275390625 147.4964141845703 179.74842834472656 124.60328674316406 187.67837524414062 98.2247543334961" fill="rgb(252, 197, 35)" opacity="0.32286382" stroke-width="2.0"/>
    <path d="M 179.37782287597656 216.17367553710938 C 231.30714416503906 203.9296417236328 238.73973083496094 185.30642700195312 238.93128967285156 177.27316284179688 C 219.94921875 180.31832885742188 187.85342407226562 188.56272888183594 171.07785034179688 124.82936096191406 C 221.8898468017578 153.0194091796875 226.6497802734375 160.2710418701172 192.89413452148438 136.20753479003906 C 177.0655059814453 139.9567413330078 210.4507293701172 126.20753479003906 157.08580017089844 122.86602783203125 C 153.56509399414062 191.64181518554688 155.63035583496094 202.8802947998047 179.37782287597656 216.17367553710938" fill="rgb(255, 193, 9)" opacity="0.36022606" stroke-width="2.0"/>
    <path d="M 81.22429656982422 123.00729370117188 C 112.52814483642578 100.6125717163086 44.5781135559082 88.34049987792969 188.12966918945312 89.0839614868164 C 175.98158264160156 164.04974365234375 171.0877685546875 169.1629180908203 171.86172485351562 156.25927734375 C 121.7547378540039 159.25863647460938 104.10154724121094 153.62716674804688 81.22429656982422 123.00729370117188" fill="rgb(252, 193, 26)" opacity="0.9766754" stroke-width="2.0"/>
    <path d="M 169.91815185546875 29.558870315551758 C 179.36814880371094 55.985069274902344 169.8561248779297 46.96438980102539 170.5746612548828 54.1088981628418 C 169.44740295410156 48.87303161621094 176.75680541992188 53.196189880371094 205.73272705078125 54.72219467163086 C 185.35147094726562 29.803850173950195 152.8984832763672 19.858734130859375 169.91815185546875 29.558870315551758" fill="rgb(255, 198, 12)" opacity="0.106139965" stroke-width="2.0"/>
    <path d="M 160.9884033203125 24.38064193725586 C 166.5973663330078 30.606664657592773 149.6051788330078 40.326290130615234 78.8281478881836 39.046600341796875 C 61.879791259765625 27.893115997314453 88.49817657470703 15.849132537841797 132.00015258789062 18.186107635498047 C 125.34744262695312 16.720125198364258 114.510986328125 15.83277702331543 111.51245880126953 17.030302047729492 C 112.59625244140625 16.542695999145508 110.88876342773438 17.7789249420166 113.14795684814453 16.398418426513672 C 109.57134246826172 18.940732955932617 109.76666259765625 11.364633560180664 160.9884033203125 24.38064193725586" fill="rgb(252, 194, 25)" opacity="0.7084173" stroke-width="2.0"/>
    <path d="M 23.771055221557617 47.94293212890625 C 23.09229278564453 57.920101165771484 23.875869750976562 47.14663314819336 23.683141708374023 51.25478744506836 C 23.93961524963379 49.79253387451172 23.498252868652344 53.008445739746094 23.687936782836914 48.949317932128906 C 23.35158348083496 56.37845993041992 22.532438278198242 60.3021125793457 26.037443161010742 49.85289001464844 C 22.649728775024414 59.843631744384766 23.268339157104492 57.32452392578125 23.771055221557617 47.94293212890625" fill="rgb(255, 141, 113)" opacity="0.26270348" stroke-width="2.0"/>
    <path d="M 86.65934753417969 33.502201080322266 C 86.03755187988281 49.30623245239258 79.08440399169922 49.12669372558594 68.6376724243164 34.495399475097656 C 100.04769134521484 14.962472915649414 80.1588134765625 17.510499954223633 75.94956970214844 50.14268112182617 C 96.6878433227539 43.059818267822266 71.1016616821289 26.594327926635742 111.28287506103516 33.36338806152344 C 115.2553482055664 40.557777404785156 114.53337860107422 27.200292587280273 86.65934753417969 33.502201080322266" fill="rgb(250, 194, 80)" opacity="0.33077842" stroke-width="2.0"/>
    <path d="M 93.6169204711914 150.8085479736328 C 163.0173797607422 157.48663330078125 172.07884216308594 144.5829315185547 179.73907470703125 170.6658477783203 C 180.40643310546875 215.53721618652344 180.5170135498047 216.85000610351562 177.50082397460938 215.23751831054688 C 158.47792053222656 220.4228057861328 167.8358612060547 218.98486328125 168.1239013671875 214.8898162841797 C 168.6570281982422 215.92013549804688 167.806396484375 222.40016174316406 114.48680114746094 221.43899536132812 C 87.20759582519531 218.5595703125 86.59800720214844 206.33145141601562 93.6169204711914 150.8085479736328" fill="rgb(254, 190, 11)" opacity="0.8049496" stroke-width="2.0"/>
    <path d="M 235.07513427734375 109.87744903564453 C 227.3061065673828 51.0833740234375 209.10592651367188 55.9214973449707 210.28860473632812 55.47066116333008 C 209.67564392089844 54.02393341064453 208.71034240722656 54.399723052978516 189.16993713378906 56.63898849487305 C 210.87705993652344 59.658321380615234 217.77581787109375 46.707191467285156 186.7587127685547 28.554487228393555 C 190.69039916992188 53.48055648803711 208.3525390625 56.419837951660156 199.1321563720703 61.12297058105469 C 197.8101348876953 53.73073959350586 188.66867065429688 70.39775848388672 235.07513427734375 109.87744903564453" fill="rgb(247, 209, 86)" opacity="0.0007463513" stroke-width="2.0"/>
    <path d="M 199.12644958496094 17.15128517150879 C 197.692138671875 16.90190315246582 199.95774841308594 17.518478393554688 199.09063720703125 16.06130599975586 C 199.46798706054688 17.2987060546875 198.42979431152344 16.52265167236328 198.92140197753906 16.567663192749023 C 198.6125030517578 16.854543685913086 198.16725158691406 17.525161743164062 199.12644958496094 17.15128517150879" fill="rgb(178, 255, 103)" opacity="0.6345401" stroke-width="2.0"/>
    <path d="M 169.51193237304688 218.00973510742188 C 154.5360565185547 218.48524475097656 153.41139221191406 232.73886108398438 155.82139587402344 152.9632568359375 C 235.03555297851562 161.90869140625 251.3918914794922 172.3992462158203 230.33319091796875 193.01116943359375 C 195.85781860351562 221.40695190429688 170.29478454589844 207.6548614501953 198.74497985839844 210.91587829589844 C 195.78749084472656 210.484619140625 197.39149475097656 210.55963134765625 195.868896484375 208.78431701660156 C 196.26629638671875 212.70538330078125 208.42694091796875 207.0779571533203 169.51193237304688 218.00973510742188" fill="rgb(251, 193, 26)" opacity="0.7813168" stroke-width="2.0"/>
    <path d="M 101.83721160888672 106.04462432861328 C 82.81847381591797 95.19375610351562 72.38622283935547 74.31329345703125 75.21531677246094 79.27922058105469 C 105.97537231445312 114.5145263671875 90.10638427734375 111.4866943359375 93.32156372070312 91.57217407226562 C 92.15687561035156 98.9649887084961 91.84597778320312 100.34331512451172 101.83721160888672 106.04462432861328" fill="rgb(255, 207, 57)" opacity="0.30117017" stroke-width="2.0"/>
    <path d="M 181.01791381835938 144.0814208984375 C 177.90321350097656 217.59161376953125 171.3357696533203 223.54949951171875 105.35039520263672 221.84278869628906 C 80.09248352050781 219.0072021484375 76.32308959960938 226.77247619628906 80.53642272949219 162.4473419189453 C 98.9934310913086 138.9420166015625 163.7782745361328 132.604736328125 181.01791381835938 144.0814208984375" fill="rgb(251, 193, 26)" opacity="0.9121193" stroke-width="2.0"/>
    <path d="M 46.48709487915039 105.47776794433594 C 29.274852752685547 112.848876953125 34.73575210571289 118.81855773925781 38.718475341796875 108.79207611083984 C 40.82833480834961 121.88270568847656 44.30549621582031 129.27853393554688 70.18392944335938 118.13407135009766 C 60.261009216308594 87.1418685913086 62.29494094848633 93.64501953125 64.28203582763672 100.51581573486328 C 37.449214935302734 114.51480865478516 43.20173645019531 112.1579818725586 46.48709487915039 105.47776794433594" fill="rgb(164, 136, 75)" opacity="0.42340422" stroke-width="2.0"/>
    <path d="M 58.09443664550781 174.836669921875 C 78.84485626220703 155.28298950195312 130.30064392089844 131.37525939941406 181.8048553466797 174.1521453857422 C 183.95944213867188 210.71681213378906 140.24842834472656 116.59720611572266 55.709320068359375 190.16847229003906 C 68.2938003540039 109.75990295410156 73.94512939453125 123.14229583740234 58.09443664550781 174.836669921875" fill="rgb(33, 37, 48)" opacity="0.93193656" stroke-width="2.0"/>
    <path d="M 24.672407150268555 67.63188171386719 C 42.60117721557617 40.78047180175781 62.19507598876953 24.61115837097168 100.7660140991211 18.05931282043457 C 89.46162414550781 56.01968765258789 70.19339752197266 57.69402313232422 60.38127517700195 71.59989166259766 C 59.379302978515625 36.03184127807617 59.6639404296875 34.4686279296875 60.09716033935547 61.7832145690918 C 68.12904357910156 70.83506774902344 36.15937042236328 74.7086181640625 24.672407150268555 67.63188171386719" fill="rgb(254, 195, 17)" opacity="0.022278043" stroke-width="2.0"/>
    <path d="M 102.07142639160156 238.3090362548828 C 102.0323257446289 238.7978057861328 101.33704376220703 237.28111267089844 100.47732543945312 241.0631866455078 C 101.7573471069336 236.10848999023438 102.86811828613281 239.58607482910156 101.90011596679688 238.2780303955078 C 102.1606216430664 238.10621643066406 101.98807525634766 238.13836669921875 102.07142639160156 238.3090362548828" fill="rgb(152, 146, 106)" opacity="0.23262152" stroke-width="2.0"/>
    <path d="M 24.33022689819336 74.14690399169922 C 76.7977294921875 96.1765365600586 84.56707763671875 127.38194274902344 83.70255279541016 22.999216079711914 C 11.900774955749512 46.90283203125 26.449838638305664 103.33114624023438 21.568029403686523 75.37797546386719 C 37.31308364868164 48.1502799987793 37.3591423034668 56.93323516845703 24.33022689819336 74.14690399169922" fill="rgb(251, 193, 26)" opacity="0.95939136" stroke-width="2.0"/>
    <path d="M 43.85835266113281 158.56607055664062 C 37.672523498535156 174.9247589111328 39.06682586669922 211.89793395996094 49.76256561279297 212.9666748046875 C 94.1496353149414 224.76480102539062 119.90332794189453 221.32093811035156 125.92180633544922 214.98751831054688 C 127.0999984741211 163.77171325683594 117.91339111328125 198.1960906982422 59.842010498046875 182.1754608154297 C 48.12934494018555 164.94300842285156 41.299461364746094 163.2982635498047 43.85835266113281 158.56607055664062" fill="rgb(252, 194, 26)" opacity="0.99011827" stroke-width="2.0"/>
    <path d="M 104.59708404541016 9.896682739257812 C 103.80209350585938 16.177684783935547 89.04230499267578 2.788581132888794 79.39071655273438 34.59262466430664 C 95.47998809814453 46.533416748046875 103.25675201416016 29.01675796508789 63.806617736816406 33.576290130615234 C 77.896728515625 -7.2155303955078125 120.94969177246094 11.39755916595459 104.5113525390625 7.69464111328125 C 105.38926696777344 10.943678855895996 104.68834686279297 8.24631404876709 104.59708404541016 9.896682739257812" fill="rgb(153, 197, 76)" opacity="0.003922824" stroke-width="2.0"/>
    <path d="M 155.4545135498047 -1.027315378189087 C 156.79010009765625 -1.634440302848816 157.47972106933594 -0.914082944393158 155.96229553222656 -2.664994478225708 C 155.9974365234375 0.4497329294681549 157.2855224609375 0.5305814743041992 155.84703063964844 -5.946271896362305 C 158.52291870117188 0.7358202934265137 155.6858367919922 -0.6482781171798706 154.80299377441406 -9.117232322692871 C 156.3822021484375 -13.183625221252441 156.03924560546875 -10.28531265258789 155.4545135498047 -1.027315378189087" fill="rgb(131, 147, 116)" opacity="0.6928924" stroke-width="2.0"/>
    <path d="M 0.3468036651611328 178.45025634765625 C 72.06594848632812 180.8468475341797 57.62797164916992 170.61013793945312 74.90167236328125 157.7255096435547 C 83.502685546875 163.22792053222656 78.07870483398438 152.31105041503906 62.74509048461914 101.4596176147461 C 15.386739730834961 93.85095977783203 0.42063671350479126 100.29987335205078 0.3468036651611328 178.45025634765625" fill="rgb(251, 193, 26)" opacity="0.999146" stroke-width="2.0"/>
    <path d="M 169.78411865234375 222.4469757080078 C 146.43032836914062 220.1526336669922 147.98179626464844 207.93324279785156 145.8969268798828 225.67831420898438 C 174.2509307861328 213.12261962890625 172.91473388671875 207.49632263183594 157.19725036621094 196.59019470214844 C 159.00399780273438 196.3706512451172 171.6888885498047 198.97201538085938 169.78411865234375 222.4469757080078" fill="rgb(225, 204, 88)" opacity="0.0075199413" stroke-width="2.0"/>
    <path d="M 232.60147094726562 16.688940048217773 C 233.48455810546875 16.391889572143555 233.57427978515625 16.980897903442383 233.77804565429688 15.953890800476074 C 233.75921630859375 17.061784744262695 232.4581756591797 15.80521011352539 232.85313415527344 17.564651489257812 C 232.4821014404297 16.218090057373047 233.3126678466797 17.133642196655273 232.60147094726562 16.688940048217773" fill="rgb(61, 174, 255)" opacity="0.25688973" stroke-width="2.0"/>
    <path d="M 218.8954620361328 51.96770095825195 C 221.51959228515625 53.22308349609375 224.59048461914062 53.53903579711914 228.3612823486328 55.06010437011719 C 226.11456298828125 54.272281646728516 216.55352783203125 50.96589660644531 225.2879180908203 55.17015838623047 C 223.0042724609375 53.310089111328125 221.62557983398438 58.428401947021484 225.57276916503906 51.94478988647461 C 221.1229248046875 57.496952056884766 228.58815002441406 55.664878845214844 218.8954620361328 51.96770095825195" fill="rgb(201, 128, 36)" opacity="0.009316409" stroke-width="2.0"/>
    <path d="M 162.62982177734375 124.24884796142578 C 134.9439697265625 116.30974578857422 157.6970672607422 75.02742767333984 160.56480407714844 99.1159896850586 C 159.0525665283203 87.40125274658203 154.09193420410156 94.82083892822266 177.20469665527344 102.20136260986328 C 172.1094970703125 137.65518188476562 196.55056762695312 112.6697998046875 162.62982177734375 124.24884796142578" fill="rgb(47, 47, 46)" opacity="0.9984291" stroke-width="2.0"/>
    <path d="M 33.348670959472656 198.4987030029297 C 33.71498107910156 199.339111328125 33.970767974853516 200.87745666503906 31.95779037475586 193.65667724609375 C 31.208406448364258 190.445068359375 30.35965347290039 186.35888671875 31.44562339782715 191.4385528564453 C 30.372756958007812 186.43357849121094 30.572324752807617 187.09417724609375 26.921506881713867 186.09835815429688 C 32.075592041015625 187.45745849609375 29.54421615600586 186.2343292236328 33.348670959472656 198.4987030029297" fill="rgb(95, 177, 151)" opacity="0.15981694" stroke-width="2.0"/>
    <path d="M 5.374086856842041 143.00001525878906 C -5.395132064819336 148.3634796142578 -2.529309034347534 116.42778015136719 27.327266693115234 61.94022750854492 C 34.12312698364258 130.8579559326172 -1.2516924142837524 127.5888671875 -8.065556526184082 135.14756774902344 C -10.810271263122559 167.59532165527344 -8.248029708862305 155.6621551513672 -8.250886917114258 172.6058807373047 C 7.558202743530273 165.69192504882812 11.34586238861084 118.05215454101562 -4.400940895080566 127.23704528808594 C -14.313002586364746 153.3678436279297 -2.699143886566162 144.09706115722656 5.374086856842041 143.00001525878906" fill="rgb(253, 205, 89)" opacity="0.018262919" stroke-width="2.0"/>
    <path d="M 68.12725067138672 101.85868835449219 C 31.99170684814453 85.68106842041016 72.38986206054688 62.755531311035156 68.73136138916016 71.61647033691406 C 118.30282592773438 111.91995239257812 22.42593002319336 108.40191650390625 69.9956283569336 72.95030975341797 C 90.8277816772461 87.0771713256836 90.82958221435547 121.10845184326172 81.02106475830078 123.27741241455078 C 62.18245315551758 129.0559539794922 57.727012634277344 95.59928894042969 68.12725067138672 101.85868835449219" fill="rgb(45, 45, 46)" opacity="0.92580456" stroke-width="2.0"/>
    <path d="M 221.98690795898438 199.3625946044922 C 226.520263671875 209.1826934814453 231.7955322265625 206.96414184570312 237.21340942382812 193.48159790039062 C 211.07373046875 203.50294494628906 211.33041381835938 213.5016632080078 209.39312744140625 203.32919311523438 C 213.8426971435547 200.27146911621094 214.41241455078125 199.34793090820312 209.44473266601562 201.3717498779297 C 209.7334442138672 211.58969116210938 228.04371643066406 198.39161682128906 249.16647338867188 186.57479858398438 C 242.63418579101562 169.872802734375 241.77798461914062 174.15538024902344 221.98690795898438 199.3625946044922" fill="rgb(207, 201, 186)" opacity="0.0" stroke-width="2.0"/>
    <path d="M 207.83523559570312 45.26070785522461 C 208.70518493652344 45.95537185668945 205.72604370117188 44.49489974975586 207.298828125 39.03136444091797 C 208.6056671142578 50.654972076416016 207.7960205078125 38.7585563659668 204.93179321289062 31.74042510986328 C 204.92312622070312 32.69603729248047 203.6849822998047 25.76429557800293 204.03106689453125 29.004507064819336 C 207.93634033203125 31.27889060974121 201.70748901367188 26.735069274902344 207.83523559570312 45.26070785522461" fill="rgb(118, 200, 35)" opacity="0.0" stroke-width="2.0"/>
    <path d="M 27.87662696838379 122.20172882080078 C 47.666053771972656 112.1017837524414 57.196258544921875 96.19538116455078 45.05013656616211 110.90825653076172 C 36.17026901245117 115.36196899414062 30.395008087158203 121.4013900756836 12.737068176269531 131.34600830078125 C 2.327317476272583 146.87025451660156 4.998400688171387 144.36749267578125 8.36760425567627 138.03244018554688 C 11.335179328918457 128.44528198242188 32.464149475097656 122.10100555419922 43.849788665771484 111.38890075683594 C 38.34679412841797 114.50423431396484 31.721315383911133 119.26853942871094 27.87662696838379 122.20172882080078" fill="rgb(229, 175, 50)" opacity="0.37701514" stroke-width="2.0"/>
    <path d="M 15.26474666595459 205.61801147460938 C 9.1585054397583 213.6000213623047 7.5577921867370605 202.68386840820312 6.543206691741943 204.2987060546875 C 5.528151512145996 208.22369384765625 11.472625732421875 206.87283325195312 12.791203498840332 210.1416473388672 C 1.8828133344650269 204.31228637695312 7.822178363800049 209.40647888183594 4.666339874267578 209.89125061035156 C 7.024215221405029 207.8602294921875 10.5135498046875 204.19361877441406 5.810781478881836 204.67347717285156 C 10.29013442993164 212.39862060546875 13.877307891845703 207.47921752929688 15.26474666595459 205.61801147460938" fill="rgb(39, 70, 231)" opacity="3.2216113e-07" stroke-width="2.0"/>
    <path d="M 188.7515869140625 80.90052032470703 C 171.81170654296875 153.0645294189453 119.49175262451172 126.76349639892578 235.35104370117188 131.45042419433594 C 229.7164306640625 55.52952575683594 168.3600311279297 113.83460998535156 158.3009033203125 23.931781768798828 C 185.5036163330078 31.042341232299805 217.2176513671875 56.42916488647461 230.68478393554688 107.41654968261719 C 221.45138549804688 89.08464813232422 208.84317016601562 85.87967681884766 188.7515869140625 80.90052032470703" fill="rgb(252, 193, 26)" opacity="0.9928977" stroke-width="2.0"/>
    <path d="M 16.011672973632812 213.32688903808594 C 19.323518753051758 215.38941955566406 14.990399360656738 214.99383544921875 16.707868576049805 215.04248046875 C 14.308635711669922 215.0594482421875 17.854259490966797 214.98043823242188 14.92507553100586 215.18081665039062 C 16.244722366333008 214.92074584960938 18.904190063476562 215.1509552001953 16.011672973632812 213.32688903808594" fill="rgb(246, 127, 81)" opacity="0.15294681" stroke-width="2.0"/>
  </g>
</svg>
