<?xml version="1.0" ?>
<svg height="240" version="1.1" width="240" xmlns="http://www.w3.org/2000/svg">
  <defs/>
  <g>
    <path d="M 157.77023315429688 23.439722061157227 C 247.33045959472656 50.3172721862793 256.3234558105469 52.99214172363281 149.7721710205078 21.106199264526367 C 68.08525848388672 5.389307498931885 -9.405583381652832 47.18648910522461 0.7766162157058716 210.84078979492188 C 186.68499755859375 244.0970001220703 241.8651123046875 195.3230438232422 239.7833251953125 175.14599609375 C 238.94357299804688 86.17847442626953 204.0575714111328 37.1583366394043 157.77023315429688 23.439722061157227" fill="rgb(251, 186, 0)" opacity="0.8930424" stroke-width="2.0"/>
    <path d="M -15.014894485473633 175.5515594482422 C -4.368781089782715 199.47784423828125 -4.970557689666748 195.5526123046875 -30.283578872680664 222.1908721923828 C 182.28517150878906 220.806396484375 93.50706481933594 225.5876922607422 56.51173400878906 214.82614135742188 C -6.275434494018555 198.95062255859375 -0.988341748714447 173.2705841064453 1.128021001815796 169.0615234375 C -14.782267570495605 208.93380737304688 1.17258882522583 196.95895385742188 -15.014894485473633 175.5515594482422" fill="rgb(255, 255, 255)" opacity="0.9922711" stroke-width="2.0"/>
    <path d="M 86.34552764892578 114.863525390625 C 98.64212036132812 105.09101104736328 94.92193603515625 88.30036926269531 86.8000717163086 83.09883880615234 C 76.92475891113281 75.892578125 63.2374382019043 84.3622817993164 63.76599884033203 99.81466674804688 C 64.98932647705078 114.23033142089844 77.86856079101562 121.23507690429688 87.55812072753906 113.9720687866211 C 86.83695220947266 115.35807800292969 87.89186096191406 112.01826477050781 86.34552764892578 114.863525390625" fill="rgb(4, 16, 50)" opacity="0.81998587" stroke-width="2.0"/>
    <path d="M 168.4801788330078 115.06295776367188 C 181.71702575683594 106.08521270751953 178.41378784179688 86.81961059570312 167.2801055908203 81.54281616210938 C 160.1031494140625 78.0590591430664 148.44654846191406 81.92152404785156 146.52944946289062 96.64102935791016 C 145.5942840576172 109.76831817626953 155.85308837890625 119.7359619140625 166.34906005859375 115.90281677246094 C 169.34031677246094 114.7178726196289 176.7027130126953 108.9415283203125 168.4801788330078 115.06295776367188" fill="rgb(0, 13, 51)" opacity="0.81585485" stroke-width="2.0"/>
    <path d="M 171.0829620361328 147.7609100341797 C 96.50193786621094 147.65484619140625 61.4622688293457 147.76776123046875 72.79910278320312 147.61305236816406 C 64.9380111694336 147.3018798828125 64.03324127197266 158.15048217773438 71.75424194335938 158.5463409423828 C 65.38121795654297 158.8909912109375 60.08092498779297 158.97579956054688 154.80661010742188 159.0442352294922 C 161.243408203125 158.36256408691406 181.12396240234375 162.45010375976562 171.0829620361328 147.7609100341797" fill="rgb(0, 14, 51)" opacity="0.81183547" stroke-width="2.0"/>
  </g>
</svg>
