<?xml version="1.0" ?>
<svg height="240" version="1.1" width="240" xmlns="http://www.w3.org/2000/svg">
  <defs/>
  <g>
    <path d="M 237.0260772705078 141.1453857421875 C 219.284423828125 9.690666198730469 128.4072265625 16.167667388916016 98.05146026611328 20.18265151977539 C 15.269710540771484 33.87299346923828 0.6409656405448914 124.41300964355469 0.9543854594230652 177.33285522460938 C 9.965262413024902 222.33155822753906 154.8322296142578 238.13204956054688 220.82395935058594 199.6732635498047 C 242.83628845214844 184.03858947753906 240.22256469726562 179.8485565185547 237.0260772705078 141.1453857421875" fill="rgb(249, 188, 0)" opacity="0.87820745" stroke="rgb(212, 155, 35)" stroke-linecap="round" stroke-linejoin="round" stroke-opacity="0.8366838" stroke-width="0.0"/>
    <path d="M 167.5407257080078 147.66798400878906 C 176.74588012695312 147.73133850097656 173.491943359375 147.54188537597656 71.84909057617188 147.7014617919922 C 64.58109283447266 148.06809997558594 64.2580795288086 158.53546142578125 71.66053771972656 158.7359619140625 C 54.468727111816406 158.94236755371094 103.64594268798828 159.0340576171875 168.0047607421875 158.8856201171875 C 176.47100830078125 159.0527801513672 174.9082794189453 147.6885528564453 167.5407257080078 147.66798400878906" fill="rgb(41, 42, 48)" opacity="0.9650529" stroke="rgb(217, 46, 85)" stroke-linecap="round" stroke-linejoin="round" stroke-opacity="0.7722026" stroke-width="0.0"/>
    <path d="M 105.6950454711914 98.92922973632812 C 101.19164276123047 90.7599868774414 106.00247955322266 93.38253021240234 71.9014663696289 92.90235900878906 C 68.21817779541016 93.3985366821289 60.60299301147461 90.69376373291016 60.776527404785156 99.97996520996094 C 64.12777709960938 105.98270416259766 59.29854202270508 103.81350708007812 100.49270629882812 104.14849853515625 C 109.92440032958984 101.66339874267578 101.99308776855469 91.14582824707031 105.6950454711914 98.92922973632812" fill="rgb(46, 45, 46)" opacity="1.0" stroke="rgb(6, 232, 219)" stroke-linecap="round" stroke-linejoin="round" stroke-opacity="0.46095186" stroke-width="0.0"/>
    <path d="M 179.72093200683594 99.37364959716797 C 179.14736938476562 91.54524993896484 172.65371704101562 93.42377471923828 171.4219512939453 92.83828735351562 C 134.16937255859375 93.35369110107422 139.02191162109375 91.68600463867188 135.07774353027344 96.13331604003906 C 133.48532104492188 99.64107513427734 136.14732360839844 103.98077392578125 140.79661560058594 104.12947082519531 C 179.90774536132812 103.79273223876953 176.72056579589844 106.06163787841797 179.72093200683594 99.37364959716797" fill="rgb(47, 47, 46)" opacity="1.0" stroke="rgb(126, 160, 38)" stroke-linecap="round" stroke-linejoin="round" stroke-opacity="0.04373782" stroke-width="0.0"/>
  </g>
</svg>
