<?xml version="1.0" ?>
<svg height="240" version="1.1" width="240" xmlns="http://www.w3.org/2000/svg">
  <defs/>
  <g>
    <path d="M 238.07489013671875 145.2559356689453 C 221.9838104248047 9.908878326416016 129.31361389160156 14.871383666992188 96.102294921875 20.157669067382812 C 16.611461639404297 34.32345199584961 0.02577277645468712 119.94358825683594 0.315614253282547 177.04258728027344 C 7.226702690124512 221.02099609375 148.44671630859375 239.13511657714844 218.7750701904297 201.561767578125 C 244.35560607910156 185.07305908203125 240.1331329345703 179.02247619628906 238.07489013671875 145.2559356689453" fill="rgb(253, 185, 0)" opacity="0.89004564" stroke="rgb(96, 214, 36)" stroke-linecap="round" stroke-linejoin="round" stroke-opacity="0.6505888" stroke-width="0.0"/>
    <path d="M 165.86521911621094 183.04000854492188 C 189.8056640625 181.7465362548828 153.34873962402344 150.5633544921875 127.1517105102539 149.94387817382812 C 88.65013122558594 144.11529541015625 48.6873664855957 183.99208068847656 74.56385040283203 182.75860595703125 C 95.80425262451172 157.22714233398438 122.3404541015625 162.10455322265625 111.5782699584961 161.05056762695312 C 111.76034545898438 162.1617889404297 141.29014587402344 153.97549438476562 165.86521911621094 183.04000854492188" fill="rgb(1, 14, 50)" opacity="0.80941814" stroke="rgb(125, 234, 45)" stroke-linecap="round" stroke-linejoin="round" stroke-opacity="0.7170624" stroke-width="0.0"/>
    <path d="M 94.2055435180664 112.5332260131836 C 94.5374526977539 102.42080688476562 87.14688873291016 95.19100952148438 88.09839630126953 99.02305603027344 C 66.80703735351562 114.00626373291016 62.296146392822266 99.94763946533203 64.05569458007812 117.3112564086914 C 65.14436340332031 124.5774154663086 71.13725280761719 132.59120178222656 79.56212615966797 131.4910430908203 C 87.08451843261719 131.13983154296875 94.11487579345703 123.2724380493164 94.2055435180664 112.5332260131836" fill="rgb(36, 39, 47)" opacity="0.9413904" stroke="rgb(80, 156, 69)" stroke-linecap="round" stroke-linejoin="round" stroke-opacity="0.3753419" stroke-width="0.0"/>
    <path d="M 176.2700958251953 107.96752166748047 C 182.74887084960938 107.5887222290039 162.27328491210938 108.11436462402344 152.4285430908203 98.006103515625 C 151.81301879882812 98.38021087646484 146.0203857421875 104.14067840576172 146.8245849609375 114.59933471679688 C 147.67166137695312 125.33753204345703 156.02334594726562 133.69146728515625 165.20977783203125 131.3779296875 C 172.61993408203125 129.83889770507812 179.0575408935547 119.52326965332031 176.2700958251953 107.96752166748047" fill="rgb(40, 42, 47)" opacity="0.9629275" stroke="rgb(142, 159, 205)" stroke-linecap="round" stroke-linejoin="round" stroke-opacity="0.4836226" stroke-width="0.0"/>
  </g>
</svg>
