<?xml version="1.0" ?>
<svg height="240" version="1.1" width="240" xmlns="http://www.w3.org/2000/svg">
  <defs/>
  <g>
    <path d="M 232.80633544921875 113.5985336303711 C 228.33645629882812 101.09484100341797 213.39321899414062 19.21748161315918 124.82553100585938 16.31008529663086 C 67.59756469726562 13.85951042175293 -7.844141006469727 44.460811614990234 0.1606673151254654 205.99520874023438 C 219.59481811523438 251.58322143554688 244.5984344482422 168.5653839111328 234.7101287841797 185.9720458984375 C 249.7090606689453 173.0959014892578 221.31602478027344 64.77888488769531 232.80633544921875 113.5985336303711" fill="rgb(251, 186, 0)" opacity="0.89290464" stroke-width="2.0"/>
    <path d="M -120.34705352783203 193.99794006347656 C 42.29143142700195 228.96942138671875 -33.4778938293457 209.16522216796875 97.56181335449219 219.4180145263672 C 7.260867118835449 211.0720672607422 1.5716578960418701 178.57225036621094 2.783529043197632 183.14662170410156 C -2.788160562515259 173.50637817382812 1.3762805461883545 163.57308959960938 -4.367403507232666 135.59107971191406 C -17.227474212646484 173.25775146484375 -4.786825180053711 182.0100555419922 -120.34705352783203 193.99794006347656" fill="rgb(255, 255, 255)" opacity="0.98503" stroke-width="2.0"/>
    <path d="M 105.68637084960938 97.86597442626953 C 97.68914031982422 108.14726257324219 103.34830474853516 106.40541076660156 60.68195724487305 87.81473541259766 C 65.59024810791016 92.5597152709961 57.00728225708008 82.08177947998047 55.468902587890625 97.11092376708984 C 53.19150161743164 125.83511352539062 92.67180633544922 134.71803283691406 105.4236068725586 113.66726684570312 C 100.31289672851562 122.63765716552734 114.94159698486328 101.20323181152344 105.68637084960938 97.86597442626953" fill="rgb(2, 15, 51)" opacity="0.8177877" stroke-width="2.0"/>
    <path d="M 183.7048797607422 94.70986938476562 C 182.58627319335938 82.68505096435547 168.12237548828125 93.193115234375 182.52267456054688 86.23455047607422 C 135.73464965820312 106.54630279541016 141.7934112548828 108.04558563232422 133.92335510253906 97.72572326660156 C 126.44391632080078 99.6192855834961 133.17613220214844 117.36615753173828 141.1559600830078 120.93975830078125 C 158.98696899414062 132.5045166015625 188.05963134765625 120.14057922363281 183.7048797607422 94.70986938476562" fill="rgb(21, 29, 49)" opacity="0.8902854" stroke-width="2.0"/>
    <path d="M 164.6876220703125 173.44287109375 C 182.7427978515625 171.83860778808594 167.54627990722656 156.16119384765625 144.52218627929688 146.8938751220703 C 102.55379486083984 133.09896850585938 71.02870178222656 157.66937255859375 66.26383209228516 167.48318481445312 C 72.33145141601562 182.88217163085938 78.04564666748047 165.85337829589844 93.55355834960938 159.67434692382812 C 115.02726745605469 149.9460906982422 144.99839782714844 152.0196990966797 164.6876220703125 173.44287109375" fill="rgb(2, 15, 51)" opacity="0.81010777" stroke-width="2.0"/>
  </g>
</svg>
