<?xml version="1.0" ?>
<svg height="240" version="1.1" width="240" xmlns="http://www.w3.org/2000/svg">
  <defs/>
  <g>
    <path d="M 234.20608520507812 120.25484466552734 C 244.79432678222656 185.05543518066406 244.4103546142578 190.4541473388672 203.25881958007812 209.13345336914062 C 123.62631225585938 237.35987854003906 4.810413360595703 216.5364532470703 0.17079921066761017 176.5778350830078 C 0.39253443479537964 109.059814453125 21.38219451904297 40.95671463012695 84.94341278076172 22.49397087097168 C 135.91017150878906 10.191104888916016 211.60487365722656 17.5526180267334 234.20608520507812 120.25484466552734" fill="rgb(252, 187, 0)" opacity="0.8859483" stroke="rgb(139, 133, 247)" stroke-linecap="round" stroke-linejoin="round" stroke-opacity="0.39727753" stroke-width="0.0"/>
    <path d="M 93.83663177490234 104.45887756347656 C 93.57008361816406 113.89930725097656 87.04376983642578 122.5331039428711 77.55581665039062 121.95915985107422 C 69.69661712646484 121.2491226196289 64.39505767822266 113.78619384765625 63.494754791259766 106.46062469482422 C 62.134765625 95.73849487304688 68.94075775146484 85.66178131103516 78.38398742675781 85.69825744628906 C 87.06929016113281 85.56304168701172 94.02256774902344 94.07759094238281 93.83663177490234 104.45887756347656" fill="rgb(40, 42, 47)" opacity="0.96472496" stroke="rgb(177, 37, 97)" stroke-linecap="round" stroke-linejoin="round" stroke-opacity="0.99341536" stroke-width="0.0"/>
    <path d="M 136.6006317138672 166.4230499267578 C 140.14053344726562 180.01309204101562 132.99537658691406 187.23960876464844 120.21342468261719 187.3829803466797 C 106.95636749267578 187.34478759765625 101.92567443847656 180.35540771484375 102.51296997070312 171.0848846435547 C 103.26807403564453 161.37733459472656 110.34814453125 151.3987579345703 118.23976135253906 150.2475128173828 C 126.14918518066406 149.03909301757812 133.7272186279297 156.08181762695312 136.6006317138672 166.4230499267578" fill="rgb(236, 104, 48)" opacity="0.96032244" stroke="rgb(125, 200, 80)" stroke-linecap="round" stroke-linejoin="round" stroke-opacity="0.124072835" stroke-width="0.0"/>
    <path d="M 176.56170654296875 103.274169921875 C 176.6387481689453 112.4725112915039 171.31082153320312 121.1860122680664 162.7007293701172 121.93607330322266 C 154.0098114013672 122.75680541992188 146.5843048095703 114.48287200927734 146.0844268798828 105.2142333984375 C 145.62661743164062 94.68357849121094 152.57029724121094 84.78784942626953 162.75277709960938 85.66578674316406 C 170.326904296875 86.47652435302734 176.36927795410156 93.64115142822266 176.56170654296875 103.274169921875" fill="rgb(40, 42, 47)" opacity="0.96333325" stroke="rgb(99, 31, 175)" stroke-linecap="round" stroke-linejoin="round" stroke-opacity="0.81718034" stroke-width="0.0"/>
  </g>
</svg>
