<?xml version="1.0" ?>
<svg height="240" version="1.1" width="240" xmlns="http://www.w3.org/2000/svg">
  <defs/>
  <g>
    <path d="M 234.00265502929688 119.87269592285156 C 244.6072235107422 186.11550903320312 240.64788818359375 187.4575958251953 208.677490234375 204.59536743164062 C 131.51651000976562 236.05142211914062 5.094139099121094 216.0536346435547 -0.09340205788612366 174.59042358398438 C 0.3159278333187103 101.63572692871094 24.24509620666504 36.47841262817383 87.24994659423828 19.960983276367188 C 140.80734252929688 8.35525894165039 212.48292541503906 19.147459030151367 234.00265502929688 119.87269592285156" fill="rgb(252, 187, 0)" opacity="0.88658637" stroke="rgb(118, 180, 155)" stroke-linecap="round" stroke-linejoin="round" stroke-opacity="0.17816564" stroke-width="0.0"/>
    <path d="M 147.63121032714844 169.20849609375 C 146.97116088867188 188.25399780273438 134.6831512451172 197.4275360107422 114.43451690673828 195.1868133544922 C 96.9795150756836 192.7891082763672 89.5004653930664 178.83782958984375 93.28947448730469 156.9211883544922 C 96.5993423461914 139.24111938476562 107.87007904052734 126.74980163574219 125.21559143066406 130.02633666992188 C 139.40455627441406 132.90931701660156 148.12762451171875 149.15066528320312 147.63121032714844 169.20849609375" fill="rgb(236, 104, 48)" opacity="0.95729953" stroke="rgb(121, 22, 22)" stroke-linecap="round" stroke-linejoin="round" stroke-opacity="0.8848921" stroke-width="0.0"/>
    <path d="M 94.29337310791016 97.84251403808594 C 93.90489959716797 106.65521240234375 87.69732666015625 114.35443878173828 80.13992309570312 114.9194107055664 C 70.5765609741211 115.7093276977539 63.59850311279297 106.37751007080078 63.72671127319336 96.27278137207031 C 63.5710334777832 87.30032348632812 70.064208984375 78.43230438232422 79.0438003540039 78.49956512451172 C 87.50758361816406 78.61495208740234 94.59859466552734 86.87892150878906 94.29337310791016 97.84251403808594" fill="rgb(41, 43, 47)" opacity="0.9692489" stroke="rgb(247, 229, 132)" stroke-linecap="round" stroke-linejoin="round" stroke-opacity="0.45776862" stroke-width="0.0"/>
    <path d="M 176.92819213867188 95.20844268798828 C 177.62818908691406 104.81556701660156 171.81552124023438 114.68790435791016 161.86900329589844 114.90345001220703 C 152.97573852539062 114.9369125366211 145.96136474609375 106.19158935546875 146.65145874023438 95.13675689697266 C 147.36260986328125 86.49310302734375 152.96371459960938 78.61541748046875 162.1629638671875 78.43560791015625 C 169.87014770507812 78.98942565917969 175.88352966308594 85.67791748046875 176.92819213867188 95.20844268798828" fill="rgb(41, 42, 47)" opacity="0.9662485" stroke="rgb(188, 140, 146)" stroke-linecap="round" stroke-linejoin="round" stroke-opacity="0.97377133" stroke-width="0.0"/>
  </g>
</svg>
