<?xml version="1.0" ?>
<svg height="240" version="1.1" width="240" xmlns="http://www.w3.org/2000/svg">
  <defs/>
  <g>
    <path d="M 25.099328994750977 24.37901496887207 C 23.76767349243164 25.629798889160156 24.501041412353516 24.97701644897461 24.740110397338867 24.66457176208496 C 17.238187789916992 32.126338958740234 14.980005264282227 35.31085205078125 19.666519165039062 34.22854232788086 C 18.43753433227539 34.52948760986328 16.063770294189453 34.26856994628906 21.06614112854004 34.65287399291992 C 18.17123794555664 34.108421325683594 12.286828994750977 36.61923599243164 25.099328994750977 24.37901496887207" fill="rgb(255, 70, 134)" opacity="0.3093039" stroke-width="2.0"/>
    <path d="M 47.076759338378906 222.30120849609375 C 42.28180694580078 221.81173706054688 49.09217071533203 222.73532104492188 43.76113510131836 222.0343017578125 C 48.41422653198242 222.6364288330078 45.006065368652344 221.82373046875 40.09878158569336 222.17718505859375 C 31.79140281677246 223.2624969482422 35.62403869628906 223.214111328125 37.90532302856445 222.17869567871094 C 33.39641189575195 223.89584350585938 37.9184684753418 221.2958984375 47.076759338378906 222.30120849609375" fill="rgb(77, 255, 48)" opacity="0.11433641" stroke-width="2.0"/>
    <path d="M 67.71737670898438 134.52357482910156 C 70.76014709472656 105.23477935791016 88.3169937133789 108.57490539550781 93.71686553955078 115.50115203857422 C 77.05625915527344 105.84317779541016 93.60381317138672 94.64097595214844 182.64341735839844 97.06140899658203 C 178.83518981933594 174.45358276367188 169.00210571289062 173.04151916503906 157.35604858398438 164.38339233398438 C 100.97489929199219 169.41041564941406 107.50469970703125 166.38121032714844 67.71737670898438 134.52357482910156" fill="rgb(247, 193, 51)" opacity="1.0" stroke-width="2.0"/>
    <path d="M 232.03663635253906 129.16506958007812 C 207.1792755126953 141.9273223876953 180.43972778320312 133.97592163085938 150.57180786132812 114.820556640625 C 158.6595458984375 119.75071716308594 191.0516357421875 140.70596313476562 175.75115966796875 115.7740478515625 C 152.6027374267578 106.9316177368164 144.6099395751953 118.93806457519531 144.02821350097656 98.54695892333984 C 204.73077392578125 86.9214096069336 217.8336181640625 72.42677307128906 232.03663635253906 129.16506958007812" fill="rgb(156, 70, 28)" opacity="0.7298019" stroke-width="2.0"/>
    <path d="M 166.22023010253906 113.03374481201172 C 144.73544311523438 114.00653839111328 117.10294342041016 104.99850463867188 126.91384887695312 107.24836730957031 C 130.64349365234375 101.9745101928711 133.53126525878906 90.74779510498047 146.12049865722656 96.89334869384766 C 124.00886535644531 137.2264862060547 115.57439422607422 88.24842834472656 160.1474609375 83.95044708251953 C 166.123046875 86.90386962890625 170.52395629882812 119.25543212890625 166.22023010253906 113.03374481201172" fill="rgb(81, 102, 112)" opacity="0.96561635" stroke-width="2.0"/>
    <path d="M 192.32737731933594 43.11408615112305 C 214.36990356445312 66.65275573730469 221.4239501953125 77.6750259399414 207.98574829101562 87.79293823242188 C 198.9528350830078 84.66083526611328 196.9574737548828 92.74639892578125 149.9891357421875 93.65489196777344 C 144.05322265625 21.48916244506836 152.26211547851562 11.920951843261719 192.32737731933594 43.11408615112305" fill="rgb(247, 182, 0)" opacity="0.8687599" stroke-width="2.0"/>
    <path d="M 116.48131561279297 17.7492618560791 C 181.77320861816406 21.50055503845215 171.20628356933594 30.613292694091797 147.02142333984375 60.82071304321289 C 149.7200469970703 53.37006378173828 151.65965270996094 53.2885856628418 143.64810180664062 40.5911865234375 C 142.20156860351562 53.636531829833984 158.5294952392578 50.415809631347656 156.0146942138672 64.74407958984375 C 151.9740447998047 92.52859497070312 146.9979705810547 101.13184356689453 119.4464340209961 89.90152740478516 C 118.47982025146484 49.27934265136719 113.7319107055664 42.04281997680664 116.48131561279297 17.7492618560791" fill="rgb(242, 193, 70)" opacity="0.59062296" stroke-width="2.0"/>
    <path d="M 28.082504272460938 72.33457946777344 C 26.15975570678711 65.4249496459961 24.364456176757812 66.31474304199219 23.844667434692383 65.96094512939453 C 25.631122589111328 66.47566223144531 24.624235153198242 67.43897247314453 25.59096908569336 63.754878997802734 C 25.055706024169922 67.27701568603516 24.082950592041016 64.81228637695312 29.089134216308594 71.30553436279297 C 24.140357971191406 71.01490020751953 26.17104148864746 65.28411102294922 36.388668060302734 52.76883316040039 C 43.01313781738281 56.518104553222656 42.994712829589844 74.43029022216797 28.082504272460938 72.33457946777344" fill="rgb(255, 227, 116)" opacity="0.20088725" stroke-width="2.0"/>
    <path d="M 165.1619873046875 114.419189453125 C 138.3369903564453 110.50541687011719 166.66696166992188 115.44865417480469 194.26548767089844 101.33955383300781 C 175.56143188476562 110.7126693725586 139.9751739501953 117.31456756591797 136.38328552246094 107.50091552734375 C 163.99806213378906 78.866455078125 151.02996826171875 59.92825698852539 142.50802612304688 92.21517944335938 C 134.96600341796875 105.57829284667969 182.4060821533203 81.84773254394531 211.90768432617188 89.51649475097656 C 214.23065185546875 107.28779602050781 213.04165649414062 130.37757873535156 165.1619873046875 114.419189453125" fill="rgb(37, 42, 46)" opacity="0.9324426" stroke-width="2.0"/>
    <path d="M 169.21311950683594 27.526865005493164 C 108.0733413696289 3.3740105628967285 107.03173065185547 34.34747314453125 164.31512451171875 67.61587524414062 C 209.52896118164062 64.87064361572266 204.8061981201172 82.93632507324219 147.5126953125 98.28180694580078 C 159.84130859375 44.60015106201172 196.8245391845703 88.94880676269531 169.21311950683594 27.526865005493164" fill="rgb(253, 194, 24)" opacity="0.7840407" stroke-width="2.0"/>
    <path d="M 108.84371948242188 107.25498962402344 C 102.01274871826172 85.1928939819336 107.81729888916016 64.87080383300781 117.6446762084961 53.746490478515625 C 155.82772827148438 52.61431121826172 150.897216796875 61.65040588378906 142.79193115234375 58.404518127441406 C 149.29690551757812 69.36737823486328 158.298095703125 65.132568359375 151.56011962890625 62.756412506103516 C 124.30743408203125 85.42162322998047 178.68228149414062 120.86910247802734 194.0087127685547 87.39846801757812 C 185.21530151367188 113.51555633544922 180.9727783203125 118.7381362915039 108.84371948242188 107.25498962402344" fill="rgb(65, 49, 36)" opacity="0.26445448" stroke-width="2.0"/>
    <path d="M 43.90910339355469 176.5952911376953 C 34.98940658569336 192.08450317382812 35.912940979003906 198.36952209472656 39.15713119506836 194.01742553710938 C 43.64533233642578 195.869384765625 21.46494483947754 193.00038146972656 42.342796325683594 191.48611450195312 C 26.613037109375 184.63107299804688 30.542224884033203 187.97213745117188 45.447357177734375 193.77874755859375 C 43.791324615478516 175.60641479492188 46.02470016479492 170.38987731933594 25.744718551635742 171.5067596435547 C 36.415035247802734 175.5934295654297 35.23502731323242 166.32984924316406 43.90910339355469 176.5952911376953" fill="rgb(156, 251, 172)" opacity="0.47231102" stroke-width="2.0"/>
    <path d="M 41.06357955932617 241.96026611328125 C 36.4195556640625 245.82115173339844 37.21784210205078 244.92843627929688 40.74892807006836 253.33078002929688 C 45.00299835205078 243.19122314453125 49.9859619140625 239.875 49.3877067565918 245.2704315185547 C 46.301246643066406 238.12574768066406 45.14598846435547 241.8594207763672 44.78700637817383 244.03985595703125 C 43.40773010253906 238.24038696289062 45.209014892578125 248.0316619873047 40.850379943847656 244.8555145263672 C 35.708133697509766 251.11370849609375 41.81206512451172 248.4734649658203 41.06357955932617 241.96026611328125" fill="rgb(144, 171, 230)" opacity="0.57788867" stroke-width="2.0"/>
    <path d="M 6.612119674682617 173.34117126464844 C 1.6833053827285767 174.7800750732422 4.297076225280762 180.5168914794922 11.052489280700684 150.65371704101562 C 66.20720672607422 149.18333435058594 71.27215576171875 149.31246948242188 70.41058349609375 216.3253631591797 C 72.89942932128906 218.52728271484375 31.656898498535156 211.762939453125 12.235688209533691 194.5873565673828 C -11.918864250183105 172.3740997314453 17.118236541748047 172.20791625976562 10.087151527404785 151.08421325683594 C -6.719823837280273 154.33767700195312 18.129871368408203 188.78285217285156 6.612119674682617 173.34117126464844" fill="rgb(250, 163, 0)" opacity="0.91080594" stroke-width="2.0"/>
    <path d="M 126.76756286621094 18.32459831237793 C 41.146217346191406 16.080913543701172 27.883543014526367 72.99968719482422 42.174957275390625 73.76176452636719 C 90.62518310546875 93.3739013671875 58.195152282714844 91.46688842773438 65.4623031616211 85.30108642578125 C 110.33948516845703 92.10470581054688 113.26013946533203 77.05300903320312 126.76756286621094 18.32459831237793" fill="rgb(254, 196, 57)" opacity="0.97048897" stroke-width="2.0"/>
    <path d="M 103.33683013916016 232.61981201171875 C 97.65393829345703 236.3843536376953 100.3207015991211 234.48818969726562 98.77874755859375 235.3703155517578 C 99.76719665527344 231.1506805419922 99.5346908569336 233.04104614257812 99.00892639160156 234.05262756347656 C 100.0667953491211 232.44114685058594 97.74995422363281 236.51220703125 100.24258422851562 234.59207153320312 C 99.6490249633789 234.92596435546875 95.82908630371094 237.4854278564453 103.33683013916016 232.61981201171875" fill="rgb(234, 99, 56)" opacity="0.10554555" stroke-width="2.0"/>
    <path d="M 67.46273803710938 123.80587768554688 C 56.10624313354492 116.39994049072266 56.89493179321289 132.5474853515625 85.2573471069336 119.1635971069336 C 79.35438537597656 137.20765686035156 77.35144805908203 142.77456665039062 100.87947845458984 83.23110961914062 C 96.65154266357422 77.58590698242188 40.100059509277344 80.5727767944336 67.46273803710938 123.80587768554688" fill="rgb(42, 87, 114)" opacity="0.93449605" stroke-width="2.0"/>
    <path d="M 212.44493103027344 102.49247741699219 C 233.87493896484375 108.54710388183594 234.33828735351562 121.99816131591797 237.2958526611328 154.57752990722656 C 236.0062255859375 130.03152465820312 225.959716796875 120.0567398071289 211.65150451660156 122.6093521118164 C 222.18821716308594 163.00930786132812 220.22425842285156 161.3534393310547 237.74241638183594 179.88587951660156 C 237.97021484375 145.04820251464844 241.3074493408203 142.28440856933594 212.44493103027344 102.49247741699219" fill="rgb(255, 199, 17)" opacity="0.67761385" stroke-width="2.0"/>
    <path d="M 33.35212707519531 19.377532958984375 C 38.85528564453125 23.701448440551758 37.60564041137695 21.577363967895508 33.14288330078125 23.330177307128906 C 38.368770599365234 21.467687606811523 38.01105880737305 22.96926498413086 30.05365753173828 25.3156681060791 C 40.17292785644531 22.383651733398438 36.14896011352539 21.670814514160156 36.294288635253906 21.65790367126465 C 36.6314811706543 21.752599716186523 37.924888610839844 22.703428268432617 33.3582763671875 19.3493709564209 C 33.26784896850586 15.400837898254395 33.62413787841797 26.79800033569336 33.35212707519531 19.377532958984375" fill="rgb(255, 130, 96)" opacity="0.1491703" stroke-width="2.0"/>
    <path d="M 251.18101501464844 176.79356384277344 C 243.66477966308594 200.85855102539062 238.74008178710938 141.7542266845703 238.01377868652344 181.08558654785156 C 230.590087890625 201.2054443359375 197.64268493652344 212.7024383544922 174.3762969970703 217.28280639648438 C 184.47837829589844 155.9160919189453 229.56211853027344 152.40701293945312 251.18101501464844 176.79356384277344" fill="rgb(255, 194, 0)" opacity="0.27126315" stroke-width="2.0"/>
    <path d="M 42.663063049316406 183.00177001953125 C 47.72770309448242 115.24486541748047 53.787353515625 114.31570434570312 46.88932418823242 114.25093078613281 C 80.46587371826172 126.41677856445312 76.73025512695312 135.37034606933594 53.987300872802734 138.3467254638672 C 83.4737777709961 139.7589569091797 90.55184173583984 128.08673095703125 110.0035400390625 127.8825454711914 C 57.488136291503906 138.63427734375 60.09086227416992 139.7095184326172 90.07735443115234 152.3388671875 C 90.56665802001953 172.4252471923828 94.23117065429688 178.34539794921875 42.663063049316406 183.00177001953125" fill="rgb(31, 31, 30)" opacity="0.9249353" stroke-width="2.0"/>
    <path d="M 179.223388671875 151.71324157714844 C 181.95555114746094 133.56565856933594 175.4956817626953 179.355224609375 183.0006561279297 118.29683685302734 C 234.43203735351562 101.35942840576172 236.9735107421875 110.06731414794922 237.98220825195312 179.71986389160156 C 187.5096893310547 191.10446166992188 183.20645141601562 192.7144775390625 179.223388671875 151.71324157714844" fill="rgb(252, 191, 17)" opacity="0.87742186" stroke-width="2.0"/>
    <path d="M 0.9613097906112671 180.6874542236328 C -0.4732377529144287 128.51927185058594 19.974956512451172 121.67882537841797 30.521652221679688 127.72807312011719 C 12.318934440612793 126.90005493164062 34.991092681884766 124.15869903564453 54.7530517578125 158.5834503173828 C 31.225027084350586 160.1966552734375 52.24557876586914 125.90930938720703 68.75389862060547 174.9486083984375 C 58.508338928222656 181.2169952392578 40.453269958496094 178.6645050048828 0.9613097906112671 180.6874542236328" fill="rgb(254, 217, 117)" opacity="0.42651293" stroke-width="2.0"/>
    <path d="M 228.6754608154297 193.20726013183594 C 226.322021484375 153.5031280517578 219.48167419433594 161.1525421142578 212.93309020996094 123.64446258544922 C 173.66062927246094 124.14407348632812 185.91458129882812 114.37406921386719 146.01405334472656 111.95145416259766 C 132.57688903808594 112.22183990478516 152.05665588378906 118.32697296142578 148.1379852294922 191.4462432861328 C 177.2168731689453 203.19195556640625 138.48681640625 184.6748046875 109.21267700195312 221.7720184326172 C 161.595703125 224.08966064453125 207.65142822265625 212.50619506835938 228.6754608154297 193.20726013183594" fill="rgb(254, 194, 15)" opacity="0.67285097" stroke-width="2.0"/>
    <path d="M 70.4135971069336 82.19865417480469 C 30.418180465698242 51.43849563598633 26.896718978881836 62.816505432128906 14.583697319030762 93.10994720458984 C 2.641559362411499 126.60218811035156 3.7424979209899902 147.96327209472656 4.566583156585693 135.5854949951172 C 57.15571594238281 139.99942016601562 65.16264343261719 134.03697204589844 70.4135971069336 82.19865417480469" fill="rgb(251, 186, 0)" opacity="0.89481366" stroke-width="2.0"/>
    <path d="M 81.88540649414062 29.956886291503906 C 30.80271339416504 31.853729248046875 33.90782165527344 55.62690734863281 22.705459594726562 71.97095489501953 C 27.163612365722656 68.64772033691406 34.43461990356445 73.60713195800781 45.64069747924805 87.1488265991211 C 34.6316032409668 73.6770248413086 23.164302825927734 65.06990051269531 25.458908081054688 74.8326187133789 C 19.91447639465332 72.40109252929688 36.341365814208984 62.745445251464844 69.96773529052734 75.62035369873047 C 60.60079574584961 110.21105194091797 73.61682891845703 107.04808044433594 81.88540649414062 29.956886291503906" fill="rgb(157, 233, 0)" opacity="0.0" stroke-width="2.0"/>
    <path d="M 54.6042594909668 140.6531219482422 C 66.6204605102539 88.07882690429688 75.35961151123047 91.28533935546875 72.01799774169922 75.6385269165039 C 115.04747772216797 79.80470275878906 139.06544494628906 80.34162902832031 144.6309051513672 85.3926773071289 C 131.27413940429688 136.66749572753906 124.66268920898438 140.48880004882812 54.6042594909668 140.6531219482422" fill="rgb(211, 207, 4)" opacity="0.5959482" stroke-width="2.0"/>
    <path d="M 75.43148803710938 80.01730346679688 C 68.71186065673828 45.81098556518555 73.16846466064453 28.495065689086914 80.03266143798828 24.047645568847656 C 166.25624084472656 19.965822219848633 175.8268280029297 25.894807815551758 162.01329040527344 92.73653411865234 C 95.98723602294922 123.24488830566406 105.20747375488281 116.96696472167969 75.43148803710938 80.01730346679688" fill="rgb(252, 193, 27)" opacity="0.99917525" stroke-width="2.0"/>
    <path d="M 54.55427169799805 214.81439208984375 C 50.673828125 213.22378540039062 31.76901626586914 209.47633361816406 15.322953224182129 197.7747344970703 C -11.725635528564453 175.18603515625 -0.852239191532135 161.8654022216797 79.4301528930664 167.83261108398438 C 86.59007263183594 226.1649169921875 91.30926513671875 223.0738525390625 54.55427169799805 214.81439208984375" fill="rgb(255, 236, 35)" opacity="0.3390833" stroke-width="2.0"/>
    <path d="M 188.581298828125 94.72099304199219 C 250.63571166992188 116.80990600585938 220.53054809570312 124.9737548828125 218.98971557617188 139.16099548339844 C 164.09156799316406 148.10855102539062 176.7888641357422 174.48464965820312 228.3092498779297 185.88255310058594 C 237.411376953125 173.5874786376953 248.46824645996094 134.8455810546875 247.16043090820312 169.8349151611328 C 217.76522827148438 153.65725708007812 222.94970703125 128.85595703125 196.54991149902344 145.4994659423828 C 196.00917053222656 151.130126953125 175.8658447265625 104.7483901977539 188.581298828125 94.72099304199219" fill="rgb(252, 194, 29)" opacity="0.52344215" stroke-width="2.0"/>
    <path d="M 180.869873046875 213.4102020263672 C 226.6605224609375 201.92837524414062 242.14492797851562 184.77345275878906 238.61302185058594 168.88499450683594 C 221.3095245361328 176.6778106689453 188.6815185546875 184.2515106201172 180.0163116455078 123.95796966552734 C 223.68385314941406 154.2746124267578 229.0768280029297 153.3169708251953 193.4871368408203 133.02540588378906 C 179.84930419921875 138.6383514404297 212.84422302246094 127.69034576416016 156.78111267089844 126.36309814453125 C 157.13711547851562 186.37905883789062 162.2972869873047 200.77963256835938 180.869873046875 213.4102020263672" fill="rgb(249, 192, 25)" opacity="0.49613634" stroke-width="2.0"/>
    <path d="M 50.599056243896484 132.88121032714844 C 102.66989135742188 95.55965423583984 91.44210815429688 86.1876220703125 133.02984619140625 97.02780151367188 C 165.76397705078125 164.3195037841797 171.55996704101562 158.07028198242188 171.51284790039062 155.3343505859375 C 111.68052673339844 158.39573669433594 92.61666870117188 161.43344116210938 50.599056243896484 132.88121032714844" fill="rgb(252, 193, 26)" opacity="0.9862048" stroke-width="2.0"/>
    <path d="M 169.78314208984375 27.762039184570312 C 179.14974975585938 50.80453872680664 184.02264404296875 58.12155532836914 174.5255889892578 65.43147277832031 C 166.56211853027344 67.56745910644531 178.25131225585938 70.66400909423828 205.3955841064453 56.7335090637207 C 186.31561279296875 31.261199951171875 158.9101104736328 23.21479034423828 169.78314208984375 27.762039184570312" fill="rgb(255, 197, 11)" opacity="0.3735574" stroke-width="2.0"/>
    <path d="M 164.56626892089844 25.32658576965332 C 164.9416046142578 26.42087173461914 147.09776306152344 39.08562088012695 78.22887420654297 40.72942352294922 C 65.23033905029297 26.691675186157227 88.70287322998047 15.390756607055664 134.26026916503906 18.244844436645508 C 123.46253204345703 16.128564834594727 112.41765594482422 14.418777465820312 110.80741119384766 14.753918647766113 C 111.87361145019531 14.60669994354248 109.55622100830078 15.052857398986816 111.85271453857422 14.40530776977539 C 108.03839111328125 15.97044849395752 107.50406646728516 10.971238136291504 164.56626892089844 25.32658576965332" fill="rgb(252, 193, 23)" opacity="0.7398898" stroke-width="2.0"/>
    <path d="M 24.12819480895996 48.445194244384766 C 22.64409065246582 55.176841735839844 24.24830436706543 46.5384521484375 24.17340850830078 49.37260055541992 C 24.12834358215332 49.06010437011719 24.16925621032715 48.620269775390625 23.86425018310547 49.03942108154297 C 22.962120056152344 55.98792266845703 22.492820739746094 62.33140182495117 24.824647903442383 55.61456298828125 C 22.58956527709961 61.06544494628906 22.620189666748047 58.221256256103516 24.12819480895996 48.445194244384766" fill="rgb(255, 141, 113)" opacity="0.2708396" stroke-width="2.0"/>
    <path d="M 85.6535415649414 33.409393310546875 C 83.8999252319336 47.87382888793945 76.31389617919922 48.085105895996094 68.45333862304688 35.461814880371094 C 90.49828338623047 15.785862922668457 80.0949935913086 18.245542526245117 77.37738800048828 50.22610855102539 C 99.32432556152344 42.288814544677734 89.35504913330078 22.99151611328125 114.61361694335938 32.844398498535156 C 113.58605194091797 36.003822326660156 116.20496368408203 25.370481491088867 85.6535415649414 33.409393310546875" fill="rgb(247, 193, 70)" opacity="0.25909364" stroke-width="2.0"/>
    <path d="M 90.58846282958984 157.430419921875 C 163.89183044433594 163.08543395996094 174.2317657470703 135.64048767089844 180.25885009765625 141.36293029785156 C 174.3592071533203 213.11447143554688 181.02749633789062 214.87896728515625 170.13259887695312 215.15408325195312 C 146.55239868164062 206.66981506347656 150.05816650390625 209.72039794921875 162.1991729736328 212.04185485839844 C 170.58177185058594 214.64353942871094 167.78892517089844 221.0137176513672 115.82574462890625 220.7643585205078 C 86.59730529785156 220.20843505859375 84.56514739990234 203.10850524902344 90.58846282958984 157.430419921875" fill="rgb(194, 5, 79)" opacity="0.6633994" stroke-width="2.0"/>
    <path d="M 198.65267944335938 57.71358108520508 C 196.44435119628906 58.06643295288086 189.4892578125 54.25940704345703 177.8960418701172 28.43539047241211 C 215.47103881835938 53.00076675415039 242.4772491455078 66.20462799072266 238.23219299316406 143.60414123535156 C 193.54478454589844 61.17084503173828 202.99266052246094 54.65485382080078 201.34288024902344 57.45710372924805 C 203.52883911132812 56.40225601196289 206.3347625732422 56.7855339050293 201.0780487060547 58.92550277709961 C 191.72683715820312 55.922325134277344 191.94305419921875 50.25981903076172 198.65267944335938 57.71358108520508" fill="rgb(250, 200, 49)" opacity="0.008746187" stroke-width="2.0"/>
    <path d="M 195.90623474121094 14.134307861328125 C 196.73727416992188 14.748555183410645 195.99044799804688 13.26320743560791 195.14950561523438 14.322474479675293 C 196.6376953125 13.055171012878418 196.312255859375 15.228243827819824 197.37301635742188 14.359549522399902 C 196.75502014160156 14.705055236816406 196.8631591796875 13.976021766662598 195.90623474121094 14.134307861328125" fill="rgb(180, 255, 106)" opacity="0.5993462" stroke-width="2.0"/>
    <path d="M 168.25196838378906 217.19390869140625 C 132.38563537597656 221.14695739746094 138.03578186035156 234.73886108398438 150.44119262695312 151.7808074951172 C 234.4213104248047 152.11300659179688 249.41714477539062 171.74502563476562 230.4294891357422 192.00881958007812 C 199.8014373779297 219.80023193359375 171.8186492919922 205.39552307128906 203.65895080566406 209.06747436523438 C 202.34910583496094 207.88365173339844 201.15121459960938 207.99534606933594 201.11634826660156 205.44212341308594 C 197.7763671875 207.73548889160156 217.1605682373047 206.74429321289062 168.25196838378906 217.19390869140625" fill="rgb(252, 194, 26)" opacity="0.99842936" stroke-width="2.0"/>
    <path d="M 98.01421356201172 108.83060455322266 C 82.22372436523438 87.44184875488281 68.78233337402344 71.00389862060547 76.75895690917969 75.16587829589844 C 99.40088653564453 125.82660675048828 71.17215728759766 104.51802062988281 87.02470397949219 104.90841674804688 C 89.51216888427734 102.90792083740234 83.59149932861328 87.38359832763672 98.01421356201172 108.83060455322266" fill="rgb(240, 189, 77)" opacity="0.24760734" stroke-width="2.0"/>
    <path d="M 166.23562622070312 145.382080078125 C 157.88511657714844 227.52291870117188 169.32342529296875 230.31979370117188 116.06739807128906 227.19456481933594 C 68.16832733154297 241.18186950683594 75.47102355957031 229.78099060058594 80.03740692138672 159.1118927001953 C 123.1887435913086 159.78770446777344 175.65928649902344 154.47413635253906 166.23562622070312 145.382080078125" fill="rgb(202, 85, 55)" opacity="0.0007948093" stroke-width="2.0"/>
    <path d="M 43.13290786743164 119.02132415771484 C 26.405635833740234 113.28580474853516 34.6458854675293 117.98749542236328 33.745853424072266 110.91883087158203 C 42.28765106201172 121.26570129394531 47.634220123291016 129.49786376953125 64.3123550415039 119.69342803955078 C 50.525177001953125 89.62447357177734 71.40433502197266 78.08948516845703 91.36194610595703 101.79837036132812 C 55.47446823120117 132.97705078125 46.498748779296875 122.31999969482422 43.13290786743164 119.02132415771484" fill="rgb(213, 160, 55)" opacity="0.59515315" stroke-width="2.0"/>
    <path d="M 84.14552307128906 153.8921356201172 C 75.44062042236328 143.26585388183594 123.93574523925781 177.4020233154297 186.06787109375 135.73345947265625 C 201.9992218017578 150.93035888671875 130.7602996826172 182.10604858398438 81.71099853515625 161.19732666015625 C 90.6324691772461 132.20556640625 87.5196304321289 142.31906127929688 84.14552307128906 153.8921356201172" fill="rgb(44, 46, 46)" opacity="0.9792594" stroke-width="2.0"/>
    <path d="M 25.9039306640625 69.22412872314453 C 42.240875244140625 42.31478500366211 61.94123458862305 27.860692977905273 90.21402740478516 20.816791534423828 C 108.99433898925781 35.602046966552734 90.2671127319336 44.341529846191406 69.8690185546875 60.2010383605957 C 64.3765869140625 37.954261779785156 62.16615295410156 31.488378524780273 79.04335021972656 84.3340835571289 C 80.2763900756836 86.30152893066406 29.590435028076172 83.24391174316406 25.9039306640625 69.22412872314453" fill="rgb(254, 194, 20)" opacity="0.3885199" stroke-width="2.0"/>
    <path d="M 101.99635314941406 236.61090087890625 C 102.08930969238281 236.42320251464844 101.81010437011719 236.59898376464844 102.5394287109375 237.6710662841797 C 102.10092163085938 236.35719299316406 102.47551727294922 237.0587615966797 101.86248016357422 236.37411499023438 C 101.92349243164062 236.51544189453125 101.90843200683594 236.33499145507812 101.99635314941406 236.61090087890625" fill="rgb(149, 144, 104)" opacity="0.31102496" stroke-width="2.0"/>
    <path d="M 26.19908332824707 72.70421600341797 C 84.23504638671875 92.82550811767578 85.10890197753906 115.2791519165039 79.57601928710938 24.31174659729004 C 10.546813011169434 52.221900939941406 32.63898468017578 99.90943145751953 24.485319137573242 71.31204223632812 C 42.201393127441406 45.722476959228516 38.9958381652832 50.92842483520508 26.19908332824707 72.70421600341797" fill="rgb(252, 193, 26)" opacity="0.994651" stroke-width="2.0"/>
    <path d="M 42.2408561706543 156.8260040283203 C 36.940616607666016 173.29917907714844 38.86501693725586 210.80592346191406 50.39325714111328 212.9241180419922 C 92.10804748535156 225.20553588867188 159.21315002441406 225.85333251953125 127.95196533203125 208.58839416503906 C 75.35381317138672 200.22686767578125 109.029296875 161.9041748046875 77.86357116699219 162.064453125 C 44.0787239074707 165.63343811035156 40.08150100708008 161.40179443359375 42.2408561706543 156.8260040283203" fill="rgb(252, 194, 26)" opacity="0.99657506" stroke-width="2.0"/>
    <path d="M 109.80467224121094 4.766969203948975 C 109.65791320800781 8.545591354370117 92.44111633300781 2.1932272911071777 83.37004852294922 37.2415885925293 C 98.12810516357422 44.95942687988281 106.0039291381836 28.803579330444336 68.96302032470703 35.05033874511719 C 82.74656677246094 -8.36939525604248 122.6894302368164 10.037676811218262 107.17259979248047 8.165369987487793 C 107.01626586914062 10.645605087280273 102.58960723876953 11.871212005615234 109.80467224121094 4.766969203948975" fill="rgb(137, 195, 80)" opacity="0.0" stroke-width="2.0"/>
    <path d="M 154.1848907470703 -0.2054535448551178 C 153.4307861328125 -0.2706088125705719 154.1964111328125 -1.4348949193954468 156.22573852539062 -1.2607249021530151 C 154.3791046142578 0.36721110343933105 155.3452911376953 1.1624890565872192 154.91433715820312 -5.657402038574219 C 158.52291870117188 0.7358202934265137 155.6858367919922 -0.6482781171798706 154.4853515625 -8.687110900878906 C 156.27334594726562 -12.792192459106445 155.67381286621094 -10.96899127960205 154.1848907470703 -0.2054535448551178" fill="rgb(125, 141, 110)" opacity="0.7588313" stroke-width="2.0"/>
    <path d="M 1.6826140880584717 180.12449645996094 C 85.80696105957031 183.64230346679688 105.1545639038086 164.90264892578125 84.80175018310547 163.4212188720703 C 34.02839279174805 143.48345947265625 59.40830993652344 145.88926696777344 76.28486633300781 122.80445861816406 C 19.258743286132812 91.6259765625 0.4916647970676422 99.74993133544922 1.6826140880584717 180.12449645996094" fill="rgb(252, 194, 26)" opacity="0.9975822" stroke-width="2.0"/>
    <path d="M 149.86170959472656 219.38050842285156 C 92.71199798583984 231.8664093017578 63.579566955566406 191.4292755126953 117.13542938232422 205.0352020263672 C 149.38388061523438 206.52638244628906 142.90309143066406 175.19451904296875 148.99752807617188 179.21847534179688 C 157.00991821289062 183.37535095214844 164.51011657714844 190.31033325195312 149.86170959472656 219.38050842285156" fill="rgb(252, 194, 27)" opacity="0.9922468" stroke-width="2.0"/>
    <path d="M 234.1620635986328 14.14340877532959 C 234.13238525390625 14.777278900146484 234.39903259277344 14.545060157775879 233.78057861328125 14.479161262512207 C 234.57916259765625 14.731603622436523 233.3640594482422 14.174403190612793 234.5032196044922 14.70306396484375 C 233.58761596679688 14.210747718811035 233.99644470214844 15.377266883850098 234.1620635986328 14.14340877532959" fill="rgb(60, 174, 255)" opacity="0.2692028" stroke-width="2.0"/>
    <path d="M 217.77899169921875 52.788787841796875 C 221.4115447998047 53.988677978515625 224.4152069091797 54.128719329833984 228.4232177734375 55.255435943603516 C 226.4087371826172 54.80708694458008 216.3885040283203 52.340911865234375 224.01622009277344 54.88836669921875 C 224.37466430664062 51.212669372558594 222.2996063232422 57.17456817626953 224.99609375 51.20723342895508 C 221.27597045898438 57.43011474609375 230.19422912597656 56.11890411376953 217.77899169921875 52.788787841796875" fill="rgb(201, 129, 36)" opacity="0.013423154" stroke-width="2.0"/>
    <path d="M 164.64173889160156 103.15692138671875 C 153.2964630126953 103.66596984863281 213.3668670654297 107.90851593017578 168.4009552001953 124.74925994873047 C 195.5615234375 156.20538330078125 193.61183166503906 160.0894012451172 191.63287353515625 134.80299377441406 C 188.68936157226562 112.07849884033203 234.38558959960938 84.77285766601562 164.64173889160156 103.15692138671875" fill="rgb(252, 194, 26)" opacity="0.9815508" stroke-width="2.0"/>
    <path d="M 33.51560592651367 202.21249389648438 C 32.594970703125 198.48687744140625 33.09014129638672 200.83006286621094 31.028547286987305 192.04713439941406 C 30.893037796020508 191.4894561767578 30.511960983276367 189.2622833251953 31.058103561401367 192.14569091796875 C 29.585351943969727 185.00320434570312 30.489519119262695 186.25457763671875 30.204700469970703 186.2015380859375 C 30.548274993896484 186.0289306640625 28.89960479736328 184.7474365234375 33.51560592651367 202.21249389648438" fill="rgb(92, 175, 153)" opacity="0.21509527" stroke-width="2.0"/>
    <path d="M 26.697364807128906 132.61679077148438 C 6.471975326538086 127.9729232788086 18.717798233032227 128.80038452148438 31.411821365356445 55.66526412963867 C -9.274765968322754 125.42538452148438 14.451374053955078 134.60723876953125 -5.8548173904418945 147.7319793701172 C -8.483957290649414 166.00863647460938 -6.479083061218262 156.1237030029297 -1.6138380765914917 177.47122192382812 C 10.899717330932617 165.92697143554688 6.304107189178467 121.32941436767578 6.977079391479492 123.95225524902344 C 20.20485496520996 130.96743774414062 22.907978057861328 130.91357421875 26.697364807128906 132.61679077148438" fill="rgb(253, 206, 92)" opacity="0.017100425" stroke-width="2.0"/>
    <path d="M 59.95011520385742 110.27604675292969 C 58.53861999511719 73.43277740478516 92.64888000488281 88.80260467529297 78.26944732666016 88.95760345458984 C 85.5329360961914 88.06021118164062 79.82313537597656 85.33349609375 79.3130111694336 86.59842681884766 C 91.8832015991211 89.49679565429688 96.0893325805664 114.41063690185547 79.25804138183594 121.74507141113281 C 56.13267135620117 126.46832275390625 60.40013122558594 88.29679107666016 59.95011520385742 110.27604675292969" fill="rgb(30, 33, 47)" opacity="0.90224874" stroke-width="2.0"/>
    <path d="M 225.26290893554688 200.20272827148438 C 228.255615234375 199.7577362060547 220.43373107910156 209.83872985839844 221.684326171875 203.02566528320312 C 219.29183959960938 205.7964324951172 213.28517150878906 206.95489501953125 213.02806091308594 201.1116485595703 C 226.73040771484375 196.2279052734375 221.5482635498047 202.54843139648438 215.9697265625 204.6306915283203 C 214.74807739257812 207.16354370117188 230.448486328125 199.11000061035156 245.72540283203125 191.65492248535156 C 237.6597900390625 169.57887268066406 240.29647827148438 176.2498016357422 225.26290893554688 200.20272827148438" fill="rgb(192, 154, 180)" opacity="0.0" stroke-width="2.0"/>
    <path d="M 208.57595825195312 44.37411880493164 C 208.7363739013672 45.122169494628906 205.3938751220703 44.046363830566406 207.53607177734375 39.06753921508789 C 209.32240295410156 50.96220016479492 208.33506774902344 38.679988861083984 205.1876220703125 31.184602737426758 C 204.73257446289062 32.230674743652344 203.66656494140625 25.419586181640625 203.9465789794922 28.0145206451416 C 207.86325073242188 31.426895141601562 201.9324188232422 26.5741024017334 208.57595825195312 44.37411880493164" fill="rgb(118, 201, 35)" opacity="0.0" stroke-width="2.0"/>
    <path d="M 25.62489891052246 123.21737670898438 C 46.33686065673828 112.87644958496094 52.64479446411133 101.78687286376953 37.497039794921875 109.14849853515625 C 32.844970703125 112.62913513183594 31.368040084838867 122.52633666992188 11.266313552856445 130.7885284423828 C 1.293889045715332 147.26718139648438 4.748551845550537 142.0301513671875 8.554400444030762 135.1449432373047 C 11.112980842590332 127.34367370605469 34.297523498535156 122.68660736083984 46.43122863769531 108.0584487915039 C 39.50254821777344 102.79228973388672 32.647178649902344 115.7744140625 25.62489891052246 123.21737670898438" fill="rgb(232, 177, 48)" opacity="0.37432516" stroke-width="2.0"/>
    <path d="M 15.41988468170166 205.84051513671875 C 8.99795150756836 213.2306365966797 7.563408374786377 202.62664794921875 7.596492290496826 204.33477783203125 C 5.550360679626465 208.28042602539062 11.899662017822266 207.09341430664062 12.922860145568848 209.85916137695312 C 1.424479365348816 204.92234802246094 7.491605281829834 209.31227111816406 4.258907318115234 209.6912841796875 C 7.453709602355957 207.8563690185547 10.692917823791504 204.1397705078125 6.623866081237793 205.11611938476562 C 10.223313331604004 212.2406005859375 13.486452102661133 207.5171661376953 15.41988468170166 205.84051513671875" fill="rgb(39, 70, 231)" opacity="3.0139088e-07" stroke-width="2.0"/>
    <path d="M 173.095458984375 55.66911315917969 C 202.190185546875 119.5976791381836 183.7406463623047 128.90541076660156 234.78773498535156 127.51142120361328 C 220.85476684570312 63.280635833740234 213.42025756835938 76.57978820800781 164.68701171875 48.372676849365234 C 174.6593475341797 21.765073776245117 206.54847717285156 46.2547492980957 223.76148986816406 89.04554748535156 C 217.11231994628906 76.86653900146484 214.8588409423828 70.73311614990234 173.095458984375 55.66911315917969" fill="rgb(252, 194, 27)" opacity="0.9953353" stroke-width="2.0"/>
    <path d="M 14.91860294342041 214.1828155517578 C 19.022371292114258 214.88015747070312 15.788355827331543 214.32192993164062 17.89378547668457 214.9593048095703 C 15.57677173614502 214.49232482910156 18.593664169311523 215.08775329589844 16.136587142944336 214.12562561035156 C 16.112789154052734 214.01025390625 18.835189819335938 215.03309631347656 14.91860294342041 214.1828155517578" fill="rgb(246, 127, 81)" opacity="0.15950736" stroke-width="2.0"/>
  </g>
</svg>
