<?xml version="1.0" ?>
<svg height="240" version="1.1" width="240" xmlns="http://www.w3.org/2000/svg">
  <defs/>
  <g>
    <path d="M 25.288185119628906 24.36680793762207 C 24.678817749023438 24.696853637695312 25.57360076904297 24.746721267700195 25.001832962036133 24.64347267150879 C 16.95156478881836 32.19523239135742 13.842464447021484 35.45795822143555 19.349491119384766 34.98546600341797 C 18.287904739379883 35.08176803588867 14.922393798828125 34.9124641418457 21.685203552246094 34.87920379638672 C 17.900033950805664 34.654239654541016 10.90473461151123 37.6282844543457 25.288185119628906 24.36680793762207" fill="rgb(255, 72, 136)" opacity="0.28190228" stroke-width="2.0"/>
    <path d="M 46.51451110839844 222.44712829589844 C 40.77766418457031 221.6604461669922 49.04719161987305 222.6465606689453 43.919010162353516 221.82247924804688 C 48.298927307128906 222.63841247558594 44.54175567626953 222.00025939941406 39.606117248535156 221.87863159179688 C 31.424280166625977 222.2279815673828 34.719913482666016 222.7407989501953 36.73158264160156 221.60086059570312 C 33.46742630004883 223.0936737060547 36.9289665222168 220.8868408203125 46.51451110839844 222.44712829589844" fill="rgb(77, 255, 48)" opacity="0.118333556" stroke-width="2.0"/>
    <path d="M 69.78841400146484 129.27566528320312 C 76.67807006835938 106.28667449951172 94.49217987060547 109.55297088623047 102.5193862915039 115.2516098022461 C 92.65013122558594 109.46681213378906 99.9740982055664 97.2677230834961 169.70803833007812 96.70577239990234 C 173.6887664794922 168.85443115234375 166.5043487548828 171.88185119628906 155.48040771484375 163.47703552246094 C 104.81275177001953 174.95713806152344 109.84679412841797 166.03732299804688 69.78841400146484 129.27566528320312" fill="rgb(255, 203, 54)" opacity="1.0" stroke-width="2.0"/>
    <path d="M 232.52444458007812 136.17979431152344 C 190.83563232421875 144.0518341064453 170.4401092529297 136.20660400390625 150.107421875 106.98332214355469 C 145.57281494140625 128.66844177246094 180.5774383544922 122.2257308959961 162.75498962402344 122.36038208007812 C 154.55210876464844 115.45650482177734 143.69493103027344 117.88957214355469 147.04452514648438 99.17207336425781 C 215.74542236328125 80.34864044189453 221.26292419433594 61.2171630859375 232.52444458007812 136.17979431152344" fill="rgb(206, 117, 25)" opacity="0.7251831" stroke-width="2.0"/>
    <path d="M 160.9478302001953 117.37435913085938 C 146.20030212402344 84.83123016357422 125.65138244628906 82.40190124511719 124.12028503417969 115.5375747680664 C 124.54533386230469 97.64879608154297 119.38256072998047 91.16429901123047 137.154541015625 97.63996124267578 C 134.02871704101562 110.8263168334961 122.32194519042969 87.0683364868164 148.14169311523438 78.84121704101562 C 167.43629455566406 79.36349487304688 171.4436492919922 118.6183853149414 160.9478302001953 117.37435913085938" fill="rgb(153, 168, 127)" opacity="0.8712082" stroke-width="2.0"/>
    <path d="M 192.76011657714844 43.233001708984375 C 212.4322967529297 73.53246307373047 217.95394897460938 79.59915924072266 203.08265686035156 88.10903930664062 C 197.43890380859375 88.39986419677734 196.8563995361328 95.31552124023438 153.22511291503906 90.53015899658203 C 145.8603973388672 22.18796157836914 155.34716796875 13.016164779663086 192.76011657714844 43.233001708984375" fill="rgb(244, 181, 0)" opacity="0.8821014" stroke-width="2.0"/>
    <path d="M 118.26070404052734 18.353431701660156 C 176.98536682128906 17.972091674804688 169.53907775878906 35.71510314941406 147.73655700683594 64.27711486816406 C 153.33338928222656 53.489688873291016 153.3756561279297 50.94838333129883 142.5362091064453 42.84337615966797 C 140.96238708496094 56.38035202026367 157.76661682128906 46.7084846496582 155.24514770507812 71.08379364013672 C 158.45863342285156 93.10769653320312 153.51560974121094 98.39398956298828 119.4258041381836 87.57386779785156 C 118.67578887939453 49.837890625 113.80597686767578 42.80358123779297 118.26070404052734 18.353431701660156" fill="rgb(255, 201, 62)" opacity="0.66949975" stroke-width="2.0"/>
    <path d="M 34.948822021484375 65.6351089477539 C 29.57209587097168 62.648155212402344 21.57847023010254 62.97795104980469 20.634906768798828 63.38726043701172 C 22.534292221069336 63.15361404418945 21.459396362304688 62.95103454589844 21.666915893554688 62.61928176879883 C 21.441396713256836 63.168880462646484 22.193225860595703 63.0609245300293 21.596208572387695 63.03708267211914 C 30.613805770874023 62.505035400390625 34.852745056152344 65.94760131835938 35.4273796081543 64.44539642333984 C 32.298057556152344 63.53034210205078 34.68809509277344 75.07528686523438 34.948822021484375 65.6351089477539" fill="rgb(217, 255, 235)" opacity="0.21378744" stroke-width="2.0"/>
    <path d="M 156.24081420898438 126.14669036865234 C 158.64830017089844 123.5442123413086 175.86029052734375 120.42391967773438 162.306396484375 123.25855255126953 C 142.6175079345703 116.8975830078125 146.34378051757812 104.80216217041016 149.17221069335938 88.80255126953125 C 143.16421508789062 61.00169372558594 146.47354125976562 58.414024353027344 144.0963897705078 77.54964447021484 C 198.05718994140625 99.98979187011719 195.47372436523438 104.88764953613281 211.86778259277344 82.4323501586914 C 212.0609588623047 99.1831283569336 212.16954040527344 99.80712890625 156.24081420898438 126.14669036865234" fill="rgb(41, 44, 48)" opacity="0.9628585" stroke-width="2.0"/>
    <path d="M 168.45936584472656 27.557754516601562 C 104.69664001464844 0.07617110759019852 109.79574584960938 51.509918212890625 177.75091552734375 59.286163330078125 C 196.88427734375 70.62920379638672 184.23226928710938 79.23240661621094 132.4551544189453 95.89947509765625 C 137.71649169921875 27.40188217163086 196.76963806152344 86.65734100341797 168.45936584472656 27.557754516601562" fill="rgb(253, 194, 26)" opacity="0.9348359" stroke-width="2.0"/>
    <path d="M 110.90574645996094 107.48262786865234 C 102.60404968261719 81.88072967529297 107.08023834228516 63.51060485839844 116.04781341552734 50.250518798828125 C 154.04119873046875 44.150909423828125 145.22427368164062 55.16474151611328 139.9917449951172 71.39247131347656 C 145.77157592773438 66.86149597167969 151.59402465820312 61.48698806762695 153.79408264160156 67.24906921386719 C 128.20538330078125 93.99400329589844 113.29180145263672 91.42512512207031 182.144287109375 90.9168472290039 C 182.5326385498047 122.48050689697266 181.80978393554688 121.93450164794922 110.90574645996094 107.48262786865234" fill="rgb(47, 44, 37)" opacity="0.2767737" stroke-width="2.0"/>
    <path d="M 32.28636932373047 186.4151611328125 C 37.742008209228516 187.84226989746094 39.164398193359375 191.2729034423828 39.57275390625 185.12522888183594 C 43.94378662109375 191.6018829345703 13.302348136901855 186.48272705078125 50.11814498901367 185.5614013671875 C 32.743282318115234 186.68807983398438 36.39496994018555 188.7512664794922 36.25891876220703 178.8856658935547 C 43.15949630737305 172.75851440429688 47.05320358276367 173.44094848632812 38.41888427734375 174.9834747314453 C 42.99614334106445 179.11968994140625 30.163204193115234 172.50363159179688 32.28636932373047 186.4151611328125" fill="rgb(155, 255, 180)" opacity="0.43038476" stroke-width="2.0"/>
    <path d="M 42.37364959716797 242.53187561035156 C 36.01149368286133 246.62794494628906 36.68691635131836 245.65773010253906 40.383087158203125 253.79763793945312 C 44.18629837036133 242.64813232421875 48.191673278808594 238.40780639648438 44.49290466308594 243.2696533203125 C 49.200889587402344 241.67620849609375 46.85657501220703 243.07135009765625 45.67465591430664 244.632568359375 C 43.407405853271484 238.2402801513672 45.14548873901367 248.01011657714844 39.443111419677734 242.27578735351562 C 35.678321838378906 251.13351440429688 41.8005485534668 248.4618682861328 42.37364959716797 242.53187561035156" fill="rgb(144, 171, 231)" opacity="0.5779925" stroke-width="2.0"/>
    <path d="M 7.033810615539551 178.97650146484375 C -4.432315826416016 180.46351623535156 10.339088439941406 182.06845092773438 13.864421844482422 150.3549346923828 C 69.75035095214844 146.22508239746094 73.27887725830078 145.2715301513672 71.15950012207031 215.84815979003906 C 75.899169921875 219.68214416503906 31.23301887512207 211.81944274902344 11.20061206817627 193.84434509277344 C -11.280341148376465 170.53173828125 17.532630920410156 178.4232177734375 14.174028396606445 151.30018615722656 C -4.249483108520508 156.38900756835938 16.518447875976562 186.10243225097656 7.033810615539551 178.97650146484375" fill="rgb(250, 165, 0)" opacity="0.9105972" stroke-width="2.0"/>
    <path d="M 119.41148376464844 18.263097763061523 C 40.386009216308594 19.01848030090332 32.64507293701172 71.1059341430664 45.498069763183594 72.42512512207031 C 88.79830169677734 86.42228698730469 51.57190704345703 85.371337890625 62.87890625 84.74484252929688 C 110.56889343261719 92.24188232421875 112.88688659667969 77.67784881591797 119.41148376464844 18.263097763061523" fill="rgb(255, 199, 63)" opacity="0.93452173" stroke-width="2.0"/>
    <path d="M 102.10364532470703 229.77125549316406 C 98.83952331542969 235.57557678222656 100.76998138427734 232.9402618408203 99.20172882080078 236.03907775878906 C 101.43450164794922 231.75042724609375 99.41256713867188 234.15589904785156 99.46113586425781 234.68038940429688 C 101.0692138671875 231.0785369873047 99.00668334960938 236.34991455078125 99.73966979980469 233.5977325439453 C 99.80030822753906 234.2429656982422 96.87542724609375 239.42567443847656 102.10364532470703 229.77125549316406" fill="rgb(234, 100, 57)" opacity="0.12052005" stroke-width="2.0"/>
    <path d="M 59.8224983215332 120.93815612792969 C 45.64365768432617 114.37355041503906 43.955692291259766 109.08258819580078 57.31441879272461 110.60304260253906 C 78.15721893310547 126.17442321777344 85.51300048828125 135.24403381347656 98.14900207519531 87.99579620361328 C 90.61795043945312 78.98619079589844 61.922183990478516 75.68354797363281 59.8224983215332 120.93815612792969" fill="rgb(40, 73, 120)" opacity="0.92300266" stroke-width="2.0"/>
    <path d="M 224.10108947753906 85.4631576538086 C 228.8531951904297 86.4582290649414 218.36976623535156 108.21038818359375 231.18243408203125 155.052978515625 C 233.542236328125 140.10394287109375 232.093505859375 137.32498168945312 218.91876220703125 150.65554809570312 C 207.6915283203125 170.92796325683594 180.57781982421875 184.57220458984375 239.6117401123047 190.72991943359375 C 238.72409057617188 134.612548828125 235.72030639648438 108.91085815429688 224.10108947753906 85.4631576538086" fill="rgb(255, 225, 128)" opacity="0.15269868" stroke-width="2.0"/>
    <path d="M 34.305702209472656 18.088930130004883 C 38.05083465576172 23.38822364807129 34.793907165527344 20.665359497070312 35.76527404785156 21.572053909301758 C 35.13349533081055 21.075910568237305 36.75979995727539 20.7261905670166 30.29720687866211 22.863794326782227 C 37.66824722290039 20.58370018005371 35.154563903808594 20.687044143676758 35.48656463623047 23.232810974121094 C 34.922725677490234 19.67684555053711 38.00729751586914 23.47634506225586 34.46573257446289 18.124149322509766 C 34.19357681274414 14.05038070678711 35.40109634399414 26.970182418823242 34.305702209472656 18.088930130004883" fill="rgb(255, 131, 97)" opacity="0.15067929" stroke-width="2.0"/>
    <path d="M 250.70619201660156 180.8155975341797 C 242.64158630371094 201.9705047607422 240.37071228027344 149.35775756835938 236.0027313232422 183.34585571289062 C 230.8520965576172 201.2777862548828 196.5930633544922 212.5641632080078 174.44468688964844 217.3757781982422 C 184.16021728515625 157.20755004882812 223.6204833984375 154.83535766601562 250.70619201660156 180.8155975341797" fill="rgb(255, 160, 0)" opacity="0.38328567" stroke-width="2.0"/>
    <path d="M 42.34072494506836 183.00038146972656 C 47.55686569213867 115.12638854980469 53.73427200317383 114.22210693359375 47.69601058959961 115.56671142578125 C 84.70551300048828 125.98338317871094 80.34608459472656 136.47030639648438 58.59437942504883 134.89903259277344 C 83.80406951904297 138.66403198242188 90.4011459350586 126.89433288574219 108.71892547607422 128.70382690429688 C 55.32217788696289 136.9664306640625 55.76056671142578 138.74635314941406 92.16912841796875 153.26901245117188 C 87.00725555419922 169.99176025390625 88.50997924804688 177.82948303222656 42.34072494506836 183.00038146972656" fill="rgb(28, 27, 25)" opacity="0.9086092" stroke-width="2.0"/>
    <path d="M 176.46090698242188 147.8566131591797 C 155.91761779785156 128.3785858154297 172.7003631591797 171.0788116455078 177.30821228027344 99.21652221679688 C 231.7351531982422 101.25877380371094 236.6373748779297 110.05836486816406 238.51266479492188 175.50088500976562 C 186.81883239746094 190.6874542236328 182.2459259033203 192.6329803466797 176.46090698242188 147.8566131591797" fill="rgb(251, 193, 26)" opacity="0.99711823" stroke-width="2.0"/>
    <path d="M 1.7272275686264038 177.02798461914062 C 1.341928243637085 120.7327651977539 15.636480331420898 116.6681900024414 26.342973709106445 129.52783203125 C 17.331459045410156 134.51223754882812 37.354305267333984 133.224365234375 48.23318099975586 156.08595275878906 C 13.623948097229004 121.22234344482422 32.894309997558594 142.6791229248047 93.20226287841797 167.4275665283203 C 59.812015533447266 180.6428680419922 34.259429931640625 180.55535888671875 1.7272275686264038 177.02798461914062" fill="rgb(255, 199, 28)" opacity="0.9576575" stroke-width="2.0"/>
    <path d="M 232.88259887695312 189.7021484375 C 227.92115783691406 130.85723876953125 226.0150146484375 129.28176879882812 225.01815795898438 122.67337036132812 C 152.74447631835938 106.15437316894531 188.78582763671875 106.27234649658203 166.29135131835938 122.26879119873047 C 140.12548828125 121.47071075439453 154.93995666503906 113.60444641113281 145.4436492919922 201.1092071533203 C 180.04049682617188 196.29995727539062 145.99868774414062 182.37718200683594 109.01952362060547 221.56024169921875 C 155.83111572265625 224.95506286621094 213.28273010253906 212.39480590820312 232.88259887695312 189.7021484375" fill="rgb(255, 198, 18)" opacity="0.7936864" stroke-width="2.0"/>
    <path d="M 71.70053100585938 79.79267120361328 C 32.36728286743164 51.69866180419922 27.392148971557617 61.72597122192383 14.908655166625977 92.13712310791016 C 2.3877696990966797 126.32784271240234 4.072952747344971 147.09054565429688 4.445591449737549 136.392333984375 C 52.8751106262207 136.823486328125 58.04319763183594 131.635986328125 71.70053100585938 79.79267120361328" fill="rgb(251, 186, 0)" opacity="0.89497375" stroke-width="2.0"/>
    <path d="M 81.23951721191406 37.14445877075195 C 38.701358795166016 42.936649322509766 41.53081130981445 57.47249984741211 28.695405960083008 72.8635482788086 C 29.701887130737305 67.72394561767578 33.344974517822266 74.47020721435547 46.33428955078125 86.30805969238281 C 32.74090576171875 73.18218994140625 23.174551010131836 64.3302001953125 24.348501205444336 74.41141510009766 C 19.505773544311523 72.12416076660156 37.378883361816406 60.19508361816406 77.89064025878906 73.03733825683594 C 60.94902420043945 106.53931427001953 71.41898345947266 104.5908432006836 81.23951721191406 37.14445877075195" fill="rgb(155, 242, 0)" opacity="0.25385264" stroke-width="2.0"/>
    <path d="M 61.88505554199219 134.88912963867188 C 66.58783721923828 88.04962921142578 73.31439208984375 88.33792877197266 66.17803192138672 74.3208236694336 C 111.42517852783203 79.17034149169922 139.132080078125 80.17037200927734 146.14767456054688 85.8594970703125 C 135.7616424560547 136.61947631835938 123.04570770263672 142.9457244873047 61.88505554199219 134.88912963867188" fill="rgb(188, 174, 0)" opacity="0.46694398" stroke-width="2.0"/>
    <path d="M 74.72335815429688 85.82447814941406 C 70.06291961669922 45.82323455810547 73.58633422851562 25.965415954589844 83.06460571289062 22.999515533447266 C 173.500732421875 17.842153549194336 187.71009826660156 33.931488037109375 140.02789306640625 109.58135223388672 C 59.96565628051758 111.4054946899414 120.0163345336914 104.30990600585938 74.72335815429688 85.82447814941406" fill="rgb(252, 193, 27)" opacity="0.99783814" stroke-width="2.0"/>
    <path d="M 43.86670684814453 211.9214630126953 C 46.430091857910156 211.84361267089844 28.26405143737793 207.7049560546875 13.8070650100708 196.4945831298828 C -11.237829208374023 174.59442138671875 0.8360049724578857 162.78143310546875 80.68599700927734 167.4917755126953 C 89.26639556884766 225.6085205078125 94.62423706054688 225.25350952148438 43.86670684814453 211.9214630126953" fill="rgb(255, 234, 36)" opacity="0.3290131" stroke-width="2.0"/>
    <path d="M 185.21978759765625 95.94744873046875 C 262.7730712890625 115.05213928222656 260.2211608886719 131.59205627441406 237.6973114013672 172.97853088378906 C 173.8236846923828 139.240234375 179.78631591796875 169.34176635742188 225.9011993408203 188.76409912109375 C 246.63693237304688 164.15602111816406 267.827392578125 120.37248992919922 223.069580078125 108.35760498046875 C 230.0723876953125 161.49485778808594 238.27142333984375 170.13026428222656 211.06283569335938 161.03074645996094 C 159.0621795654297 148.35955810546875 165.2102508544922 124.18677520751953 185.21978759765625 95.94744873046875" fill="rgb(248, 188, 37)" opacity="0.36694646" stroke-width="2.0"/>
    <path d="M 176.14373779296875 216.12355041503906 C 228.7500762939453 204.2611541748047 236.2554473876953 185.74755859375 237.9000701904297 178.3672637939453 C 222.978271484375 176.56446838378906 199.46397399902344 179.42359924316406 172.7672882080078 122.77555847167969 C 219.87831115722656 156.7075653076172 223.8337860107422 160.43246459960938 187.31680297851562 133.32354736328125 C 176.5697479248047 139.55995178222656 205.5654754638672 128.81903076171875 155.46609497070312 123.21510314941406 C 157.048583984375 187.43692016601562 161.58383178710938 201.72152709960938 176.14373779296875 216.12355041503906" fill="rgb(248, 187, 23)" opacity="0.44190815" stroke-width="2.0"/>
    <path d="M 51.16390609741211 133.64881896972656 C 100.46813201904297 95.47042846679688 103.3390121459961 92.06688690185547 144.90357971191406 101.84394836425781 C 167.9329071044922 173.0744171142578 173.55453491210938 163.8254852294922 168.0302276611328 154.08253479003906 C 112.00543975830078 159.39707946777344 95.1202392578125 161.1732940673828 51.16390609741211 133.64881896972656" fill="rgb(251, 193, 26)" opacity="0.9946966" stroke-width="2.0"/>
    <path d="M 164.32737731933594 27.621627807617188 C 173.20689392089844 34.820072174072266 166.67498779296875 30.455026626586914 168.23976135253906 28.199113845825195 C 171.93179321289062 29.257305145263672 167.9819793701172 44.729827880859375 206.16732788085938 57.42155456542969 C 187.91387939453125 30.941938400268555 150.45712280273438 19.090547561645508 164.32737731933594 27.621627807617188" fill="rgb(255, 202, 13)" opacity="0.27546853" stroke-width="2.0"/>
    <path d="M 163.6509246826172 24.97759437561035 C 164.0615234375 27.943584442138672 149.57589721679688 39.396968841552734 79.4925308227539 39.363250732421875 C 66.03050231933594 26.5017032623291 89.73289489746094 15.742776870727539 132.582275390625 18.138622283935547 C 123.46874237060547 16.332916259765625 113.52942657470703 16.165388107299805 111.13899230957031 16.574079513549805 C 114.10202026367188 14.528429985046387 111.24144744873047 16.403112411499023 113.89024353027344 14.522420883178711 C 107.01620483398438 19.518712997436523 113.44673156738281 10.842758178710938 163.6509246826172 24.97759437561035" fill="rgb(252, 193, 24)" opacity="0.7985321" stroke-width="2.0"/>
    <path d="M 25.100265502929688 52.104618072509766 C 23.076265335083008 61.700714111328125 25.39873695373535 51.290096282958984 24.633447647094727 56.47446060180664 C 25.400278091430664 53.327674865722656 23.797767639160156 59.588775634765625 25.56751823425293 50.25432205200195 C 24.24636459350586 55.85366439819336 23.53041648864746 60.828224182128906 23.600139617919922 51.06113052368164 C 23.77372169494629 58.315162658691406 24.1924991607666 58.30336380004883 25.100265502929688 52.104618072509766" fill="rgb(255, 142, 114)" opacity="0.26430023" stroke-width="2.0"/>
    <path d="M 75.19371032714844 29.930755615234375 C 85.7872543334961 49.76314926147461 84.05268859863281 48.73466873168945 71.56456756591797 35.84120178222656 C 94.82936096191406 16.22871971130371 79.1392822265625 20.666383743286133 69.98412322998047 56.24456787109375 C 94.56592559814453 44.27303695678711 61.40793991088867 19.67450714111328 109.94048309326172 30.03354263305664 C 115.00411224365234 35.736480712890625 115.16539001464844 23.999332427978516 75.19371032714844 29.930755615234375" fill="rgb(249, 194, 75)" opacity="0.2766923" stroke-width="2.0"/>
    <path d="M 85.62167358398438 155.80160522460938 C 166.2320098876953 165.6628875732422 170.09439086914062 133.2606658935547 184.94137573242188 145.6547393798828 C 172.12960815429688 208.27232360839844 169.89808654785156 217.01541137695312 176.70785522460938 212.6178741455078 C 148.5227508544922 190.14981079101562 139.40621948242188 223.1626739501953 171.7936553955078 205.22164916992188 C 177.75070190429688 212.9527130126953 168.9888458251953 218.40713500976562 115.2945556640625 219.78579711914062 C 86.34370422363281 219.45556640625 82.7039566040039 200.63568115234375 85.62167358398438 155.80160522460938" fill="rgb(195, 8, 81)" opacity="0.67155313" stroke-width="2.0"/>
    <path d="M 198.95718383789062 55.36278533935547 C 205.77059936523438 60.624732971191406 197.50318908691406 59.95519256591797 223.1859588623047 106.18413543701172 C 232.9135284423828 59.710357666015625 209.46534729003906 57.73872756958008 199.79945373535156 45.22105407714844 C 176.12066650390625 20.668947219848633 168.68101501464844 34.75267791748047 196.97789001464844 57.31842803955078 C 203.8990478515625 56.33510208129883 197.72494506835938 56.109527587890625 197.7208251953125 56.556758880615234 C 194.07984924316406 55.76692199707031 207.19924926757812 55.367942810058594 198.95718383789062 55.36278533935547" fill="rgb(250, 185, 16)" opacity="0.0" stroke-width="2.0"/>
    <path d="M 197.1928253173828 15.805900573730469 C 196.10252380371094 14.715457916259766 196.6900177001953 17.36422348022461 196.0109405517578 16.33755111694336 C 196.27503967285156 16.479093551635742 196.2878875732422 15.708625793457031 196.55421447753906 15.787124633789062 C 196.27183532714844 16.8997802734375 196.6802215576172 15.11376667022705 197.1928253173828 15.805900573730469" fill="rgb(180, 255, 105)" opacity="0.6039927" stroke-width="2.0"/>
    <path d="M 158.73077392578125 219.7257843017578 C 108.01183319091797 220.95889282226562 142.79254150390625 236.65306091308594 149.51239013671875 152.49534606933594 C 234.63267517089844 143.01956176757812 249.95115661621094 170.35903930664062 231.7759552001953 190.9804229736328 C 186.30462646484375 222.22549438476562 169.1772918701172 213.20411682128906 197.06344604492188 212.0325469970703 C 197.28761291503906 211.7089385986328 197.3767852783203 213.08692932128906 198.74273681640625 211.97457885742188 C 195.20579528808594 214.05958557128906 207.31155395507812 207.58213806152344 158.73077392578125 219.7257843017578" fill="rgb(252, 194, 26)" opacity="0.99880224" stroke-width="2.0"/>
    <path d="M 71.27806091308594 119.73086547851562 C 74.45769500732422 89.62353515625 67.7562026977539 71.87069702148438 66.72049713134766 85.74530029296875 C 113.90201568603516 83.44850158691406 78.93436431884766 120.9752197265625 85.874267578125 103.00885772705078 C 101.9574966430664 93.57191467285156 92.29898834228516 132.02273559570312 71.27806091308594 119.73086547851562" fill="rgb(120, 124, 71)" opacity="0.92286766" stroke-width="2.0"/>
    <path d="M 170.32701110839844 142.6306610107422 C 164.5258331298828 229.1455841064453 174.30543518066406 228.20791625976562 122.45099639892578 230.07568359375 C 67.96637725830078 240.5655059814453 75.1270523071289 231.0098419189453 79.26982879638672 160.88929748535156 C 120.11119079589844 157.23004150390625 170.6634521484375 149.0989532470703 170.32701110839844 142.6306610107422" fill="rgb(209, 107, 44)" opacity="0.001719457" stroke-width="2.0"/>
    <path d="M 44.90964889526367 109.57286071777344 C 23.337270736694336 112.82351684570312 31.027257919311523 119.52008819580078 35.170265197753906 111.26522064208984 C 41.33034896850586 122.50505065917969 46.17985916137695 130.67481994628906 64.97998809814453 125.81254577636719 C 58.95706558227539 84.09488677978516 71.17401123046875 92.87179565429688 69.48920440673828 105.3453598022461 C 45.349449157714844 123.12491607666016 44.03273010253906 115.02261352539062 44.90964889526367 109.57286071777344" fill="rgb(157, 138, 82)" opacity="0.50432104" stroke-width="2.0"/>
    <path d="M 86.27091217041016 152.37503051757812 C 75.462890625 146.50942993164062 125.4529037475586 173.1528778076172 177.93458557128906 140.05557250976562 C 208.34434509277344 145.50099182128906 135.67076110839844 182.93162536621094 82.70697021484375 161.723876953125 C 94.22583770751953 132.13467407226562 90.32244110107422 141.45913696289062 86.27091217041016 152.37503051757812" fill="rgb(44, 46, 46)" opacity="0.97826225" stroke-width="2.0"/>
    <path d="M 26.812637329101562 67.431640625 C 42.046913146972656 42.691070556640625 63.9284553527832 25.966590881347656 94.11892700195312 19.745182037353516 C 102.88723754882812 58.785152435302734 87.6514663696289 61.483768463134766 53.927490234375 93.01506805419922 C 62.648216247558594 32.57773971557617 62.436180114746094 33.995113372802734 59.291900634765625 53.893924713134766 C 65.94993591308594 75.48046875 31.964984893798828 80.09774017333984 26.812637329101562 67.431640625" fill="rgb(254, 194, 20)" opacity="0.2735313" stroke-width="2.0"/>
    <path d="M 103.41975402832031 236.26336669921875 C 102.71150970458984 235.50364685058594 103.17919921875 235.6044921875 103.1722412109375 235.51658630371094 C 103.03758239746094 236.08209228515625 102.54969024658203 236.44247436523438 103.08177185058594 235.93846130371094 C 103.50257110595703 236.80938720703125 102.79391479492188 235.1425018310547 103.41975402832031 236.26336669921875" fill="rgb(150, 144, 104)" opacity="0.26703516" stroke-width="2.0"/>
    <path d="M 25.24785614013672 70.20407104492188 C 72.7310562133789 99.01818084716797 84.89611053466797 105.97361755371094 80.18318176269531 24.35611343383789 C 11.386360168457031 49.90937042236328 30.079145431518555 101.93092346191406 18.84752655029297 86.68316650390625 C 40.42516326904297 45.20223617553711 42.130210876464844 47.18347930908203 25.24785614013672 70.20407104492188" fill="rgb(252, 193, 26)" opacity="0.996587" stroke-width="2.0"/>
    <path d="M 42.04948043823242 156.97406005859375 C 37.081356048583984 172.8582305908203 39.07869338989258 210.41688537597656 50.93621063232422 212.78402709960938 C 95.75128173828125 227.42401123046875 181.510986328125 224.62713623046875 134.9393310546875 206.45538330078125 C 66.91332244873047 208.3311309814453 117.94108581542969 149.33236694335938 67.35404968261719 164.9983673095703 C 42.38948059082031 163.72314453125 39.772315979003906 161.28622436523438 42.04948043823242 156.97406005859375" fill="rgb(252, 194, 26)" opacity="0.9960857" stroke-width="2.0"/>
    <path d="M 122.79644775390625 13.865116119384766 C 123.99199676513672 27.200164794921875 105.37769317626953 24.850313186645508 82.074951171875 38.29823684692383 C 97.67176055908203 44.38748550415039 105.71507263183594 26.502958297729492 76.98868560791016 36.168190002441406 C 91.09953308105469 -0.5271748304367065 121.3720703125 8.632871627807617 104.28124237060547 7.323138236999512 C 104.62265014648438 11.549836158752441 105.07935333251953 11.781559944152832 122.79644775390625 13.865116119384766" fill="rgb(148, 195, 76)" opacity="0.0" stroke-width="2.0"/>
    <path d="M 154.99623107910156 -1.7848188877105713 C 158.21214294433594 -1.2844011783599854 154.51055908203125 -3.5821330547332764 156.62786865234375 -4.42203426361084 C 153.34107971191406 2.8399999141693115 155.62936401367188 0.936619222164154 154.9889373779297 -5.609855651855469 C 158.52291870117188 0.7358202934265137 155.6858367919922 -0.6482781171798706 154.9668426513672 -9.133432388305664 C 156.79598999023438 -13.342201232910156 156.71533203125 -11.02967357635498 154.99623107910156 -1.7848188877105713" fill="rgb(123, 138, 108)" opacity="0.8065743" stroke-width="2.0"/>
    <path d="M 1.6008970737457275 180.56619262695312 C 106.18994140625 179.51068115234375 58.11233901977539 167.92172241210938 54.61919403076172 143.61636352539062 C 81.71440124511719 122.11212921142578 79.46704864501953 142.04769897460938 62.484710693359375 103.87023162841797 C 17.879104614257812 93.94640350341797 0.8386036157608032 101.1220703125 1.6008970737457275 180.56619262695312" fill="rgb(251, 193, 26)" opacity="0.99693215" stroke-width="2.0"/>
    <path d="M 150.8376922607422 192.6712188720703 C 125.48055267333984 215.38206481933594 146.96649169921875 228.97784423828125 116.6155014038086 204.8359832763672 C 152.86045837402344 207.6036834716797 143.3014373779297 162.63858032226562 149.7772216796875 188.65554809570312 C 153.4625701904297 186.5767059326172 164.85916137695312 197.6953125 150.8376922607422 192.6712188720703" fill="rgb(252, 194, 26)" opacity="0.9606134" stroke-width="2.0"/>
    <path d="M 234.0317840576172 14.585551261901855 C 233.25540161132812 14.906488418579102 236.44020080566406 15.337101936340332 231.41127014160156 14.166009902954102 C 236.20828247070312 14.83358097076416 232.99606323242188 15.267884254455566 233.89170837402344 15.105371475219727 C 234.25460815429688 14.667645454406738 233.92266845703125 15.510313034057617 234.0317840576172 14.585551261901855" fill="rgb(63, 177, 255)" opacity="0.21471715" stroke-width="2.0"/>
    <path d="M 217.08143615722656 51.340858459472656 C 222.14942932128906 52.83283615112305 224.04742431640625 55.53247833251953 227.68336486816406 53.858314514160156 C 226.71832275390625 55.058738708496094 218.12661743164062 53.93151092529297 224.77450561523438 51.5011100769043 C 221.65789794921875 52.19307327270508 220.93479919433594 55.45188522338867 225.48512268066406 52.68388366699219 C 218.90440368652344 55.48421859741211 228.4014129638672 55.08161926269531 217.08143615722656 51.340858459472656" fill="rgb(201, 128, 35)" opacity="0.011195368" stroke-width="2.0"/>
    <path d="M 151.17092895507812 117.52095794677734 C 139.2052001953125 91.2384033203125 138.9322967529297 90.50126647949219 147.4276123046875 110.10980224609375 C 146.78369140625 106.39057922363281 145.30279541015625 115.02166748046875 161.4935760498047 124.69471740722656 C 185.36114501953125 141.01148986816406 182.04393005371094 138.6288604736328 151.17092895507812 117.52095794677734" fill="rgb(151, 118, 35)" opacity="0.64242727" stroke-width="2.0"/>
    <path d="M 31.89173126220703 203.4697723388672 C 31.55080795288086 200.8782958984375 31.859167098999023 204.01016235351562 30.576568603515625 193.59445190429688 C 30.39552116394043 191.0730743408203 30.1186580657959 188.87254333496094 30.590303421020508 193.51170349121094 C 29.602182388305664 184.75411987304688 30.4986515045166 184.87896728515625 28.468082427978516 184.86874389648438 C 30.973888397216797 184.9449462890625 28.986753463745117 184.4163818359375 31.89173126220703 203.4697723388672" fill="rgb(90, 174, 156)" opacity="0.19120994" stroke-width="2.0"/>
    <path d="M 17.865825653076172 124.3072509765625 C 1.3664987087249756 131.55860900878906 6.692009925842285 130.52822875976562 12.690080642700195 126.3416748046875 C 4.746767520904541 127.64239501953125 6.029984951019287 121.0230941772461 2.986055374145508 185.89329528808594 C -8.61290454864502 167.4752197265625 -5.803970813751221 157.47560119628906 -6.489911079406738 169.154052734375 C 2.8555967807769775 155.21865844726562 15.781641006469727 21.769071578979492 33.39488220214844 85.44210052490234 C 19.01606559753418 130.39532470703125 7.139250755310059 130.35867309570312 17.865825653076172 124.3072509765625" fill="rgb(252, 201, 86)" opacity="0.02145412" stroke-width="2.0"/>
    <path d="M 64.58252716064453 113.59712219238281 C 58.08457565307617 76.0656967163086 94.1359634399414 88.38432312011719 79.10391998291016 86.54373168945312 C 88.72772979736328 87.30848693847656 82.2934799194336 85.99859619140625 81.48683166503906 86.3936996459961 C 92.03479766845703 86.6255874633789 101.88401794433594 107.70548248291016 86.15357208251953 120.4266586303711 C 63.13861846923828 130.4752197265625 61.88838195800781 93.03263854980469 64.58252716064453 113.59712219238281" fill="rgb(24, 23, 40)" opacity="0.7777184" stroke-width="2.0"/>
    <path d="M 216.78897094726562 199.87222290039062 C 217.9154815673828 206.5320587158203 219.80828857421875 207.97573852539062 220.39573669433594 193.88363647460938 C 225.16287231445312 198.29612731933594 222.00181579589844 202.9263916015625 216.41786193847656 206.64732360839844 C 228.64463806152344 206.772216796875 224.6163330078125 199.6140594482422 217.83560180664062 203.33184814453125 C 222.68109130859375 200.86166381835938 225.44891357421875 197.627197265625 239.25624084472656 200.97531127929688 C 238.09170532226562 186.383544921875 238.32337951660156 175.4247589111328 216.78897094726562 199.87222290039062" fill="rgb(192, 161, 181)" opacity="0.0" stroke-width="2.0"/>
    <path d="M 208.33010864257812 44.52253723144531 C 208.49424743652344 45.663516998291016 205.3234100341797 44.52424240112305 207.77671813964844 39.436279296875 C 209.2915496826172 50.994056701660156 208.1836395263672 38.81822204589844 204.95391845703125 31.640426635742188 C 204.74644470214844 32.55181121826172 203.381591796875 25.492528915405273 204.10699462890625 29.049800872802734 C 207.8586883544922 31.369901657104492 201.8855743408203 26.531187057495117 208.33010864257812 44.52253723144531" fill="rgb(118, 200, 35)" opacity="0.0" stroke-width="2.0"/>
    <path d="M 23.460655212402344 126.85731506347656 C 46.28972244262695 112.39167785644531 53.396446228027344 101.2318115234375 45.263065338134766 110.32799530029297 C 27.07943344116211 107.09087371826172 27.91117286682129 123.22566986083984 21.646059036254883 127.87551879882812 C -0.7895757555961609 143.2457275390625 6.3900275230407715 143.04457092285156 9.03249454498291 137.31787109375 C 12.168702125549316 132.8852996826172 31.684722900390625 123.33523559570312 45.59408950805664 110.1278076171875 C 35.81254959106445 109.44986724853516 30.66429901123047 109.42813873291016 23.460655212402344 126.85731506347656" fill="rgb(235, 181, 46)" opacity="0.35404673" stroke-width="2.0"/>
    <path d="M 14.966042518615723 205.7744903564453 C 9.086581230163574 213.0116424560547 7.5875773429870605 202.54330444335938 7.105180263519287 204.39340209960938 C 5.875609874725342 208.07936096191406 11.842238426208496 206.9560546875 13.012215614318848 209.73365783691406 C 1.4445574283599854 204.99594116210938 7.260709762573242 209.39710998535156 3.885416269302368 209.9759063720703 C 7.221833229064941 207.95742797851562 10.680931091308594 204.2672882080078 6.378561019897461 204.8548126220703 C 10.325006484985352 212.1243133544922 13.40018367767334 207.4622344970703 14.966042518615723 205.7744903564453" fill="rgb(39, 70, 231)" opacity="9.715597e-09" stroke-width="2.0"/>
    <path d="M 154.9738006591797 49.009178161621094 C 179.10150146484375 109.01696014404297 184.06564331054688 126.61602020263672 234.965087890625 129.7772216796875 C 220.8985137939453 62.054325103759766 214.00962829589844 76.61685180664062 162.36204528808594 48.87731170654297 C 170.8114013671875 21.34699821472168 204.0478973388672 42.322105407714844 223.3859100341797 88.57142639160156 C 215.33316040039062 75.16497039794922 215.59326171875 70.22433471679688 154.9738006591797 49.009178161621094" fill="rgb(252, 194, 26)" opacity="0.9878864" stroke-width="2.0"/>
    <path d="M 14.561458587646484 214.87106323242188 C 19.014511108398438 216.21139526367188 15.175989151000977 216.03298950195312 18.091487884521484 215.36265563964844 C 14.925889015197754 216.1748046875 19.104522705078125 215.82728576660156 15.89997673034668 216.63014221191406 C 16.793071746826172 216.2843017578125 18.813518524169922 216.1919708251953 14.561458587646484 214.87106323242188" fill="rgb(246, 127, 81)" opacity="0.14559457" stroke-width="2.0"/>
  </g>
</svg>
