<?xml version="1.0" ?>
<svg height="240" version="1.1" width="240" xmlns="http://www.w3.org/2000/svg">
  <defs/>
  <g>
    <path d="M 238.4784393310547 177.02902221679688 C 233.52723693847656 216.27244567871094 118.0161361694336 237.3082733154297 38.4719123840332 209.4795379638672 C -2.8350417613983154 190.7677764892578 -3.102510690689087 185.8853759765625 6.449497699737549 122.25395202636719 C 26.727069854736328 26.200193405151367 91.41715240478516 9.917165756225586 148.60174560546875 20.722980499267578 C 216.5821990966797 36.19375228881836 238.69007873535156 108.29438018798828 238.4784393310547 177.02902221679688" fill="rgb(252, 186, 0)" opacity="0.8876784" stroke="rgb(142, 234, 51)" stroke-linecap="round" stroke-linejoin="round" stroke-opacity="0.21951808" stroke-width="0.0"/>
    <path d="M 178.6999053955078 139.6904296875 C 206.45851135253906 149.96682739257812 137.8988494873047 170.56654357910156 118.8979263305664 170.78826904296875 C 104.7217025756836 170.47496032714844 33.218502044677734 150.5465850830078 61.1616096496582 139.64576721191406 C 96.88396453857422 162.43521118164062 127.73381805419922 155.69407653808594 131.3079833984375 157.0725860595703 C 109.64496612548828 154.41989135742188 141.8189697265625 163.24859619140625 178.6999053955078 139.6904296875" fill="rgb(40, 42, 47)" opacity="0.9622243" stroke="rgb(200, 169, 101)" stroke-linecap="round" stroke-linejoin="round" stroke-opacity="0.32952407" stroke-width="0.0"/>
    <path d="M 146.63145446777344 175.69004821777344 C 144.12559509277344 198.2786865234375 133.69586181640625 206.6066131591797 114.7093276977539 204.6298370361328 C 98.0263900756836 200.5673828125 95.61421966552734 189.77662658691406 92.08981323242188 166.87335205078125 C 87.45668029785156 161.54307556152344 101.6957015991211 170.75613403320312 133.42373657226562 167.54554748535156 C 153.40235900878906 165.61460876464844 148.11624145507812 160.35540771484375 146.63145446777344 175.69004821777344" fill="rgb(214, 87, 140)" opacity="0.98161376" stroke="rgb(50, 96, 209)" stroke-linecap="round" stroke-linejoin="round" stroke-opacity="0.12195479" stroke-width="0.0"/>
    <path d="M 90.63529205322266 103.04618835449219 C 90.8491439819336 112.24612426757812 85.5613784790039 120.5426254272461 77.8343505859375 121.9905014038086 C 69.33513641357422 123.57589721679688 61.9013786315918 116.74781799316406 60.51286315917969 107.5664291381836 C 58.65093994140625 96.26193237304688 65.39656829833984 87.0972671508789 72.83657836914062 85.77664184570312 C 81.7338638305664 84.05641174316406 89.82685089111328 91.42938995361328 90.63529205322266 103.04618835449219" fill="rgb(40, 42, 47)" opacity="0.96347255" stroke="rgb(4, 177, 164)" stroke-linecap="round" stroke-linejoin="round" stroke-opacity="0.46073586" stroke-width="0.0"/>
    <path d="M 162.1601104736328 103.4013900756836 C 197.57183837890625 110.00604248046875 182.2043914794922 117.77558135986328 180.91700744628906 119.17147827148438 C 148.44178771972656 106.52664184570312 136.870361328125 118.00543975830078 138.66867065429688 105.20328521728516 C 137.5185089111328 104.31949615478516 153.32125854492188 93.23260498046875 185.30715942382812 88.61476135253906 C 188.2159423828125 95.78800201416016 196.95370483398438 97.00588989257812 162.1601104736328 103.4013900756836" fill="rgb(48, 47, 46)" opacity="0.99535686" stroke="rgb(42, 165, 161)" stroke-linecap="round" stroke-linejoin="round" stroke-opacity="0.6655571" stroke-width="0.0"/>
  </g>
</svg>
