<?xml version="1.0" ?>
<svg height="240" version="1.1" width="240" xmlns="http://www.w3.org/2000/svg">
  <defs/>
  <g>
    <path d="M 233.52842712402344 122.29629516601562 C 243.23294067382812 186.40231323242188 241.9481658935547 190.13255310058594 204.36802673339844 208.37759399414062 C 126.59089660644531 237.62518310546875 7.127627849578857 217.20314025878906 1.520721197128296 177.24781799316406 C 1.2541664838790894 107.66085815429688 23.69759178161621 36.52775573730469 90.86278533935547 20.839431762695312 C 145.8519287109375 10.20444107055664 212.8216094970703 23.957874298095703 233.52842712402344 122.29629516601562" fill="rgb(252, 186, 0)" opacity="0.8875101" stroke="rgb(56, 9, 13)" stroke-linecap="round" stroke-linejoin="round" stroke-opacity="0.8711769" stroke-width="0.0"/>
    <path d="M 178.74400329589844 139.6643829345703 C 205.56431579589844 149.83413696289062 141.99832153320312 169.05426025390625 120.14911651611328 171.2057342529297 C 99.134521484375 169.19126892089844 34.25846862792969 150.02838134765625 61.18467330932617 139.66162109375 C 96.95203399658203 162.47190856933594 127.87764739990234 155.67669677734375 131.3455352783203 157.08033752441406 C 109.6716079711914 154.4140167236328 141.8018341064453 163.25961303710938 178.74400329589844 139.6643829345703" fill="rgb(39, 41, 47)" opacity="0.9612397" stroke="rgb(177, 155, 153)" stroke-linecap="round" stroke-linejoin="round" stroke-opacity="0.30874026" stroke-width="0.0"/>
    <path d="M 147.0145721435547 172.8901824951172 C 144.7880859375 193.73045349121094 138.37615966796875 204.5924072265625 119.51384735107422 205.00958251953125 C 99.62883758544922 203.93296813964844 95.47093963623047 190.56521606445312 92.88043975830078 171.18499755859375 C 90.69941711425781 159.9003143310547 86.78555297851562 167.51463317871094 119.7762451171875 168.30133056640625 C 154.54913330078125 167.75413513183594 148.6039276123047 158.97531127929688 147.0145721435547 172.8901824951172" fill="rgb(214, 87, 140)" opacity="0.98405653" stroke="rgb(192, 167, 250)" stroke-linecap="round" stroke-linejoin="round" stroke-opacity="0.87737846" stroke-width="0.0"/>
    <path d="M 94.11610412597656 104.30561065673828 C 94.05915069580078 114.81346893310547 86.67110443115234 123.33686828613281 77.17208862304688 122.09005737304688 C 69.13629913330078 120.80497741699219 63.63666915893555 112.6517105102539 63.72804260253906 103.80240631103516 C 63.65645980834961 95.20491790771484 69.50031280517578 86.93730926513672 77.28433990478516 85.98473358154297 C 85.83206939697266 84.6930923461914 94.26410675048828 92.75733947753906 94.11610412597656 104.30561065673828" fill="rgb(40, 42, 47)" opacity="0.9659847" stroke="rgb(22, 88, 19)" stroke-linecap="round" stroke-linejoin="round" stroke-opacity="0.8712474" stroke-width="0.0"/>
    <path d="M 177.0106201171875 102.5986099243164 C 177.4088134765625 112.61048889160156 171.68894958496094 120.8481674194336 163.82772827148438 121.99142456054688 C 154.713623046875 123.36038970947266 147.31765747070312 115.34991455078125 146.57363891601562 105.58580017089844 C 145.8196258544922 95.3436279296875 152.77552795410156 84.81404876708984 163.32049560546875 85.96508026123047 C 170.17373657226562 86.77474975585938 176.33470153808594 93.13755798339844 177.0106201171875 102.5986099243164" fill="rgb(40, 42, 47)" opacity="0.9653016" stroke="rgb(147, 175, 244)" stroke-linecap="round" stroke-linejoin="round" stroke-opacity="0.09393449" stroke-width="0.0"/>
    </g>
</svg>
