<?xml version="1.0" ?>
<svg height="240" version="1.1" width="240" xmlns="http://www.w3.org/2000/svg">
  <defs/>
  <g>
    <path d="M 226.97244262695312 216.3629913330078 C 227.12643432617188 217.05087280273438 226.58071899414062 217.54855346679688 227.55404663085938 216.6002197265625 C 226.29457092285156 217.57278442382812 227.54727172851562 216.90904235839844 226.9542694091797 217.1305389404297 C 227.10157775878906 216.466064453125 226.8633270263672 217.62400817871094 226.97244262695312 216.3629913330078" fill="rgb(255, 221, 255)" opacity="0.19878347" stroke-width="2.0"/>
    <path d="M 78.05194091796875 62.420448303222656 C 49.738746643066406 121.9678726196289 46.339111328125 192.5157470703125 71.4176025390625 176.83084106445312 C 68.89045715332031 180.53375244140625 56.32615280151367 174.60203552246094 88.84323120117188 182.17091369628906 C 93.4371337890625 170.78778076171875 105.94298553466797 76.86393737792969 78.05194091796875 62.420448303222656" fill="rgb(0, 13, 52)" opacity="1.0" stroke-width="2.0"/>
    <path d="M 174.9488067626953 118.0713882446289 C 115.13908386230469 118.13709259033203 153.39883422851562 114.82278442382812 168.59173583984375 40.206321716308594 C 108.2835922241211 17.07524299621582 97.12139129638672 12.206204414367676 95.0206069946289 69.53202056884766 C 90.58236694335938 145.58154296875 95.08809661865234 137.09352111816406 174.9488067626953 118.0713882446289" fill="rgb(245, 182, 35)" opacity="0.95967466" stroke-width="2.0"/>
    <path d="M 231.4215545654297 115.41127014160156 C 227.2946014404297 118.20323181152344 226.02114868164062 119.2542724609375 231.23837280273438 115.5181884765625 C 226.0341339111328 113.57508850097656 230.55303955078125 112.57283782958984 233.59181213378906 136.63389587402344 C 215.5500946044922 113.23037719726562 215.2200927734375 109.42313385009766 231.4215545654297 115.41127014160156" fill="rgb(162, 73, 29)" opacity="0.5332002" stroke-width="2.0"/>
    <path d="M 231.4606475830078 156.2456512451172 C 253.9224853515625 185.3236083984375 217.61280822753906 203.43348693847656 203.93630981445312 208.1028289794922 C 216.0355682373047 198.07888793945312 200.90496826171875 219.0297088623047 130.69619750976562 222.16856384277344 C 164.86563110351562 151.542724609375 119.74594116210938 140.82009887695312 231.4606475830078 156.2456512451172" fill="rgb(255, 186, 0)" opacity="0.846458" stroke-width="2.0"/>
    <path d="M 37.93107604980469 208.8964080810547 C 94.21465301513672 224.08782958984375 104.15547180175781 226.66384887695312 92.74122619628906 171.46795654296875 C 61.42055892944336 159.84274291992188 29.738183975219727 137.72573852539062 11.167686462402344 103.37625885009766 C -5.309708595275879 176.05189514160156 4.966698169708252 195.07098388671875 37.93107604980469 208.8964080810547" fill="rgb(254, 183, 0)" opacity="0.73140776" stroke-width="2.0"/>
    <path d="M 242.36940002441406 139.25357055664062 C 240.53150939941406 149.3814697265625 247.728515625 146.5518035888672 246.19276428222656 146.0462188720703 C 245.34112548828125 148.6467742919922 245.07891845703125 153.07752990722656 240.31117248535156 158.09425354003906 C 247.66944885253906 153.8569793701172 246.97161865234375 146.3489227294922 242.36940002441406 139.25357055664062" fill="rgb(25, 246, 38)" opacity="0.0" stroke-width="2.0"/>
    <path d="M 147.39083862304688 220.78875732421875 C 150.69052124023438 177.93240356445312 97.22673797607422 239.38778686523438 92.28689575195312 164.9084930419922 C 37.58967971801758 152.0908966064453 51.18305587768555 117.62897491455078 68.76304626464844 217.4879150390625 C 43.809757232666016 209.5902862548828 80.94535827636719 226.73109436035156 147.39083862304688 220.78875732421875" fill="rgb(252, 194, 26)" opacity="0.9868452" stroke-width="2.0"/>
    <path d="M 19.895370483398438 235.0595703125 C 19.873849868774414 235.09556579589844 19.80582046508789 235.0736541748047 20.0977783203125 235.03248596191406 C 19.926759719848633 235.0977325439453 19.834497451782227 235.0605926513672 20.047340393066406 235.2733917236328 C 19.860828399658203 234.78810119628906 19.87070655822754 234.79600524902344 19.895370483398438 235.0595703125" fill="rgb(246, 255, 127)" opacity="0.50814295" stroke-width="2.0"/>
    <path d="M 140.73825073242188 19.74517822265625 C 107.78271484375 14.088440895080566 71.30663299560547 20.350004196166992 45.55860900878906 45.04866409301758 C 44.98710250854492 69.48133087158203 48.974159240722656 77.18278503417969 67.47330474853516 84.29350280761719 C 138.5044403076172 97.77491760253906 142.5311737060547 94.22010803222656 140.73825073242188 19.74517822265625" fill="rgb(252, 194, 25)" opacity="0.98983186" stroke-width="2.0"/>
    <path d="M 233.6639404296875 188.6312255859375 C 186.00595092773438 228.15769958496094 160.18649291992188 221.31500244140625 160.39810180664062 149.32342529296875 C 177.5902099609375 145.34632873535156 240.75611877441406 148.49012756347656 243.37168884277344 148.92074584960938 C 219.08322143554688 148.06922912597656 246.8693389892578 141.07569885253906 233.6639404296875 188.6312255859375" fill="rgb(248, 190, 13)" opacity="0.517239" stroke-width="2.0"/>
    <path d="M 180.09849548339844 20.91547393798828 C 180.26490783691406 18.439958572387695 179.73793029785156 20.43935203552246 179.83438110351562 22.39680290222168 C 179.67312622070312 18.4129581451416 181.0572509765625 19.829341888427734 178.3195343017578 18.429500579833984 C 180.5232391357422 19.566802978515625 179.97653198242188 18.760438919067383 180.09849548339844 20.91547393798828" fill="rgb(108, 254, 72)" opacity="0.17085823" stroke-width="2.0"/>
    <path d="M 208.4720458984375 60.98008346557617 C 171.988037109375 62.729347229003906 165.70774841308594 68.77967834472656 159.77142333984375 103.41521453857422 C 126.57095336914062 145.79397583007812 144.32923889160156 141.1699676513672 236.07191467285156 138.57330322265625 C 230.3489532470703 94.9887466430664 215.4921417236328 70.53184509277344 208.4720458984375 60.98008346557617" fill="rgb(251, 187, 0)" opacity="0.88363534" stroke-width="2.0"/>
    <path d="M 231.0063934326172 173.96990966796875 C 222.61666870117188 110.80712127685547 209.2739715576172 118.5924072265625 167.6642303466797 146.38339233398438 C 151.3550567626953 170.9989471435547 170.3057403564453 176.5946502685547 147.8499298095703 166.87782287597656 C 152.83470153808594 115.04364776611328 158.21875 171.19659423828125 231.0063934326172 173.96990966796875" fill="rgb(201, 190, 2)" opacity="0.46321857" stroke-width="2.0"/>
    <path d="M 200.0146942138672 9.36247444152832 C 200.11013793945312 7.099915981292725 199.89688110351562 10.597579002380371 199.38099670410156 8.02707290649414 C 200.19143676757812 10.867152214050293 199.92950439453125 7.457489013671875 199.97401428222656 9.341728210449219 C 199.5602569580078 8.981621742248535 200.3777313232422 9.460715293884277 200.0146942138672 9.36247444152832" fill="rgb(157, 255, 102)" opacity="0.30966628" stroke-width="2.0"/>
    <path d="M 153.19422912597656 98.32715606689453 C 84.39163970947266 152.58834838867188 53.4102897644043 174.53659057617188 100.73347473144531 98.182373046875 C 89.28511810302734 76.35091400146484 106.55632019042969 108.1533432006836 155.15147399902344 69.76260375976562 C 147.0392608642578 29.45834732055664 143.44334411621094 20.045724868774414 153.19422912597656 98.32715606689453" fill="rgb(255, 199, 17)" opacity="0.6946032" stroke-width="2.0"/>
    <path d="M 17.584333419799805 88.75718688964844 C 74.33425903320312 109.39762878417969 61.753807067871094 147.53297424316406 83.5854721069336 126.97734832763672 C 61.35245132446289 98.82022094726562 58.990333557128906 181.3623809814453 2.4014809131622314 173.93301391601562 C -0.07028701156377792 155.36630249023438 7.628220558166504 103.92710876464844 17.584333419799805 88.75718688964844" fill="rgb(255, 201, 5)" opacity="0.85732263" stroke-width="2.0"/>
    <path d="M 35.19166564941406 219.67120361328125 C 39.343265533447266 213.75509643554688 35.5493278503418 219.02154541015625 34.13865661621094 221.1693572998047 C 36.36861038208008 217.9777374267578 34.61827850341797 220.37643432617188 35.95016860961914 221.77618408203125 C 35.115455627441406 221.14773559570312 35.5505485534668 218.83262634277344 35.19166564941406 219.67120361328125" fill="rgb(152, 105, 250)" opacity="0.048000067" stroke-width="2.0"/>
    <path d="M 193.58628845214844 85.31558990478516 C 213.29173278808594 91.26824188232422 240.60226440429688 103.46451568603516 238.1064910888672 179.72621154785156 C 192.2476348876953 185.18130493164062 179.734375 182.38168334960938 157.0435791015625 138.7512969970703 C 167.2196502685547 93.46670532226562 176.1499481201172 122.2719497680664 193.58628845214844 85.31558990478516" fill="rgb(252, 194, 27)" opacity="0.99204934" stroke-width="2.0"/>
    <path d="M 191.26991271972656 145.5283966064453 C 124.49781799316406 181.93838500976562 122.28117370605469 183.5445098876953 165.3185272216797 159.86167907714844 C 141.07901000976562 168.27206420898438 120.56471252441406 171.0000762939453 92.4750747680664 165.216552734375 C 90.15995788574219 140.68215942382812 102.2584457397461 129.81985473632812 191.26991271972656 145.5283966064453" fill="rgb(0, 102, 41)" opacity="1.0" stroke-width="2.0"/>
    <path d="M 53.697975158691406 116.93183135986328 C 54.24605178833008 194.28248596191406 78.36305236816406 191.53118896484375 78.61714172363281 218.95553588867188 C 44.84305191040039 214.53421020507812 3.768052339553833 200.37889099121094 1.6080293655395508 176.4513397216797 C 3.077089786529541 127.11128997802734 2.9569709300994873 118.62686157226562 53.697975158691406 116.93183135986328" fill="rgb(251, 193, 26)" opacity="0.9763397" stroke-width="2.0"/>
    <path d="M 42.97895050048828 231.64657592773438 C 44.02140426635742 232.85049438476562 44.351924896240234 234.4091339111328 44.57597351074219 234.173583984375 C 40.60797882080078 233.26153564453125 42.0240364074707 233.46286010742188 49.27857208251953 235.46676635742188 C 41.897735595703125 233.2650909423828 45.78062057495117 235.2835235595703 42.97895050048828 231.64657592773438" fill="rgb(219, 255, 48)" opacity="0.14491121" stroke-width="2.0"/>
    <path d="M 9.677840232849121 103.96465301513672 C 10.946340560913086 116.92884063720703 5.846353530883789 119.47845458984375 42.91053009033203 103.30007934570312 C 24.302309036254883 80.66102600097656 27.56523323059082 92.34880065917969 58.95612716674805 57.765804290771484 C 51.35306930541992 20.88588523864746 30.250469207763672 42.34016036987305 9.677840232849121 103.96465301513672" fill="rgb(229, 184, 2)" opacity="0.0064375647" stroke-width="2.0"/>
    <path d="M 169.2993927001953 8.289478302001953 C 171.54312133789062 8.723306655883789 172.1204071044922 12.040316581726074 173.6727294921875 16.033599853515625 C 166.6654815673828 11.337130546569824 176.6038818359375 19.021276473999023 174.58087158203125 -8.309120178222656 C 151.7906494140625 -2.449014186859131 162.44017028808594 5.06090784072876 169.2993927001953 8.289478302001953" fill="rgb(255, 228, 237)" opacity="0.0" stroke-width="2.0"/>
    <path d="M 16.181371688842773 115.332275390625 C 34.88449478149414 50.803585052490234 33.97495651245117 47.151554107666016 43.72639846801758 69.1678466796875 C 79.39940643310547 108.25877380371094 97.69511413574219 52.685218811035156 85.07115173339844 137.43165588378906 C 41.44379425048828 144.32461547851562 33.1381721496582 122.29405975341797 16.181371688842773 115.332275390625" fill="rgb(0, 11, 46)" opacity="0.42702952" stroke-width="2.0"/>
    <path d="M 230.60182189941406 86.95622253417969 C 230.5438690185547 87.47248840332031 230.90921020507812 85.85501861572266 230.40298461914062 87.36946105957031 C 230.02230834960938 86.57742309570312 230.2996063232422 87.05559539794922 230.54635620117188 87.29350280761719 C 230.3800048828125 86.9610366821289 230.6309814453125 86.88228607177734 230.60182189941406 86.95622253417969" fill="rgb(59, 255, 203)" opacity="0.4636456" stroke-width="2.0"/>
    <path d="M 31.13092803955078 21.45662498474121 C 31.000301361083984 20.76925277709961 29.74717903137207 18.625791549682617 32.346981048583984 18.545825958251953 C 34.02410125732422 21.287538528442383 35.1454963684082 18.80120849609375 32.683502197265625 19.06465721130371 C 37.58476638793945 23.794252395629883 31.469499588012695 23.460159301757812 31.13092803955078 21.45662498474121" fill="rgb(255, 255, 255)" opacity="0.0" stroke-width="2.0"/>
    <path d="M 11.04560661315918 31.98862075805664 C 11.39647102355957 31.505996704101562 10.869141578674316 31.889169692993164 10.910224914550781 32.358009338378906 C 10.871278762817383 31.917800903320312 11.45445442199707 32.838401794433594 10.39067268371582 31.436975479125977 C 11.282034873962402 32.89262771606445 10.983497619628906 31.487878799438477 11.04560661315918 31.98862075805664" fill="rgb(198, 245, 191)" opacity="0.178878" stroke-width="2.0"/>
    <path d="M 80.91323852539062 229.9933624267578 C 79.29546356201172 229.46435546875 79.36627197265625 230.31814575195312 78.9413070678711 230.073974609375 C 79.8685531616211 229.10963439941406 78.86397552490234 229.99212646484375 79.59825897216797 229.57228088378906 C 79.4220962524414 229.8072052001953 78.47586059570312 229.29107666015625 80.91323852539062 229.9933624267578" fill="rgb(185, 188, 75)" opacity="0.33223337" stroke-width="2.0"/>
    <path d="M 194.11595153808594 208.0316619873047 C 191.78367614746094 209.86819458007812 184.5039520263672 221.88804626464844 101.27800750732422 220.98866271972656 C 119.24372100830078 193.59872436523438 133.92449951171875 224.7885284423828 189.075927734375 139.38018798828125 C 195.56973266601562 143.57162475585938 187.12335205078125 166.3162078857422 194.11595153808594 208.0316619873047" fill="rgb(251, 193, 26)" opacity="0.8441269" stroke-width="2.0"/>
    <path d="M 173.40797424316406 142.9984130859375 C 137.13037109375 163.16989135742188 106.53346252441406 156.16903686523438 94.5533218383789 154.36199951171875 C 40.288917541503906 138.02920532226562 49.26438903808594 126.18128204345703 166.9100341796875 95.5674057006836 C 177.4302978515625 165.50717163085938 171.28587341308594 172.74917602539062 173.40797424316406 142.9984130859375" fill="rgb(252, 194, 26)" opacity="0.9944519" stroke-width="2.0"/>
    <path d="M 68.33260345458984 19.766386032104492 C 68.43756866455078 18.07886505126953 68.29813385009766 20.37285041809082 68.2626953125 21.520919799804688 C 67.71656799316406 22.332046508789062 69.35003662109375 24.007341384887695 68.1676025390625 22.339269638061523 C 68.41361236572266 18.860843658447266 68.112060546875 23.289344787597656 68.33260345458984 19.766386032104492" fill="rgb(224, 242, 255)" opacity="0.044732913" stroke-width="2.0"/>
    <path d="M 170.4056854248047 0.24480192363262177 C 173.07666015625 -2.788630247116089 170.91119384765625 2.2128052711486816 173.7607421875 -3.5594570636749268 C 175.6770477294922 -4.64846134185791 171.0201873779297 -2.4746718406677246 166.12428283691406 -2.6023905277252197 C 170.80332946777344 -8.201416015625 174.4991455078125 -3.6998555660247803 170.4056854248047 0.24480192363262177" fill="rgb(194, 87, 245)" opacity="0.66238934" stroke-width="2.0"/>
    <path d="M 198.6408233642578 54.42754364013672 C 226.42733764648438 87.51251983642578 221.47744750976562 96.21125793457031 125.83478546142578 94.69414520263672 C 121.0798568725586 13.578756332397461 126.57837677001953 11.13492488861084 172.42886352539062 29.35912322998047 C 212.8780059814453 52.23347473144531 198.13011169433594 58.551822662353516 198.6408233642578 54.42754364013672" fill="rgb(249, 193, 29)" opacity="0.99201244" stroke-width="2.0"/>
    <path d="M 189.13619995117188 40.133201599121094 C 161.04884338378906 17.497112274169922 127.19641876220703 17.78474998474121 122.13123321533203 17.98078155517578 C 122.98719787597656 121.2300033569336 128.51519775390625 116.28294372558594 200.55865478515625 103.0913314819336 C 224.2247772216797 82.09104919433594 215.78395080566406 63.18421173095703 189.13619995117188 40.133201599121094" fill="rgb(253, 194, 25)" opacity="0.7313903" stroke-width="2.0"/>
    <path d="M 224.8151092529297 108.79326629638672 C 217.75213623046875 91.57527160644531 226.1845703125 60.626224517822266 203.81642150878906 56.59527587890625 C 223.37356567382812 88.0283203125 241.68914794921875 98.24725341796875 239.00119018554688 188.29586791992188 C 217.64617919921875 117.85814666748047 235.55624389648438 118.6639404296875 224.8151092529297 108.79326629638672" fill="rgb(253, 175, 6)" opacity="0.017927274" stroke-width="2.0"/>
    <path d="M 153.4820098876953 119.53327178955078 C 136.3373565673828 104.62228393554688 154.01034545898438 76.28260040283203 170.7932891845703 89.62214660644531 C 188.88522338867188 102.78963470458984 166.43304443359375 154.1736602783203 129.3036651611328 91.58599090576172 C 124.63973236083984 81.93695831298828 135.21705627441406 107.76097106933594 153.4820098876953 119.53327178955078" fill="rgb(0, 0, 52)" opacity="0.71038085" stroke-width="2.0"/>
    <path d="M 115.03783416748047 148.11279296875 C 22.695262908935547 103.88311767578125 88.13420867919922 91.76835632324219 61.971534729003906 79.70995330810547 C 56.44500732421875 76.15857696533203 81.98117065429688 51.16594696044922 28.008453369140625 65.73573303222656 C -3.8762011528015137 122.37144470214844 3.3829972743988037 136.6389923095703 115.03783416748047 148.11279296875" fill="rgb(252, 194, 26)" opacity="0.98801196" stroke-width="2.0"/>
    <path d="M 95.46343231201172 198.94773864746094 C 74.61859130859375 175.2938995361328 64.17166900634766 196.71871948242188 47.4891242980957 211.30450439453125 C 53.33585739135742 215.45962524414062 85.46563720703125 226.60641479492188 102.13603210449219 218.42408752441406 C 63.44308853149414 183.47396850585938 60.90845489501953 204.09251403808594 95.46343231201172 198.94773864746094" fill="rgb(254, 193, 33)" opacity="0.04664199" stroke-width="2.0"/>
    <path d="M 92.36872863769531 154.51881408691406 C 88.39750671386719 224.60302734375 138.31607055664062 205.01646423339844 143.26229858398438 193.2018280029297 C 155.70751953125 131.6769561767578 140.85133361816406 189.7858428955078 185.68748474121094 141.16954040527344 C 169.9664764404297 136.45274353027344 158.44493103027344 166.3128204345703 92.36872863769531 154.51881408691406" fill="rgb(151, 0, 52)" opacity="0.57120854" stroke-width="2.0"/>
    <path d="M 229.531005859375 58.92757797241211 C 231.7498321533203 56.73922348022461 230.88185119628906 57.53813934326172 230.8959503173828 57.756263732910156 C 231.69273376464844 56.83177947998047 228.71990966796875 59.953914642333984 235.12510681152344 53.28276443481445 C 232.0982208251953 56.282493591308594 243.1620330810547 45.40459442138672 229.531005859375 58.92757797241211" fill="rgb(255, 86, 104)" opacity="0.23805615" stroke-width="2.0"/>
    <path d="M 22.474884033203125 111.8670883178711 C 96.21074676513672 90.42738342285156 106.0299072265625 39.426300048828125 98.69146728515625 59.74264907836914 C 58.24559783935547 45.950843811035156 60.051918029785156 38.109657287597656 59.48234176635742 34.19253921508789 C 46.49459457397461 40.9390869140625 8.587700843811035 74.6416015625 22.474884033203125 111.8670883178711" fill="rgb(252, 193, 26)" opacity="0.9863549" stroke-width="2.0"/>
    <path d="M 30.92810821533203 128.90939331054688 C 36.73234558105469 96.93727111816406 10.85944652557373 101.66436004638672 7.346714973449707 156.76441955566406 C -2.5248000621795654 136.5610809326172 34.481685638427734 103.54331970214844 12.836246490478516 98.06812286376953 C -3.002279758453369 158.98391723632812 2.1363871097564697 159.2118377685547 30.92810821533203 128.90939331054688" fill="rgb(250, 192, 27)" opacity="0.48585275" stroke-width="2.0"/>
    <path d="M 78.38041687011719 73.6488037109375 C 106.12803649902344 121.58812713623047 109.25680541992188 105.31991577148438 83.80725860595703 73.64244842529297 C 40.38175964355469 46.89305877685547 31.57086944580078 55.232444763183594 39.81632995605469 53.80788803100586 C 40.28519058227539 53.29541778564453 51.32081985473633 54.652645111083984 78.38041687011719 73.6488037109375" fill="rgb(253, 195, 25)" opacity="0.93496406" stroke-width="2.0"/>
    <path d="M 232.4127960205078 7.48276424407959 C 232.39720153808594 6.696477890014648 233.4884033203125 6.863970756530762 232.63259887695312 7.020493030548096 C 233.09698486328125 6.531803131103516 233.1227569580078 6.71111536026001 233.1580352783203 7.397083759307861 C 233.54823303222656 6.362761974334717 232.29661560058594 7.078887462615967 232.4127960205078 7.48276424407959" fill="rgb(81, 228, 132)" opacity="0.7101631" stroke-width="2.0"/>
    <path d="M 181.5652618408203 132.92111206054688 C 207.20481872558594 122.87506103515625 215.82057189941406 123.68970489501953 231.41355895996094 116.37592315673828 C 229.87457275390625 117.3838882446289 217.18856811523438 122.00190734863281 216.0170440673828 122.03839874267578 C 175.33653259277344 132.8375244140625 179.48733520507812 135.59390258789062 181.5652618408203 132.92111206054688" fill="rgb(254, 133, 56)" opacity="0.41999552" stroke-width="2.0"/>
    <path d="M 34.004615783691406 23.852680206298828 C 32.754390716552734 24.001619338989258 35.729248046875 23.728103637695312 33.22629165649414 23.9006404876709 C 35.81254196166992 23.733814239501953 33.040287017822266 24.300642013549805 34.32270812988281 23.941871643066406 C 34.503929138183594 24.591670989990234 32.765357971191406 20.800579071044922 34.004615783691406 23.852680206298828" fill="rgb(184, 249, 221)" opacity="0.18681827" stroke-width="2.0"/>
    <path d="M 146.93161010742188 63.071502685546875 C 156.95008850097656 91.89471435546875 159.67269897460938 88.52688598632812 156.0131072998047 84.37061309814453 C 216.68626403808594 98.49299621582031 229.92552185058594 104.81395721435547 216.5469207763672 74.8659439086914 C 203.69277954101562 53.344974517822266 207.00245666503906 52.5321044921875 146.93161010742188 63.071502685546875" fill="rgb(251, 193, 27)" opacity="0.53426975" stroke-width="2.0"/>
    <path d="M 207.650390625 53.7092399597168 C 207.81602478027344 59.04475784301758 209.63389587402344 54.06482696533203 213.16958618164062 58.648677825927734 C 213.1998291015625 54.0468635559082 210.64508056640625 58.22618865966797 207.4047393798828 55.74126052856445 C 208.25613403320312 48.76298904418945 208.94017028808594 48.97261428833008 207.650390625 53.7092399597168" fill="rgb(233, 103, 251)" opacity="0.0" stroke-width="2.0"/>
    <path d="M 190.07589721679688 5.756594657897949 C 184.35400390625 11.37334156036377 189.1753692626953 2.3348093032836914 191.70689392089844 8.26236343383789 C 190.04559326171875 9.973796844482422 186.74708557128906 14.290970802307129 189.06292724609375 7.628655910491943 C 190.62147521972656 4.313177108764648 184.78392028808594 15.767009735107422 190.07589721679688 5.756594657897949" fill="rgb(194, 233, 59)" opacity="0.0" stroke-width="2.0"/>
    <path d="M 31.62953758239746 219.58859252929688 C 37.74021530151367 220.3456573486328 37.86018753051758 223.34225463867188 36.241424560546875 220.10105895996094 C 38.977561950683594 215.76893615722656 35.572410583496094 220.5409698486328 34.59246826171875 216.97132873535156 C 41.42233657836914 222.7981414794922 29.640018463134766 226.5166015625 31.62953758239746 219.58859252929688" fill="rgb(255, 245, 59)" opacity="0.0" stroke-width="2.0"/>
    <path d="M 27.085670471191406 35.659236907958984 C 27.812318801879883 35.615684509277344 27.627357482910156 36.09165954589844 27.864437103271484 35.898841857910156 C 27.74953269958496 35.81318664550781 27.176218032836914 35.419273376464844 27.222797393798828 36.27411651611328 C 27.0070743560791 35.71802520751953 27.851377487182617 36.10183334350586 27.085670471191406 35.659236907958984" fill="rgb(247, 184, 76)" opacity="0.5401535" stroke-width="2.0"/>
    <path d="M 203.2195281982422 212.99708557128906 C 202.81680297851562 213.32330322265625 203.23793029785156 213.33177185058594 203.07763671875 212.69627380371094 C 202.8799285888672 212.91603088378906 202.4744415283203 213.5207977294922 203.24317932128906 213.14126586914062 C 202.50198364257812 212.94729614257812 203.28846740722656 212.98397827148438 203.2195281982422 212.99708557128906" fill="rgb(113, 224, 255)" opacity="0.3828331" stroke-width="2.0"/>
    <path d="M 220.0401153564453 69.1954574584961 C 204.15419006347656 75.4030990600586 206.15267944335938 70.18373107910156 219.22665405273438 67.49130249023438 C 216.01385498046875 82.15860748291016 229.13731384277344 77.84210205078125 219.08743286132812 82.61972045898438 C 208.3966522216797 56.44651794433594 208.2290802001953 55.49061965942383 220.0401153564453 69.1954574584961" fill="rgb(154, 151, 114)" opacity="0.0" stroke-width="2.0"/>
    <path d="M 52.12981414794922 230.46165466308594 C 54.20960998535156 232.25433349609375 51.81432342529297 230.58717346191406 53.11100387573242 232.56166076660156 C 52.35498046875 230.7327880859375 53.41567611694336 232.05303955078125 52.76409149169922 231.0798797607422 C 52.21076583862305 230.69561767578125 54.31972885131836 231.95303344726562 52.12981414794922 230.46165466308594" fill="rgb(208, 164, 236)" opacity="0.2739783" stroke-width="2.0"/>
    <path d="M 144.15338134765625 59.334556579589844 C 149.0178985595703 47.63612747192383 150.07899475097656 47.93580627441406 53.400062561035156 44.15721130371094 C 56.5424919128418 65.28578186035156 57.499778747558594 147.55767822265625 67.38732147216797 143.81687927246094 C 153.3671112060547 157.19480895996094 152.11968994140625 150.2479248046875 144.15338134765625 59.334556579589844" fill="rgb(251, 193, 29)" opacity="0.19298352" stroke-width="2.0"/>
    <path d="M 7.457135200500488 129.56214904785156 C 38.86880874633789 140.94638061523438 14.093177795410156 135.43344116210938 23.687347412109375 124.35746002197266 C 46.58648681640625 114.72518157958984 60.90564727783203 111.96240234375 52.381595611572266 114.54601287841797 C 6.489912033081055 106.48457336425781 8.42551326751709 95.56476593017578 7.457135200500488 129.56214904785156" fill="rgb(250, 192, 29)" opacity="0.28526556" stroke-width="2.0"/>
    <path d="M 7.357832431793213 210.77752685546875 C 8.254493713378906 211.24127197265625 7.75134801864624 211.3694610595703 7.784504413604736 211.1409912109375 C 8.085859298706055 211.23947143554688 7.510087490081787 211.44688415527344 8.420844078063965 211.10922241210938 C 7.188373565673828 211.59292602539062 8.848128318786621 211.4686737060547 7.357832431793213 210.77752685546875" fill="rgb(119, 174, 255)" opacity="0.33339873" stroke-width="2.0"/>
    <path d="M 204.9633026123047 176.92294311523438 C 223.95237731933594 208.6831512451172 217.0061798095703 211.0516357421875 123.51467895507812 218.90687561035156 C 166.65455627441406 148.19436645507812 195.529541015625 154.2378692626953 201.66006469726562 153.9359130859375 C 131.0741729736328 157.49588012695312 124.65078735351562 187.0099334716797 204.9633026123047 176.92294311523438" fill="rgb(253, 194, 24)" opacity="0.40159974" stroke-width="2.0"/>
    <path d="M 99.40913391113281 208.0931854248047 C 22.572370529174805 206.00851440429688 23.278587341308594 207.5256805419922 0.7885243892669678 179.5962677001953 C 2.5983901023864746 117.23020935058594 7.739689826965332 78.80091094970703 52.45463180541992 109.36956024169922 C 117.93751525878906 152.466796875 72.8917007446289 63.42367172241211 99.40913391113281 208.0931854248047" fill="rgb(254, 194, 28)" opacity="0.19308335" stroke-width="2.0"/>
    <path d="M 216.88467407226562 43.0759391784668 C 217.09194946289062 41.847713470458984 217.7293243408203 40.72745132446289 215.46615600585938 42.66738510131836 C 218.07505798339844 41.27252197265625 216.9190673828125 42.24686050415039 217.0810546875 42.37882995605469 C 217.52676391601562 42.00165557861328 217.11843872070312 41.83694839477539 216.88467407226562 43.0759391784668" fill="rgb(72, 176, 97)" opacity="0.28229368" stroke-width="2.0"/>
    <path d="M 193.48602294921875 18.690996170043945 C 194.7643280029297 14.286170959472656 194.2947540283203 13.088497161865234 194.14517211914062 21.34394645690918 C 194.3409881591797 14.105081558227539 194.75352478027344 10.629225730895996 194.36326599121094 15.202676773071289 C 193.91021728515625 16.90208625793457 195.89013671875 9.527644157409668 193.48602294921875 18.690996170043945" fill="rgb(255, 112, 158)" opacity="0.07572286" stroke-width="2.0"/>
    <path d="M 177.24249267578125 108.09095001220703 C 176.76287841796875 66.8419189453125 127.92486572265625 89.82653045654297 154.76016235351562 120.6778564453125 C 146.57778930664062 117.16399383544922 201.19151306152344 131.56671142578125 155.34776306152344 162.5941925048828 C 229.6375274658203 138.89859008789062 136.49533081054688 140.32843017578125 177.24249267578125 108.09095001220703" fill="rgb(1, 29, 49)" opacity="0.33055452" stroke-width="2.0"/>
    <path d="M 16.035993576049805 197.25845336914062 C 67.023681640625 228.739990234375 77.1023178100586 217.00955200195312 62.92670440673828 194.09567260742188 C 57.47527313232422 209.574462890625 38.39018630981445 221.53631591796875 1.6852830648422241 187.7638702392578 C 6.584422588348389 169.07254028320312 1.6261426210403442 161.35350036621094 16.035993576049805 197.25845336914062" fill="rgb(246, 194, 16)" opacity="0.03169381" stroke-width="2.0"/>
  </g>
</svg>
