<?xml version="1.0" ?>
<svg height="240" version="1.1" width="240" xmlns="http://www.w3.org/2000/svg">
  <defs/>
  <g>
    <path d="M 169.54833984375 14.587654113769531 C 164.30970764160156 10.696075439453125 168.66200256347656 13.910765647888184 166.5756378173828 12.049430847167969 C 169.0742645263672 14.441427230834961 167.6750946044922 12.233386039733887 167.92042541503906 12.744063377380371 C 169.15052795410156 14.689163208007812 163.83804321289062 10.213142395019531 169.54833984375 14.587654113769531" fill="rgb(146, 87, 128)" opacity="0.19044918" stroke-width="2.0"/>
    <path d="M 123.73001861572266 155.60296630859375 C 34.8194580078125 116.92737579345703 40.175167083740234 159.5710906982422 84.78312683105469 213.42495727539062 C 118.01042175292969 170.3228759765625 117.21183013916016 167.2910919189453 108.09015655517578 221.4298095703125 C 68.84754180908203 210.5223388671875 87.5459976196289 222.75975036621094 123.73001861572266 155.60296630859375" fill="rgb(252, 190, 7)" opacity="0.9176992" stroke-width="2.0"/>
    <path d="M 100.83234405517578 74.17390441894531 C 56.13955307006836 80.95304870605469 52.7064094543457 67.63706970214844 78.4521255493164 24.688669204711914 C 113.53357696533203 11.159727096557617 156.3394317626953 21.655019760131836 149.86325073242188 21.779115676879883 C 134.4297637939453 62.65389633178711 102.19409942626953 59.33833694458008 88.46072387695312 61.00482940673828 C 97.04752349853516 19.260292053222656 103.64393615722656 14.142210006713867 143.8188018798828 23.545156478881836 C 120.05545043945312 18.418594360351562 81.82157897949219 6.687580108642578 100.83234405517578 74.17390441894531" fill="rgb(255, 193, 0)" opacity="0.7729406" stroke-width="2.0"/>
    <path d="M 53.68292999267578 150.70384216308594 C 47.43418884277344 98.16411590576172 41.43268585205078 97.83145904541016 11.559659004211426 102.52885437011719 C 2.5308706760406494 130.85386657714844 1.6303503513336182 159.2733612060547 1.8036870956420898 162.49778747558594 C 3.240699529647827 171.48146057128906 -1.089172124862671 178.1398468017578 5.7589545249938965 186.53517150878906 C 24.4816951751709 203.00970458984375 31.924142837524414 204.35289001464844 53.68292999267578 150.70384216308594" fill="rgb(255, 197, 0)" opacity="0.6702433" stroke-width="2.0"/>
    <path d="M 78.84033966064453 230.90943908691406 C 80.56885528564453 234.59999084472656 77.2767105102539 234.9623565673828 82.04151916503906 234.3718719482422 C 82.46676635742188 234.43353271484375 78.46807098388672 240.0553436279297 76.5392837524414 236.80435180664062 C 77.12406158447266 230.25697326660156 78.87151336669922 234.46739196777344 78.84033966064453 230.90943908691406" fill="rgb(255, 212, 161)" opacity="0.0" stroke-width="2.0"/>
    <path d="M 195.70126342773438 217.6044921875 C 195.71058654785156 217.50772094726562 195.44454956054688 218.2937774658203 195.7999725341797 217.44810485839844 C 196.00485229492188 217.5453338623047 195.51585388183594 217.5284423828125 195.41746520996094 217.56564331054688 C 195.7460174560547 217.39401245117188 195.5043182373047 217.4423065185547 195.70126342773438 217.6044921875" fill="rgb(80, 222, 255)" opacity="0.43202734" stroke-width="2.0"/>
    <path d="M 149.79278564453125 214.9757537841797 C 150.92034912109375 180.20419311523438 142.43948364257812 181.29043579101562 134.38327026367188 190.74342346191406 C 138.86988830566406 215.41690063476562 143.35794067382812 218.52952575683594 121.49620056152344 218.7008514404297 C 139.28353881835938 219.12860107421875 142.90499877929688 219.93995666503906 149.79278564453125 214.9757537841797" fill="rgb(79, 1, 96)" opacity="0.27903286" stroke-width="2.0"/>
    <path d="M 4.223546981811523 184.51174926757812 C 16.8481388092041 211.56922912597656 90.93264770507812 224.33030700683594 92.9223403930664 216.83372497558594 C -9.134920120239258 194.6477508544922 -11.914630889892578 153.86045837402344 72.77008056640625 139.91384887695312 C 69.52295684814453 224.037109375 62.356258392333984 207.28268432617188 4.223546981811523 184.51174926757812" fill="rgb(252, 194, 27)" opacity="0.91389424" stroke-width="2.0"/>
    <path d="M 53.5816535949707 160.97946166992188 C 1.0640857219696045 147.55259704589844 -1.765076756477356 155.97567749023438 2.051485538482666 180.93792724609375 C 8.728549003601074 199.85028076171875 37.82661056518555 212.91737365722656 76.79617309570312 219.34205627441406 C 79.31245422363281 218.92880249023438 74.41397094726562 181.11300659179688 53.5816535949707 160.97946166992188" fill="rgb(255, 188, 0)" opacity="0.40974233" stroke-width="2.0"/>
    <path d="M 12.779953956604004 161.1839141845703 C 14.501470565795898 168.04835510253906 11.272583961486816 160.82005310058594 16.02869415283203 171.70741271972656 C 10.076860427856445 160.1729278564453 16.196779251098633 162.6877899169922 8.356622695922852 159.52468872070312 C -2.2448909282684326 153.7032012939453 -6.6737961769104 154.5474090576172 -5.477426052093506 152.92176818847656 C -3.8220298290252686 151.31129455566406 -9.054427146911621 154.36219787597656 -9.96766471862793 157.36270141601562 C -12.869548797607422 153.74362182617188 -12.085355758666992 149.25550842285156 12.779953956604004 161.1839141845703" fill="rgb(119, 254, 107)" opacity="0.42715758" stroke-width="2.0"/>
    <path d="M 49.64767074584961 235.24356079101562 C 47.248470306396484 236.7763671875 46.90993881225586 231.27821350097656 49.684452056884766 237.283203125 C 49.08870315551758 233.68377685546875 48.14548110961914 240.7213592529297 45.35863494873047 247.2313995361328 C 50.89460754394531 241.1268310546875 45.87233352661133 242.29698181152344 49.64767074584961 235.24356079101562" fill="rgb(48, 255, 236)" opacity="2.899052e-07" stroke-width="2.0"/>
    <path d="M 16.80605125427246 187.60060119628906 C 35.31417465209961 188.96176147460938 40.364097595214844 185.77330017089844 59.086936950683594 173.80508422851562 C 67.72269439697266 108.47522735595703 61.41940689086914 108.9971694946289 43.218570709228516 119.91285705566406 C 40.00505065917969 151.03001403808594 4.505868434906006 149.43055725097656 12.216004371643066 142.84886169433594 C 20.317853927612305 138.7360382080078 22.34406280517578 134.75323486328125 12.103716850280762 153.96527099609375 C 0.11507043987512589 170.9400177001953 1.4451968669891357 170.7231903076172 16.80605125427246 187.60060119628906" fill="rgb(204, 235, 0)" opacity="0.013682385" stroke-width="2.0"/>
    <path d="M 37.95428466796875 38.89766311645508 C 42.05427169799805 37.262428283691406 38.65614318847656 38.08987045288086 39.59678649902344 38.92189407348633 C 38.902671813964844 38.25114440917969 40.06288528442383 38.01383590698242 39.82838439941406 38.26270294189453 C 39.86067199707031 38.0734977722168 38.55949020385742 38.523929595947266 40.48099899291992 37.816856384277344 C 37.11437225341797 39.1258659362793 41.806114196777344 37.32778549194336 37.95428466796875 38.89766311645508" fill="rgb(128, 108, 255)" opacity="0.2866765" stroke-width="2.0"/>
    <path d="M 217.87869262695312 82.01911163330078 C 224.53392028808594 83.95934295654297 213.41049194335938 78.07267761230469 216.51608276367188 83.7755355834961 C 221.21031188964844 82.49114990234375 219.48846435546875 82.93315124511719 214.74481201171875 87.31385803222656 C 209.6177978515625 82.06254577636719 226.8406524658203 74.67210388183594 235.82167053222656 138.1167449951172 C 180.49949645996094 144.53578186035156 169.336181640625 144.1463165283203 165.4544219970703 98.99852752685547 C 181.75538635253906 84.0758056640625 187.65533447265625 72.02140045166016 217.87869262695312 82.01911163330078" fill="rgb(236, 180, 4)" opacity="0.8425387" stroke-width="2.0"/>
    <path d="M 173.4908447265625 120.29006958007812 C 185.45945739746094 120.74519348144531 210.71035766601562 135.1438446044922 203.10467529296875 129.4868927001953 C 158.5378875732422 117.57568359375 193.80149841308594 118.46993255615234 203.67758178710938 115.89873504638672 C 134.89178466796875 125.31378173828125 131.02883911132812 135.5320281982422 138.90704345703125 101.21404266357422 C 173.9053497314453 65.19751739501953 185.92430114746094 84.31685638427734 173.4908447265625 120.29006958007812" fill="rgb(47, 47, 46)" opacity="0.9986171" stroke-width="2.0"/>
    <path d="M 135.50624084472656 215.2232666015625 C 133.73268127441406 223.33702087402344 106.28690338134766 223.6696319580078 78.35804748535156 219.40423583984375 C 68.45965576171875 211.0160369873047 66.35749053955078 214.800537109375 67.33189392089844 203.7934112548828 C 92.60688781738281 202.9445037841797 96.62792205810547 190.28482055664062 123.91730499267578 186.81448364257812 C 103.59200286865234 172.61444091796875 112.81871032714844 170.65127563476562 135.50624084472656 215.2232666015625" fill="rgb(255, 194, 19)" opacity="0.40660164" stroke-width="2.0"/>
    <path d="M 170.93109130859375 153.53587341308594 C 237.9255828857422 143.2294921875 250.7393341064453 174.01541137695312 228.7474365234375 193.86085510253906 C 188.87486267089844 180.7196807861328 199.48793029785156 183.96969604492188 228.9951629638672 193.82066345214844 C 198.0659637451172 219.38961791992188 142.8695526123047 222.89968872070312 164.15286254882812 198.73924255371094 C 161.4324951171875 224.13775634765625 164.9998321533203 222.31027221679688 170.93109130859375 153.53587341308594" fill="rgb(251, 191, 19)" opacity="0.9522561" stroke-width="2.0"/>
    <path d="M 107.1031494140625 220.6541748046875 C 108.97453308105469 187.65550231933594 123.1706314086914 191.9893798828125 164.50143432617188 188.59523010253906 C 161.3505096435547 202.70883178710938 149.42037963867188 196.68035888671875 186.91574096679688 190.63119506835938 C 201.4896240234375 215.1446533203125 189.67892456054688 220.39794921875 107.1031494140625 220.6541748046875" fill="rgb(248, 187, 63)" opacity="1.0" stroke-width="2.0"/>
    <path d="M 107.68318939208984 77.62123107910156 C 143.70257568359375 64.7970199584961 142.83566284179688 62.27595520019531 149.2704620361328 132.96487426757812 C 103.49658203125 127.02294158935547 131.80226135253906 75.54197692871094 94.66412353515625 62.363075256347656 C 75.3963394165039 58.6237678527832 64.87471008300781 53.20857620239258 56.131717681884766 58.46519088745117 C 53.430538177490234 66.61988067626953 53.37216567993164 132.000732421875 59.31849670410156 128.20828247070312 C 124.10486602783203 122.22979736328125 124.85092163085938 130.01763916015625 107.68318939208984 77.62123107910156" fill="rgb(48, 47, 46)" opacity="1.0" stroke-width="2.0"/>
    <path d="M 23.576486587524414 54.324737548828125 C 22.236228942871094 52.43758010864258 22.28966522216797 52.32052230834961 22.945341110229492 53.519901275634766 C 23.473962783813477 53.967079162597656 22.694957733154297 52.85808181762695 21.823848724365234 50.091705322265625 C 24.191627502441406 56.42776107788086 19.051071166992188 45.01962661743164 23.576486587524414 54.324737548828125" fill="rgb(255, 81, 201)" opacity="0.19987771" stroke-width="2.0"/>
    <path d="M 10.930083274841309 32.030738830566406 C 13.892030715942383 27.74552345275879 12.078926086425781 30.464317321777344 14.754364967346191 26.438879013061523 C 17.767478942871094 23.676427841186523 15.687482833862305 25.735660552978516 15.443366050720215 25.79969024658203 C 12.55514144897461 28.861064910888672 15.70591926574707 26.42434310913086 14.62165355682373 27.14655303955078 C 12.799345016479492 28.849050521850586 17.934953689575195 22.009578704833984 10.930083274841309 32.030738830566406" fill="rgb(255, 163, 255)" opacity="0.13483676" stroke-width="2.0"/>
    <path d="M 262.9234313964844 173.73329162597656 C 243.2805633544922 184.32322692871094 242.22659301757812 193.52085876464844 233.21722412109375 142.02760314941406 C 170.45094299316406 98.68560028076172 169.00660705566406 134.24403381347656 150.6732635498047 116.61031341552734 C 152.01397705078125 124.00582885742188 149.33004760742188 122.80271911621094 150.5405731201172 170.12710571289062 C 216.14666748046875 174.2740020751953 223.96466064453125 168.32261657714844 262.9234313964844 173.73329162597656" fill="rgb(255, 232, 26)" opacity="0.6445881" stroke-width="2.0"/>
    <path d="M 156.47828674316406 124.06627655029297 C 200.6556396484375 118.77517700195312 150.58497619628906 66.1111831665039 208.39105224609375 83.91963195800781 C 162.54617309570312 71.95954895019531 166.517822265625 128.49624633789062 229.50474548339844 105.71271514892578 C 239.52349853515625 139.63668823242188 239.70932006835938 183.90670776367188 236.90464782714844 177.58644104003906 C 155.15379333496094 179.41868591308594 149.4918212890625 176.37770080566406 156.47828674316406 124.06627655029297" fill="rgb(253, 193, 25)" opacity="0.9129443" stroke-width="2.0"/>
    <path d="M 51.224220275878906 144.26223754882812 C 75.1397476196289 168.7630157470703 112.62895202636719 163.66282653808594 120.3917236328125 179.88162231445312 C 125.66910552978516 174.1871337890625 123.5837173461914 149.66671752929688 105.9815673828125 158.9744110107422 C 65.68415832519531 150.67599487304688 74.94867706298828 156.4309844970703 112.81966400146484 157.01455688476562 C 94.2596664428711 149.06500244140625 85.41651153564453 154.56483459472656 47.51180648803711 127.43872833251953 C 51.19142532348633 149.82916259765625 50.4178581237793 171.50967407226562 51.224220275878906 144.26223754882812" fill="rgb(70, 44, 58)" opacity="0.9111028" stroke-width="2.0"/>
    <path d="M 178.7092742919922 139.80288696289062 C 210.2527313232422 147.98971557617188 112.02899169921875 199.14710998535156 108.82310485839844 199.92385864257812 C 89.90689086914062 187.5355682373047 95.55061340332031 160.71034240722656 101.1176528930664 191.4376983642578 C 111.60013580322266 159.12242126464844 108.3614273071289 167.57229614257812 72.51699829101562 152.9346466064453 C 99.12714385986328 157.073974609375 107.3791732788086 158.75653076171875 131.14187622070312 140.99501037597656 C 146.82342529296875 156.4947967529297 154.3931427001953 153.56732177734375 178.7092742919922 139.80288696289062" fill="rgb(0, 14, 59)" opacity="1.0" stroke-width="2.0"/>
    <path d="M 37.432151794433594 10.66866683959961 C 33.916282653808594 8.564950942993164 35.72602844238281 11.069199562072754 35.08222198486328 11.743139266967773 C 35.3165168762207 13.717816352844238 34.910518646240234 10.940400123596191 35.08578872680664 11.702804565429688 C 34.08808517456055 12.082240104675293 36.03993225097656 11.529240608215332 34.73182678222656 10.50979232788086 C 36.19078826904297 12.162816047668457 33.61309814453125 8.368794441223145 37.432151794433594 10.66866683959961" fill="rgb(200, 255, 255)" opacity="0.21980667" stroke-width="2.0"/>
    <path d="M 158.8074493408203 193.6759796142578 C 130.40924072265625 199.26321411132812 112.51947021484375 208.71961975097656 102.73011779785156 175.03944396972656 C 165.124267578125 166.6473846435547 173.46527099609375 153.28253173828125 167.28782653808594 166.17935180664062 C 170.43551635742188 195.01576232910156 165.84396362304688 189.997802734375 158.8074493408203 193.6759796142578" fill="rgb(243, 157, 120)" opacity="0.74846" stroke-width="2.0"/>
    <path d="M 149.31936645507812 114.71131896972656 C 107.87261199951172 127.41029357910156 97.39813232421875 139.74957275390625 100.58291625976562 194.54571533203125 C 150.4480743408203 191.39474487304688 140.24082946777344 189.2747344970703 148.8308563232422 118.82462310791016 C 190.9268341064453 126.46957397460938 194.44517517089844 167.80393981933594 189.80738830566406 182.94606018066406 C 123.48124694824219 184.39260864257812 149.17510986328125 166.59559631347656 149.31936645507812 114.71131896972656" fill="rgb(226, 173, 0)" opacity="0.21322906" stroke-width="2.0"/>
    <path d="M 7.307224750518799 142.00477600097656 C 2.2503933906555176 141.35018920898438 -3.953700304031372 139.87417602539062 -8.402286529541016 141.91078186035156 C -1.5874125957489014 139.12213134765625 -6.3674092292785645 140.55702209472656 -6.817288398742676 139.93536376953125 C -9.796685218811035 140.18722534179688 -7.595913887023926 143.51882934570312 -6.175468444824219 141.6126708984375 C -1.332531452178955 136.39329528808594 -3.9263484477996826 139.50076293945312 -9.782063484191895 146.32960510253906 C -14.411712646484375 141.2584228515625 -15.70113468170166 138.42103576660156 7.307224750518799 142.00477600097656" fill="rgb(63, 74, 124)" opacity="0.25427574" stroke-width="2.0"/>
    <path d="M 58.182037353515625 -4.163885116577148 C 55.93422317504883 -3.804121732711792 50.15339279174805 -9.440656661987305 49.018394470214844 -11.13162612915039 C 55.52065658569336 -9.222028732299805 58.83837890625 -5.589681148529053 52.464054107666016 -6.9699578285217285 C 54.33647537231445 -1.1717203855514526 53.12133026123047 -7.717007160186768 51.92937088012695 -12.446001052856445 C 48.99971389770508 -8.0786714553833 51.1191291809082 -3.3335015773773193 58.182037353515625 -4.163885116577148" fill="rgb(107, 132, 75)" opacity="0.35720044" stroke-width="2.0"/>
    <path d="M 98.7911605834961 154.58334350585938 C 146.6972198486328 123.72834777832031 143.59010314941406 109.05323791503906 130.79739379882812 127.3172836303711 C 120.34809875488281 144.3355712890625 121.63560485839844 157.71543884277344 121.21271514892578 170.6553192138672 C 120.6783447265625 169.38446044921875 92.76187133789062 168.79666137695312 68.47467803955078 156.61102294921875 C 45.943275451660156 146.22027587890625 62.12119674682617 154.73670959472656 48.527000427246094 122.90623474121094 C 48.430904388427734 108.46910858154297 42.33760452270508 120.45018005371094 98.7911605834961 154.58334350585938" fill="rgb(35, 43, 45)" opacity="0.780365" stroke-width="2.0"/>
    <path d="M 241.5164337158203 191.4480438232422 C 212.97308349609375 166.0706024169922 211.56707763671875 158.512939453125 212.3970947265625 163.04002380371094 C 221.6243133544922 155.43382263183594 202.0979461669922 152.34983825683594 204.90835571289062 165.22634887695312 C 205.0717315673828 159.2039794921875 214.81712341308594 169.5776824951172 211.51309204101562 64.06827545166016 C 224.76361083984375 74.09259796142578 243.7886505126953 134.98695373535156 241.5164337158203 191.4480438232422" fill="rgb(249, 209, 111)" opacity="0.019449167" stroke-width="2.0"/>
    <path d="M 198.8976593017578 209.87747192382812 C 192.48561096191406 213.1886749267578 167.53787231445312 220.43328857421875 134.1818389892578 221.9912567138672 C 118.5326919555664 219.53614807128906 117.40237426757812 221.79429626464844 132.73069763183594 170.67018127441406 C 191.4154052734375 169.98109436035156 194.95489501953125 177.8824005126953 198.8976593017578 209.87747192382812" fill="rgb(254, 196, 3)" opacity="0.5814124" stroke-width="2.0"/>
    <path d="M 70.63579559326172 229.06272888183594 C 84.18881225585938 229.08633422851562 80.60186767578125 223.13339233398438 67.68276977539062 224.91213989257812 C 66.69849395751953 214.62757873535156 71.39251708984375 219.24508666992188 73.35440826416016 231.66085815429688 C 67.89332580566406 224.3087921142578 67.57511901855469 208.10675048828125 65.39861297607422 222.91673278808594 C 88.38410949707031 219.79042053222656 80.93168640136719 212.4759521484375 70.55276489257812 209.33493041992188 C 76.96220397949219 224.0911407470703 72.50074768066406 230.65760803222656 70.63579559326172 229.06272888183594" fill="rgb(29, 136, 82)" opacity="0.0" stroke-width="2.0"/>
    <path d="M 137.26710510253906 10.518508911132812 C 136.97756958007812 11.17276382446289 137.0242156982422 11.284717559814453 136.56838989257812 10.824019432067871 C 136.9000244140625 11.441694259643555 137.2407684326172 10.408394813537598 137.01824951171875 10.871501922607422 C 137.0780029296875 10.570558547973633 137.1336212158203 11.57158374786377 137.26710510253906 10.518508911132812" fill="rgb(189, 118, 206)" opacity="0.6235323" stroke-width="2.0"/>
    <path d="M 224.06443786621094 205.62046813964844 C 216.862060546875 208.42178344726562 218.42710876464844 208.6788787841797 224.9514617919922 200.5292205810547 C 212.70358276367188 199.82473754882812 216.04331970214844 220.9398956298828 242.91262817382812 176.66546630859375 C 199.48582458496094 191.6436004638672 166.5076446533203 198.06268310546875 123.12251281738281 224.16175842285156 C 217.26011657714844 227.08885192871094 214.57481384277344 207.303955078125 224.06443786621094 205.62046813964844" fill="rgb(251, 190, 20)" opacity="0.0017392618" stroke-width="2.0"/>
    <path d="M 169.73043823242188 49.84896469116211 C 120.89537811279297 45.701133728027344 120.03196716308594 35.148094177246094 126.8228759765625 49.4677619934082 C 126.29166412353516 44.565147399902344 129.35838317871094 37.576717376708984 134.7752685546875 33.529476165771484 C 150.63148498535156 23.87181282043457 140.6053924560547 24.789108276367188 131.57559204101562 23.057518005371094 C 119.97818756103516 28.4628963470459 128.7109832763672 14.540833473205566 168.8818817138672 28.299846649169922 C 169.44329833984375 47.8577880859375 155.3304443359375 4.499638557434082 169.73043823242188 49.84896469116211" fill="rgb(254, 209, 108)" opacity="0.6354238" stroke-width="2.0"/>
    <path d="M 64.53375244140625 121.19267272949219 C 53.86043167114258 136.69068908691406 54.77032470703125 138.54006958007812 85.72339630126953 151.95147705078125 C 77.70121002197266 147.9705810546875 86.11063385009766 151.9914093017578 81.25438690185547 149.39581298828125 C 81.22093200683594 149.60630798339844 115.5275650024414 165.96958923339844 158.37313842773438 150.2038116455078 C 133.91574096679688 150.86026000976562 196.2462921142578 147.5113525390625 159.28555297851562 128.35464477539062 C 122.87821960449219 82.37764739990234 190.8419189453125 127.91767120361328 64.53375244140625 121.19267272949219" fill="rgb(251, 193, 26)" opacity="0.99609196" stroke-width="2.0"/>
    <path d="M 225.57421875 101.57056427001953 C 166.32542419433594 103.4998550415039 160.61517333984375 42.32550048828125 190.47442626953125 40.84697723388672 C 218.84495544433594 66.68781280517578 216.2056884765625 81.40784454345703 214.20187377929688 68.68782043457031 C 205.06735229492188 63.687171936035156 212.50894165039062 63.54448699951172 225.57421875 101.57056427001953" fill="rgb(255, 190, 2)" opacity="0.5466376" stroke-width="2.0"/>
    <path d="M 119.45427703857422 188.20584106445312 C 84.30355072021484 138.9792938232422 96.96785736083984 166.04840087890625 119.33610534667969 161.66725158691406 C 123.61300659179688 153.89886474609375 119.95187377929688 174.69961547851562 121.45784759521484 188.50987243652344 C 119.86782836914062 137.88833618164062 124.43521881103516 135.53512573242188 119.45427703857422 188.20584106445312" fill="rgb(216, 104, 61)" opacity="0.05718824" stroke-width="2.0"/>
    <path d="M 100.40569305419922 154.20773315429688 C 113.32258605957031 152.3168487548828 100.73846435546875 150.96815490722656 65.27063751220703 153.8493194580078 C 86.626953125 156.18553161621094 38.41951370239258 180.2398223876953 59.317481994628906 127.32411193847656 C 37.314369201660156 114.13145446777344 37.0330924987793 116.35379028320312 45.794532775878906 205.9738006591797 C 140.25782775878906 199.63319396972656 102.28292846679688 197.09075927734375 100.40569305419922 154.20773315429688" fill="rgb(234, 145, 15)" opacity="0.048605867" stroke-width="2.0"/>
    <path d="M 73.23825073242188 173.69635009765625 C 26.315948486328125 191.5601806640625 50.555057525634766 211.82225036621094 63.608314514160156 177.6745147705078 C 84.40044403076172 169.39389038085938 62.72062301635742 173.36663818359375 72.88748931884766 208.839111328125 C 87.95209503173828 235.1375274658203 40.11073684692383 184.35267639160156 93.71009063720703 203.64979553222656 C 100.92230224609375 230.206787109375 55.42412567138672 225.19154357910156 73.23825073242188 173.69635009765625" fill="rgb(185, 136, 0)" opacity="0.2888197" stroke-width="2.0"/>
    <path d="M 188.07337951660156 94.79663848876953 C 204.7758331298828 85.33023834228516 191.83306884765625 75.88973236083984 196.3558349609375 48.69892120361328 C 184.94317626953125 34.710052490234375 169.25108337402344 28.812536239624023 169.87039184570312 29.186206817626953 C 173.6968536376953 67.24788665771484 184.6213836669922 59.422725677490234 144.6119842529297 21.177946090698242 C 133.9612579345703 66.42438507080078 132.5501708984375 77.97581481933594 188.07337951660156 94.79663848876953" fill="rgb(196, 184, 88)" opacity="0.57689625" stroke-width="2.0"/>
    <path d="M 25.230037689208984 9.01969051361084 C 30.573930740356445 6.096858501434326 28.990182876586914 7.038323402404785 33.83094024658203 4.037968635559082 C 36.01579666137695 2.6256844997406006 35.53028106689453 2.7174336910247803 33.989437103271484 2.9455437660217285 C 37.099185943603516 2.328758478164673 33.50437927246094 3.9866573810577393 35.76069259643555 2.9219043254852295 C 33.398109436035156 4.086662292480469 39.931907653808594 0.4376969039440155 25.230037689208984 9.01969051361084" fill="rgb(62, 214, 189)" opacity="0.2111936" stroke-width="2.0"/>
    <path d="M 148.5507049560547 20.997541427612305 C 143.20274353027344 143.90956115722656 141.671630859375 75.51273345947266 168.01280212402344 87.2751693725586 C 191.50900268554688 105.12914276123047 150.26071166992188 120.80024719238281 230.1481170654297 108.59243774414062 C 219.92935180664062 71.9308853149414 207.9770965576172 61.098140716552734 199.2511749267578 49.26215362548828 C 209.63064575195312 71.20893859863281 200.79896545410156 32.74631881713867 148.5507049560547 20.997541427612305" fill="rgb(252, 193, 25)" opacity="0.9679125" stroke-width="2.0"/>
    <path d="M 87.80561828613281 137.04893493652344 C 35.353599548339844 89.8052749633789 60.8964958190918 66.44864654541016 69.90909576416016 39.80072784423828 C 56.327369689941406 33.503997802734375 31.896278381347656 48.30282974243164 14.520320892333984 94.14557647705078 C 10.354445457458496 105.77543640136719 6.378361701965332 120.9914321899414 3.7809135913848877 141.4704132080078 C 6.064439296722412 138.6201629638672 -11.453400611877441 149.83657836914062 87.80561828613281 137.04893493652344" fill="rgb(252, 194, 26)" opacity="0.9930232" stroke-width="2.0"/>
    <path d="M 88.99928283691406 65.88336944580078 C 72.0393295288086 81.09673309326172 64.46105194091797 65.26039123535156 70.82907104492188 59.13501739501953 C 99.97682189941406 82.0877685546875 98.17098236083984 71.20559692382812 91.08158111572266 58.689945220947266 C 92.97752380371094 52.56361770629883 95.20250701904297 69.31950378417969 109.92633819580078 75.98197174072266 C 108.44133758544922 75.74027252197266 100.8124771118164 70.86925506591797 88.99928283691406 65.88336944580078" fill="rgb(232, 183, 155)" opacity="0.39081073" stroke-width="2.0"/>
    <path d="M 183.93019104003906 140.9495086669922 C 183.8740997314453 183.63475036621094 155.1100311279297 197.28285217285156 144.3612823486328 192.31365966796875 C 188.32994079589844 179.3017578125 177.69216918945312 164.9592742919922 174.89688110351562 164.01510620117188 C 196.49266052246094 145.666259765625 194.6162567138672 136.75523376464844 183.93019104003906 140.9495086669922" fill="rgb(158, 99, 10)" opacity="0.07000829" stroke-width="2.0"/>
    <path d="M 14.927393913269043 82.64268493652344 C 17.81250762939453 74.72535705566406 16.659847259521484 77.58297729492188 17.11374855041504 76.71710968017578 C 18.49432373046875 73.22596740722656 16.830440521240234 77.43653106689453 18.344120025634766 73.69052124023438 C 16.135780334472656 78.6263656616211 21.10403823852539 66.05537414550781 14.927393913269043 82.64268493652344" fill="rgb(188, 160, 255)" opacity="0.27929068" stroke-width="2.0"/>
    <path d="M 145.8908233642578 165.54318237304688 C 124.54666137695312 208.15139770507812 150.22634887695312 230.5452880859375 213.1244659423828 199.1090087890625 C 240.06455993652344 188.04676818847656 238.95294189453125 181.78353881835938 235.3791961669922 141.8026123046875 C 211.40628051757812 57.8110466003418 235.3426971435547 144.73959350585938 145.8908233642578 165.54318237304688" fill="rgb(252, 193, 26)" opacity="0.988509" stroke-width="2.0"/>
    <path d="M 208.83163452148438 79.13074493408203 C 226.25881958007812 81.64518737792969 222.38955688476562 81.33831787109375 222.50379943847656 81.21844482421875 C 222.9768829345703 81.23661041259766 223.21432495117188 80.877685546875 222.66384887695312 81.30776977539062 C 222.84152221679688 80.93944549560547 223.39495849609375 81.48871612548828 221.2974395751953 80.96770477294922 C 224.3413848876953 81.72277069091797 226.00416564941406 81.64274597167969 208.83163452148438 79.13074493408203" fill="rgb(66, 66, 129)" opacity="0.3324563" stroke-width="2.0"/>
    <path d="M 187.8841552734375 217.64288330078125 C 188.70443725585938 215.69007873535156 187.060546875 216.75106811523438 184.3980255126953 220.341064453125 C 188.395263671875 215.0946807861328 187.83270263671875 217.4899444580078 188.2794189453125 216.22756958007812 C 186.33609008789062 220.3775177001953 188.8327178955078 214.67520141601562 187.8841552734375 217.64288330078125" fill="rgb(255, 246, 173)" opacity="0.027616452" stroke-width="2.0"/>
    <path d="M 99.83063507080078 1.2377560138702393 C 90.82128143310547 8.843574523925781 89.22866821289062 10.112799644470215 97.31903839111328 11.55524730682373 C 97.17536926269531 9.641660690307617 91.9730453491211 14.773218154907227 95.36943817138672 7.7180047035217285 C 97.66954040527344 11.889142990112305 94.4368896484375 9.623854637145996 96.86685943603516 5.378748416900635 C 93.37484741210938 5.392223834991455 86.11052703857422 11.001240730285645 99.83063507080078 1.2377560138702393" fill="rgb(33, 66, 149)" opacity="0.0" stroke-width="2.0"/>
    <path d="M 192.17723083496094 201.2112579345703 C 199.0232391357422 198.27920532226562 194.4576873779297 196.9669952392578 196.3251953125 198.0711669921875 C 189.6351318359375 207.74267578125 177.6980743408203 194.47178649902344 162.68820190429688 182.67507934570312 C 154.2735595703125 176.99790954589844 167.60374450683594 183.01132202148438 168.8728790283203 191.28416442871094 C 165.85609436035156 196.1454315185547 177.5753631591797 186.574951171875 146.84854125976562 173.257568359375 C 160.762451171875 176.75241088867188 182.9388885498047 204.5142822265625 192.17723083496094 201.2112579345703" fill="rgb(189, 223, 48)" opacity="0.21562174" stroke-width="2.0"/>
    <path d="M 126.77652740478516 210.60690307617188 C 140.8974609375 213.54043579101562 134.4033203125 217.7195281982422 100.74108123779297 216.9561767578125 C 102.83772277832031 217.0478973388672 139.662353515625 217.3723907470703 137.41551208496094 215.35438537597656 C 106.45390319824219 196.9668731689453 97.7468032836914 211.03335571289062 91.9278564453125 165.2615509033203 C 155.67669677734375 176.80531311035156 150.09910583496094 149.05918884277344 145.56529235839844 182.33615112304688 C 138.71424865722656 218.26145935058594 101.68048858642578 196.93804931640625 126.77652740478516 210.60690307617188" fill="rgb(215, 89, 139)" opacity="0.9941162" stroke-width="2.0"/>
    <path d="M 99.37115478515625 78.64937591552734 C 103.80884552001953 30.254356384277344 122.0503158569336 20.147294998168945 165.0377960205078 26.548063278198242 C 178.86961364746094 33.2034912109375 178.8079071044922 29.28203010559082 176.04869079589844 72.96292877197266 C 141.8236846923828 82.10400390625 149.55999755859375 113.15867614746094 130.3955078125 116.67333984375 C 146.92176818847656 95.52869415283203 142.29368591308594 78.08931732177734 151.8249053955078 84.2232894897461 C 123.51515197753906 82.001953125 113.44282531738281 91.27500915527344 99.37115478515625 78.64937591552734" fill="rgb(252, 193, 25)" opacity="0.6337621" stroke-width="2.0"/>
    <path d="M 5.04755973815918 186.4303741455078 C 62.449134826660156 228.2770233154297 94.05609130859375 225.27801513671875 62.23088836669922 168.00811767578125 C 29.79821014404297 135.06954956054688 110.87273406982422 122.6801986694336 5.477868556976318 129.11593627929688 C 2.701962471008301 154.84414672851562 -0.6390436887741089 168.58966064453125 5.04755973815918 186.4303741455078" fill="rgb(252, 193, 26)" opacity="0.99589586" stroke-width="2.0"/>
    <path d="M 87.21310424804688 32.51874923706055 C 86.32869720458984 30.188322067260742 95.49998474121094 17.8829288482666 73.51981353759766 26.37785530090332 C 31.89535140991211 44.599273681640625 19.901514053344727 81.6787109375 44.91132736206055 63.93734359741211 C 94.47126007080078 18.177316665649414 92.26663970947266 35.60109329223633 60.2509880065918 84.45001983642578 C 40.83373260498047 73.66401672363281 52.28372573852539 50.090553283691406 87.21310424804688 32.51874923706055" fill="rgb(252, 194, 25)" opacity="0.97311294" stroke-width="2.0"/>
    <path d="M 246.5125274658203 150.08067321777344 C 204.1977996826172 173.81524658203125 201.92056274414062 162.61199951171875 208.01841735839844 166.72682189941406 C 205.69967651367188 165.49989318847656 207.9171142578125 165.9915313720703 210.07192993164062 166.05557250976562 C 201.68032836914062 164.3000946044922 209.87379455566406 170.8941192626953 247.27896118164062 149.46163940429688 C 250.40061950683594 134.17596435546875 250.91299438476562 148.04739379882812 241.85989379882812 199.0024871826172 C 252.14332580566406 196.531494140625 245.8393096923828 175.0843048095703 246.5125274658203 150.08067321777344" fill="rgb(254, 224, 109)" opacity="0.6769818" stroke-width="2.0"/>
    <path d="M 158.2012939453125 44.80634689331055 C 100.41358947753906 57.56885528564453 117.14710235595703 57.06944274902344 118.25574493408203 78.48469543457031 C 100.61006164550781 69.45079040527344 105.84564208984375 66.28448486328125 142.64625549316406 69.72891235351562 C 134.9984130859375 89.12554931640625 135.12327575683594 79.73939514160156 102.75354766845703 74.79528045654297 C 93.86719512939453 66.39881134033203 94.15947723388672 73.05590057373047 106.69339752197266 74.61143493652344 C 137.83218383789062 73.99727630615234 149.1650390625 87.91384887695312 158.2012939453125 44.80634689331055" fill="rgb(102, 235, 59)" opacity="0.20974256" stroke-width="2.0"/>
    <path d="M 115.15336608886719 223.18307495117188 C 113.11829376220703 196.3671417236328 123.58099365234375 214.96524047851562 150.2459259033203 197.47088623046875 C 156.06228637695312 185.74887084960938 149.9202423095703 192.169921875 144.06439208984375 206.88461303710938 C 156.23641967773438 213.02259826660156 155.26187133789062 221.88050842285156 115.15336608886719 223.18307495117188" fill="rgb(244, 194, 34)" opacity="0.13881548" stroke-width="2.0"/>
    <path d="M 9.611349105834961 239.57627868652344 C 9.610127449035645 239.6451416015625 9.767260551452637 243.32518005371094 7.702630519866943 239.96875 C 8.37791919708252 242.23390197753906 8.366840362548828 241.24708557128906 9.774150848388672 241.94668579101562 C 9.196114540100098 237.07276916503906 11.131935119628906 238.85504150390625 9.042352676391602 239.26429748535156 C 10.92605209350586 238.5872344970703 9.24973201751709 238.96165466308594 10.375189781188965 238.58798217773438 C 9.097453117370605 239.42755126953125 9.072683334350586 240.5286407470703 9.611349105834961 239.57627868652344" fill="rgb(255, 188, 141)" opacity="0.24106048" stroke-width="2.0"/>
    <path d="M 86.09678649902344 22.154613494873047 C 74.31986236572266 62.96937561035156 27.660633087158203 38.690895080566406 64.13689422607422 111.86880493164062 C 58.68770217895508 67.62540435791016 113.3631820678711 85.44252014160156 86.71106719970703 122.79740142822266 C 56.48848342895508 147.29083251953125 109.49322509765625 96.42143249511719 82.07051849365234 127.82199096679688 C 180.51516723632812 154.4983673095703 126.4688491821289 100.44709777832031 159.29483032226562 77.26734924316406 C 159.450439453125 17.617971420288086 155.52101135253906 12.457967758178711 86.09678649902344 22.154613494873047" fill="rgb(251, 193, 26)" opacity="0.99789333" stroke-width="2.0"/>
    <path d="M 170.16493225097656 209.1645965576172 C 165.87217712402344 221.6647186279297 153.83766174316406 220.43789672851562 133.68882751464844 221.73118591308594 C 111.49505615234375 222.35977172851562 94.7593994140625 221.593505859375 69.8311767578125 217.64263916015625 C 76.14517211914062 214.45555114746094 87.93802642822266 220.19448852539062 59.095924377441406 212.88720703125 C 52.9766731262207 171.4626922607422 49.96757507324219 204.82183837890625 170.16493225097656 209.1645965576172" fill="rgb(252, 193, 26)" opacity="0.99319696" stroke-width="2.0"/>
  </g>
</svg>
