<?xml version="1.0" ?>
<svg height="240" version="1.1" width="240" xmlns="http://www.w3.org/2000/svg">
  <defs/>
  <g>
    <path d="M 232.96209716796875 10.01956844329834 C 227.59039306640625 12.460518836975098 227.2451629638672 16.147180557250977 228.9333038330078 5.563138961791992 C 236.45883178710938 10.06879997253418 237.87815856933594 14.202492713928223 233.21202087402344 15.502816200256348 C 235.6079864501953 17.6933650970459 241.9413604736328 22.859689712524414 232.96209716796875 10.01956844329834" fill="rgb(69, 255, 160)" opacity="0.0" stroke-width="2.0"/>
    <path d="M 205.69589233398438 233.4783935546875 C 205.50064086914062 233.809326171875 205.7903289794922 233.86318969726562 205.70291137695312 233.64981079101562 C 205.68609619140625 233.2677764892578 205.15878295898438 233.3264617919922 205.50149536132812 234.20310974121094 C 205.331298828125 232.90594482421875 205.654296875 233.685546875 205.69589233398438 233.4783935546875" fill="rgb(221, 254, 104)" opacity="0.27134466" stroke-width="2.0"/>
    <path d="M 158.55804443359375 140.48867797851562 C 149.55215454101562 76.4754638671875 147.43289184570312 79.66563415527344 138.05795288085938 77.58727264404297 C 88.31218719482422 82.0121078491211 79.81411743164062 83.72972106933594 84.33377838134766 134.23133850097656 C 86.00601959228516 150.66873168945312 140.31784057617188 155.8361053466797 158.55804443359375 140.48867797851562" fill="rgb(235, 190, 4)" opacity="0.5316921" stroke-width="2.0"/>
    <path d="M 104.15975952148438 75.26094055175781 C 100.10984802246094 31.340980529785156 99.22903442382812 30.133045196533203 59.87064743041992 34.63063049316406 C 34.13884735107422 104.49014282226562 39.03813552856445 113.87772369384766 99.45207977294922 108.22187042236328 C 92.88504028320312 94.82852935791016 95.29936981201172 97.42500305175781 104.15975952148438 75.26094055175781" fill="rgb(240, 132, 1)" opacity="0.6852026" stroke-width="2.0"/>
    <path d="M 148.68052673339844 45.534812927246094 C 146.9747772216797 107.56413269042969 153.28736877441406 105.53435516357422 205.3331298828125 108.31011962890625 C 226.3694610595703 101.7510757446289 232.6607208251953 102.54837036132812 206.66983032226562 59.64196014404297 C 187.2794189453125 51.07283020019531 160.61483764648438 42.17671203613281 148.68052673339844 45.534812927246094" fill="rgb(251, 199, 36)" opacity="0.83035415" stroke-width="2.0"/>
    <path d="M 3.797539710998535 169.4122314453125 C 32.19402313232422 143.74183654785156 20.285728454589844 132.65003967285156 19.904504776000977 133.83712768554688 C 5.063349723815918 132.20828247070312 -3.6402370929718018 130.1442108154297 13.581957817077637 94.70728302001953 C 20.067150115966797 127.21768951416016 3.303009033203125 142.1616973876953 3.797539710998535 169.4122314453125" fill="rgb(192, 203, 50)" opacity="0.009766949" stroke-width="2.0"/>
    <path d="M 27.231121063232422 66.76933288574219 C 50.711509704589844 31.92336082458496 53.82074737548828 42.70969772338867 65.62181854248047 60.994842529296875 C 72.47113800048828 115.58712005615234 75.51942443847656 115.89701843261719 43.81474685668945 104.33650970458984 C 8.61664867401123 129.54393005371094 3.288264274597168 106.97085571289062 27.231121063232422 66.76933288574219" fill="rgb(247, 207, 79)" opacity="1.0" stroke-width="2.0"/>
    <path d="M 85.53535461425781 22.090166091918945 C 148.47181701660156 8.734440803527832 161.27230834960938 26.107723236083984 142.7096710205078 73.9365234375 C 81.77539825439453 86.98696899414062 80.936279296875 68.46194458007812 69.39636993408203 46.541259765625 C 68.91345977783203 77.5540542602539 62.25175476074219 28.57015609741211 85.53535461425781 22.090166091918945" fill="rgb(251, 188, 0)" opacity="0.8707368" stroke-width="2.0"/>
    <path d="M 199.904052734375 148.7525634765625 C 165.47454833984375 155.953369140625 117.6925277709961 162.5967254638672 130.57762145996094 165.5640869140625 C 127.50030517578125 167.9022216796875 126.89895629882812 165.1681671142578 129.962890625 93.0869140625 C 202.1504669189453 101.5208740234375 202.44244384765625 98.73270416259766 199.904052734375 148.7525634765625" fill="rgb(250, 193, 27)" opacity="1.0" stroke-width="2.0"/>
    <path d="M 204.04196166992188 132.9174346923828 C 153.91513061523438 152.4982452392578 145.56729125976562 134.56048583984375 143.48989868164062 220.28567504882812 C 116.92961120605469 221.13436889648438 169.95074462890625 225.14498901367188 213.54319763183594 204.19699096679688 C 242.489990234375 139.58401489257812 236.0479278564453 139.2540740966797 204.04196166992188 132.9174346923828" fill="rgb(251, 186, 0)" opacity="0.8848407" stroke-width="2.0"/>
    <path d="M 208.04559326171875 75.30088806152344 C 205.36058044433594 59.72471237182617 219.5411376953125 69.01526641845703 231.77659606933594 125.18673706054688 C 197.33526611328125 113.55123138427734 203.73081970214844 108.8701171875 220.09434509277344 80.31063079833984 C 208.3282928466797 91.90310668945312 214.89183044433594 85.98101043701172 208.04559326171875 75.30088806152344" fill="rgb(180, 188, 97)" opacity="0.42417192" stroke-width="2.0"/>
    <path d="M 227.49790954589844 -5.556546211242676 C 214.4937286376953 -2.6759884357452393 220.80325317382812 -3.1062417030334473 221.57212829589844 -5.864826679229736 C 230.2959442138672 -4.165990829467773 225.84840393066406 -7.270104885101318 218.8973388671875 -8.10986042022705 C 222.9257354736328 -9.270699501037598 225.90487670898438 -4.996826648712158 227.49790954589844 -5.556546211242676" fill="rgb(167, 51, 43)" opacity="0.62760675" stroke-width="2.0"/>
    <path d="M 6.052471160888672 123.0135726928711 C 2.665731906890869 148.41432189941406 -5.082117080688477 146.2841339111328 61.6225700378418 145.07066345214844 C 62.518062591552734 72.63803100585938 56.244239807128906 75.81437683105469 45.66518020629883 70.07074737548828 C 28.32712745666504 66.7271957397461 17.39458656311035 73.39459228515625 6.052471160888672 123.0135726928711" fill="rgb(254, 186, 0)" opacity="0.6438882" stroke-width="2.0"/>
    <path d="M 144.17398071289062 56.69932174682617 C 148.62474060058594 60.61314392089844 143.9258575439453 62.498600006103516 160.56248474121094 54.261871337890625 C 155.9329071044922 68.76432800292969 161.0890350341797 42.41245651245117 155.65782165527344 22.06949234008789 C 113.55488586425781 20.635311126708984 132.3697509765625 2.3279929161071777 144.17398071289062 56.69932174682617" fill="rgb(252, 237, 93)" opacity="0.6465695" stroke-width="2.0"/>
    <path d="M 177.72271728515625 174.3509979248047 C 187.93370056152344 224.1308135986328 183.6209259033203 208.99337768554688 162.052734375 216.94186401367188 C 125.71466064453125 223.19004821777344 121.6915054321289 217.2226104736328 141.43504333496094 193.84326171875 C 147.87564086914062 180.47474670410156 141.0601348876953 166.71006774902344 177.72271728515625 174.3509979248047" fill="rgb(251, 193, 25)" opacity="0.9162328" stroke-width="2.0"/>
    <path d="M 3.7401316165924072 224.3099365234375 C 4.316047668457031 224.55857849121094 3.6020689010620117 225.4891815185547 4.2852559089660645 224.6366424560547 C 3.4824862480163574 225.12930297851562 4.063995361328125 224.11419677734375 4.298888206481934 224.9989471435547 C 3.824289083480835 224.36219787597656 4.717894077301025 225.06040954589844 3.7401316165924072 224.3099365234375" fill="rgb(63, 151, 218)" opacity="0.39614657" stroke-width="2.0"/>
    <path d="M 101.99181365966797 131.6055908203125 C 126.96488189697266 173.5729217529297 83.333740234375 174.9702606201172 88.1544189453125 147.78424072265625 C 85.58158874511719 152.99176025390625 101.02183532714844 179.8517303466797 156.76319885253906 162.80345153808594 C 152.46267700195312 132.14805603027344 143.80316162109375 130.96009826660156 101.99181365966797 131.6055908203125" fill="rgb(140, 180, 37)" opacity="0.9874545" stroke-width="2.0"/>
    <path d="M 169.2694854736328 3.961641788482666 C 168.81875610351562 1.7064610719680786 170.11297607421875 -1.5058115720748901 167.2184600830078 2.4246513843536377 C 169.53843688964844 8.386970520019531 172.30789184570312 8.038920402526855 168.1324005126953 10.351459503173828 C 173.04139709472656 7.028827667236328 169.22848510742188 12.543140411376953 169.2694854736328 3.961641788482666" fill="rgb(131, 80, 196)" opacity="0.0" stroke-width="2.0"/>
    <path d="M 50.78413391113281 41.60246658325195 C 44.493099212646484 46.353759765625 34.147884368896484 54.599388122558594 22.35408592224121 76.96158599853516 C 18.47882080078125 87.73584747314453 11.012146949768066 71.74238586425781 76.08516693115234 62.25605773925781 C 92.16985321044922 10.738048553466797 87.58574676513672 17.86290740966797 50.78413391113281 41.60246658325195" fill="rgb(255, 188, 2)" opacity="0.62989265" stroke-width="2.0"/>
    <path d="M 59.7979850769043 131.23536682128906 C 60.07004928588867 145.85220336914062 64.56148529052734 143.8209991455078 64.11544799804688 151.67730712890625 C 119.53582000732422 174.3486328125 141.8483123779297 182.90109252929688 134.9108428955078 100.5158920288086 C 57.001007080078125 96.44263458251953 61.841495513916016 102.62704467773438 59.7979850769043 131.23536682128906" fill="rgb(250, 186, 6)" opacity="0.91302365" stroke-width="2.0"/>
    <path d="M 62.790409088134766 29.468303680419922 C 60.25804901123047 96.89373016357422 54.47853088378906 108.3885498046875 12.125722885131836 96.29730224609375 C 30.290021896362305 52.50144958496094 28.707128524780273 68.83207702636719 28.204309463500977 56.61048126220703 C 28.26876449584961 78.0358657836914 17.882429122924805 60.71200180053711 62.790409088134766 29.468303680419922" fill="rgb(254, 195, 13)" opacity="0.018987425" stroke-width="2.0"/>
    <path d="M 57.214385986328125 209.31118774414062 C 46.58240509033203 138.65570068359375 61.560115814208984 135.2278289794922 61.4116096496582 140.1531219482422 C 68.20121002197266 161.7556915283203 116.85760498046875 151.6199188232422 99.32904815673828 154.6980438232422 C 71.46856689453125 151.9281005859375 135.76612854003906 241.68067932128906 57.214385986328125 209.31118774414062" fill="rgb(250, 189, 15)" opacity="0.9446743" stroke-width="2.0"/>
    <path d="M 145.7044677734375 4.351433753967285 C 144.6682891845703 -0.5525643825531006 139.85226440429688 -5.307418346405029 140.34352111816406 -9.647379875183105 C 140.11900329589844 -6.3039422035217285 143.61956787109375 -0.7134082317352295 143.8029327392578 5.3581085205078125 C 137.26820373535156 3.8800861835479736 141.04942321777344 -1.4704997539520264 145.7044677734375 4.351433753967285" fill="rgb(206, 244, 190)" opacity="0.0" stroke-width="2.0"/>
    <path d="M 97.9825210571289 209.7421417236328 C 36.91487121582031 209.3004150390625 33.68484878540039 212.45298767089844 30.111900329589844 161.6785125732422 C 48.59417724609375 158.5592498779297 46.17729949951172 156.73451232910156 42.33266830444336 165.24331665039062 C 101.74159240722656 173.1381072998047 105.06517791748047 199.96144104003906 97.9825210571289 209.7421417236328" fill="rgb(232, 203, 5)" opacity="0.5627843" stroke-width="2.0"/>
    <path d="M 120.80936431884766 90.28683471679688 C 116.54420471191406 92.49038696289062 98.63204956054688 89.75169372558594 71.87252044677734 82.41891479492188 C 71.13726806640625 39.0059928894043 76.73201751708984 44.00873947143555 80.88390350341797 64.64265441894531 C 124.49549102783203 69.82869720458984 129.19154357910156 80.02542877197266 120.80936431884766 90.28683471679688" fill="rgb(167, 180, 0)" opacity="0.27443126" stroke-width="2.0"/>
    <path d="M 83.77884674072266 114.60209655761719 C 125.03067779541016 90.02181243896484 125.78265380859375 95.46549224853516 112.6324462890625 82.62641906738281 C 105.6302490234375 80.29945373535156 97.49823760986328 78.78308868408203 69.00023651123047 87.74691772460938 C 62.6923942565918 121.49058532714844 62.75938415527344 121.11371612548828 83.77884674072266 114.60209655761719" fill="rgb(217, 215, 71)" opacity="0.9873413" stroke-width="2.0"/>
    <path d="M 68.0367202758789 129.6795196533203 C 17.74677276611328 155.7675018310547 8.142931938171387 153.78712463378906 1.772740364074707 157.7472381591797 C 4.6421685218811035 102.59243774414062 3.8422796726226807 138.28941345214844 57.602943420410156 145.0604705810547 C 67.24945068359375 78.88713836669922 72.36248779296875 67.68773651123047 68.0367202758789 129.6795196533203" fill="rgb(226, 166, 0)" opacity="0.11393633" stroke-width="2.0"/>
    <path d="M 167.7767333984375 37.101768493652344 C 165.87252807617188 108.76399993896484 171.1197967529297 116.18984985351562 164.58782958984375 102.60895538330078 C 102.72924041748047 84.43102264404297 89.95267486572266 84.6854248046875 88.97138214111328 59.597618103027344 C 97.0418701171875 82.6603775024414 87.01917266845703 54.652862548828125 167.7767333984375 37.101768493652344" fill="rgb(253, 195, 26)" opacity="0.97141856" stroke-width="2.0"/>
    <path d="M 234.99310302734375 72.20408630371094 C 176.05758666992188 -19.437681198120117 146.34388732910156 15.713662147521973 149.41615295410156 15.023126602172852 C 128.2476348876953 13.960389137268066 121.2364273071289 -4.788660049438477 133.82388305664062 35.136810302734375 C 138.7432098388672 44.55072784423828 172.3582305908203 90.68421936035156 234.99310302734375 72.20408630371094" fill="rgb(252, 198, 41)" opacity="0.0022547368" stroke-width="2.0"/>
    <path d="M 192.2484130859375 211.6649627685547 C 229.5993194580078 169.39923095703125 237.86676025390625 201.57696533203125 194.14891052246094 209.25595092773438 C 209.58091735839844 193.2510223388672 246.84156799316406 170.90386962890625 212.37879943847656 161.26840209960938 C 156.4619598388672 185.5841522216797 157.1052703857422 221.7874755859375 192.2484130859375 211.6649627685547" fill="rgb(252, 193, 26)" opacity="0.7166551" stroke-width="2.0"/>
    <path d="M 234.50601196289062 188.13043212890625 C 239.5540771484375 193.8741455078125 226.98651123046875 208.08897399902344 222.17845153808594 213.18521118164062 C 221.15138244628906 211.88485717773438 224.99705505371094 205.63478088378906 206.54693603515625 213.1595001220703 C 177.5568389892578 214.93873596191406 186.65054321289062 215.35165405273438 234.50601196289062 188.13043212890625" fill="rgb(254, 212, 99)" opacity="0.006846712" stroke-width="2.0"/>
    <path d="M 153.15707397460938 146.5218505859375 C 140.88525390625 179.7738494873047 154.86732482910156 206.85848999023438 108.06031799316406 206.6867218017578 C 83.66314697265625 185.1486053466797 105.15642547607422 152.72300720214844 67.26094818115234 146.3649444580078 C 70.6075439453125 144.83843994140625 118.15091705322266 172.3955078125 153.15707397460938 146.5218505859375" fill="rgb(204, 5, 75)" opacity="0.6191115" stroke-width="2.0"/>
    <path d="M 162.0579071044922 12.668737411499023 C 161.83802795410156 10.79345417022705 161.533447265625 10.064287185668945 164.23570251464844 11.83901309967041 C 161.33889770507812 10.210089683532715 167.40966796875 12.679671287536621 163.59625244140625 11.232803344726562 C 163.16612243652344 11.666060447692871 161.40646362304688 9.285674095153809 162.0579071044922 12.668737411499023" fill="rgb(113, 89, 255)" opacity="0.07308472" stroke-width="2.0"/>
    <path d="M 21.609424591064453 208.058349609375 C 18.485713958740234 209.00340270996094 20.966093063354492 206.91729736328125 19.390968322753906 208.9998016357422 C 20.980695724487305 206.98817443847656 19.95317268371582 208.0289764404297 19.73322296142578 208.02499389648438 C 20.248924255371094 207.29315185546875 19.27132225036621 208.71205139160156 21.609424591064453 208.058349609375" fill="rgb(232, 117, 231)" opacity="0.24288255" stroke-width="2.0"/>
    <path d="M 225.37608337402344 194.47064208984375 C 246.19236755371094 189.37542724609375 238.95556640625 147.86680603027344 232.02626037597656 166.97288513183594 C 217.56126403808594 194.17979431152344 217.06820678710938 193.00408935546875 223.45460510253906 175.2269287109375 C 227.0627899169922 203.89791870117188 214.69097900390625 200.42872619628906 225.37608337402344 194.47064208984375" fill="rgb(190, 197, 15)" opacity="0.27452332" stroke-width="2.0"/>
    <path d="M 217.2803955078125 75.32200622558594 C 131.399169921875 74.69519805908203 130.02354431152344 69.00119018554688 131.2281494140625 18.466350555419922 C 157.76087951660156 20.29530906677246 176.9085235595703 29.44475746154785 191.0991973876953 41.6583137512207 C 210.00616455078125 58.442848205566406 217.40127563476562 76.72319030761719 217.2803955078125 75.32200622558594" fill="rgb(252, 193, 25)" opacity="0.9877756" stroke-width="2.0"/>
    <path d="M 98.03884887695312 92.88764953613281 C 82.31190490722656 165.1039276123047 57.399742126464844 173.0777130126953 0.5243749022483826 170.66697692871094 C 3.3984103202819824 174.087646484375 -1.74443519115448 149.14483642578125 12.489924430847168 98.80838775634766 C 70.5272445678711 84.84082794189453 89.0162582397461 79.5797348022461 98.03884887695312 92.88764953613281" fill="rgb(251, 193, 25)" opacity="0.969535" stroke-width="2.0"/>
    <path d="M 235.27146911621094 132.30430603027344 C 203.5557403564453 145.96701049804688 205.73233032226562 186.4490203857422 213.7455291748047 203.9427947998047 C 237.3296661376953 191.66098022460938 232.54342651367188 183.94195556640625 233.9276885986328 191.72308349609375 C 231.617919921875 181.0205535888672 243.91090393066406 197.400634765625 235.27146911621094 132.30430603027344" fill="rgb(252, 193, 26)" opacity="0.99093276" stroke-width="2.0"/>
    <path d="M 160.95326232910156 121.97406005859375 C 89.2597427368164 108.85282897949219 79.80943298339844 107.22431945800781 75.5841293334961 47.58767318725586 C 154.15370178222656 49.624507904052734 161.86366271972656 47.8217658996582 175.2097625732422 56.88794708251953 C 184.03367614746094 106.67144012451172 179.86676025390625 105.34772491455078 160.95326232910156 121.97406005859375" fill="rgb(251, 193, 26)" opacity="0.81589246" stroke-width="2.0"/>
    <path d="M 133.0845184326172 220.3577880859375 C 81.31587219238281 222.67320251464844 81.21551513671875 214.07212829589844 88.27774810791016 199.97018432617188 C 72.65103912353516 207.9875946044922 97.7187271118164 213.7929229736328 140.31390380859375 206.1471405029297 C 134.43287658691406 213.0032196044922 140.08038330078125 212.5684356689453 133.0845184326172 220.3577880859375" fill="rgb(177, 109, 1)" opacity="0.508403" stroke-width="2.0"/>
    <path d="M 101.00776672363281 221.7802734375 C 179.54148864746094 224.53070068359375 185.90232849121094 211.36447143554688 179.82057189941406 176.77151489257812 C 111.38542175292969 209.3119354248047 101.22329711914062 227.93701171875 100.82746124267578 219.10781860351562 C 147.5463409423828 222.0185546875 98.478515625 218.4116973876953 101.00776672363281 221.7802734375" fill="rgb(252, 194, 26)" opacity="0.9537103" stroke-width="2.0"/>
    <path d="M 227.61773681640625 99.97242736816406 C 179.39324951171875 94.50872802734375 173.03468322753906 95.2179183959961 184.55043029785156 106.22183990478516 C 188.3957061767578 163.65708923339844 177.60928344726562 162.36935424804688 170.30825805664062 177.11354064941406 C 238.39915466308594 181.732666015625 246.37176513671875 164.64141845703125 227.61773681640625 99.97242736816406" fill="rgb(251, 193, 27)" opacity="0.99712455" stroke-width="2.0"/>
    <path d="M 119.79574584960938 220.52552795410156 C 134.78256225585938 218.26759338378906 107.04817962646484 227.71392822265625 55.64739227294922 214.63494873046875 C 61.154319763183594 146.0324249267578 70.13277435302734 156.8713836669922 103.1914291381836 199.8399200439453 C 127.24308013916016 215.87026977539062 144.11807250976562 186.219482421875 119.79574584960938 220.52552795410156" fill="rgb(252, 194, 26)" opacity="0.9828476" stroke-width="2.0"/>
    <path d="M 107.07860565185547 168.30101013183594 C 31.41706657409668 152.72286987304688 58.582000732421875 136.59144592285156 63.72105026245117 141.07061767578125 C 65.75141143798828 142.26551818847656 108.54362487792969 171.88461303710938 164.5282440185547 147.4258575439453 C 200.86936950683594 124.8675537109375 194.5160369873047 168.96884155273438 107.07860565185547 168.30101013183594" fill="rgb(41, 45, 46)" opacity="0.97169447" stroke-width="2.0"/>
    <path d="M 185.3349151611328 111.23023986816406 C 152.45155334472656 92.75611114501953 134.92581176757812 118.26652526855469 220.94569396972656 85.56647491455078 C 168.87986755371094 86.79740142822266 139.23199462890625 99.03874969482422 131.63760375976562 111.95165252685547 C 179.26954650878906 109.74343872070312 182.1197509765625 128.33551025390625 185.3349151611328 111.23023986816406" fill="rgb(44, 45, 47)" opacity="0.978643" stroke-width="2.0"/>
    <path d="M 30.695085525512695 37.619022369384766 C 23.55348777770996 40.346519470214844 29.054462432861328 36.583412170410156 26.10403823852539 39.9832878112793 C 25.32745361328125 37.12239456176758 27.130538940429688 43.06842041015625 21.552486419677734 40.7208366394043 C 25.25819969177246 43.00482177734375 25.22433090209961 38.57158660888672 30.695085525512695 37.619022369384766" fill="rgb(62, 255, 204)" opacity="0.0" stroke-width="2.0"/>
    <path d="M 25.689512252807617 162.50067138671875 C 24.563005447387695 173.3700714111328 47.77070999145508 172.8282470703125 48.49407958984375 138.99147033691406 C 43.684730529785156 146.2528839111328 59.37281799316406 150.1071319580078 93.98331451416016 169.1057586669922 C 37.565914154052734 179.8949432373047 37.90606689453125 179.5835723876953 25.689512252807617 162.50067138671875" fill="rgb(255, 194, 25)" opacity="0.35842273" stroke-width="2.0"/>
    <path d="M 31.457963943481445 135.3714141845703 C 62.242225646972656 142.77796936035156 66.05388641357422 159.25010681152344 63.57625198364258 216.38751220703125 C 12.539508819580078 205.0127716064453 -1.5650572776794434 185.20318603515625 2.2021541595458984 170.2593536376953 C 4.5647053718566895 153.67062377929688 -4.774438858032227 142.47113037109375 31.457963943481445 135.3714141845703" fill="rgb(252, 194, 26)" opacity="0.9902144" stroke-width="2.0"/>
    <path d="M 30.387712478637695 104.04967498779297 C 24.083839416503906 64.53797149658203 37.51415252685547 42.607444763183594 75.18074035644531 25.698986053466797 C 67.63893127441406 28.67698860168457 97.0479736328125 19.264562606811523 95.51019287109375 19.915809631347656 C 107.50653839111328 71.69363403320312 108.89900207519531 102.38790893554688 30.387712478637695 104.04967498779297" fill="rgb(252, 194, 26)" opacity="0.96897453" stroke-width="2.0"/>
    <path d="M 231.59744262695312 70.90628814697266 C 219.86062622070312 84.8026351928711 187.89512634277344 79.34202575683594 206.3175811767578 96.16768646240234 C 223.4821319580078 100.95994567871094 193.4617156982422 85.63319396972656 176.51397705078125 35.15716552734375 C 179.3787384033203 19.138734817504883 209.90008544921875 44.25691223144531 231.59744262695312 70.90628814697266" fill="rgb(251, 202, 77)" opacity="0.0016995572" stroke-width="2.0"/>
    <path d="M 93.36296081542969 164.12940979003906 C 90.67825317382812 204.57537841796875 124.952880859375 220.55824279785156 145.3298797607422 187.36740112304688 C 139.63970947265625 173.1874542236328 162.87374877929688 143.7438201904297 183.0803680419922 138.29312133789062 C 151.19012451171875 177.0309295654297 112.1641616821289 168.91171264648438 93.36296081542969 164.12940979003906" fill="rgb(136, 0, 103)" opacity="0.10797065" stroke-width="2.0"/>
    <path d="M 149.779541015625 68.91191101074219 C 119.1954116821289 60.88548278808594 140.53964233398438 61.327247619628906 133.64561462402344 50.146209716796875 C 115.73981475830078 46.890445709228516 139.9481964111328 50.03649139404297 151.89097595214844 61.90822982788086 C 120.27949523925781 76.21683502197266 124.13636016845703 77.0906753540039 149.779541015625 68.91191101074219" fill="rgb(111, 179, 0)" opacity="0.0" stroke-width="2.0"/>
    <path d="M 232.29002380371094 116.66606140136719 C 200.55442810058594 149.05638122558594 195.45339965820312 119.60203552246094 185.57577514648438 85.81656646728516 C 190.37449645996094 89.80259704589844 161.27481079101562 98.10346984863281 151.3063507080078 53.83668899536133 C 210.79869079589844 55.460357666015625 217.27963256835938 62.568729400634766 232.29002380371094 116.66606140136719" fill="rgb(252, 194, 27)" opacity="0.9941259" stroke-width="2.0"/>
    <path d="M 205.33200073242188 233.4539794921875 C 207.12258911132812 233.02769470214844 206.6384735107422 233.25723266601562 205.67889404296875 233.70098876953125 C 206.57106018066406 233.2024383544922 206.26268005371094 233.43502807617188 205.59547424316406 233.98019409179688 C 206.0887451171875 233.61026000976562 206.78765869140625 233.20736694335938 205.33200073242188 233.4539794921875" fill="rgb(255, 162, 90)" opacity="0.44059566" stroke-width="2.0"/>
    <path d="M 158.8768310546875 149.7373504638672 C 89.8763656616211 175.09426879882812 63.129310607910156 130.0170135498047 70.98583221435547 71.1357421875 C 90.51011657714844 68.61188507080078 149.8726348876953 72.86817169189453 123.30870819091797 64.99513244628906 C 129.459228515625 87.32221221923828 146.41116333007812 130.42710876464844 158.8768310546875 149.7373504638672" fill="rgb(252, 193, 26)" opacity="0.9890534" stroke-width="2.0"/>
    <path d="M 80.54424285888672 10.094122886657715 C 80.94258117675781 9.544798851013184 81.14595794677734 9.759379386901855 80.94913482666016 9.684792518615723 C 79.51349639892578 10.697822570800781 82.26754760742188 8.930628776550293 80.34033203125 10.117984771728516 C 81.17024230957031 9.75804328918457 81.76152038574219 8.71345329284668 80.54424285888672 10.094122886657715" fill="rgb(154, 223, 180)" opacity="0.2102732" stroke-width="2.0"/>
    <path d="M 95.74805450439453 13.4334077835083 C 95.02284240722656 15.657389640808105 90.8012466430664 13.70346736907959 91.03357696533203 12.413637161254883 C 90.86449432373047 13.72280502319336 94.54906463623047 14.794897079467773 92.34941101074219 13.971613883972168 C 94.80270385742188 15.028541564941406 95.44149017333984 14.127921104431152 95.74805450439453 13.4334077835083" fill="rgb(217, 111, 169)" opacity="0.028067246" stroke-width="2.0"/>
    <path d="M 156.80589294433594 53.95427703857422 C 158.7747344970703 67.26911926269531 160.348388671875 67.54122924804688 168.10308837890625 58.84072494506836 C 167.34332275390625 40.34531021118164 160.32713317871094 47.0025520324707 140.67901611328125 41.623069763183594 C 132.19102478027344 49.67548370361328 133.6519317626953 45.33378982543945 156.80589294433594 53.95427703857422" fill="rgb(169, 175, 127)" opacity="0.0064959484" stroke-width="2.0"/>
    <path d="M 54.3369255065918 103.89454650878906 C 46.823577880859375 134.94358825683594 75.0816879272461 151.08740234375 122.7764663696289 154.51698303222656 C 120.1608657836914 156.0836181640625 125.59557342529297 164.1814727783203 116.8809814453125 102.12446594238281 C 51.8144645690918 95.9886474609375 55.11842346191406 98.48750305175781 54.3369255065918 103.89454650878906" fill="rgb(251, 194, 28)" opacity="0.21779887" stroke-width="2.0"/>
    <path d="M 187.07229614257812 100.84336853027344 C 161.970703125 98.58369445800781 149.42507934570312 78.23503875732422 139.89596557617188 70.70719909667969 C 229.8808135986328 63.42941665649414 230.6580352783203 59.0720100402832 239.72598266601562 167.2691650390625 C 195.70045471191406 156.55926513671875 165.51419067382812 154.078857421875 187.07229614257812 100.84336853027344" fill="rgb(251, 187, 2)" opacity="0.017792389" stroke-width="2.0"/>
    <path d="M 133.58892822265625 18.145357131958008 C 137.25848388671875 59.078495025634766 110.82861328125 67.11212158203125 86.97200775146484 20.92205047607422 C 94.2267837524414 19.668922424316406 103.55563354492188 29.296537399291992 115.7743148803711 25.48583984375 C 79.12654113769531 27.30895233154297 76.94677734375 15.778552055358887 133.58892822265625 18.145357131958008" fill="rgb(252, 185, 8)" opacity="0.25417578" stroke-width="2.0"/>
    <path d="M 122.16277313232422 4.397857666015625 C 124.51563262939453 0.9917593598365784 124.9788818359375 0.04130267724394798 125.02976989746094 -0.45135045051574707 C 126.19517517089844 -8.673128128051758 126.14509582519531 -7.320550441741943 123.72087097167969 -6.150949478149414 C 125.92092895507812 -3.3061180114746094 127.22669982910156 -2.7104978561401367 122.16277313232422 4.397857666015625" fill="rgb(255, 224, 92)" opacity="0.09091634" stroke-width="2.0"/>
    <path d="M 85.04373168945312 89.46046447753906 C 65.2315444946289 73.88542938232422 49.30855178833008 108.63851928710938 69.51365661621094 121.03775787353516 C 86.6070785522461 128.06153869628906 98.28797149658203 102.6313705444336 84.3904800415039 89.32427978515625 C 85.38632202148438 92.5284194946289 86.0988540649414 80.76128387451172 85.04373168945312 89.46046447753906" fill="rgb(1, 13, 51)" opacity="0.81432396" stroke-width="2.0"/>
    <path d="M 246.27464294433594 146.8671112060547 C 247.15867614746094 153.25930786132812 244.52908325195312 150.98597717285156 246.86195373535156 146.14291381835938 C 244.88204956054688 156.435302734375 244.63308715820312 161.89503479003906 249.6639404296875 159.5391387939453 C 248.3385009765625 162.8817901611328 245.6247100830078 167.8126678466797 246.27464294433594 146.8671112060547" fill="rgb(228, 113, 117)" opacity="0.41341338" stroke-width="2.0"/>
  </g>
</svg>
