<?xml version="1.0" ?>
<svg height="240" version="1.1" width="240" xmlns="http://www.w3.org/2000/svg">
  <defs/>
  <g>
    <path d="M 221.9250946044922 208.0359649658203 C 221.3675994873047 207.1690216064453 223.80470275878906 210.94699096679688 231.02552795410156 210.76658630371094 C 223.07398986816406 210.8783416748047 221.75909423828125 206.8932342529297 221.8521728515625 208.37344360351562 C 222.14999389648438 206.2617645263672 222.14889526367188 206.41293334960938 221.9250946044922 208.0359649658203" fill="rgb(106, 255, 73)" opacity="0.05382739" stroke-width="2.0"/>
    <path d="M 155.3418731689453 212.71766662597656 C 146.4317169189453 183.85580444335938 142.85186767578125 140.22425842285156 156.90330505371094 132.42959594726562 C 224.38140869140625 137.2594757080078 225.60531616210938 136.71031188964844 230.4486846923828 146.16749572753906 C 204.58480834960938 166.54249572753906 192.9679718017578 180.4237060546875 193.18670654296875 196.37689208984375 C 215.13916015625 179.0457305908203 216.97256469726562 141.2176513671875 235.9059600830078 139.21803283691406 C 244.42608642578125 203.31690979003906 209.1599884033203 210.38705444335938 155.3418731689453 212.71766662597656" fill="rgb(134, 206, 43)" opacity="0.43389085" stroke-width="2.0"/>
    <path d="M 1.3536077737808228 175.52169799804688 C 54.430633544921875 198.3208770751953 65.75997161865234 189.19277954101562 70.03218078613281 178.09458923339844 C 75.38029479980469 86.73705291748047 77.43402862548828 88.35597229003906 13.238693237304688 96.70043182373047 C 2.767392873764038 136.74807739257812 2.6973111629486084 121.05397033691406 28.784324645996094 114.58138275146484 C 15.71377944946289 121.48639678955078 1.6089677810668945 107.812744140625 1.3536077737808228 175.52169799804688" fill="rgb(251, 194, 0)" opacity="0.7422904" stroke-width="2.0"/>
    <path d="M 133.86610412597656 221.97425842285156 C 121.8860092163086 220.62628173828125 125.03937530517578 232.1028289794922 134.12486267089844 166.53135681152344 C 175.770263671875 159.8863067626953 152.157958984375 156.1930389404297 218.3819122314453 155.35574340820312 C 219.3265838623047 200.9530487060547 216.7750244140625 215.57431030273438 133.86610412597656 221.97425842285156" fill="rgb(255, 190, 15)" opacity="0.9254889" stroke-width="2.0"/>
    <path d="M 37.12928771972656 57.735755920410156 C 100.78810119628906 90.54825592041016 101.57891082763672 96.52335357666016 91.73141479492188 30.031784057617188 C 49.8552131652832 31.231271743774414 66.50556182861328 37.00074768066406 64.97423553466797 103.67144775390625 C 22.519163131713867 108.30522918701172 16.238866806030273 105.50578308105469 37.12928771972656 57.735755920410156" fill="rgb(255, 235, 68)" opacity="0.74472725" stroke-width="2.0"/>
    <path d="M 157.7395782470703 53.12473678588867 C 104.49488067626953 58.37262725830078 105.7044448852539 59.04793167114258 110.58560180664062 117.7589340209961 C 150.98509216308594 114.6473388671875 141.97593688964844 96.08621215820312 152.48670959472656 82.3425064086914 C 165.03512573242188 65.82123565673828 176.2230682373047 60.29571533203125 178.13983154296875 120.71522521972656 C 105.02792358398438 126.27965545654297 141.6721649169922 124.52094268798828 157.7395782470703 53.12473678588867" fill="rgb(241, 131, 0)" opacity="0.7610436" stroke-width="2.0"/>
    <path d="M 135.91973876953125 154.305908203125 C 93.06822967529297 156.0503692626953 85.57988739013672 158.81324768066406 80.98189544677734 102.2998046875 C 108.88873291015625 104.60479736328125 106.04585266113281 107.31342315673828 94.96398162841797 105.30461883544922 C 95.83354949951172 97.53849792480469 97.10371398925781 88.4522933959961 158.68283081054688 88.0419692993164 C 165.23358154296875 105.18942260742188 164.11805725097656 145.00857543945312 135.91973876953125 154.305908203125" fill="rgb(235, 206, 0)" opacity="0.4170366" stroke-width="2.0"/>
    <path d="M 90.47084045410156 220.70205688476562 C 96.64784240722656 206.1126708984375 95.4751968383789 154.25210571289062 82.8475341796875 138.67601013183594 C 12.694053649902344 140.29965209960938 -15.365368843078613 170.49307250976562 12.133138656616211 194.5531005859375 C 21.233516693115234 203.0106658935547 46.078216552734375 216.0573272705078 90.47084045410156 220.70205688476562" fill="rgb(253, 187, 2)" opacity="0.9019846" stroke-width="2.0"/>
    <path d="M 111.89035034179688 159.3126678466797 C 91.3919448852539 161.73854064941406 61.1396484375 148.50299072265625 57.35438919067383 150.74241638183594 C 52.39662170410156 98.94915008544922 48.481422424316406 97.7831039428711 94.8215103149414 100.03910827636719 C 113.33087921142578 116.90270233154297 121.31748962402344 146.66488647460938 111.89035034179688 159.3126678466797" fill="rgb(253, 194, 69)" opacity="0.99822235" stroke-width="2.0"/>
    <path d="M 153.18499755859375 169.81321716308594 C 151.41876220703125 205.531005859375 122.41561126708984 186.6062774658203 49.89213180541992 211.86001586914062 C 46.01572799682617 171.0751190185547 54.49223709106445 164.59878540039062 108.5533218383789 173.64784240722656 C 131.2408905029297 215.41226196289062 66.85835266113281 186.46998596191406 73.13878631591797 218.23753356933594 C 153.49061584472656 229.81756591796875 166.34153747558594 214.39877319335938 158.39671325683594 183.2733154296875 C 88.96050262451172 216.8342742919922 97.27473449707031 190.9828338623047 153.18499755859375 169.81321716308594" fill="rgb(252, 193, 26)" opacity="0.99783206" stroke-width="2.0"/>
    <path d="M 233.49282836914062 222.4259033203125 C 233.30747985839844 226.91082763671875 237.63009643554688 225.86045837402344 233.86178588867188 225.4322967529297 C 234.91310119628906 229.36282348632812 234.2091064453125 225.8373565673828 233.80963134765625 226.09112548828125 C 234.95567321777344 224.0362548828125 233.18597412109375 225.15557861328125 234.0491485595703 224.51304626464844 C 232.63473510742188 223.6511993408203 233.98524475097656 225.83726501464844 233.49282836914062 222.4259033203125" fill="rgb(145, 90, 188)" opacity="0.006236321" stroke-width="2.0"/>
    <path d="M 150.15150451660156 118.94117736816406 C 171.43817138671875 131.96490478515625 186.70278930664062 129.48800659179688 191.8964080810547 126.24373626708984 C 192.02760314941406 91.09502410888672 186.02757263183594 85.48908233642578 177.68345642089844 92.63862609863281 C 158.8217010498047 115.5517349243164 159.64833068847656 103.7888412475586 146.01168823242188 98.33576202392578 C 146.4615936279297 130.27903747558594 138.43157958984375 131.71237182617188 135.3455047607422 49.58234405517578 C 205.56690979003906 50.93383026123047 206.50732421875 72.17472839355469 150.15150451660156 118.94117736816406" fill="rgb(251, 193, 26)" opacity="0.9901935" stroke-width="2.0"/>
    <path d="M 58.5760612487793 34.158111572265625 C 22.711109161376953 57.757080078125 13.058984756469727 98.91951751708984 12.81511402130127 98.46141815185547 C 92.4653549194336 81.62203979492188 93.74832916259766 73.53346252441406 92.0797348022461 29.086456298828125 C 105.9372787475586 19.77391242980957 85.74415588378906 16.48101806640625 58.5760612487793 34.158111572265625" fill="rgb(255, 205, 0)" opacity="0.43848273" stroke-width="2.0"/>
    <path d="M 110.1172866821289 133.20602416992188 C 62.51250076293945 131.37391662597656 58.96541213989258 132.8423614501953 58.28599166870117 88.2918930053711 C 115.22611999511719 67.68614959716797 119.94966888427734 71.70311737060547 122.1399154663086 84.21026611328125 C 125.7750473022461 112.86865234375 128.3811798095703 120.72650909423828 110.1172866821289 133.20602416992188" fill="rgb(210, 166, 11)" opacity="0.715206" stroke-width="2.0"/>
    <path d="M 192.07241821289062 212.26353454589844 C 217.53359985351562 204.60153198242188 239.6009521484375 191.6287384033203 238.4071044921875 173.13299560546875 C 237.63487243652344 147.2752685546875 242.17440795898438 147.2996063232422 185.36964416503906 149.77296447753906 C 191.59999084472656 158.97071838378906 189.78802490234375 189.38885498046875 192.07241821289062 212.26353454589844" fill="rgb(252, 193, 25)" opacity="0.9734998" stroke-width="2.0"/>
    <path d="M -1.6424615383148193 221.37245178222656 C -4.628634929656982 224.6038055419922 -7.537362575531006 228.64926147460938 -11.38282299041748 231.333251953125 C -15.75733757019043 229.78402709960938 -15.15952205657959 234.38107299804688 -10.97720718383789 233.88531494140625 C -11.649921417236328 228.205078125 -11.622145652770996 225.53123474121094 -15.330973625183105 220.6565704345703 C -16.740148544311523 218.8386688232422 -18.070913314819336 219.29522705078125 -23.82784652709961 223.32815551757812 C -27.760866165161133 221.38494873046875 -29.942350387573242 226.68893432617188 -1.6424615383148193 221.37245178222656" fill="rgb(31, 99, 22)" opacity="0.019749213" stroke-width="2.0"/>
    <path d="M 166.80487060546875 213.44676208496094 C 164.10440063476562 220.0664825439453 164.6356658935547 213.17532348632812 183.77862548828125 210.47242736816406 C 203.44146728515625 205.4009552001953 205.75283813476562 209.3496856689453 193.17677307128906 214.12078857421875 C 174.94961547851562 216.81585693359375 161.88099670410156 224.9511260986328 160.10003662109375 222.58184814453125 C 182.3678741455078 203.5696258544922 181.94886779785156 215.5950164794922 166.80487060546875 213.44676208496094" fill="rgb(107, 121, 73)" opacity="0.0" stroke-width="2.0"/>
    <path d="M 221.17288208007812 120.68013763427734 C 222.3955078125 94.34696960449219 219.9890899658203 87.24351501464844 188.86575317382812 88.76262664794922 C 191.7969970703125 118.1599349975586 173.19650268554688 120.72792053222656 205.24574279785156 130.76669311523438 C 209.85147094726562 145.99899291992188 206.6636962890625 148.63238525390625 147.5650634765625 164.04177856445312 C 141.98915100097656 138.4798583984375 148.9276885986328 110.90872192382812 221.17288208007812 120.68013763427734" fill="rgb(123, 52, 1)" opacity="0.58625406" stroke-width="2.0"/>
    <path d="M 212.31375122070312 114.04164123535156 C 193.535888671875 108.46536254882812 192.28253173828125 109.00352478027344 171.59722900390625 132.9955596923828 C 169.63377380371094 165.66842651367188 173.0111846923828 162.9220428466797 213.1541748046875 164.33311462402344 C 211.32569885253906 152.6981964111328 175.88902282714844 162.94285583496094 235.4964599609375 168.0062713623047 C 235.95655822753906 174.86668395996094 226.98495483398438 144.7604522705078 212.31375122070312 114.04164123535156" fill="rgb(238, 170, 29)" opacity="0.42630067" stroke-width="2.0"/>
    <path d="M 108.26851654052734 222.4174041748047 C 49.312644958496094 222.11163330078125 2.862668037414551 197.01974487304688 14.132309913635254 191.52886962890625 C 12.936957359313965 174.8561553955078 0.9550451636314392 161.66043090820312 5.460919380187988 155.66925048828125 C -6.314380168914795 176.23495483398438 -3.581333637237549 179.35902404785156 13.945843696594238 198.63331604003906 C 6.577882289886475 175.7418670654297 4.9262847900390625 183.2763214111328 108.26851654052734 222.4174041748047" fill="rgb(207, 185, 31)" opacity="0.030081213" stroke-width="2.0"/>
    <path d="M 89.6594009399414 21.162647247314453 C 109.3658676147461 17.133892059326172 142.96060180664062 15.213093757629395 137.55535888671875 24.03289222717285 C 124.81659698486328 53.629638671875 117.01325225830078 50.28883743286133 92.58187866210938 55.82212448120117 C 64.0157470703125 52.58146667480469 61.131431579589844 58.96364974975586 46.15765380859375 45.05907440185547 C 61.04734420776367 30.03995132446289 78.65718078613281 24.593101501464844 89.6594009399414 21.162647247314453" fill="rgb(250, 191, 28)" opacity="0.910884" stroke-width="2.0"/>
    <path d="M 234.97694396972656 137.15391540527344 C 239.57431030273438 175.9962158203125 244.18716430664062 178.38990783691406 177.83258056640625 173.268310546875 C 168.0083465576172 165.36326599121094 169.3669891357422 161.0641632080078 171.0460968017578 150.87466430664062 C 149.55274963378906 125.95167541503906 169.19139099121094 135.72300720214844 201.26974487304688 94.31117248535156 C 201.63209533691406 79.5318374633789 210.1671142578125 94.50635528564453 234.97694396972656 137.15391540527344" fill="rgb(252, 194, 26)" opacity="0.8586863" stroke-width="2.0"/>
    <path d="M 104.44652557373047 51.66822052001953 C 107.24805450439453 75.87409973144531 116.06448364257812 82.76691436767578 117.1932601928711 75.77869415283203 C 113.39322662353516 76.45722198486328 121.17768859863281 75.7298355102539 127.1426010131836 73.84576416015625 C 120.86299896240234 89.19281768798828 135.7825927734375 80.93221282958984 150.5828857421875 13.813875198364258 C 97.37963104248047 11.896219253540039 104.68718719482422 28.785308837890625 104.44652557373047 51.66822052001953" fill="rgb(180, 188, 107)" opacity="0.0061766775" stroke-width="2.0"/>
    <path d="M 237.95872497558594 158.37330627441406 C 235.28363037109375 113.12770080566406 224.9580841064453 96.77305603027344 225.4461212158203 91.53723907470703 C 225.64044189453125 100.23412322998047 228.33599853515625 99.23462677001953 220.24212646484375 82.03604888916016 C 188.22201538085938 85.67517852783203 187.52230834960938 84.71095275878906 176.35484313964844 90.99301147460938 C 179.91195678710938 98.22923278808594 179.6597900390625 105.12531280517578 168.88052368164062 146.6947479248047 C 169.20887756347656 158.555908203125 195.338623046875 162.39981079101562 237.95872497558594 158.37330627441406" fill="rgb(251, 194, 26)" opacity="0.98782957" stroke-width="2.0"/>
    <path d="M 104.72764587402344 194.6287078857422 C 84.59430694580078 162.104248046875 80.12813568115234 149.06103515625 85.22684478759766 155.3579864501953 C 97.42800903320312 154.2390594482422 109.81826782226562 160.1077117919922 95.98448181152344 145.1713409423828 C 94.76384735107422 144.84642028808594 85.68353271484375 153.75331115722656 137.28456115722656 141.0380859375 C 155.9202117919922 158.8153533935547 155.4879608154297 186.56175231933594 104.72764587402344 194.6287078857422" fill="rgb(211, 88, 136)" opacity="0.9947849" stroke-width="2.0"/>
    <path d="M 53.43982696533203 191.68699645996094 C 108.30923461914062 192.7920684814453 94.74671173095703 179.06752014160156 83.33084869384766 138.5465545654297 C 86.57890319824219 117.46749114990234 90.88513946533203 114.9649429321289 108.91056060791016 115.58440399169922 C 103.94182586669922 149.3426055908203 100.63343811035156 155.93643188476562 95.61783599853516 130.54519653320312 C 99.68801879882812 140.70314025878906 98.41846466064453 128.2684326171875 55.455909729003906 154.3117218017578 C 55.31818771362305 172.1999053955078 56.124847412109375 173.46795654296875 53.43982696533203 191.68699645996094" fill="rgb(247, 191, 26)" opacity="0.8272857" stroke-width="2.0"/>
    <path d="M 99.57949829101562 153.57728576660156 C 150.87818908691406 107.17249298095703 174.155517578125 100.933349609375 97.5308837890625 93.4363021850586 C 99.1604232788086 168.8900909423828 118.94624328613281 127.91505432128906 174.10281372070312 99.97513580322266 C 166.57754516601562 140.970703125 152.42298889160156 128.49798583984375 138.34124755859375 164.57798767089844 C 138.62998962402344 164.96458435058594 146.77027893066406 134.80685424804688 178.4287567138672 121.3715591430664 C 181.4691162109375 173.3008575439453 161.84771728515625 172.8426971435547 99.57949829101562 153.57728576660156" fill="rgb(247, 190, 27)" opacity="0.7993837" stroke-width="2.0"/>
    <path d="M -5.367730617523193 27.508771896362305 C -3.711167097091675 35.80889129638672 -8.340758323669434 37.45049285888672 -11.470151901245117 37.31447982788086 C -13.625588417053223 28.501428604125977 -17.677791595458984 33.01268768310547 -20.24800682067871 37.78446960449219 C -15.133913040161133 34.69361877441406 -15.689108848571777 36.11872100830078 -5.367730617523193 27.508771896362305" fill="rgb(176, 125, 29)" opacity="0.5079227" stroke-width="2.0"/>
    <path d="M 213.9197540283203 33.278263092041016 C 206.81301879882812 31.783710479736328 210.0214080810547 32.54583740234375 209.24847412109375 34.917877197265625 C 211.32521057128906 38.22109603881836 205.7841033935547 35.19923400878906 209.8060760498047 35.14430236816406 C 211.1328887939453 34.68790817260742 210.35458374023438 25.85731315612793 213.9197540283203 33.278263092041016" fill="rgb(255, 214, 100)" opacity="0.0" stroke-width="2.0"/>
    <path d="M 190.17503356933594 233.19854736328125 C 190.6286163330078 231.9233856201172 189.85952758789062 234.98037719726562 190.49111938476562 231.35220336914062 C 189.78921508789062 233.72486877441406 191.21859741210938 236.23028564453125 191.22994995117188 235.46473693847656 C 191.66346740722656 236.7291259765625 188.6449432373047 232.18800354003906 191.83966064453125 232.74270629882812 C 189.8076629638672 232.6675262451172 191.19485473632812 232.94772338867188 190.17503356933594 233.19854736328125" fill="rgb(255, 114, 255)" opacity="0.011254506" stroke-width="2.0"/>
    <path d="M 30.38082504272461 20.426218032836914 C 31.692981719970703 15.768349647521973 31.165287017822266 16.875083923339844 30.05825424194336 16.96148109436035 C 27.77022361755371 21.927833557128906 28.812707901000977 19.78095245361328 29.941965103149414 17.142507553100586 C 32.48041534423828 15.346309661865234 29.972457885742188 21.148380279541016 33.212215423583984 16.53786849975586 C 28.74120330810547 23.529773712158203 34.008426666259766 6.893207550048828 30.38082504272461 20.426218032836914" fill="rgb(192, 255, 54)" opacity="0.13682467" stroke-width="2.0"/>
    <path d="M 168.44589233398438 28.115690231323242 C 204.35411071777344 40.30791091918945 197.64207458496094 75.57238006591797 179.6316680908203 86.52032470703125 C 176.17999267578125 86.60426330566406 192.020263671875 88.4520034790039 124.33277130126953 74.0283432006836 C 109.67888641357422 27.71131134033203 110.01941680908203 12.980818748474121 168.44589233398438 28.115690231323242" fill="rgb(247, 196, 66)" opacity="0.62848645" stroke-width="2.0"/>
    <path d="M 73.9251480102539 113.34768676757812 C 59.050315856933594 150.86886596679688 65.3033447265625 144.52532958984375 101.01483154296875 155.3143310546875 C 113.06112670898438 174.3585205078125 74.92996215820312 161.7914581298828 57.90774917602539 151.08326721191406 C 65.4696273803711 148.37266540527344 67.0746841430664 146.40472412109375 68.9322509765625 93.98020935058594 C 81.00303649902344 95.44475555419922 87.62818145751953 94.95488739013672 73.9251480102539 113.34768676757812" fill="rgb(36, 39, 48)" opacity="0.93858016" stroke-width="2.0"/>
    <path d="M 70.86276245117188 62.636558532714844 C 69.20313262939453 21.026256561279297 87.32563018798828 16.49435043334961 132.95059204101562 18.06696319580078 C 139.91481018066406 19.360383987426758 163.06228637695312 20.58059310913086 183.0182342529297 36.02766418457031 C 155.67701721191406 33.25120162963867 172.91905212402344 9.775397300720215 175.7685089111328 77.0539779663086 C 167.0210723876953 90.29463195800781 99.84313201904297 89.96375274658203 70.86276245117188 62.636558532714844" fill="rgb(254, 192, 9)" opacity="0.5915992" stroke-width="2.0"/>
    <path d="M 173.0858612060547 239.23593139648438 C 175.7567901611328 243.30206298828125 172.123291015625 241.4024200439453 169.3746337890625 238.96072387695312 C 174.8638458251953 244.20774841308594 174.08273315429688 241.29190063476562 168.9927978515625 245.56068420410156 C 170.9899444580078 251.27288818359375 174.91934204101562 256.7427673339844 172.05862426757812 253.09524536132812 C 172.43162536621094 252.92764282226562 176.43507385253906 255.95721435546875 173.0858612060547 239.23593139648438" fill="rgb(249, 114, 244)" opacity="0.0" stroke-width="2.0"/>
    <path d="M 90.98261260986328 67.26251220703125 C 99.16412353515625 55.2066535949707 98.24772644042969 64.93624114990234 78.46125793457031 51.0443115234375 C 78.59668731689453 51.032711029052734 69.52616882324219 53.74861526489258 93.48908233642578 56.280879974365234 C 98.39156341552734 38.51863098144531 96.61921691894531 39.557838439941406 90.98261260986328 67.26251220703125" fill="rgb(200, 191, 88)" opacity="0.5800991" stroke-width="2.0"/>
    <path d="M 91.03951263427734 167.6872100830078 C 95.39646911621094 197.33567810058594 82.28875732421875 200.4331817626953 50.6480712890625 189.79286193847656 C 43.31761169433594 195.4080352783203 64.3582534790039 195.80223083496094 2.8968493938446045 179.2108154296875 C 0.38038066029548645 135.93109130859375 0.5379015207290649 140.730712890625 91.03951263427734 167.6872100830078" fill="rgb(251, 194, 27)" opacity="0.9815375" stroke-width="2.0"/>
    <path d="M -0.7493853569030762 81.21812438964844 C -4.539464473724365 83.59800720214844 -5.0472187995910645 82.65792846679688 -10.945565223693848 86.13521575927734 C -6.958423137664795 89.8161392211914 -12.14538288116455 85.8496322631836 -14.013104438781738 83.17668151855469 C -8.365509033203125 77.84607696533203 -6.253325462341309 81.96197509765625 -10.988164901733398 84.04268646240234 C -13.542770385742188 84.67344665527344 -14.535089492797852 86.12808227539062 -10.08401870727539 86.4669418334961 C -12.847405433654785 83.48751068115234 -9.615592002868652 90.30940246582031 -0.7493853569030762 81.21812438964844" fill="rgb(84, 158, 186)" opacity="0.61782706" stroke-width="2.0"/>
    <path d="M 19.36758804321289 158.6954803466797 C 29.739185333251953 154.59432983398438 46.95219802856445 151.46775817871094 61.169307708740234 150.16970825195312 C 11.031206130981445 149.0033721923828 -0.47191423177719116 153.76382446289062 4.253897666931152 162.1306610107422 C 11.602167129516602 162.91998291015625 26.458881378173828 160.46182250976562 56.30878448486328 143.54783630371094 C 54.22287368774414 139.17759704589844 42.16951370239258 146.3031005859375 -4.650203227996826 156.24041748046875 C -3.441287040710449 169.35365295410156 -0.012452838011085987 163.35394287109375 19.36758804321289 158.6954803466797" fill="rgb(155, 239, 96)" opacity="0.0033643662" stroke-width="2.0"/>
    <path d="M 97.12541961669922 190.4581298828125 C 107.34366607666016 214.4300994873047 142.0973663330078 204.33193969726562 140.0629425048828 191.90562438964844 C 141.42398071289062 199.40509033203125 130.9460906982422 201.781982421875 141.41038513183594 196.62948608398438 C 128.97911071777344 202.36334228515625 147.2625732421875 202.67575073242188 147.36354064941406 164.4395751953125 C 112.56458282470703 191.76768493652344 115.14189147949219 190.2823028564453 139.99107360839844 170.78236389160156 C 92.66329956054688 165.7544403076172 89.77091979980469 168.14706420898438 97.12541961669922 190.4581298828125" fill="rgb(215, 88, 138)" opacity="0.996249" stroke-width="2.0"/>
    <path d="M 26.38331413269043 82.78298950195312 C 24.77768898010254 71.5986557006836 16.501819610595703 83.13720703125 8.553350448608398 114.38504791259766 C -8.40639591217041 187.03103637695312 15.412820816040039 176.98654174804688 73.6268539428711 145.6588134765625 C 90.08243560791016 138.80332946777344 83.357177734375 134.7842254638672 75.97039794921875 130.01144409179688 C 87.70891571044922 135.31748962402344 78.5862045288086 155.23092651367188 83.12890625 85.1252212524414 C 66.05581665039062 71.09680938720703 15.065956115722656 66.45394897460938 26.38331413269043 82.78298950195312" fill="rgb(252, 193, 26)" opacity="0.97377837" stroke-width="2.0"/>
    <path d="M 173.0077667236328 116.37299346923828 C 144.0616912841797 107.57160949707031 125.43000030517578 117.57532501220703 141.2056121826172 102.22811126708984 C 150.4969024658203 96.93744659423828 209.59266662597656 74.13794708251953 180.1788330078125 106.01655578613281 C 195.32672119140625 123.28714752197266 180.8550262451172 119.67847442626953 173.0077667236328 116.37299346923828" fill="rgb(12, 22, 50)" opacity="0.85040534" stroke-width="2.0"/>
    <path d="M 52.240020751953125 60.14517593383789 C 70.9181900024414 55.473052978515625 74.3943099975586 54.272830963134766 71.67298126220703 45.38814926147461 C 74.29148864746094 59.86716079711914 64.60076141357422 58.932212829589844 51.546234130859375 60.09508514404297 C 60.260921478271484 46.02735900878906 75.16657257080078 40.7166633605957 70.52186584472656 56.63291931152344 C 57.44927215576172 64.2963638305664 58.73704147338867 78.91048431396484 52.240020751953125 60.14517593383789" fill="rgb(141, 96, 77)" opacity="0.3390051" stroke-width="2.0"/>
    <path d="M 211.52000427246094 65.56636047363281 C 136.54800415039062 72.62090301513672 133.62767028808594 38.198848724365234 170.36953735351562 28.37410545349121 C 107.88249969482422 3.013836622238159 115.08819580078125 32.123924255371094 143.5116729736328 60.96366882324219 C 151.63636779785156 12.325779914855957 185.830078125 27.555166244506836 211.52000427246094 65.56636047363281" fill="rgb(251, 192, 23)" opacity="0.9002882" stroke-width="2.0"/>
    <path d="M 87.68309783935547 23.41437530517578 C 84.98180389404297 29.29060173034668 72.74765014648438 27.417062759399414 65.07533264160156 31.204824447631836 C 89.13458251953125 20.49666976928711 103.47261047363281 7.961247444152832 83.02657318115234 49.24246597290039 C 29.61355209350586 59.12336349487305 43.366947174072266 33.17009353637695 87.68309783935547 23.41437530517578" fill="rgb(255, 191, 0)" opacity="0.24363174" stroke-width="2.0"/>
    <path d="M 181.5081329345703 153.26962280273438 C 247.66676330566406 162.66998291015625 250.37486267089844 161.12538146972656 233.18594360351562 119.53369903564453 C 198.04542541503906 186.3163604736328 180.69664001464844 221.33880615234375 253.70774841308594 203.71408081054688 C 204.96075439453125 161.08932495117188 184.98475646972656 141.18389892578125 181.5081329345703 153.26962280273438" fill="rgb(251, 129, 56)" opacity="0.0033101186" stroke-width="2.0"/>
    <path d="M 157.67044067382812 162.98297119140625 C 152.7744903564453 162.9971466064453 150.3788299560547 165.0067138671875 170.03721618652344 157.92123413085938 C 140.28651428222656 170.91891479492188 113.2978515625 167.71644592285156 123.01090240478516 167.4075164794922 C 114.82006072998047 171.2664337158203 111.55892944335938 141.10023498535156 116.04180908203125 155.80465698242188 C 173.84544372558594 156.70571899414062 174.6514129638672 132.61888122558594 184.2849884033203 142.65159606933594 C 190.0286102294922 150.5880126953125 169.4483642578125 157.17791748046875 157.67044067382812 162.98297119140625" fill="rgb(7, 19, 48)" opacity="0.82527727" stroke-width="2.0"/>
    <path d="M 80.46136474609375 151.78973388671875 C 74.82078552246094 73.4779052734375 112.14278411865234 77.73436737060547 143.2223663330078 114.16436767578125 C 187.62551879882812 123.53884887695312 177.19381713867188 110.73423767089844 129.33932495117188 112.52860260009766 C 196.9373321533203 120.6966323852539 179.09556579589844 123.69729614257812 188.9859619140625 102.06002807617188 C 191.88023376464844 142.10096740722656 147.09207153320312 168.5875244140625 80.46136474609375 151.78973388671875" fill="rgb(252, 194, 26)" opacity="0.9539371" stroke-width="2.0"/>
    <path d="M 7.698472499847412 206.4796142578125 C 5.379337787628174 217.32861328125 5.430915832519531 216.62814331054688 7.258558750152588 208.37940979003906 C 6.767490863800049 210.5927276611328 6.413758277893066 211.90084838867188 7.457769870758057 207.77328491210938 C 6.978199481964111 209.9088897705078 5.221146106719971 217.66261291503906 7.698472499847412 206.4796142578125" fill="rgb(105, 163, 119)" opacity="0.046568643" stroke-width="2.0"/>
    <path d="M 211.244873046875 85.35018920898438 C 217.69541931152344 73.80719757080078 213.2329864501953 76.74683380126953 192.99703979492188 90.53076171875 C 181.8164520263672 109.03717803955078 187.19187927246094 108.71183776855469 160.6129150390625 129.32554626464844 C 161.68133544921875 126.46524810791016 164.302978515625 129.17898559570312 183.00587463378906 109.14025115966797 C 141.2454833984375 97.44831848144531 177.84625244140625 109.49266052246094 211.244873046875 85.35018920898438" fill="rgb(252, 194, 26)" opacity="0.96627283" stroke-width="2.0"/>
    <path d="M 9.188444137573242 221.46487426757812 C 10.182236671447754 224.8779296875 9.88000774383545 224.2746124267578 11.133003234863281 224.40438842773438 C 8.905674934387207 223.7978515625 11.478214263916016 227.01739501953125 10.490640640258789 225.7870330810547 C 12.111434936523438 230.277099609375 12.372943878173828 232.00791931152344 13.904123306274414 235.97369384765625 C 10.995301246643066 232.55296325683594 15.368364334106445 235.39793395996094 15.873497009277344 245.38839721679688 C 17.11119270324707 243.54039001464844 15.517248153686523 242.06459045410156 9.188444137573242 221.46487426757812" fill="rgb(193, 237, 208)" opacity="0.0002531603" stroke-width="2.0"/>
    <path d="M 80.81234741210938 19.06159782409668 C 79.31026458740234 16.46827507019043 79.73197937011719 17.547422409057617 79.5313949584961 17.190814971923828 C 80.41490173339844 17.28216552734375 80.02513885498047 17.58353042602539 79.93247985839844 17.462440490722656 C 80.07124328613281 18.012859344482422 79.1503677368164 17.328174591064453 80.81234741210938 19.06159782409668" fill="rgb(84, 194, 198)" opacity="0.33194265" stroke-width="2.0"/>
    <path d="M 126.5287857055664 245.14271545410156 C 110.79753875732422 239.2923126220703 109.95446014404297 243.28451538085938 107.908935546875 250.13662719726562 C 111.49557495117188 249.41665649414062 114.304443359375 247.34266662597656 120.193115234375 251.65884399414062 C 114.670654296875 255.6540069580078 112.12224578857422 256.3907775878906 114.89612579345703 251.49819946289062 C 109.10699462890625 246.89346313476562 112.07457733154297 246.14675903320312 107.85578918457031 244.39942932128906 C 107.79632568359375 244.0872039794922 106.91835021972656 250.1022491455078 126.5287857055664 245.14271545410156" fill="rgb(134, 242, 46)" opacity="0.68816364" stroke-width="2.0"/>
    <path d="M 137.71990966796875 118.02521514892578 C 115.32357788085938 116.74917602539062 116.47473907470703 96.55028533935547 50.874359130859375 98.5334701538086 C 53.005916595458984 47.02060317993164 69.82923889160156 79.04340362548828 68.482666015625 35.3983154296875 C 52.688377380371094 34.895103454589844 48.25556564331055 38.043792724609375 47.53066635131836 96.36563110351562 C 75.20074462890625 44.152122497558594 66.75914764404297 45.79771041870117 70.05766296386719 28.282602310180664 C 144.7098846435547 16.07009506225586 144.54644775390625 11.046144485473633 137.71990966796875 118.02521514892578" fill="rgb(251, 193, 26)" opacity="0.9971915" stroke-width="2.0"/>
    <path d="M 173.319580078125 21.041200637817383 C 172.0979766845703 19.14968490600586 175.08282470703125 23.584518432617188 171.60386657714844 20.06070327758789 C 174.1773223876953 23.16147804260254 171.6139678955078 20.106002807617188 171.80601501464844 21.830101013183594 C 172.71546936035156 21.39824867248535 173.866943359375 21.790203094482422 172.11453247070312 20.82610321044922 C 176.01243591308594 21.868776321411133 170.8302459716797 19.89431381225586 173.319580078125 21.041200637817383" fill="rgb(96, 255, 180)" opacity="0.57301855" stroke-width="2.0"/>
    <path d="M 86.7435302734375 91.57980346679688 C 101.48133850097656 112.8226547241211 69.3431167602539 149.15663146972656 49.017826080322266 89.74921417236328 C 40.83311080932617 56.35651779174805 55.41525650024414 60.35596466064453 69.16905212402344 55.471519470214844 C 62.04084777832031 40.359283447265625 27.209083557128906 85.1546630859375 70.2336196899414 122.56914520263672 C 46.329315185546875 103.4200439453125 70.56072235107422 72.35914611816406 86.7435302734375 91.57980346679688" fill="rgb(20, 28, 49)" opacity="0.88148755" stroke-width="2.0"/>
    <path d="M 214.27723693847656 69.15061950683594 C 193.49542236328125 33.99269485473633 159.13156127929688 21.06618309020996 169.17909240722656 30.823612213134766 C 180.29339599609375 89.27328491210938 198.39328002929688 83.50090789794922 202.8465576171875 69.18580627441406 C 202.8045196533203 64.56493377685547 209.2010955810547 66.8927993774414 175.6140594482422 88.0838623046875 C 168.5316162109375 39.822967529296875 177.64285278320312 59.23253631591797 194.94436645507812 86.54435729980469 C 236.50245666503906 109.80085754394531 228.44430541992188 96.9735107421875 214.27723693847656 69.15061950683594" fill="rgb(255, 190, 0)" opacity="0.30140483" stroke-width="2.0"/>
    <path d="M 161.67327880859375 50.14006423950195 C 167.9515380859375 84.02111053466797 164.6217041015625 80.45072937011719 125.58634185791016 76.11052703857422 C 127.64849090576172 59.784912109375 111.73637390136719 76.17808532714844 157.29673767089844 90.000732421875 C 171.00112915039062 52.58119201660156 166.90826416015625 43.753204345703125 161.67327880859375 50.14006423950195" fill="rgb(251, 195, 39)" opacity="0.35864827" stroke-width="2.0"/>
    <path d="M 61.083980560302734 139.72509765625 C 84.98702239990234 152.81863403320312 86.02552795410156 150.6501007080078 55.75081253051758 142.71258544921875 C 46.54971694946289 164.8930206298828 122.77787017822266 146.747802734375 141.230224609375 166.6326446533203 C 93.6562271118164 174.47450256347656 53.3791618347168 152.1780548095703 103.8045425415039 156.23489379882812 C 44.738304138183594 139.4330291748047 54.39630889892578 143.85145568847656 61.083980560302734 139.72509765625" fill="rgb(46, 46, 47)" opacity="0.9952015" stroke-width="2.0"/>
    <path d="M 50.30143356323242 42.48415756225586 C 53.78417205810547 43.3267822265625 47.14580535888672 43.19044494628906 43.28157043457031 49.22043991088867 C 42.47956466674805 50.07486343383789 61.918758392333984 20.17799186706543 83.45709228515625 77.77731323242188 C 12.717558860778809 119.77922058105469 1.4221839904785156 101.40453338623047 36.05000686645508 55.32837677001953 C 49.55259323120117 40.28877258300781 50.81437301635742 40.90754699707031 53.160911560058594 38.35606002807617 C 44.31616973876953 50.69346618652344 43.11046600341797 51.75891876220703 50.30143356323242 42.48415756225586" fill="rgb(252, 194, 26)" opacity="0.99993277" stroke-width="2.0"/>
    <path d="M 2.3025965690612793 153.60214233398438 C 39.35478210449219 55.59656524658203 27.544069290161133 58.54712677001953 28.050052642822266 75.27362823486328 C 24.57510757446289 97.48165130615234 23.939023971557617 86.49818420410156 20.485788345336914 76.57274627685547 C 9.013802528381348 102.04717254638672 -8.97372817993164 109.52713012695312 2.3025965690612793 153.60214233398438" fill="rgb(228, 191, 4)" opacity="0.0045438907" stroke-width="2.0"/>
    <path d="M 166.59413146972656 84.52818298339844 C 170.53179931640625 61.17606735229492 180.59205627441406 78.33281707763672 165.0502166748047 64.25537109375 C 170.97088623046875 38.06203842163086 201.46466064453125 45.93604278564453 216.27780151367188 73.55155181884766 C 230.2538299560547 100.73188018798828 228.5655059814453 99.27967071533203 166.59413146972656 84.52818298339844" fill="rgb(252, 193, 26)" opacity="1.0" stroke-width="2.0"/>
    <path d="M 37.34135055541992 38.517906188964844 C 35.74777603149414 36.49483108520508 37.427940368652344 38.54212188720703 36.76222229003906 37.56814193725586 C 34.87690353393555 35.13311004638672 35.305992126464844 35.14224624633789 38.20867919921875 40.12443161010742 C 35.03910446166992 34.99701690673828 32.368309020996094 32.21248245239258 37.34135055541992 38.517906188964844" fill="rgb(255, 255, 191)" opacity="0.1804433" stroke-width="2.0"/>
    <path d="M 161.58428955078125 176.695556640625 C 161.2056121826172 185.17129516601562 167.0265350341797 185.35299682617188 167.60646057128906 176.32781982421875 C 123.74112701416016 138.70449829101562 125.81527709960938 119.17071533203125 92.94195556640625 112.92696380615234 C 69.42901611328125 134.19717407226562 62.58322525024414 124.1944351196289 81.41118621826172 149.71070861816406 C 127.3547134399414 169.71304321289062 131.68373107910156 125.28070068359375 161.58428955078125 176.695556640625" fill="rgb(252, 194, 26)" opacity="0.55614126" stroke-width="2.0"/>
  </g>
</svg>
