<?xml version="1.0" ?>
<svg height="240" version="1.1" width="240" xmlns="http://www.w3.org/2000/svg">
  <defs/>
  <g>
    <path d="M 239.48570251464844 67.42384338378906 C 243.816650390625 23.78322410583496 108.73290252685547 0.1190662831068039 28.527835845947266 34.636844635009766 C -3.360532522201538 52.17136764526367 -2.919659376144409 56.0354118347168 4.342246055603027 111.70592498779297 C 30.646442413330078 255.276611328125 154.76611328125 220.3823699951172 168.1107177734375 212.61940002441406 C 221.8620147705078 189.3805694580078 239.22325134277344 124.03626251220703 239.48570251464844 67.42384338378906" fill="rgb(238, 177, 0)" opacity="0.8883026" stroke-width="2.0"/>
    <path d="M 93.33833312988281 140.0860595703125 C 95.98778533935547 127.51293182373047 86.56189727783203 114.31369018554688 74.3951416015625 118.02391052246094 C 71.3996353149414 118.8681640625 63.69563674926758 123.81099700927734 63.259883880615234 135.6289520263672 C 63.74742126464844 149.150390625 73.60694885253906 152.35560607910156 69.45527648925781 150.3483428955078 C 80.59317779541016 158.78045654296875 91.23365783691406 150.2577362060547 93.33833312988281 140.0860595703125" fill="rgb(6, 18, 50)" opacity="0.82181585" stroke-width="2.0"/>
    <path d="M 175.884033203125 141.36891174316406 C 179.54542541503906 128.6298828125 170.27606201171875 114.60584259033203 157.64373779296875 117.87586975097656 C 150.69186401367188 119.81670379638672 143.72958374023438 129.4064178466797 147.0880126953125 141.70333862304688 C 150.22137451171875 151.8501434326172 157.7802734375 152.9001922607422 154.67640686035156 151.76463317871094 C 162.82041931152344 156.7781982421875 172.86590576171875 151.68783569335938 175.884033203125 141.36891174316406" fill="rgb(3, 15, 51)" opacity="0.8084982" stroke-width="2.0"/>
    <path d="M 119.4000015258789 63.000003814697266 C 119.33409118652344 61.56161880493164 118.43839263916016 60.665916442871094 117.0 60.600006103515625 C 115.56161499023438 60.665916442871094 114.6659164428711 61.56161880493164 114.60000610351562 63.000003814697266 C 114.6659164428711 64.43839263916016 115.56161499023438 65.33409118652344 117.0 65.4000015258789 C 118.43839263916016 65.33409118652344 119.33409118652344 64.43839263916016 119.4000015258789 63.000003814697266" fill="rgb(246, 16, 137)" opacity="0.46589857" stroke-width="2.0"/>
  </g>
</svg>
