<?xml version="1.0" ?>
<svg height="240" version="1.1" width="240" xmlns="http://www.w3.org/2000/svg">
  <defs/>
  <g>
    <path d="M 239.4571075439453 68.07154083251953 C 244.7941436767578 22.052927017211914 100.72871398925781 -0.5643800497055054 23.937971115112305 36.889461517333984 C -3.4257349967956543 53.67795181274414 -1.7573522329330444 57.68895721435547 3.301144599914551 105.180419921875 C 26.910337448120117 256.1944885253906 154.16590881347656 219.88766479492188 165.43894958496094 213.73394775390625 C 222.02391052246094 191.09800720214844 238.9579620361328 123.78138732910156 239.4571075439453 68.07154083251953" fill="rgb(251, 186, 0)" opacity="0.89260983" stroke-width="2.0"/>
    <path d="M 93.34008026123047 140.13893127441406 C 95.88814544677734 126.86407470703125 86.333984375 114.92457580566406 75.04472351074219 117.78358459472656 C 70.50205993652344 118.92316436767578 63.231353759765625 124.65603637695312 63.285621643066406 136.2237548828125 C 63.730350494384766 148.9393310546875 73.4509048461914 152.34779357910156 69.52693176269531 150.24253845214844 C 79.147705078125 158.1752471923828 90.57950592041016 151.8717803955078 93.34008026123047 140.13893127441406" fill="rgb(10, 21, 50)" opacity="0.8465338" stroke-width="2.0"/>
    <path d="M 176.30203247070312 139.6867218017578 C 178.7701416015625 127.27167510986328 169.89926147460938 115.13214111328125 158.3125457763672 117.67108917236328 C 149.65838623046875 119.93470001220703 144.01388549804688 130.38221740722656 147.0542755126953 141.4496307373047 C 150.4690399169922 153.52146911621094 160.74533081054688 153.5966339111328 156.42356872558594 152.67547607421875 C 162.69671630859375 155.76353454589844 173.18238830566406 152.70591735839844 176.30203247070312 139.6867218017578" fill="rgb(0, 13, 51)" opacity="0.8156767" stroke-width="2.0"/>
    <path d="M 158.96981811523438 84.06714630126953 C 174.96475219726562 76.6552963256836 147.4922332763672 61.90040588378906 132.831787109375 59.253902435302734 C 101.52576446533203 52.27283477783203 71.20610046386719 73.86422729492188 75.8502426147461 80.28468322753906 C 85.59756469726562 93.03782653808594 85.08970642089844 72.086181640625 118.11417388916016 70.1527099609375 C 148.04017639160156 70.00282287597656 152.69204711914062 86.3597412109375 158.96981811523438 84.06714630126953" fill="rgb(0, 13, 51)" opacity="0.8167299" stroke-width="2.0"/>
    <path d="M 195.3375244140625 192.1497344970703 C 194.56581115722656 195.05259704589844 177.0316925048828 189.92800903320312 155.4661407470703 219.08163452148438 C 191.1254425048828 219.91983032226562 188.7797393798828 214.62010192871094 198.62367248535156 213.3012237548828 C 200.44920349121094 191.7950897216797 216.6646270751953 194.28460693359375 225.56712341308594 163.00308227539062 C 181.34771728515625 173.86863708496094 197.50595092773438 183.54177856445312 195.3375244140625 192.1497344970703" fill="rgb(250, 191, 14)" opacity="0.03716544" stroke-width="2.0"/>
    <path d="M 3.4270310401916504 70.47248840332031 C 3.225264072418213 79.24414825439453 0.22950193285942078 78.90727996826172 10.457112312316895 79.17098236083984 C 8.291036605834961 79.28201293945312 7.687168121337891 80.38304138183594 7.989387512207031 80.8766860961914 C 7.812572002410889 69.97876739501953 8.654335975646973 72.71295166015625 -5.036100387573242 72.43975067138672 C -1.9522781372070312 69.72307586669922 -0.03603718802332878 69.79913330078125 3.4270310401916504 70.47248840332031" fill="rgb(250, 124, 0)" opacity="0.0" stroke-width="2.0"/>
    <path d="M -4.843944072723389 56.330501556396484 C 35.256465911865234 55.195045471191406 38.14838409423828 33.52103805541992 46.58844757080078 31.603349685668945 C 57.80805587768555 30.739152908325195 87.18651580810547 48.047359466552734 110.33349609375 12.731101036071777 C 49.12308883666992 9.278210639953613 43.41473388671875 28.434926986694336 44.41912841796875 24.58475685119629 C 42.829833984375 29.66551399230957 26.022445678710938 22.010398864746094 -4.843944072723389 56.330501556396484" fill="rgb(255, 132, 70)" opacity="0.0" stroke-width="2.0"/>
    <path d="M 136.41307067871094 220.83802795410156 C 155.63827514648438 225.34645080566406 160.1929473876953 215.3618621826172 170.99871826171875 212.96559143066406 C 174.96360778808594 214.92176818847656 186.2222137451172 220.5753936767578 196.85159301757812 192.96617126464844 C 165.68154907226562 205.62899780273438 170.7664337158203 213.69410705566406 161.74827575683594 210.94110107421875 C 160.603515625 209.60763549804688 158.35467529296875 204.65882873535156 136.41307067871094 220.83802795410156" fill="rgb(253, 198, 45)" opacity="0.01460748" stroke-width="2.0"/>
    <path d="M 221.39999389648438 38.9999885559082 C 221.33407592773438 37.56159591674805 220.43838500976562 36.66590881347656 218.99998474121094 36.59999084472656 C 217.5615997314453 36.66590881347656 216.66590881347656 37.56159591674805 216.59999084472656 38.9999885559082 C 216.66590881347656 40.43838119506836 217.5615997314453 41.334068298339844 218.99998474121094 41.399986267089844 C 220.43838500976562 41.334068298339844 221.33407592773438 40.43838119506836 221.39999389648438 38.9999885559082" fill="rgb(36, 77, 10)" opacity="0.2767837" stroke-width="2.0"/>
    <path d="M 41.400001525878906 189.0 C 41.334083557128906 187.56161499023438 40.43839645385742 186.66592407226562 39.000003814697266 186.60000610351562 C 37.561607360839844 186.66592407226562 36.665924072265625 187.56161499023438 36.600006103515625 189.0 C 36.665924072265625 190.43838500976562 37.561607360839844 191.33409118652344 39.000003814697266 191.40000915527344 C 40.43839645385742 191.33409118652344 41.334083557128906 190.43838500976562 41.400001525878906 189.0" fill="rgb(39, 243, 39)" opacity="0.8338893" stroke-width="2.0"/>
    <path d="M 47.400001525878906 27.00000762939453 C 47.334083557128906 25.561622619628906 46.438385009765625 24.665922164916992 45.0 24.60000991821289 C 43.561614990234375 24.665922164916992 42.665916442871094 25.561622619628906 42.599998474121094 27.00000762939453 C 42.665916442871094 28.43839454650879 43.561614990234375 29.334095001220703 45.0 29.400005340576172 C 46.438385009765625 29.334095001220703 47.334083557128906 28.43839454650879 47.400001525878906 27.00000762939453" fill="rgb(89, 87, 208)" opacity="0.47593492" stroke-width="2.0"/>
    <path d="M 47.39999771118164 195.0 C 47.33407974243164 193.56161499023438 46.438392639160156 192.66592407226562 45.0 192.60000610351562 C 43.561607360839844 192.66592407226562 42.66592025756836 193.56161499023438 42.60000228881836 195.0 C 42.66592025756836 196.43838500976562 43.561607360839844 197.33407592773438 45.0 197.39999389648438 C 46.438392639160156 197.33407592773438 47.33407974243164 196.43838500976562 47.39999771118164 195.0" fill="rgb(208, 224, 112)" opacity="0.7810636" stroke-width="2.0"/>
    <path d="M 5.399997711181641 74.99999237060547 C 5.334079742431641 73.56160736083984 4.438393592834473 72.66590881347656 3.0 72.5999984741211 C 1.5616064071655273 72.66590881347656 0.6659203171730042 73.56160736083984 0.6000023484230042 74.99999237060547 C 0.6659203171730042 76.4383773803711 1.5616064071655273 77.33407592773438 3.0 77.39999389648438 C 4.438393592834473 77.33407592773438 5.334079742431641 76.4383773803711 5.399997711181641 74.99999237060547" fill="rgb(31, 47, 111)" opacity="0.11946741" stroke-width="2.0"/>
    <path d="M 5.399997711181641 92.99999237060547 C 5.334079742431641 91.56159973144531 4.438393592834473 90.66590881347656 3.0 90.59999084472656 C 1.5616064071655273 90.66590881347656 0.6659203171730042 91.56159973144531 0.6000023484230042 92.99999237060547 C 0.6659203171730042 94.43838500976562 1.5616064071655273 95.33406829833984 3.0 95.39998626708984 C 4.438393592834473 95.33406829833984 5.334079742431641 94.43838500976562 5.399997711181641 92.99999237060547" fill="rgb(123, 208, 167)" opacity="0.641043" stroke-width="2.0"/>
    <path d="M 107.39999389648438 21.0 C 107.3340835571289 19.56160545349121 106.43838500976562 18.66592025756836 105.0 18.60000228881836 C 103.56161499023438 18.66592025756836 102.6659164428711 19.56160545349121 102.60000610351562 21.0 C 102.6659164428711 22.438392639160156 103.56161499023438 23.33407974243164 105.0 23.39999771118164 C 106.43838500976562 23.33407974243164 107.3340835571289 22.438392639160156 107.39999389648438 21.0" fill="rgb(206, 40, 231)" opacity="0.26933035" stroke-width="2.0"/>
    <path d="M 239.39999389648438 69.0 C 239.33407592773438 67.56160736083984 238.4384002685547 66.6659164428711 237.0 66.5999984741211 C 235.56161499023438 66.6659164428711 234.66592407226562 67.56160736083984 234.60000610351562 69.0 C 234.66592407226562 70.43839263916016 235.56161499023438 71.33407592773438 237.0 71.39999389648438 C 238.4384002685547 71.33407592773438 239.33407592773438 70.43839263916016 239.39999389648438 69.0" fill="rgb(183, 202, 113)" opacity="0.070773885" stroke-width="2.0"/>
  </g>
</svg>
