<?xml version="1.0" ?>
<svg height="240" version="1.1" width="240" xmlns="http://www.w3.org/2000/svg">
  <defs/>
  <g>
    <path d="M 239.44903564453125 68.23739624023438 C 244.88327026367188 21.764623641967773 99.50267028808594 -0.4478723108768463 23.8194580078125 37.05059051513672 C -4.672094345092773 53.60258865356445 -1.7405200004577637 61.3377571105957 3.163515329360962 104.15377044677734 C 26.134220123291016 256.3338623046875 153.88934326171875 219.60935974121094 164.3274383544922 214.17311096191406 C 222.16856384277344 191.82864379882812 238.9130401611328 123.7091064453125 239.44903564453125 68.23739624023438" fill="rgb(251, 186, 0)" opacity="0.89299715" stroke-width="2.0"/>
    <path d="M 93.37678527832031 139.9694061279297 C 95.79517364501953 126.8958511352539 86.81272888183594 115.87715911865234 76.25247192382812 117.46510314941406 C 70.89141082763672 118.12422943115234 63.59622573852539 124.26812744140625 63.32899475097656 135.63951110839844 C 63.399803161621094 149.54296875 75.78463745117188 153.8064727783203 69.90540313720703 150.60183715820312 C 79.11410522460938 157.84930419921875 90.70362854003906 152.17283630371094 93.37678527832031 139.9694061279297" fill="rgb(11, 21, 50)" opacity="0.84592134" stroke-width="2.0"/>
    <path d="M 176.30609130859375 139.67274475097656 C 178.6265411376953 127.38401794433594 170.04827880859375 115.31102752685547 158.49143981933594 117.59361267089844 C 149.10910034179688 120.0550308227539 143.99891662597656 131.33355712890625 147.1578369140625 141.76182556152344 C 150.9827880859375 154.04563903808594 161.62191772460938 153.71315002441406 157.31942749023438 152.78939819335938 C 162.065185546875 155.3348388671875 173.07650756835938 153.3189239501953 176.30609130859375 139.67274475097656" fill="rgb(0, 13, 51)" opacity="0.8149297" stroke-width="2.0"/>
    <path d="M 159.62083435058594 83.89557647705078 C 174.8863983154297 75.68539428710938 144.73025512695312 61.04636001586914 132.90863037109375 59.34640884399414 C 101.757080078125 52.21406936645508 71.24724578857422 73.78349304199219 75.82494354248047 80.2704849243164 C 85.56703186035156 93.4107666015625 85.14078521728516 71.45142364501953 119.47518157958984 70.1460952758789 C 149.4210205078125 70.79113006591797 152.6751708984375 87.01818084716797 159.62083435058594 83.89557647705078" fill="rgb(2, 15, 51)" opacity="0.818314" stroke-width="2.0"/>
    <path d="M 188.672119140625 189.20797729492188 C 194.750732421875 189.13101196289062 182.50259399414062 187.32858276367188 156.16502380371094 214.26678466796875 C 151.5164337158203 226.19769287109375 130.5826873779297 231.97593688964844 184.63697814941406 223.00515747070312 C 199.60818481445312 191.99876403808594 220.13938903808594 195.22726440429688 232.5132293701172 140.9722137451172 C 174.07444763183594 163.88304138183594 190.4002685546875 191.09133911132812 188.672119140625 189.20797729492188" fill="rgb(255, 195, 11)" opacity="0.0" stroke-width="2.0"/>
    <path d="M 13.914546966552734 62.826393127441406 C -11.31649398803711 58.82490158081055 -12.946657180786133 65.39665985107422 5.309215545654297 70.11019897460938 C 3.3805387020111084 69.78012084960938 6.916536808013916 76.3386459350586 6.731996536254883 87.85408782958984 C 6.704750061035156 62.79145431518555 1.4251799583435059 70.02667999267578 -19.697813034057617 73.60645294189453 C 5.20280647277832 68.28491973876953 9.236245155334473 67.68778228759766 13.914546966552734 62.826393127441406" fill="rgb(252, 190, 22)" opacity="0.70080304" stroke-width="2.0"/>
    <path d="M -7.979945659637451 55.10432815551758 C 42.17746353149414 60.6096076965332 44.07886505126953 38.365623474121094 52.20044708251953 37.237735748291016 C 62.53376388549805 36.2298469543457 94.74260711669922 53.65675354003906 117.68597412109375 16.66238021850586 C 52.16858673095703 16.47114372253418 43.266380310058594 28.685802459716797 45.56227111816406 17.560319900512695 C 31.99492835998535 15.944772720336914 19.694541931152344 15.396439552307129 -7.979945659637451 55.10432815551758" fill="rgb(250, 181, 54)" opacity="0.0" stroke-width="2.0"/>
    <path d="M 99.54926300048828 221.4094696044922 C 151.67922973632812 226.20697021484375 188.9982452392578 214.79954528808594 216.10308837890625 169.2803192138672 C 162.5244598388672 195.5094451904297 170.25079345703125 205.34739685058594 180.57386779785156 182.759033203125 C 164.4445037841797 197.63414001464844 163.10565185546875 197.2213592529297 174.54380798339844 194.70550537109375 C 172.6304931640625 213.10723876953125 155.80459594726562 204.1241455078125 99.54926300048828 221.4094696044922" fill="rgb(250, 189, 8)" opacity="0.049504466" stroke-width="2.0"/>
    <path d="M 221.3837432861328 45.94645690917969 C 219.1273193359375 41.828006744384766 215.99554443359375 41.94215393066406 220.18409729003906 44.73014450073242 C 228.48828125 50.06856918334961 239.54360961914062 66.36634063720703 228.5779266357422 64.6347427368164 C 206.18606567382812 29.76127815246582 211.45323181152344 39.210384368896484 217.4408721923828 46.9035758972168 C 215.5666046142578 44.44443130493164 218.81492614746094 42.16511917114258 221.3837432861328 45.94645690917969" fill="rgb(254, 230, 76)" opacity="0.0" stroke-width="2.0"/>
    <path d="M 37.713035583496094 188.0646209716797 C 37.67610549926758 193.0660400390625 31.16421890258789 193.4769744873047 62.47944641113281 200.0734100341797 C 54.70376205444336 214.53076171875 44.54512023925781 203.01165771484375 42.7366943359375 182.00917053222656 C 39.47038650512695 183.69398498535156 45.26482009887695 178.0821990966797 17.568117141723633 157.83251953125 C 30.92003059387207 189.20724487304688 38.36753845214844 189.3284454345703 37.713035583496094 188.0646209716797" fill="rgb(254, 190, 0)" opacity="0.0026379756" stroke-width="2.0"/>
    <path d="M 50.748538970947266 21.955541610717773 C 48.288021087646484 21.9881591796875 49.34335708618164 20.153852462768555 48.807064056396484 19.87527847290039 C 50.91460418701172 20.742794036865234 51.75874328613281 16.714372634887695 46.66375732421875 26.28710174560547 C 49.60710144042969 30.90650177001953 34.690338134765625 8.916596412658691 29.80093002319336 12.27916431427002 C 34.78852462768555 32.012001037597656 38.591896057128906 20.67113494873047 50.748538970947266 21.955541610717773" fill="rgb(255, 255, 255)" opacity="0.03862466" stroke-width="2.0"/>
    <path d="M 39.623294830322266 199.43479919433594 C 45.710906982421875 197.3999786376953 43.65133285522461 203.7616424560547 30.47613525390625 191.2653350830078 C -6.346259117126465 127.30238342285156 19.747087478637695 144.1919403076172 60.92649459838867 193.09312438964844 C 123.20035552978516 230.13233947753906 94.08978271484375 227.57334899902344 46.016841888427734 201.87677001953125 C 52.45408630371094 199.771240234375 48.01369857788086 208.42503356933594 39.623294830322266 199.43479919433594" fill="rgb(250, 221, 34)" opacity="0.0" stroke-width="2.0"/>
    <path d="M 1.2374317646026611 56.00812911987305 C -0.6256960034370422 110.02635192871094 6.835493564605713 89.09140014648438 -7.627024173736572 93.87860107421875 C -8.665210723876953 83.57356262207031 -4.342297554016113 85.50475311279297 -1.5649020671844482 88.61315155029297 C -0.8127248287200928 84.52462005615234 0.08312700688838959 92.31565856933594 -12.429715156555176 84.13700103759766 C -10.986248970031738 54.11208724975586 -10.656242370605469 54.52703094482422 1.2374317646026611 56.00812911987305" fill="rgb(255, 255, 244)" opacity="0.451021" stroke-width="2.0"/>
    <path d="M 28.819049835205078 170.73095703125 C 2.7909657955169678 151.7964630126953 2.73205828666687 125.24837493896484 -1.3398809432983398 95.45011138916016 C -1.684217095375061 64.28086853027344 1.918837070465088 76.92416381835938 3.1241250038146973 94.2645034790039 C 2.5513601303100586 92.94542694091797 3.80653715133667 89.34896087646484 5.834023952484131 90.25935363769531 C 1.897108793258667 89.20099639892578 14.179410934448242 80.16605377197266 28.819049835205078 170.73095703125" fill="rgb(252, 163, 8)" opacity="0.0" stroke-width="2.0"/>
    <path d="M 92.21107482910156 23.724712371826172 C 95.53305053710938 21.513227462768555 103.52702331542969 18.62127113342285 108.94363403320312 24.771390914916992 C 109.44483184814453 21.800146102905273 103.56434631347656 23.452228546142578 109.49266815185547 20.41695785522461 C 122.08511352539062 17.40450096130371 120.55351257324219 19.45478630065918 104.74971771240234 24.1256160736084 C 93.93711853027344 18.796369552612305 104.854248046875 28.47803497314453 92.21107482910156 23.724712371826172" fill="rgb(249, 190, 15)" opacity="0.028013466" stroke-width="2.0"/>
    <path d="M 234.39385986328125 69.83625793457031 C 235.5094757080078 71.49699401855469 236.65907287597656 70.40098571777344 236.68484497070312 71.07926940917969 C 236.4843292236328 69.75213623046875 235.62217712402344 69.81351470947266 234.0594024658203 67.60023498535156 C 234.72840881347656 65.59909057617188 236.17971801757812 67.14601135253906 237.68902587890625 67.87022399902344 C 236.5161590576172 69.27533721923828 235.7422332763672 67.74525451660156 234.39385986328125 69.83625793457031" fill="rgb(245, 186, 0)" opacity="0.014768853" stroke-width="2.0"/>
    <path d="M 5.399997711181641 57.0 C 5.334086894989014 55.561607360839844 4.4383864402771 54.665916442871094 3.0 54.599998474121094 C 1.5616135597229004 54.665916442871094 0.6659131646156311 55.561607360839844 0.6000023484230042 57.0 C 0.6659131646156311 58.438385009765625 1.5616135597229004 59.334083557128906 3.0 59.400001525878906 C 4.4383864402771 59.334083557128906 5.334086894989014 58.438385009765625 5.399997711181641 57.0" fill="rgb(72, 9, 129)" opacity="0.0876678" stroke-width="2.0"/>
    <path d="M 239.39999389648438 69.00001525878906 C 239.33407592773438 67.5616226196289 238.4384002685547 66.66593170166016 237.0 66.60001373291016 C 235.56161499023438 66.66593170166016 234.66592407226562 67.5616226196289 234.60000610351562 69.00001525878906 C 234.66592407226562 70.43840789794922 235.56161499023438 71.33409118652344 237.0 71.40000915527344 C 238.4384002685547 71.33409118652344 239.33407592773438 70.43840789794922 239.39999389648438 69.00001525878906" fill="rgb(80, 240, 16)" opacity="0.25742888" stroke-width="2.0"/>
    <path d="M 71.39999389648438 213.0 C 71.3340835571289 211.5615997314453 70.43838500976562 210.66590881347656 69.0 210.60000610351562 C 67.56161499023438 210.66590881347656 66.66590881347656 211.5615997314453 66.5999984741211 213.0 C 66.66590881347656 214.43838500976562 67.56161499023438 215.33409118652344 69.0 215.39999389648438 C 70.43838500976562 215.33409118652344 71.3340835571289 214.43838500976562 71.39999389648438 213.0" fill="rgb(51, 101, 179)" opacity="0.88735336" stroke-width="2.0"/>
    <path d="M 107.39999389648438 21.0 C 107.33407592773438 19.56160545349121 106.43839263916016 18.66592025756836 105.0 18.60000228881836 C 103.56161499023438 18.66592025756836 102.6659164428711 19.56160545349121 102.60000610351562 21.0 C 102.6659164428711 22.438392639160156 103.56161499023438 23.33407974243164 105.0 23.39999771118164 C 106.43839263916016 23.33407974243164 107.33407592773438 22.438392639160156 107.39999389648438 21.0" fill="rgb(92, 218, 131)" opacity="0.70241547" stroke-width="2.0"/>
    <path d="M 221.40000915527344 39.000003814697266 C 221.33409118652344 37.561607360839844 220.43838500976562 36.665924072265625 219.0 36.600006103515625 C 217.56161499023438 36.665924072265625 216.66592407226562 37.561607360839844 216.60000610351562 39.000003814697266 C 216.66592407226562 40.43839645385742 217.56161499023438 41.334083557128906 219.0 41.400001525878906 C 220.43838500976562 41.334083557128906 221.33409118652344 40.43839645385742 221.40000915527344 39.000003814697266" fill="rgb(76, 207, 136)" opacity="0.4995873" stroke-width="2.0"/>
    <path d="M 65.4000015258789 207.00001525878906 C 65.3340835571289 205.56163024902344 64.43840026855469 204.6659393310547 63.000003814697266 204.6000213623047 C 61.56161117553711 204.6659393310547 60.665924072265625 205.56163024902344 60.600006103515625 207.00001525878906 C 60.665924072265625 208.43841552734375 61.56161117553711 209.33409118652344 63.000003814697266 209.40000915527344 C 64.43840026855469 209.33409118652344 65.3340835571289 208.43841552734375 65.4000015258789 207.00001525878906" fill="rgb(85, 33, 159)" opacity="0.9253462" stroke-width="2.0"/>
    <path d="M 47.39999771118164 27.0 C 47.33407974243164 25.561613082885742 46.438392639160156 24.665916442871094 45.0 24.599998474121094 C 43.561607360839844 24.665916442871094 42.66592025756836 25.561613082885742 42.60000228881836 27.0 C 42.66592025756836 28.438385009765625 43.561607360839844 29.334083557128906 45.0 29.399999618530273 C 46.438392639160156 29.334083557128906 47.33407974243164 28.438385009765625 47.39999771118164 27.0" fill="rgb(82, 0, 172)" opacity="0.6382801" stroke-width="2.0"/>
    <path d="M 11.39999771118164 135.0 C 11.33407974243164 133.56161499023438 10.438393592834473 132.66592407226562 9.0 132.60000610351562 C 7.5616068840026855 132.66592407226562 6.665920734405518 133.56161499023438 6.600002765655518 135.0 C 6.665920734405518 136.43838500976562 7.5616068840026855 137.33407592773438 9.0 137.39999389648438 C 10.438393592834473 137.33407592773438 11.33407974243164 136.43838500976562 11.39999771118164 135.0" fill="rgb(55, 110, 187)" opacity="0.207119" stroke-width="2.0"/>
    <path d="M 17.400012969970703 152.99998474121094 C 17.334095001220703 151.5615997314453 16.43840789794922 150.66590881347656 15.000014305114746 150.59999084472656 C 13.561620712280273 150.66590881347656 12.665934562683105 151.5615997314453 12.600016593933105 152.99998474121094 C 12.665934562683105 154.43836975097656 13.561620712280273 155.33407592773438 15.000014305114746 155.3999786376953 C 16.43840789794922 155.33407592773438 17.334095001220703 154.43836975097656 17.400012969970703 152.99998474121094" fill="rgb(222, 244, 137)" opacity="0.92106736" stroke-width="2.0"/>
    <path d="M 143.40000915527344 63.00001907348633 C 143.3341064453125 61.56162643432617 142.4384002685547 60.66593933105469 141.00001525878906 60.60002136230469 C 139.56161499023438 60.66593933105469 138.66590881347656 61.56162643432617 138.60000610351562 63.00001907348633 C 138.66590881347656 64.43841552734375 139.56161499023438 65.33409881591797 141.00001525878906 65.40001678466797 C 142.4384002685547 65.33409881591797 143.3341064453125 64.43841552734375 143.40000915527344 63.00001907348633" fill="rgb(215, 213, 23)" opacity="0.26031578" stroke-width="2.0"/>
    <path d="M 137.39999389648438 21.00001335144043 C 137.33407592773438 19.561620712280273 136.43838500976562 18.66593360900879 135.0 18.60001564025879 C 133.56161499023438 18.66593360900879 132.66592407226562 19.561620712280273 132.60000610351562 21.00001335144043 C 132.66592407226562 22.43840789794922 133.56161499023438 23.33409309387207 135.0 23.40001106262207 C 136.43838500976562 23.33409309387207 137.33407592773438 22.43840789794922 137.39999389648438 21.00001335144043" fill="rgb(70, 29, 95)" opacity="0.21388583" stroke-width="2.0"/>
    <path d="M 239.39999389648438 63.00001907348633 C 239.33407592773438 61.56162643432617 238.4384002685547 60.66593933105469 237.0 60.60002136230469 C 235.56161499023438 60.66593933105469 234.66592407226562 61.56162643432617 234.60000610351562 63.00001907348633 C 234.66592407226562 64.43841552734375 235.56161499023438 65.33409881591797 237.0 65.40001678466797 C 238.4384002685547 65.33409881591797 239.33407592773438 64.43841552734375 239.39999389648438 63.00001907348633" fill="rgb(13, 223, 112)" opacity="0.77688706" stroke-width="2.0"/>
    <path d="M 197.39999389648438 27.000001907348633 C 197.33407592773438 25.561614990234375 196.43838500976562 24.66591453552246 195.0 24.600004196166992 C 193.56161499023438 24.66591453552246 192.66592407226562 25.561614990234375 192.60000610351562 27.000001907348633 C 192.66592407226562 28.438386917114258 193.56161499023438 29.334087371826172 195.0 29.399999618530273 C 196.43838500976562 29.334087371826172 197.33407592773438 28.438386917114258 197.39999389648438 27.000001907348633" fill="rgb(18, 100, 109)" opacity="0.6827963" stroke-width="2.0"/>
    <path d="M 101.39998626708984 21.0 C 101.33407592773438 19.561613082885742 100.4383773803711 18.665912628173828 98.99999237060547 18.60000228881836 C 97.56160736083984 18.665912628173828 96.66590118408203 19.561613082885742 96.59999084472656 21.0 C 96.66590118408203 22.438386917114258 97.56160736083984 23.334087371826172 98.99999237060547 23.39999771118164 C 100.4383773803711 23.334087371826172 101.33407592773438 22.438386917114258 101.39998626708984 21.0" fill="rgb(121, 71, 94)" opacity="0.6004937" stroke-width="2.0"/>
    <path d="M 35.400001525878906 33.0 C 35.334083557128906 31.561607360839844 34.43838882446289 30.66592025756836 33.0 30.60000228881836 C 31.561614990234375 30.66592025756836 30.665916442871094 31.561607360839844 30.599998474121094 33.0 C 30.665916442871094 34.438392639160156 31.561614990234375 35.33407974243164 33.0 35.39999771118164 C 34.43838882446289 35.33407974243164 35.334083557128906 34.438392639160156 35.400001525878906 33.0" fill="rgb(237, 116, 170)" opacity="0.6598432" stroke-width="2.0"/>
    <path d="M 59.39999771118164 27.000001907348633 C 59.33407974243164 25.561607360839844 58.438392639160156 24.665922164916992 57.0 24.600004196166992 C 55.561607360839844 24.665922164916992 54.66592025756836 25.561607360839844 54.60000228881836 27.000001907348633 C 54.66592025756836 28.43839454650879 55.561607360839844 29.334081649780273 57.0 29.399999618530273 C 58.438392639160156 29.334081649780273 59.33407974243164 28.43839454650879 59.39999771118164 27.000001907348633" fill="rgb(168, 26, 93)" opacity="0.7940604" stroke-width="2.0"/>
  </g>
</svg>
