<?xml version="1.0" ?>
<svg height="240" version="1.1" width="240" xmlns="http://www.w3.org/2000/svg">
  <defs/>
  <g>
    <path d="M 239.56944274902344 68.30989837646484 C 244.9368438720703 21.56945037841797 99.06185913085938 -0.2133609503507614 23.99034881591797 36.917999267578125 C -5.882570743560791 54.03052520751953 -1.176491141319275 63.4511604309082 2.8995020389556885 102.58876037597656 C 24.999027252197266 256.60076904296875 154.04896545410156 219.16554260253906 162.81239318847656 214.88528442382812 C 222.2591552734375 192.72010803222656 238.8766632080078 123.63641357421875 239.56944274902344 68.30989837646484" fill="rgb(251, 186, 0)" opacity="0.8938607" stroke-width="2.0"/>
    <path d="M 93.4009780883789 139.94195556640625 C 95.609130859375 127.37984466552734 87.36250305175781 116.2955322265625 76.9024887084961 117.45417022705078 C 70.99266815185547 117.93710327148438 63.72737503051758 124.52091979980469 63.22580337524414 135.50711059570312 C 63.14111328125 148.4246826171875 73.5853271484375 152.47557067871094 68.51213073730469 149.50259399414062 C 77.85145568847656 158.30679321289062 90.55428314208984 152.7544403076172 93.4009780883789 139.94195556640625" fill="rgb(1, 14, 51)" opacity="0.8095583" stroke-width="2.0"/>
    <path d="M 176.2018280029297 140.09619140625 C 178.91427612304688 127.54165649414062 169.98033142089844 114.97074127197266 158.16940307617188 117.7457046508789 C 149.4183349609375 120.23198699951172 144.21559143066406 130.56105041503906 146.98841857910156 141.07716369628906 C 150.61094665527344 154.06072998046875 161.6357879638672 153.7452392578125 156.8056182861328 152.72091674804688 C 161.21302795410156 155.09756469726562 172.3474578857422 154.30950927734375 176.2018280029297 140.09619140625" fill="rgb(5, 17, 51)" opacity="0.831735" stroke-width="2.0"/>
    <path d="M 160.20477294921875 83.57600402832031 C 174.54074096679688 74.73843383789062 142.4121856689453 60.643226623535156 133.6186065673828 59.40947723388672 C 98.83440399169922 52.04416275024414 73.64540100097656 74.84839630126953 74.57804870605469 78.96155548095703 C 87.22735595703125 94.3984146118164 83.28956604003906 71.10725402832031 120.81414031982422 70.15788269042969 C 151.17306518554688 71.69242858886719 152.2657470703125 87.7401351928711 160.20477294921875 83.57600402832031" fill="rgb(2, 15, 51)" opacity="0.8116609" stroke-width="2.0"/>
    <path d="M 177.9468536376953 190.836181640625 C 185.69923400878906 198.68785095214844 169.05001831054688 182.609619140625 144.8533477783203 206.58941650390625 C 97.45948028564453 203.80784606933594 76.69522857666016 203.03350830078125 148.39486694335938 227.3899688720703 C 191.29904174804688 200.34825134277344 227.70582580566406 199.18833923339844 251.33236694335938 65.8998031616211 C 170.0443878173828 122.50835418701172 208.8932342529297 195.2091522216797 177.9468536376953 190.836181640625" fill="rgb(252, 189, 8)" opacity="0.0028667687" stroke-width="2.0"/>
    <path d="M 61.25759506225586 63.58279037475586 C 7.904168128967285 68.08904266357422 -6.287726402282715 86.29295349121094 20.017356872558594 85.24581146240234 C 4.8424248695373535 80.09434509277344 2.9177024364471436 76.15769958496094 23.587966918945312 82.7472152709961 C 16.504154205322266 58.16216278076172 26.44430160522461 81.91085815429688 8.19321060180664 86.03206634521484 C 11.547073364257812 67.63098907470703 16.83108139038086 71.25110626220703 61.25759506225586 63.58279037475586" fill="rgb(251, 194, 26)" opacity="0.5587171" stroke-width="2.0"/>
    <path d="M -8.414326667785645 65.15254974365234 C 45.18220138549805 81.26016998291016 48.87767028808594 45.14252853393555 51.368709564208984 38.457176208496094 C 70.83123016357422 38.079200744628906 138.8949737548828 72.20197296142578 209.63319396972656 38.0464973449707 C 75.3921890258789 6.688690185546875 62.6379280090332 40.48676681518555 200.6496124267578 26.154664993286133 C 70.70314025878906 -7.515135765075684 24.042266845703125 17.49701690673828 -8.414326667785645 65.15254974365234" fill="rgb(251, 182, 0)" opacity="0.0030676168" stroke-width="2.0"/>
    <path d="M 71.91450500488281 215.3642120361328 C 159.1114044189453 237.82505798339844 192.84063720703125 222.67977905273438 221.26893615722656 154.45614624023438 C 153.241943359375 183.53103637695312 178.26364135742188 210.07296752929688 193.73338317871094 190.6351776123047 C 167.7378692626953 196.34568786621094 173.55303955078125 183.36569213867188 203.38922119140625 199.24317932128906 C 185.35360717773438 218.1741180419922 133.50796508789062 185.2372589111328 71.91450500488281 215.3642120361328" fill="rgb(251, 185, 1)" opacity="0.09539981" stroke-width="2.0"/>
    <path d="M 234.37417602539062 54.14891052246094 C 211.94473266601562 52.1264533996582 208.028076171875 47.730159759521484 222.37509155273438 42.5142936706543 C 212.08035278320312 60.07143783569336 216.83847045898438 68.5799560546875 230.8557891845703 51.809810638427734 C 199.13162231445312 31.275360107421875 216.82810974121094 44.99521255493164 224.19635009765625 48.59699630737305 C 222.1951141357422 53.26506805419922 233.4227294921875 47.7130126953125 234.37417602539062 54.14891052246094" fill="rgb(255, 254, 0)" opacity="0.00035641415" stroke-width="2.0"/>
    <path d="M 46.20093536376953 201.96717834472656 C 38.96734619140625 191.10191345214844 44.28468322753906 197.525146484375 66.33478546142578 221.2796630859375 C 52.719810485839844 213.87962341308594 46.518985748291016 203.5608673095703 57.46903991699219 179.88095092773438 C 24.151195526123047 197.0445098876953 45.93552017211914 167.06607055664062 1.6476728916168213 125.13499450683594 C 27.7598876953125 186.9143829345703 42.409095764160156 192.57273864746094 46.20093536376953 201.96717834472656" fill="rgb(250, 220, 89)" opacity="0.0" stroke-width="2.0"/>
    <path d="M 52.837825775146484 43.33940887451172 C 40.364376068115234 18.02059555053711 45.08538055419922 21.132675170898438 34.40510559082031 16.08750343322754 C 41.24358367919922 24.18899917602539 50.8444709777832 21.514657974243164 11.035773277282715 35.58244323730469 C 33.140625 42.72966003417969 8.402505874633789 8.057008743286133 19.435405731201172 9.186137199401855 C 56.35430145263672 13.253104209899902 56.54772186279297 20.350561141967773 52.837825775146484 43.33940887451172" fill="rgb(255, 221, 125)" opacity="0.0" stroke-width="2.0"/>
    <path d="M 61.15079879760742 211.28782653808594 C 50.309303283691406 191.807373046875 62.53852844238281 185.0526885986328 51.95936965942383 164.66896057128906 C 9.588967323303223 130.68841552734375 19.798852920532227 151.96107482910156 59.46941375732422 197.6421661376953 C 129.61558532714844 223.4619598388672 101.12939453125 215.55355834960938 18.04887580871582 158.47763061523438 C 20.54994010925293 174.18515014648438 68.95681762695312 201.3846893310547 61.15079879760742 211.28782653808594" fill="rgb(254, 196, 29)" opacity="0.0" stroke-width="2.0"/>
    <path d="M 0.47268182039260864 60.67170715332031 C 1.285494327545166 124.08883666992188 6.873895645141602 75.20307922363281 -13.625075340270996 93.88591766357422 C -8.665210723876953 83.57356262207031 -4.342297554016113 85.50475311279297 -1.5649020671844482 88.61315155029297 C -0.8127248287200928 84.52462005615234 0.08312700688838959 92.31565856933594 -12.438613891601562 84.21226501464844 C -11.482555389404297 56.90852737426758 -13.131063461303711 62.8254280090332 0.47268182039260864 60.67170715332031" fill="rgb(255, 255, 255)" opacity="0.671846" stroke-width="2.0"/>
    <path d="M 36.47195053100586 185.1023712158203 C 19.679262161254883 139.0634307861328 12.462223052978516 113.57899475097656 4.169020652770996 87.5385971069336 C 6.069165229797363 66.96127319335938 10.499149322509766 85.48643493652344 -6.421168804168701 95.7000961303711 C -5.214380741119385 87.44509887695312 5.0120158195495605 76.89816284179688 -3.096144437789917 77.14277648925781 C 2.090424060821533 77.25640106201172 -0.6309429407119751 110.95816802978516 36.47195053100586 185.1023712158203" fill="rgb(254, 178, 0)" opacity="0.11833781" stroke-width="2.0"/>
    <path d="M 99.96544647216797 21.0523624420166 C 107.63087463378906 32.049861907958984 99.10700225830078 27.17992401123047 110.72223663330078 7.383444309234619 C 111.43611907958984 -0.16516664624214172 89.71813201904297 15.913875579833984 98.88839721679688 22.53838539123535 C 112.60317993164062 27.34207534790039 116.4205093383789 25.16276741027832 104.71600341796875 31.822307586669922 C 87.98018646240234 21.112457275390625 97.72360229492188 23.79277801513672 99.96544647216797 21.0523624420166" fill="rgb(243, 169, 0)" opacity="0.0" stroke-width="2.0"/>
    <path d="M 229.8832244873047 63.625579833984375 C 224.3557586669922 115.72023010253906 255.00169372558594 108.2928695678711 243.40687561035156 132.49951171875 C 250.7168426513672 78.09111785888672 253.88699340820312 22.535755157470703 206.84750366210938 56.67825698852539 C 234.24111938476562 66.43534851074219 235.26959228515625 42.901344299316406 222.13380432128906 10.672323226928711 C 160.5235137939453 23.8536434173584 199.8354949951172 53.904754638671875 229.8832244873047 63.625579833984375" fill="rgb(252, 192, 20)" opacity="0.0028259181" stroke-width="2.0"/>
    <path d="M 22.04872703552246 47.41291046142578 C 28.546342849731445 59.14127731323242 13.558207511901855 72.57600402832031 2.3579838275909424 77.56008911132812 C 29.325716018676758 59.5723762512207 16.005308151245117 68.15055847167969 20.645606994628906 55.132633209228516 C 59.33053207397461 37.35253143310547 62.78890609741211 27.21709632873535 42.08159637451172 44.1950569152832 C 14.954218864440918 66.05826568603516 37.506229400634766 67.027587890625 22.04872703552246 47.41291046142578" fill="rgb(251, 194, 27)" opacity="0.42821652" stroke-width="2.0"/>
    <path d="M 234.51409912109375 73.32284545898438 C 239.15028381347656 74.79618835449219 233.5093231201172 78.49028778076172 226.15489196777344 58.224395751953125 C 245.46119689941406 73.06831359863281 226.58680725097656 116.2584228515625 214.75982666015625 132.86468505859375 C 240.3336181640625 66.60071563720703 227.0213623046875 77.22391510009766 230.57806396484375 82.38127136230469 C 232.0987548828125 101.20207977294922 236.93360900878906 87.97907257080078 234.51409912109375 73.32284545898438" fill="rgb(253, 213, 21)" opacity="0.0018035154" stroke-width="2.0"/>
    <path d="M 51.5678825378418 189.09701538085938 C 58.39676284790039 210.01913452148438 58.24622344970703 205.17771911621094 73.37986755371094 208.99786376953125 C 81.87772369384766 204.4834747314453 80.44209289550781 207.7787628173828 119.69255828857422 216.94557189941406 C 89.93293762207031 227.50306701660156 36.19413757324219 206.54466247558594 52.20845031738281 195.41510009765625 C 38.69729995727539 178.13754272460938 36.69450378417969 167.07919311523438 51.5678825378418 189.09701538085938" fill="rgb(251, 183, 0)" opacity="0.006037905" stroke-width="2.0"/>
    <path d="M 102.45515441894531 25.252952575683594 C 111.08463287353516 27.2286434173584 106.65861511230469 15.988476753234863 106.5106430053711 21.237913131713867 C 103.71837615966797 19.54871940612793 103.65977478027344 31.124286651611328 100.47274780273438 30.956178665161133 C 104.58710479736328 24.46645736694336 100.70735168457031 25.88895606994629 106.58551025390625 15.005138397216797 C 112.1858901977539 18.247529983520508 106.70361328125 20.56919288635254 102.45515441894531 25.252952575683594" fill="rgb(255, 202, 82)" opacity="0.0" stroke-width="2.0"/>
    <path d="M 229.4897918701172 70.93110656738281 C 221.23411560058594 71.82669830322266 215.05079650878906 72.29651641845703 207.8379364013672 53.32785415649414 C 206.6999053955078 38.746925354003906 189.97523498535156 34.274391174316406 176.57418823242188 35.89200973510742 C 206.20896911621094 36.96378707885742 213.4908447265625 40.12882995605469 230.3284454345703 63.20063781738281 C 255.51011657714844 85.14065551757812 266.626220703125 60.74955749511719 229.4897918701172 70.93110656738281" fill="rgb(252, 193, 27)" opacity="0.9245598" stroke-width="2.0"/>
    <path d="M 42.2794303894043 168.60704040527344 C 51.400333404541016 189.42941284179688 58.90188980102539 212.92591857910156 115.64176177978516 216.26536560058594 C 90.9834213256836 213.05992126464844 74.3153076171875 209.1904754638672 69.92354583740234 199.5040283203125 C 76.89093780517578 211.9281463623047 77.27648162841797 211.77392578125 44.95343780517578 186.45913696289062 C 70.60969543457031 189.53257751464844 60.67304992675781 199.64369201660156 42.2794303894043 168.60704040527344" fill="rgb(252, 193, 26)" opacity="0.63108546" stroke-width="2.0"/>
    <path d="M 52.84587097167969 41.52512741088867 C 43.60061264038086 40.190032958984375 43.4439697265625 38.97514724731445 33.77617645263672 37.87127685546875 C 44.56692123413086 34.42529296875 49.80473709106445 41.5197639465332 56.10548782348633 45.42951583862305 C 51.41037368774414 27.467601776123047 57.391456604003906 33.652103424072266 106.00946807861328 32.36930465698242 C 49.264034271240234 25.021024703979492 49.483333587646484 30.854219436645508 52.84587097167969 41.52512741088867" fill="rgb(252, 193, 26)" opacity="0.55799484" stroke-width="2.0"/>
    <path d="M 29.419252395629883 183.0293426513672 C 33.20404815673828 204.90101623535156 -4.5189948081970215 176.33602905273438 -7.2559356689453125 172.0304718017578 C 18.19194984436035 196.47801208496094 -2.1520750522613525 180.55386352539062 -0.7828032970428467 138.5425567626953 C 13.674488067626953 91.0733642578125 -5.906227111816406 80.37290954589844 -18.797527313232422 133.59552001953125 C 20.016298294067383 148.7969970703125 32.523319244384766 141.0461883544922 29.419252395629883 183.0293426513672" fill="rgb(255, 255, 224)" opacity="0.057707705" stroke-width="2.0"/>
    <path d="M 35.47491455078125 149.0305938720703 C 18.7506160736084 129.39468383789062 21.032791137695312 129.50599670410156 51.61213684082031 174.68927001953125 C 40.204856872558594 156.82107543945312 18.58024787902832 151.39097595214844 29.996492385864258 169.9505615234375 C 36.07639694213867 161.60107421875 31.457353591918945 161.67782592773438 23.28970718383789 136.40672302246094 C 18.75253677368164 148.515380859375 15.557336807250977 170.79122924804688 35.47491455078125 149.0305938720703" fill="rgb(252, 195, 27)" opacity="0.7412465" stroke-width="2.0"/>
    <path d="M 136.29933166503906 67.22615051269531 C 133.7290496826172 67.98283386230469 131.2785186767578 57.25812530517578 130.10121154785156 63.84809494018555 C 143.68875122070312 66.8348617553711 142.5328826904297 67.69087219238281 150.52279663085938 73.48560333251953 C 146.49534606933594 69.44033813476562 145.61277770996094 68.8992919921875 139.89990234375 68.91875457763672 C 135.71485900878906 65.86284637451172 134.8091583251953 64.22352600097656 136.29933166503906 67.22615051269531" fill="rgb(171, 163, 113)" opacity="0.0" stroke-width="2.0"/>
    <path d="M 106.89623260498047 30.959245681762695 C 117.58790588378906 23.028663635253906 128.6052703857422 23.148231506347656 140.2301483154297 28.363895416259766 C 157.55401611328125 22.083040237426758 167.53903198242188 36.330387115478516 188.41624450683594 44.88028335571289 C 135.42408752441406 28.443561553955078 131.8932647705078 34.71630096435547 123.6229476928711 27.03240966796875 C 148.59979248046875 31.745548248291016 151.72433471679688 32.9710693359375 106.89623260498047 30.959245681762695" fill="rgb(253, 162, 82)" opacity="0.0" stroke-width="2.0"/>
    <path d="M 217.0587921142578 68.63507080078125 C 246.021484375 70.55303192138672 247.53871154785156 73.3438491821289 251.75247192382812 77.93807220458984 C 246.35667419433594 71.41996765136719 241.73626708984375 68.12447357177734 251.37217712402344 69.61538696289062 C 233.75096130371094 67.47772979736328 234.4902801513672 82.71411895751953 227.5386505126953 58.35470962524414 C 209.6065673828125 17.557750701904297 189.7972869873047 42.52595520019531 217.0587921142578 68.63507080078125" fill="rgb(252, 194, 27)" opacity="0.48224258" stroke-width="2.0"/>
    <path d="M 150.92889404296875 5.426311492919922 C 202.08306884765625 9.842244148254395 213.98451232910156 5.176739692687988 231.6168975830078 37.268436431884766 C 218.72874450683594 50.578922271728516 221.16912841796875 48.96839141845703 222.65512084960938 58.38645935058594 C 213.34815979003906 36.321128845214844 221.32862854003906 55.2547492980957 235.85720825195312 55.97328567504883 C 185.94309997558594 30.550031661987305 156.46218872070312 37.972049713134766 150.92889404296875 5.426311492919922" fill="rgb(251, 186, 26)" opacity="0.0" stroke-width="2.0"/>
    <path d="M 81.62739562988281 38.449710845947266 C 81.33468627929688 21.884607315063477 91.84354400634766 22.077669143676758 91.82806396484375 25.68712043762207 C 108.38172912597656 24.062273025512695 119.80146026611328 27.463768005371094 108.80120849609375 26.602903366088867 C 98.64215850830078 20.910358428955078 103.36884307861328 24.035526275634766 103.41295623779297 28.0023250579834 C 87.33467102050781 17.842363357543945 72.00054931640625 34.27519607543945 81.62739562988281 38.449710845947266" fill="rgb(251, 119, 24)" opacity="0.0" stroke-width="2.0"/>
    <path d="M 38.39002990722656 38.63433837890625 C 52.07686233520508 40.654945373535156 36.318660736083984 49.38386154174805 43.294681549072266 45.780879974365234 C 37.49709701538086 49.20256042480469 26.040748596191406 52.198123931884766 46.89204788208008 38.720375061035156 C 56.64045715332031 35.347137451171875 31.361289978027344 44.24082946777344 37.87881851196289 41.395015716552734 C 44.09061813354492 39.75117874145508 43.649986267089844 34.71090316772461 38.39002990722656 38.63433837890625" fill="rgb(251, 193, 25)" opacity="0.3596914" stroke-width="2.0"/>
    <path d="M 31.215255737304688 43.10297393798828 C 38.76357650756836 38.9749641418457 57.682373046875 32.653358459472656 62.4992790222168 34.13268280029297 C 50.25025177001953 36.45087432861328 58.9024543762207 32.56557846069336 75.71981811523438 29.566390991210938 C 61.422264099121094 25.511123657226562 62.847900390625 28.263349533081055 86.68016815185547 32.39130401611328 C 79.90907287597656 25.229419708251953 73.19065856933594 28.438623428344727 31.215255737304688 43.10297393798828" fill="rgb(252, 194, 27)" opacity="0.74003863" stroke-width="2.0"/>
    <path d="M 27.923730850219727 161.15524291992188 C 37.86986541748047 190.15921020507812 41.34908676147461 194.3854217529297 41.16659927368164 208.00950622558594 C 46.082706451416016 205.33349609375 43.82358169555664 199.8582763671875 45.02180099487305 202.96144104003906 C 34.633426666259766 191.44810485839844 40.14639663696289 196.0894775390625 49.59243392944336 192.3346710205078 C 45.48965072631836 186.8154296875 45.57275390625 172.6764373779297 27.923730850219727 161.15524291992188" fill="rgb(251, 221, 99)" opacity="0.0" stroke-width="2.0"/>
    <path d="M 185.33082580566406 213.498046875 C 162.7000274658203 224.6494598388672 161.8109130859375 218.7344970703125 157.03932189941406 221.08985900878906 C 162.6995849609375 210.345947265625 168.4203643798828 211.70115661621094 159.45370483398438 219.3800048828125 C 153.19432067871094 224.28573608398438 174.2485809326172 228.932861328125 176.95712280273438 213.65782165527344 C 184.9155731201172 208.55274963378906 192.92343139648438 211.61521911621094 185.33082580566406 213.498046875" fill="rgb(255, 255, 255)" opacity="0.140167" stroke-width="2.0"/>
    <path d="M 182.29074096679688 195.13467407226562 C 183.84646606445312 191.17117309570312 190.7470245361328 190.89285278320312 190.6446533203125 189.63624572753906 C 189.01678466796875 192.29995727539062 194.3077850341797 197.4924774169922 188.2338104248047 190.36317443847656 C 184.87490844726562 191.17074584960938 194.33555603027344 187.86282348632812 204.51242065429688 176.5171356201172 C 206.76278686523438 176.67520141601562 200.41287231445312 179.4625244140625 182.29074096679688 195.13467407226562" fill="rgb(252, 194, 27)" opacity="0.8454562" stroke-width="2.0"/>
    <path d="M 39.748619079589844 192.87741088867188 C 39.54874801635742 193.16506958007812 39.41750717163086 187.88548278808594 46.33411407470703 192.8973388671875 C 45.3929443359375 203.15565490722656 36.4050178527832 202.92539978027344 34.29322814941406 171.05926513671875 C 29.65450096130371 172.94647216796875 39.40266036987305 181.1168975830078 70.02429962158203 202.3390350341797 C 50.93608474731445 216.55056762695312 40.191314697265625 195.5893096923828 39.748619079589844 192.87741088867188" fill="rgb(251, 200, 202)" opacity="0.0" stroke-width="2.0"/>
    <path d="M 41.07295608520508 174.6151123046875 C 51.86210250854492 200.87953186035156 51.76320266723633 197.24148559570312 55.1685905456543 199.41017150878906 C 60.778419494628906 205.56607055664062 60.42645263671875 208.47048950195312 56.867496490478516 197.46075439453125 C 56.11558532714844 195.19639587402344 56.700408935546875 196.06939697265625 63.11064910888672 198.17552185058594 C 43.697425842285156 191.61676025390625 32.55105972290039 185.66033935546875 41.07295608520508 174.6151123046875" fill="rgb(252, 192, 8)" opacity="0.020804524" stroke-width="2.0"/>
    <path d="M 138.07228088378906 63.85311508178711 C 131.1887969970703 62.447410583496094 141.3330078125 63.1259765625 141.1971435546875 57.551490783691406 C 142.15771484375 58.67789077758789 141.6448211669922 63.34637451171875 143.2984161376953 59.598541259765625 C 146.72019958496094 57.76189041137695 147.5842742919922 58.293235778808594 145.87559509277344 59.93218994140625 C 138.21839904785156 64.169677734375 141.6973114013672 64.26913452148438 138.07228088378906 63.85311508178711" fill="rgb(107, 88, 32)" opacity="0.019672848" stroke-width="2.0"/>
    <path d="M 71.66138458251953 210.51483154296875 C 64.80196380615234 220.3259735107422 59.03640365600586 215.85113525390625 54.018131256103516 213.32994079589844 C 56.553367614746094 216.72036743164062 52.49993896484375 212.2222442626953 47.724464416503906 213.0286865234375 C 59.3074836730957 214.69471740722656 71.25929260253906 220.3946075439453 94.86293029785156 223.41819763183594 C 81.2397232055664 199.4502716064453 70.65296173095703 194.56748962402344 71.66138458251953 210.51483154296875" fill="rgb(255, 205, 12)" opacity="0.0" stroke-width="2.0"/>
    <path d="M 122.05911254882812 217.2669219970703 C 126.08534240722656 224.17648315429688 98.15018463134766 217.54617309570312 87.02421569824219 212.86146545410156 C 65.19508361816406 216.47940063476562 70.01004791259766 213.18446350097656 71.9914779663086 217.14500427246094 C 69.76142120361328 208.51211547851562 76.24545288085938 210.95323181152344 53.19099426269531 211.97366333007812 C 58.4001350402832 206.08758544921875 73.1217041015625 213.04763793945312 122.05911254882812 217.2669219970703" fill="rgb(254, 170, 41)" opacity="0.0" stroke-width="2.0"/>
    <path d="M 10.150522232055664 116.91520690917969 C 7.393482685089111 139.21432495117188 18.363475799560547 143.93760681152344 22.157047271728516 134.7098846435547 C 14.323358535766602 132.39996337890625 10.994786262512207 142.66854858398438 18.656570434570312 148.59149169921875 C 19.864416122436523 142.48716735839844 15.168658256530762 149.09637451171875 24.549726486206055 130.66952514648438 C 4.364117622375488 102.49188995361328 12.4891939163208 83.67910766601562 10.150522232055664 116.91520690917969" fill="rgb(248, 196, 31)" opacity="0.29108495" stroke-width="2.0"/>
    <path d="M 93.13136291503906 214.4309844970703 C 108.14875793457031 214.5235137939453 102.75260925292969 214.50682067871094 115.92652893066406 215.04347229003906 C 132.0919952392578 219.70997619628906 128.2362518310547 221.2860870361328 90.44361114501953 206.32945251464844 C 95.7186279296875 206.66600036621094 111.71113586425781 216.27870178222656 110.72460174560547 218.0628204345703 C 106.10908508300781 214.32296752929688 101.0992660522461 208.39846801757812 93.13136291503906 214.4309844970703" fill="rgb(251, 201, 42)" opacity="0.044256482" stroke-width="2.0"/>
    <path d="M 33.85312271118164 144.3453369140625 C 21.341630935668945 161.3134307861328 19.8703556060791 156.81011962890625 33.01182174682617 157.46786499023438 C 33.59135437011719 167.76425170898438 25.441627502441406 171.89120483398438 18.410696029663086 155.99734497070312 C 18.039291381835938 145.77908325195312 19.433563232421875 142.22427368164062 18.02613639831543 136.96206665039062 C 10.79982852935791 134.55943298339844 22.479450225830078 131.54092407226562 33.85312271118164 144.3453369140625" fill="rgb(251, 183, 0)" opacity="0.13103065" stroke-width="2.0"/>
    <path d="M 216.02346801757812 62.464603424072266 C 216.95985412597656 56.30398178100586 211.81289672851562 49.197349548339844 208.7166290283203 43.44142532348633 C 223.12387084960938 41.96024703979492 222.759765625 48.170654296875 212.03433227539062 47.35842514038086 C 222.81390380859375 47.89461898803711 222.78237915039062 48.115943908691406 189.9042205810547 36.326377868652344 C 201.53073120117188 37.663360595703125 207.122314453125 39.823917388916016 216.02346801757812 62.464603424072266" fill="rgb(252, 193, 27)" opacity="0.7203438" stroke-width="2.0"/>
    <path d="M 150.5851287841797 225.45135498046875 C 152.42401123046875 224.9525909423828 143.26210021972656 225.0279083251953 137.11199951171875 229.32850646972656 C 151.7631378173828 216.24053955078125 150.54550170898438 211.19192504882812 158.73492431640625 211.89854431152344 C 155.83978271484375 214.936279296875 156.91441345214844 212.90748596191406 172.66513061523438 215.43727111816406 C 147.4842529296875 222.296142578125 147.52793884277344 219.16412353515625 150.5851287841797 225.45135498046875" fill="rgb(255, 231, 153)" opacity="0.02571777" stroke-width="2.0"/>
    <path d="M 125.47907257080078 219.09080505371094 C 127.53741455078125 219.52537536621094 128.2706756591797 218.57278442382812 128.9278106689453 219.52154541015625 C 129.57791137695312 219.41912841796875 129.96495056152344 220.75660705566406 130.41018676757812 220.745849609375 C 127.36528778076172 216.77474975585938 128.85150146484375 219.8746337890625 129.2452392578125 215.95948791503906 C 128.6248016357422 218.36695861816406 129.04367065429688 218.5133056640625 125.47907257080078 219.09080505371094" fill="rgb(254, 250, 63)" opacity="0.0013076607" stroke-width="2.0"/>
    <path d="M 78.30906677246094 67.76009368896484 C 72.17420196533203 76.93888854980469 68.63668823242188 75.92300415039062 78.65935516357422 84.4516372680664 C 78.22445678710938 83.737548828125 74.4392318725586 80.61314392089844 67.93821716308594 91.06986999511719 C 66.87035369873047 86.45694732666016 65.5445785522461 91.72801971435547 77.34355163574219 82.95767974853516 C 73.44892883300781 76.72984313964844 79.0655288696289 70.92790985107422 78.30906677246094 67.76009368896484" fill="rgb(252, 193, 27)" opacity="0.91268075" stroke-width="2.0"/>
    <path d="M 107.4556884765625 218.9683380126953 C 97.98999786376953 217.07693481445312 94.22068786621094 219.06771850585938 93.83660125732422 215.11834716796875 C 102.18863677978516 208.4400634765625 94.36018371582031 216.0957489013672 91.67756652832031 214.6704559326172 C 99.19363403320312 214.7594451904297 108.85688781738281 214.98680114746094 102.84503936767578 213.5880584716797 C 106.58867645263672 214.82308959960938 115.47139739990234 217.26600646972656 107.4556884765625 218.9683380126953" fill="rgb(251, 201, 42)" opacity="0.028011188" stroke-width="2.0"/>
    <path d="M 11.307832717895508 108.85144805908203 C 8.742290496826172 128.49246215820312 5.215409755706787 128.92733764648438 14.520668029785156 126.27617645263672 C 14.234044075012207 129.3212890625 13.3616943359375 129.67889404296875 12.078686714172363 124.6047134399414 C 12.920329093933105 118.10488891601562 13.54545783996582 119.70539855957031 14.653070449829102 117.40218353271484 C 4.637444972991943 111.09912109375 5.27144718170166 110.5909194946289 11.307832717895508 108.85144805908203" fill="rgb(251, 181, 8)" opacity="0.12827493" stroke-width="2.0"/>
    <path d="M 21.16444969177246 160.8009033203125 C 32.552974700927734 146.3256072998047 17.479778289794922 142.32949829101562 30.09207534790039 159.3196258544922 C 26.96733856201172 159.74874877929688 34.963417053222656 159.51060485839844 21.691659927368164 161.5948028564453 C 29.016292572021484 162.43092346191406 30.777925491333008 176.91725158691406 43.04987716674805 179.0632781982422 C 43.8034553527832 169.71957397460938 35.586402893066406 154.04983520507812 21.16444969177246 160.8009033203125" fill="rgb(237, 253, 244)" opacity="0.0" stroke-width="2.0"/>
    <path d="M 138.0842742919922 215.60452270507812 C 137.5781707763672 223.03884887695312 133.73126220703125 219.2115478515625 142.76319885253906 214.61566162109375 C 142.7034912109375 219.96861267089844 141.88351440429688 218.70159912109375 144.6983184814453 217.4552001953125 C 147.47897338867188 215.116943359375 147.10089111328125 215.16387939453125 133.5376434326172 214.56785583496094 C 135.3364715576172 214.066650390625 136.9767608642578 213.5768280029297 138.0842742919922 215.60452270507812" fill="rgb(254, 200, 28)" opacity="0.0038952841" stroke-width="2.0"/>
    <path d="M 21.065380096435547 153.72100830078125 C 22.411367416381836 167.81019592285156 20.13347816467285 158.65667724609375 30.626924514770508 169.979248046875 C 44.24155807495117 188.56414794921875 41.765769958496094 181.85781860351562 25.661230087280273 165.0913543701172 C 18.83746337890625 154.71910095214844 14.998259544372559 142.1086883544922 11.966827392578125 158.1026153564453 C 30.100543975830078 175.3190155029297 21.407289505004883 164.66110229492188 21.065380096435547 153.72100830078125" fill="rgb(254, 214, 92)" opacity="0.0" stroke-width="2.0"/>
    <path d="M -4.371920108795166 101.4590072631836 C -3.533402681350708 97.7656478881836 -4.672114372253418 98.79572296142578 -9.287246704101562 93.11512756347656 C 4.2343549728393555 70.49897766113281 9.467658996582031 93.13943481445312 17.609304428100586 136.48605346679688 C 24.636762619018555 133.144775390625 15.94386100769043 111.16075134277344 10.178730010986328 110.77205657958984 C 16.387760162353516 130.06521606445312 6.557539463043213 124.79104614257812 -4.371920108795166 101.4590072631836" fill="rgb(254, 189, 0)" opacity="0.0" stroke-width="2.0"/>
    <path d="M 150.0286102294922 74.202880859375 C 150.52626037597656 72.87202453613281 148.86715698242188 71.95435333251953 151.81556701660156 72.45628356933594 C 157.83743286132812 72.6128158569336 156.0282440185547 74.07417297363281 151.4501495361328 74.88749694824219 C 151.30059814453125 66.3747787475586 153.13641357421875 69.69637298583984 147.26226806640625 69.51097106933594 C 149.16148376464844 64.32489013671875 149.70635986328125 64.0462417602539 150.0286102294922 74.202880859375" fill="rgb(30, 76, 3)" opacity="0.0" stroke-width="2.0"/>
    <path d="M 141.19273376464844 212.34449768066406 C 134.1531219482422 213.59872436523438 129.5166015625 218.35133361816406 120.57551574707031 206.7597198486328 C 143.0194854736328 205.69325256347656 147.86932373046875 207.689453125 155.4010772705078 196.2093048095703 C 153.44227600097656 216.9176788330078 154.9215087890625 219.27276611328125 154.3578338623047 216.2528839111328 C 141.65692138671875 214.8135528564453 142.61514282226562 214.49029541015625 141.19273376464844 212.34449768066406" fill="rgb(251, 194, 27)" opacity="0.5257362" stroke-width="2.0"/>
    <path d="M 110.07662963867188 52.57267379760742 C 109.1421127319336 54.98088455200195 105.4081802368164 55.58771896362305 101.67670440673828 54.63520050048828 C 115.69076538085938 52.7957649230957 113.56642150878906 54.81757354736328 115.68091583251953 55.17991256713867 C 111.38814544677734 56.43319320678711 106.71312713623047 57.89423370361328 114.06989288330078 56.71562194824219 C 112.41238403320312 55.022891998291016 107.26483917236328 58.45349884033203 110.07662963867188 52.57267379760742" fill="rgb(252, 194, 27)" opacity="0.14874126" stroke-width="2.0"/>
    <path d="M 100.84903717041016 71.19805145263672 C 95.47691345214844 69.20866394042969 98.18700408935547 65.54402160644531 101.91072082519531 66.3888168334961 C 97.3755874633789 63.906368255615234 101.31432342529297 61.983848571777344 108.59706115722656 69.85194396972656 C 123.24508666992188 59.45634841918945 109.67323303222656 58.23465347290039 109.23042297363281 62.6339225769043 C 103.76242065429688 66.63430786132812 107.54010772705078 62.68795394897461 100.84903717041016 71.19805145263672" fill="rgb(40, 42, 47)" opacity="0.13470078" stroke-width="2.0"/>
    <path d="M 84.09658813476562 159.11688232421875 C 82.58657836914062 154.8956756591797 77.84892272949219 157.8731689453125 83.91080474853516 158.0138702392578 C 85.29673767089844 155.77735900878906 82.70787048339844 157.3267364501953 80.27507019042969 158.13648986816406 C 79.30133819580078 158.61537170410156 75.83956909179688 159.78392028808594 74.13957214355469 158.8135986328125 C 84.10395050048828 156.3527069091797 80.99958801269531 157.8096466064453 84.09658813476562 159.11688232421875" fill="rgb(139, 88, 10)" opacity="1.9202344e-05" stroke-width="2.0"/>
    <path d="M 160.43560791015625 76.26309204101562 C 158.86891174316406 80.2985610961914 155.03514099121094 78.7316665649414 153.98263549804688 77.18386840820312 C 165.03662109375 74.1787338256836 161.02859497070312 75.71006774902344 159.037353515625 83.25355529785156 C 162.04312133789062 80.70348358154297 163.28741455078125 78.93294525146484 158.2535858154297 76.45576477050781 C 154.50714111328125 74.9171142578125 156.20350646972656 70.24687957763672 160.43560791015625 76.26309204101562" fill="rgb(35, 38, 47)" opacity="0.10774626" stroke-width="2.0"/>
    <path d="M 179.5353240966797 195.0871124267578 C 180.87953186035156 196.5682373046875 168.393310546875 211.3905487060547 160.69564819335938 212.4789581298828 C 163.13308715820312 210.07708740234375 163.6484832763672 205.6040802001953 182.18125915527344 181.80470275878906 C 190.79714965820312 199.9123077392578 187.655029296875 198.2669219970703 188.5062255859375 194.41128540039062 C 184.09584045410156 193.2449493408203 173.47483825683594 197.64486694335938 179.5353240966797 195.0871124267578" fill="rgb(255, 212, 136)" opacity="0.0" stroke-width="2.0"/>
    <path d="M 150.3238983154297 85.26203155517578 C 149.45114135742188 86.51705169677734 154.11448669433594 86.69457244873047 156.34603881835938 78.8578109741211 C 155.29913330078125 77.08497619628906 149.74122619628906 77.2037124633789 150.9763641357422 67.96174621582031 C 160.08360290527344 81.79476165771484 155.53216552734375 84.2362060546875 154.2784423828125 86.48224639892578 C 151.13674926757812 85.20936584472656 152.2733154296875 80.23600006103516 150.3238983154297 85.26203155517578" fill="rgb(130, 219, 8)" opacity="0.0" stroke-width="2.0"/>
    <path d="M -4.841899871826172 91.97980499267578 C 4.965084552764893 134.12608337402344 11.514373779296875 151.4478759765625 13.040597915649414 153.33811950683594 C 3.4911675453186035 142.49142456054688 10.810542106628418 140.127685546875 6.100892066955566 147.3529510498047 C -2.484689474105835 129.31361389160156 -5.003239631652832 142.23350524902344 11.119346618652344 155.1504364013672 C 13.880287170410156 120.03526306152344 16.598901748657227 104.48040008544922 -4.841899871826172 91.97980499267578" fill="rgb(252, 183, 0)" opacity="0.0" stroke-width="2.0"/>
    <path d="M 171.3251953125 216.3286590576172 C 167.06561279296875 219.72433471679688 160.74472045898438 223.54791259765625 181.7761993408203 212.91900634765625 C 183.8098602294922 207.59010314941406 183.67970275878906 209.65225219726562 180.8000946044922 203.38424682617188 C 188.02137756347656 207.73939514160156 180.2509765625 211.2038116455078 166.32882690429688 217.20750427246094 C 164.94094848632812 209.53775024414062 164.39138793945312 218.83184814453125 171.3251953125 216.3286590576172" fill="rgb(255, 255, 255)" opacity="0.14085247" stroke-width="2.0"/>
    <path d="M 185.84747314453125 195.59970092773438 C 185.2913818359375 206.3491973876953 188.44949340820312 201.295166015625 183.93719482421875 193.79861450195312 C 180.7030029296875 195.1902618408203 181.6060791015625 202.82432556152344 181.49169921875 200.46823120117188 C 179.7107696533203 200.4463653564453 183.47573852539062 203.9291534423828 179.71018981933594 196.68692016601562 C 183.68173217773438 197.01715087890625 187.33363342285156 197.9992218017578 185.84747314453125 195.59970092773438" fill="rgb(251, 194, 27)" opacity="0.5420935" stroke-width="2.0"/>
  </g>
</svg>
