<?xml version="1.0" ?>
<svg height="240" version="1.1" width="240" xmlns="http://www.w3.org/2000/svg">
  <defs/>
  <g>
    <path d="M 239.4091033935547 67.1536865234375 C 243.46133422851562 25.064956665039062 114.51242065429688 0.4619767367839813 31.778995513916016 33.201698303222656 C -2.2318990230560303 50.94858932495117 -4.828283309936523 53.38377380371094 5.835437297821045 119.44474029541016 C 35.193050384521484 253.8400115966797 155.164306640625 221.34872436523438 171.77989196777344 210.9229736328125 C 221.6238250732422 187.0272979736328 239.2961883544922 124.39449310302734 239.4091033935547 67.1536865234375" fill="rgb(228, 169, 0)" opacity="0.8849883" stroke-width="2.0"/>
    <path d="M 93.13883209228516 140.73953247070312 C 96.18495178222656 128.69155883789062 87.03611755371094 114.02445983886719 74.07291412353516 118.26094818115234 C 71.08321380615234 119.14683532714844 63.68853759765625 123.9781494140625 63.31647491455078 135.8567657470703 C 63.92070388793945 149.4536895751953 73.69981384277344 152.39942932128906 69.56822967529297 150.47593688964844 C 81.30158233642578 158.95489501953125 91.30802154541016 149.21536254882812 93.13883209228516 140.73953247070312" fill="rgb(0, 13, 51)" opacity="0.79832804" stroke-width="2.0"/>
    <path d="M 173.40000915527344 129.0 C 173.3341064453125 127.56161499023438 172.4384002685547 126.66592407226562 171.00001525878906 126.60000610351562 C 169.56161499023438 126.66592407226562 168.66590881347656 127.56161499023438 168.60000610351562 129.0 C 168.66590881347656 130.4384002685547 169.56161499023438 131.33409118652344 171.00001525878906 131.40000915527344 C 172.4384002685547 131.33409118652344 173.3341064453125 130.4384002685547 173.40000915527344 129.0" fill="rgb(157, 37, 46)" opacity="0.11441297" stroke-width="2.0"/>
  </g>
</svg>
