<?xml version="1.0" ?>
<svg height="240" version="1.1" width="240" xmlns="http://www.w3.org/2000/svg">
  <defs/>
  <g>
    <path d="M 239.47320556640625 68.39899444580078 C 245.03790283203125 21.525136947631836 99.10665893554688 -0.19226819276809692 23.847429275512695 36.943580627441406 C -5.382922172546387 53.77592086791992 -1.6390926837921143 62.893310546875 3.0413293838500977 103.4568099975586 C 25.778390884399414 256.4271240234375 153.95150756835938 219.34788513183594 163.4109344482422 214.60174560546875 C 222.3822784423828 192.30638122558594 239.18409729003906 123.9922103881836 239.47320556640625 68.39899444580078" fill="rgb(251, 186, 0)" opacity="0.8936291" stroke-width="2.0"/>
    <path d="M 93.3727035522461 139.6945343017578 C 95.70886993408203 126.85802459716797 86.81745910644531 115.84420013427734 76.35526275634766 117.40447235107422 C 70.73042297363281 118.16631317138672 63.8253059387207 124.16362762451172 63.315704345703125 134.8196563720703 C 63.01599884033203 148.5120086669922 74.21456146240234 153.02626037597656 69.59687805175781 150.25784301757812 C 78.70614624023438 157.91307067871094 90.61370849609375 152.5336151123047 93.3727035522461 139.6945343017578" fill="rgb(10, 21, 50)" opacity="0.8430762" stroke-width="2.0"/>
    <path d="M 176.2574920654297 139.79000854492188 C 178.74234008789062 127.51486206054688 170.0508575439453 115.15011596679688 158.294189453125 117.66354370117188 C 149.33935546875 120.12777709960938 144.22738647460938 130.97068786621094 147.00425720214844 141.12286376953125 C 150.68008422851562 153.98118591308594 161.2237548828125 153.42880249023438 156.42811584472656 152.80804443359375 C 161.58558654785156 155.34352111816406 172.7360076904297 153.83929443359375 176.2574920654297 139.79000854492188" fill="rgb(0, 13, 51)" opacity="0.8163476" stroke-width="2.0"/>
    <path d="M 159.73532104492188 83.723388671875 C 174.97406005859375 75.23171997070312 142.6527557373047 60.2598762512207 131.69247436523438 59.15254592895508 C 101.68067169189453 52.71345138549805 71.19680786132812 73.70867156982422 75.86873626708984 80.26313781738281 C 85.73822021484375 93.47453308105469 85.35095977783203 71.05956268310547 120.23556518554688 70.16222381591797 C 150.17535400390625 71.32691955566406 152.54815673828125 87.25222778320312 159.73532104492188 83.723388671875" fill="rgb(5, 17, 50)" opacity="0.81731766" stroke-width="2.0"/>
    <path d="M 191.8190155029297 190.0876007080078 C 190.4651641845703 191.3268280029297 166.67941284179688 179.04837036132812 147.7323760986328 211.7517547607422 C 138.2836456298828 222.72732543945312 114.56158447265625 219.50460815429688 170.62835693359375 204.4968719482422 C 199.0743865966797 188.19464111328125 227.89205932617188 197.3971405029297 239.02682495117188 96.89871215820312 C 161.35330200195312 132.48045349121094 201.9069366455078 192.04220581054688 191.8190155029297 190.0876007080078" fill="rgb(253, 206, 161)" opacity="0.0" stroke-width="2.0"/>
    <path d="M 36.2628288269043 38.29660415649414 C -18.259042739868164 40.05072784423828 -29.858732223510742 59.42242431640625 11.716889381408691 69.1273422241211 C -0.7908567190170288 77.94159698486328 -2.4165432453155518 82.83097076416016 18.2648983001709 88.97805786132812 C 18.803260803222656 62.40901565551758 18.229318618774414 75.60740661621094 -0.819586455821991 91.09193420410156 C 18.26466941833496 80.148681640625 21.720104217529297 80.7907485961914 36.2628288269043 38.29660415649414" fill="rgb(252, 191, 1)" opacity="0.0033950815" stroke-width="2.0"/>
    <path d="M -5.142542839050293 62.8994140625 C 49.78778076171875 67.85851287841797 51.69414520263672 44.50021743774414 59.384220123291016 44.62541580200195 C 65.73479461669922 44.00392150878906 134.5121612548828 78.02046203613281 214.0074462890625 30.586566925048828 C 67.83354949951172 -1.5714877843856812 37.05684280395508 21.61684799194336 34.557098388671875 26.393985748291016 C 38.16012954711914 25.165483474731445 24.843521118164062 21.359275817871094 -5.142542839050293 62.8994140625" fill="rgb(251, 185, 0)" opacity="0.00413505" stroke-width="2.0"/>
    <path d="M 61.43294143676758 220.0760498046875 C 155.33380126953125 232.4670867919922 189.97085571289062 218.3029327392578 222.62100219726562 154.37120056152344 C 153.06178283691406 183.54588317871094 178.0016632080078 208.72772216796875 193.1526641845703 189.2808380126953 C 168.02413940429688 201.8747100830078 165.74130249023438 207.05628967285156 176.17425537109375 198.80514526367188 C 174.54486083984375 214.95713806152344 129.6391143798828 183.42300415039062 61.43294143676758 220.0760498046875" fill="rgb(252, 211, 51)" opacity="0.0" stroke-width="2.0"/>
    <path d="M 219.95480346679688 51.05929183959961 C 218.34112548828125 44.17997741699219 213.3747100830078 41.16758728027344 219.2991485595703 43.18380355834961 C 221.83355712890625 55.609588623046875 234.35304260253906 70.27375030517578 229.9554901123047 62.27698516845703 C 204.40133666992188 32.58961868286133 219.5292510986328 41.884037017822266 221.82225036621094 44.251670837402344 C 220.68980407714844 51.42166519165039 221.81402587890625 42.103763580322266 219.95480346679688 51.05929183959961" fill="rgb(251, 194, 25)" opacity="0.18128851" stroke-width="2.0"/>
    <path d="M 35.20174026489258 190.31781005859375 C 33.297996520996094 200.53955078125 27.134218215942383 200.8031768798828 75.7453842163086 217.9409637451172 C 57.88431930541992 224.36647033691406 41.58784103393555 210.52113342285156 51.482513427734375 182.98284912109375 C 40.819522857666016 181.3903045654297 56.59943771362305 164.72630310058594 8.688106536865234 145.63063049316406 C 27.86608123779297 192.31597900390625 36.940704345703125 194.39707946777344 35.20174026489258 190.31781005859375" fill="rgb(252, 195, 39)" opacity="0.0" stroke-width="2.0"/>
    <path d="M 50.371665954589844 21.945722579956055 C 47.79110336303711 20.33539581298828 50.408935546875 17.531808853149414 49.33945083618164 19.406105041503906 C 39.4912223815918 18.30571746826172 33.24040222167969 3.697296142578125 10.619739532470703 39.1336555480957 C 51.414100646972656 41.452720642089844 32.19972610473633 10.468806266784668 31.91951560974121 12.372665405273438 C 40.01278305053711 19.477548599243164 43.49208068847656 13.24894905090332 50.371665954589844 21.945722579956055" fill="rgb(251, 207, 35)" opacity="0.0035328674" stroke-width="2.0"/>
    <path d="M 52.61672592163086 185.76025390625 C 58.73965072631836 184.42681884765625 57.561912536621094 190.02874755859375 43.500614166259766 177.4407501220703 C 5.850034713745117 114.4529037475586 29.33783531188965 140.482666015625 55.701908111572266 202.12411499023438 C 132.0771484375 225.55401611328125 99.54632568359375 221.8668212890625 55.952335357666016 191.95530700683594 C 55.22347640991211 202.5974884033203 60.775352478027344 196.01132202148438 52.61672592163086 185.76025390625" fill="rgb(254, 254, 50)" opacity="0.0031076802" stroke-width="2.0"/>
    <path d="M 0.5610241293907166 61.25966262817383 C 1.081892728805542 119.41468811035156 6.421763896942139 77.26782989501953 -12.066800117492676 94.68009185791016 C -8.665210723876953 83.57356262207031 -4.342297554016113 85.50475311279297 -1.5649020671844482 88.61315155029297 C -0.8127248287200928 84.52462005615234 0.08312700688838959 92.31565856933594 -12.438177108764648 84.21785736083984 C -11.43381404876709 57.1136360168457 -12.11993408203125 61.20457077026367 0.5610241293907166 61.25966262817383" fill="rgb(255, 253, 244)" opacity="0.63289535" stroke-width="2.0"/>
    <path d="M 31.013965606689453 180.82554626464844 C 18.742616653442383 137.8885040283203 16.745473861694336 108.90425872802734 2.050354242324829 88.66102600097656 C 3.9140636920928955 50.934478759765625 6.198777198791504 77.97077178955078 -2.687045097351074 99.19136047363281 C -5.298559665679932 84.83501434326172 4.139482498168945 69.10611724853516 8.724503517150879 88.22156524658203 C -29.214048385620117 120.04779052734375 -23.69894790649414 132.84629821777344 31.013965606689453 180.82554626464844" fill="rgb(250, 194, 26)" opacity="0.0" stroke-width="2.0"/>
    <path d="M 90.39634704589844 26.561458587646484 C 97.07599639892578 22.313753128051758 103.15848541259766 19.68619155883789 107.68807983398438 29.475505828857422 C 108.13304901123047 17.63689422607422 95.41669464111328 28.46506118774414 107.42564392089844 24.628093719482422 C 117.48363494873047 23.48219108581543 121.19487762451172 26.925317764282227 113.96308898925781 24.88319206237793 C 97.56373596191406 13.399028778076172 108.22323608398438 29.670063018798828 90.39634704589844 26.561458587646484" fill="rgb(249, 51, 134)" opacity="0.0" stroke-width="2.0"/>
    <path d="M 245.00405883789062 66.2257080078125 C 252.9044189453125 83.83203125 251.16476440429688 86.46322631835938 238.138427734375 96.70870208740234 C 239.4030303955078 82.87945556640625 238.70851135253906 48.768917083740234 232.00680541992188 61.05678176879883 C 232.75302124023438 57.1436882019043 232.49302673339844 60.82615280151367 224.82525634765625 49.82932662963867 C 212.32435607910156 29.009387969970703 230.7344512939453 40.15335464477539 245.00405883789062 66.2257080078125" fill="rgb(255, 195, 18)" opacity="0.052282535" stroke-width="2.0"/>
    <path d="M 17.32228660583496 46.52457046508789 C 25.089065551757812 51.934844970703125 13.475811958312988 66.94939422607422 -3.152730941772461 71.34303283691406 C 4.66603422164917 69.08049011230469 2.003152847290039 69.23985290527344 26.604623794555664 58.91828536987305 C 56.66281509399414 39.31194305419922 29.520198822021484 40.557212829589844 34.4589958190918 44.811927795410156 C 17.269474029541016 57.12791442871094 29.77093505859375 60.6358528137207 17.32228660583496 46.52457046508789" fill="rgb(252, 194, 27)" opacity="0.7395602" stroke-width="2.0"/>
    <path d="M 234.2938690185547 75.730224609375 C 233.4681854248047 74.11485290527344 235.7374725341797 76.67841339111328 225.42123413085938 57.095619201660156 C 244.51744079589844 76.26851654052734 226.52011108398438 115.36127471923828 212.74566650390625 126.38742065429688 C 239.95387268066406 65.53164672851562 228.01927185058594 73.57947540283203 230.5913848876953 75.6788558959961 C 232.3532257080078 96.12987518310547 236.36170959472656 84.75109100341797 234.2938690185547 75.730224609375" fill="rgb(249, 178, 33)" opacity="0.2226352" stroke-width="2.0"/>
    <path d="M 62.02751541137695 184.0608673095703 C 70.77779388427734 215.79942321777344 66.0455551147461 212.83021545410156 68.74201202392578 213.35952758789062 C 73.31510925292969 213.17198181152344 69.52583312988281 215.20730590820312 89.39950561523438 220.7646484375 C 85.88785552978516 209.68698120117188 77.32666778564453 213.50228881835938 59.13932800292969 209.65431213378906 C 25.57732391357422 189.11917114257812 24.32529640197754 174.88412475585938 62.02751541137695 184.0608673095703" fill="rgb(252, 181, 0)" opacity="0.0" stroke-width="2.0"/>
    <path d="M 102.5557632446289 27.020971298217773 C 107.73890686035156 30.259546279907227 101.490478515625 17.25804328918457 100.3897933959961 20.93064308166504 C 104.95721435546875 21.74345588684082 105.27008056640625 29.377513885498047 103.13189697265625 28.213163375854492 C 103.62381744384766 16.417186737060547 108.2771224975586 19.366802215576172 103.66107940673828 19.85698699951172 C 105.47575378417969 19.590192794799805 103.57818603515625 22.27328872680664 102.5557632446289 27.020971298217773" fill="rgb(252, 194, 28)" opacity="0.8326178" stroke-width="2.0"/>
    <path d="M 230.27890014648438 45.509490966796875 C 227.22552490234375 47.548370361328125 223.0281524658203 45.317955017089844 215.49783325195312 42.715999603271484 C 215.46072387695312 40.868873596191406 207.79965209960938 41.420536041259766 206.69752502441406 44.92241287231445 C 224.19570922851562 33.69303894042969 226.88539123535156 31.62530517578125 233.80618286132812 48.56177520751953 C 220.43203735351562 52.89490509033203 223.55564880371094 42.089027404785156 230.27890014648438 45.509490966796875" fill="rgb(255, 155, 47)" opacity="0.0" stroke-width="2.0"/>
    <path d="M 36.7661018371582 167.86761474609375 C 24.65126609802246 204.42544555664062 45.00555419921875 211.71376037597656 98.79903411865234 214.39381408691406 C 80.09141540527344 222.14404296875 67.93204498291016 217.59039306640625 65.36449432373047 206.06661987304688 C 65.97772216796875 202.2897491455078 67.54093933105469 203.02407836914062 68.44392395019531 203.31015014648438 C 56.41180419921875 203.25634765625 59.28578567504883 200.9909210205078 36.7661018371582 167.86761474609375" fill="rgb(252, 194, 20)" opacity="0.0" stroke-width="2.0"/>
    <path d="M 37.006187438964844 29.04688262939453 C 35.190433502197266 30.400848388671875 31.64613151550293 24.51894187927246 44.300025939941406 19.787614822387695 C 38.252288818359375 30.829259872436523 43.51189422607422 33.165565490722656 47.31000900268555 39.752906799316406 C 44.687686920166016 26.3553466796875 51.943214416503906 38.573081970214844 108.2258529663086 26.18136978149414 C 41.74420928955078 17.43081283569336 38.450408935546875 28.008607864379883 37.006187438964844 29.04688262939453" fill="rgb(255, 225, 65)" opacity="0.0" stroke-width="2.0"/>
    <path d="M 18.250513076782227 177.7054901123047 C 39.76708221435547 176.50277709960938 18.704877853393555 156.6509246826172 3.0138437747955322 142.13331604003906 C 18.56212615966797 139.34231567382812 14.964323997497559 125.32095336914062 8.303448677062988 112.76659393310547 C 4.0596489906311035 98.00788879394531 -2.893169641494751 91.32429504394531 -6.644324779510498 136.21939086914062 C 21.415433883666992 141.73475646972656 18.35189437866211 136.4043426513672 18.250513076782227 177.7054901123047" fill="rgb(255, 191, 0)" opacity="0.0" stroke-width="2.0"/>
    <path d="M 20.31622886657715 144.2947540283203 C 22.075794219970703 149.810791015625 22.889612197875977 144.46705627441406 19.000953674316406 142.69338989257812 C 15.973773002624512 143.7396240234375 18.260616302490234 151.1602783203125 20.71617317199707 158.80735778808594 C 21.953641891479492 157.6034393310547 21.578128814697266 162.8607177734375 18.89151954650879 153.702392578125 C 17.557958602905273 152.11248779296875 17.083829879760742 152.2765655517578 20.31622886657715 144.2947540283203" fill="rgb(251, 194, 26)" opacity="0.3272122" stroke-width="2.0"/>
    <path d="M 134.6614532470703 65.29338836669922 C 134.86819458007812 65.15645599365234 134.73924255371094 56.43258285522461 126.5529556274414 68.76427459716797 C 137.7843780517578 71.5465087890625 138.92718505859375 70.40596008300781 144.68768310546875 74.04287719726562 C 143.81353759765625 68.04844665527344 145.51876831054688 65.15812683105469 140.646240234375 67.57865905761719 C 136.4466094970703 64.39906311035156 137.11929321289062 62.6903076171875 134.6614532470703 65.29338836669922" fill="rgb(62, 61, 63)" opacity="0.0" stroke-width="2.0"/>
    <path d="M 104.37732696533203 34.20392990112305 C 113.37669372558594 19.860187530517578 121.51327514648438 21.364999771118164 140.33407592773438 27.018497467041016 C 159.3249053955078 20.9079532623291 169.2776336669922 34.999961853027344 189.38848876953125 46.92051696777344 C 134.0807342529297 29.775110244750977 128.38177490234375 36.68754196166992 117.68123626708984 29.578128814697266 C 149.13861083984375 33.833885192871094 154.30857849121094 34.0975456237793 104.37732696533203 34.20392990112305" fill="rgb(251, 194, 27)" opacity="0.2800093" stroke-width="2.0"/>
    <path d="M 225.24215698242188 45.960670471191406 C 233.47793579101562 67.22893524169922 229.7465057373047 68.46456146240234 241.45364379882812 69.36067199707031 C 242.35853576660156 67.43013763427734 240.70521545410156 67.25321960449219 240.80641174316406 70.2251205444336 C 235.6621551513672 61.68412399291992 234.85047912597656 62.575843811035156 227.07449340820312 50.409706115722656 C 191.04449462890625 23.120643615722656 192.60256958007812 32.149925231933594 225.24215698242188 45.960670471191406" fill="rgb(253, 246, 52)" opacity="0.0" stroke-width="2.0"/>
    <path d="M 175.98971557617188 18.71686363220215 C 182.95947265625 38.35731887817383 186.43572998046875 31.088829040527344 198.3592987060547 30.88483238220215 C 202.8992919921875 36.12179946899414 203.55435180664062 44.115875244140625 234.29766845703125 47.07416534423828 C 215.13087463378906 20.1838436126709 201.81080627441406 26.442296981811523 199.12820434570312 27.048358917236328 C 189.08058166503906 27.336912155151367 185.8013153076172 20.032690048217773 175.98971557617188 18.71686363220215" fill="rgb(251, 201, 47)" opacity="0.0" stroke-width="2.0"/>
    <path d="M 87.18486022949219 37.15092468261719 C 94.33644104003906 26.807680130004883 93.1614990234375 26.179534912109375 94.13642120361328 23.67665672302246 C 110.30572509765625 22.557086944580078 122.45003509521484 27.752643585205078 116.96113586425781 28.28382110595703 C 95.7525634765625 21.8076171875 102.85387420654297 23.756959915161133 96.10670471191406 33.539424896240234 C 73.61860656738281 20.295269012451172 71.7043685913086 21.132741928100586 87.18486022949219 37.15092468261719" fill="rgb(252, 191, 0)" opacity="0.0015302598" stroke-width="2.0"/>
    <path d="M 42.8824462890625 36.56101608276367 C 40.21559143066406 32.13472366333008 20.095069885253906 36.26888656616211 25.812314987182617 51.959693908691406 C 49.33220291137695 53.91728591918945 23.880144119262695 44.89729690551758 35.96954345703125 22.898082733154297 C 58.889381408691406 25.890932083129883 39.94035339355469 43.937034606933594 30.859697341918945 44.54595947265625 C 36.84592819213867 43.19563674926758 37.56045150756836 42.71939468383789 42.8824462890625 36.56101608276367" fill="rgb(250, 145, 49)" opacity="0.0" stroke-width="2.0"/>
    <path d="M 36.05473327636719 27.385452270507812 C 48.3635139465332 35.315696716308594 54.65822982788086 26.03695297241211 59.693946838378906 27.713754653930664 C 59.73447799682617 29.923730850219727 61.13789367675781 29.40492820739746 60.07860565185547 31.3302001953125 C 60.80669403076172 26.116914749145508 64.83607482910156 26.256139755249023 85.32546997070312 28.626468658447266 C 65.85224914550781 20.855865478515625 49.28411865234375 21.69569969177246 36.05473327636719 27.385452270507812" fill="rgb(253, 255, 255)" opacity="0.0" stroke-width="2.0"/>
  </g>
</svg>
