<?xml version="1.0" ?>
<svg height="240" version="1.1" width="240" xmlns="http://www.w3.org/2000/svg">
  <defs/>
  <g>
    <path d="M 239.45828247070312 67.78205871582031 C 244.2708282470703 22.82750129699707 104.34876251220703 -0.15063878893852234 26.269201278686523 35.718868255615234 C -3.5857484340667725 52.8743782043457 -2.238619327545166 57.242919921875 3.7288014888763428 108.10581970214844 C 28.531084060668945 255.84979248046875 154.46739196777344 220.1078643798828 166.7066650390625 213.17124938964844 C 221.9739532470703 190.22665405273438 238.98834228515625 123.92317199707031 239.45828247070312 67.78205871582031" fill="rgb(251, 186, 0)" opacity="0.8926569" stroke-width="2.0"/>
    <path d="M 93.29582214355469 140.18052673339844 C 95.91361236572266 127.35979461669922 86.73072052001953 115.04281616210938 75.37464141845703 117.66573333740234 C 71.02481842041016 118.70201110839844 63.3403205871582 124.3115005493164 63.17168426513672 136.130126953125 C 63.66603469848633 149.1656951904297 73.74960327148438 152.334716796875 69.2790298461914 150.2877655029297 C 80.17578125 158.67068481445312 90.97097778320312 150.90472412109375 93.29582214355469 140.18052673339844" fill="rgb(12, 22, 50)" opacity="0.8536262" stroke-width="2.0"/>
    <path d="M 176.15036010742188 140.23968505859375 C 179.02784729003906 127.63307189941406 169.9016571044922 114.76649475097656 158.11083984375 117.84782409667969 C 150.06002807617188 120.03999328613281 144.03848266601562 129.79840087890625 146.94287109375 141.11929321289062 C 150.38577270507812 152.84738159179688 159.72134399414062 153.5187225341797 155.3586883544922 152.19525146484375 C 163.04296875 156.38824462890625 173.24163818359375 152.10772705078125 176.15036010742188 140.23968505859375" fill="rgb(0, 13, 51)" opacity="0.81398743" stroke-width="2.0"/>
    <path d="M 157.86778259277344 84.48991394042969 C 174.998291015625 78.49413299560547 151.97958374023438 62.93855667114258 131.6478729248047 58.99267578125 C 99.8310775756836 52.93400192260742 71.7027359008789 74.18498229980469 75.87454986572266 80.05464935302734 C 84.92684173583984 93.22127532958984 84.89876556396484 72.78494262695312 116.2509536743164 70.24176788330078 C 145.16029357910156 68.95409393310547 153.08596801757812 85.06983184814453 157.86778259277344 84.48991394042969" fill="rgb(0, 12, 51)" opacity="0.81682223" stroke-width="2.0"/>
    <path d="M 197.39999389648438 195.0 C 197.33407592773438 193.56161499023438 196.4384002685547 192.66592407226562 195.0 192.60000610351562 C 193.5615997314453 192.66592407226562 192.66592407226562 193.56161499023438 192.60000610351562 195.0 C 192.66592407226562 196.4384002685547 193.5615997314453 197.33407592773438 195.0 197.39999389648438 C 196.4384002685547 197.33407592773438 197.33407592773438 196.4384002685547 197.39999389648438 195.0" fill="rgb(147, 68, 141)" opacity="0.64463425" stroke-width="2.0"/>
    <path d="M 5.400004863739014 75.0 C 5.334094047546387 73.56161499023438 4.438393592834473 72.6659164428711 3.000007152557373 72.60000610351562 C 1.5616207122802734 72.6659164428711 0.6659203171730042 73.56161499023438 0.6000095009803772 75.0 C 0.6659203171730042 76.43838500976562 1.5616207122802734 77.3340835571289 3.000007152557373 77.39999389648438 C 4.438393592834473 77.3340835571289 5.334094047546387 76.43838500976562 5.400004863739014 75.0" fill="rgb(63, 238, 115)" opacity="0.5301612" stroke-width="2.0"/>
    <path d="M 47.400001525878906 27.000001907348633 C 47.334083557128906 25.561607360839844 46.438385009765625 24.66591453552246 45.0 24.600004196166992 C 43.561614990234375 24.66591453552246 42.665916442871094 25.561607360839844 42.599998474121094 27.000001907348633 C 42.665916442871094 28.43839454650879 43.561614990234375 29.334081649780273 45.0 29.399999618530273 C 46.438385009765625 29.334081649780273 47.334083557128906 28.43839454650879 47.400001525878906 27.000001907348633" fill="rgb(1, 36, 120)" opacity="0.37734744" stroke-width="2.0"/>
    <path d="M 167.39999389648438 213.0 C 167.33407592773438 211.5615997314453 166.4384002685547 210.66592407226562 165.0 210.60000610351562 C 163.5615997314453 210.66592407226562 162.66592407226562 211.5615997314453 162.60000610351562 213.0 C 162.66592407226562 214.43838500976562 163.5615997314453 215.33407592773438 165.0 215.39999389648438 C 166.4384002685547 215.33407592773438 167.33407592773438 214.43838500976562 167.39999389648438 213.0" fill="rgb(41, 142, 36)" opacity="0.93730706" stroke-width="2.0"/>
  </g>
</svg>
