<?xml version="1.0" ?>
<svg height="240" version="1.1" width="240" xmlns="http://www.w3.org/2000/svg">
  <defs/>
  <g>
    <path d="M 239.45828247070312 67.78205871582031 C 244.2708282470703 22.82750129699707 104.34876251220703 -0.15063878893852234 26.269201278686523 35.718868255615234 C -3.5857484340667725 52.8743782043457 -2.238619327545166 57.242919921875 3.7288014888763428 108.10581970214844 C 28.531084060668945 255.84979248046875 154.46739196777344 220.1078643798828 166.7066650390625 213.17124938964844 C 221.9739532470703 190.22665405273438 238.98834228515625 123.92317199707031 239.45828247070312 67.78205871582031" fill="rgb(251, 186, 0)" opacity="0.8926569" stroke-width="2.0"/>
    <path d="M 93.29582214355469 140.18052673339844 C 95.91361236572266 127.35979461669922 86.73072052001953 115.04281616210938 75.37464141845703 117.66573333740234 C 71.02481842041016 118.70201110839844 63.3403205871582 124.3115005493164 63.17168426513672 136.130126953125 C 63.66603469848633 149.1656951904297 73.74960327148438 152.334716796875 69.2790298461914 150.2877655029297 C 80.17578125 158.67068481445312 90.97097778320312 150.90472412109375 93.29582214355469 140.18052673339844" fill="rgb(12, 22, 50)" opacity="0.8536262" stroke-width="2.0"/>
    <path d="M 176.15036010742188 140.23968505859375 C 179.02784729003906 127.63307189941406 169.9016571044922 114.76649475097656 158.11083984375 117.84782409667969 C 150.06002807617188 120.03999328613281 144.03848266601562 129.79840087890625 146.94287109375 141.11929321289062 C 150.38577270507812 152.84738159179688 159.72134399414062 153.5187225341797 155.3586883544922 152.19525146484375 C 163.04296875 156.38824462890625 173.24163818359375 152.10772705078125 176.15036010742188 140.23968505859375" fill="rgb(0, 13, 51)" opacity="0.81398743" stroke-width="2.0"/>
    <path d="M 157.86778259277344 84.48991394042969 C 174.998291015625 78.49413299560547 151.97958374023438 62.93855667114258 131.6478729248047 58.99267578125 C 99.8310775756836 52.93400192260742 71.7027359008789 74.18498229980469 75.87454986572266 80.05464935302734 C 84.92684173583984 93.22127532958984 84.89876556396484 72.78494262695312 116.2509536743164 70.24176788330078 C 145.16029357910156 68.95409393310547 153.08596801757812 85.06983184814453 157.86778259277344 84.48991394042969" fill="rgb(0, 12, 51)" opacity="0.81682223" stroke-width="2.0"/>
  </g>
</svg>
