<?xml version="1.0" ?>
<svg height="480" version="1.1" width="640" xmlns="http://www.w3.org/2000/svg">
  <defs/>
  <g>
    <path d="M 653.3026123046875 311.623779296875 C 651.7780151367188 413.616943359375 653.1438598632812 425.1966552734375 636.0569458007812 496.570556640625 C 524.7650146484375 498.26861572265625 572.370849609375 487.7651062011719 609.4923706054688 465.3579406738281 C 566.9144287109375 484.923095703125 586.0435180664062 514.6511840820312 22.06606101989746 484.69036865234375 C 138.1917266845703 -10.877885818481445 317.3501892089844 93.19412994384766 422.7624816894531 307.9861145019531 C 462.1291198730469 251.0548553466797 364.7156677246094 308.9016418457031 217.1259765625 -19.194238662719727 C 911.9019165039062 -12.431818962097168 833.6921997070312 68.74796295166016 700.9757080078125 219.10948181152344 C 569.9514770507812 309.2330322265625 588.7745361328125 295.0254821777344 639.6929321289062 261.02618408203125 C 652.8502807617188 288.5293273925781 650.0947875976562 287.956298828125 653.3026123046875 311.623779296875" fill="rgb(107, 109, 103)" opacity="0.9620308" stroke="rgb(47, 107, 81)" stroke-linecap="round" stroke-linejoin="round" stroke-opacity="0.6581865" stroke-width="0.0"/>
    <path d="M 157.76673889160156 337.5187072753906 C 106.77299499511719 296.3273010253906 165.57952880859375 303.52349853515625 343.7466125488281 508.6702880859375 C -207.30026245117188 485.0258483886719 -152.7303924560547 417.7037048339844 -46.02174758911133 346.7708740234375 C 50.57695007324219 292.9225158691406 26.581274032592773 306.033935546875 -5.449329853057861 324.26507568359375 C -10.802903175354004 266.1302185058594 -6.10710334777832 288.7419738769531 -11.226627349853516 280.01171875 C -14.354337692260742 238.2805633544922 -21.120159149169922 179.3521270751953 -8.030742645263672 19.87425994873047 C 181.2101593017578 93.14667510986328 67.04224395751953 132.5323028564453 45.1237678527832 189.6454315185547 C 103.70803833007812 124.76404571533203 0.8478007912635803 109.2155990600586 124.59896850585938 113.08219909667969 C 139.51173400878906 263.50006103515625 123.53404235839844 317.0041198730469 157.76673889160156 337.5187072753906" fill="rgb(33, 79, 0)" opacity="0.48336613" stroke="rgb(24, 205, 141)" stroke-linecap="round" stroke-linejoin="round" stroke-opacity="0.16433023" stroke-width="0.0"/>
    <path d="M 300.89984130859375 17.74773597717285 C 298.5624694824219 63.659568786621094 303.24627685546875 69.730712890625 400.12469482421875 77.93283081054688 C 701.8743896484375 -106.3648452758789 646.1298828125 54.426231384277344 434.3135986328125 105.31233215332031 C 70.88046264648438 274.1983337402344 116.32817840576172 198.1802520751953 155.3310089111328 116.60008239746094 C 49.441162109375 147.37759399414062 -9.975495338439941 151.8964385986328 -10.162729263305664 -43.79348373413086 C 115.47280883789062 -43.303714752197266 133.68206787109375 -23.989219665527344 151.5234375 -15.139436721801758 C 211.1370086669922 -5.13960599899292 221.46786499023438 -1.2986292839050293 194.89077758789062 -10.513113975524902 C 197.0776824951172 -11.348499298095703 212.26608276367188 -10.85505485534668 256.5381774902344 -10.32954216003418 C 261.8639831542969 -6.703489780426025 271.95880126953125 -31.785335540771484 300.89984130859375 17.74773597717285" fill="rgb(141, 155, 190)" opacity="0.84516245" stroke="rgb(152, 173, 203)" stroke-linecap="round" stroke-linejoin="round" stroke-opacity="0.997595" stroke-width="0.0"/>
    <path d="M 257.7980651855469 209.36489868164062 C 252.42605590820312 187.6221466064453 213.36196899414062 271.0706481933594 179.7383575439453 217.16165161132812 C 239.04067993164062 200.7929229736328 181.83633422851562 176.07354736328125 200.00949096679688 211.08485412597656 C 175.32730102539062 221.65574645996094 172.6907196044922 203.8795166015625 143.2471923828125 305.75750732421875 C 144.8419189453125 232.5464324951172 131.3678741455078 186.48219299316406 127.25326538085938 146.17947387695312 C 145.9072265625 146.9302215576172 138.40151977539062 146.47996520996094 142.17532348632812 140.4621124267578 C 121.78286743164062 128.88552856445312 86.83930969238281 115.15874481201172 119.78514862060547 97.17050170898438 C 242.62149047851562 115.76771545410156 229.67312622070312 103.39884948730469 259.2765808105469 103.83378601074219 C 267.932373046875 96.00594329833984 256.09759521484375 55.22153091430664 257.7980651855469 209.36489868164062" fill="rgb(202, 200, 199)" opacity="0.66301197" stroke="rgb(137, 10, 120)" stroke-linecap="round" stroke-linejoin="round" stroke-opacity="0.52441484" stroke-width="0.0"/>
    <path d="M 640.4904174804688 276.5323181152344 C 651.758056640625 349.7052307128906 654.9442138671875 371.35162353515625 657.0885620117188 489.9836120605469 C 620.954345703125 480.9809265136719 640.7819213867188 471.84619140625 635.7099609375 492.61175537109375 C 474.7796936035156 495.5920715332031 465.41015625 501.9775390625 377.1912841796875 457.07489013671875 C 323.51116943359375 459.4603271484375 422.7529602050781 430.09893798828125 508.2591247558594 421.8343200683594 C 455.7285461425781 303.6800537109375 395.46624755859375 487.8427429199219 435.2264709472656 297.62945556640625 C 432.6641540527344 121.90104675292969 404.8729248046875 78.10858917236328 639.223876953125 33.958309173583984 C 662.8447875976562 352.4750671386719 599.9849243164062 360.39544677734375 589.0308227539062 357.22430419921875 C 609.0633544921875 350.20831298828125 631.183349609375 351.76568603515625 640.4904174804688 276.5323181152344" fill="rgb(0, 17, 23)" opacity="0.5074522" stroke="rgb(34, 16, 78)" stroke-linecap="round" stroke-linejoin="round" stroke-opacity="0.57891494" stroke-width="0.0"/>
    <path d="M 60.14141082763672 72.26111602783203 C 7.271238327026367 92.80753326416016 32.340858459472656 98.78589630126953 52.16364288330078 93.83064270019531 C 59.4290885925293 119.56550598144531 -11.324289321899414 106.62530517578125 51.704429626464844 128.23239135742188 C 39.864967346191406 147.31051635742188 -58.88700485229492 123.23189544677734 -12.45734691619873 125.380615234375 C -8.45546817779541 107.26679992675781 -8.763927459716797 107.48588562011719 -10.447381019592285 85.87224578857422 C -11.143052101135254 59.18357467651367 -11.158902168273926 58.539058685302734 -11.534364700317383 44.12417984008789 C -44.41445541381836 28.850051879882812 -46.8380126953125 10.668583869934082 45.62031936645508 -13.833001136779785 C 21.97511100769043 43.21249771118164 52.18513107299805 -9.015069007873535 43.10601806640625 51.718017578125 C 75.83814239501953 68.52352142333984 17.24832534790039 72.76780700683594 60.14141082763672 72.26111602783203" fill="rgb(18, 28, 19)" opacity="0.8195775" stroke="rgb(9, 186, 244)" stroke-linecap="round" stroke-linejoin="round" stroke-opacity="0.2599157" stroke-width="0.0"/>
    <path d="M 71.52046203613281 431.78118896484375 C 71.8528823852539 432.2113952636719 82.36906433105469 395.172607421875 124.63702392578125 473.2328186035156 C 2.278543710708618 455.6536560058594 55.80909729003906 510.3328552246094 -10.37944507598877 475.2535095214844 C 1.705155849456787 435.8956604003906 0.3286857604980469 436.79541015625 -10.095121383666992 441.104736328125 C -11.031121253967285 424.16253662109375 -4.455327033996582 418.5920104980469 -3.666604995727539 418.79180908203125 C -3.7453079223632812 405.8818359375 -10.58908462524414 423.1036376953125 -12.097755432128906 375.1612854003906 C -0.5503752827644348 373.6828918457031 6.4693427085876465 372.48126220703125 -43.526634216308594 354.54779052734375 C -49.212974548339844 327.0259094238281 7.642326831817627 309.53472900390625 84.71307373046875 334.30621337890625 C 108.94822692871094 363.3310546875 112.01234436035156 429.55865478515625 71.52046203613281 431.78118896484375" fill="rgb(35, 59, 17)" opacity="1.0" stroke="rgb(187, 116, 230)" stroke-linecap="round" stroke-linejoin="round" stroke-opacity="0.03235535" stroke-width="0.0"/>
    <path d="M 118.4087142944336 261.6896667480469 C 57.2650032043457 242.91885375976562 40.39457702636719 281.94879150390625 37.44322967529297 259.9902648925781 C 24.24123191833496 285.05609130859375 111.77743530273438 219.91615295410156 112.00682067871094 304.9199523925781 C -37.5825309753418 381.0831604003906 -7.534847736358643 335.6260986328125 -9.948647499084473 271.18768310546875 C -8.59624195098877 255.29421997070312 -9.772638320922852 253.4723358154297 -9.682596206665039 248.6126251220703 C -10.861170768737793 215.41384887695312 -10.976547241210938 212.50450134277344 -31.562992095947266 158.04664611816406 C 64.4682846069336 89.1661148071289 -13.211074829101562 117.93833923339844 59.7345085144043 182.53128051757812 C 64.07994079589844 186.35006713867188 19.000455856323242 183.1094512939453 58.799991607666016 206.05816650390625 C 80.82115936279297 199.2455596923828 121.97124481201172 7.631872177124023 118.4087142944336 261.6896667480469" fill="rgb(61, 63, 50)" opacity="0.71086484" stroke="rgb(16, 179, 19)" stroke-linecap="round" stroke-linejoin="round" stroke-opacity="0.70934993" stroke-width="0.0"/>
    <path d="M 403.3267517089844 256.7772216796875 C 419.7333679199219 272.6475524902344 419.3187561035156 266.8437805175781 408.8733825683594 277.0648498535156 C 419.28387451171875 289.9780578613281 376.4649658203125 328.6813049316406 396.94586181640625 353.2377624511719 C 264.85784912109375 371.2745361328125 471.51025390625 356.01275634765625 301.0785827636719 372.7511291503906 C 320.4427490234375 216.3404541015625 331.2998046875 282.17523193359375 334.7856750488281 246.69395446777344 C 300.8049011230469 231.58059692382812 350.22491455078125 245.5428924560547 318.3497619628906 163.89071655273438 C 405.7217102050781 188.81910705566406 344.16510009765625 210.03480529785156 372.7759704589844 210.45750427246094 C 323.5384521484375 184.90855407714844 316.8375244140625 128.39414978027344 434.6487121582031 139.6190643310547 C 401.5719909667969 228.5310516357422 418.2116394042969 225.663330078125 403.3267517089844 256.7772216796875" fill="rgb(72, 75, 92)" opacity="0.89707214" stroke="rgb(235, 132, 4)" stroke-linecap="round" stroke-linejoin="round" stroke-opacity="0.78896534" stroke-width="0.0"/>
    <path d="M 246.8632049560547 67.39118957519531 C 374.481201171875 -143.7484588623047 554.3070068359375 -201.21168518066406 527.16796875 61.27470397949219 C 341.6158447265625 139.06492614746094 215.37477111816406 38.21770095825195 173.12301635742188 96.7503662109375 C 174.2989959716797 112.99507141113281 155.0362091064453 85.63595581054688 165.0523223876953 142.35498046875 C 135.7957000732422 80.6141586303711 170.6063232421875 51.114166259765625 185.71656799316406 37.896427154541016 C 176.02674865722656 5.263724327087402 165.49383544921875 16.964353561401367 157.366943359375 -6.745418548583984 C 164.50416564941406 -13.891413688659668 168.6192626953125 -9.899420738220215 185.0668182373047 -10.708806037902832 C 230.51904296875 -14.249221801757812 239.95750427246094 -11.38815975189209 238.2362823486328 3.185516595840454 C 268.74725341796875 40.41150665283203 239.38555908203125 3.5290489196777344 246.8632049560547 67.39118957519531" fill="rgb(70, 105, 194)" opacity="0.63068897" stroke="rgb(17, 216, 243)" stroke-linecap="round" stroke-linejoin="round" stroke-opacity="0.1696802" stroke-width="0.0"/>
    <path d="M 276.87603759765625 301.0726623535156 C 291.83697509765625 305.856689453125 298.6264343261719 264.0367431640625 281.038818359375 310.6822509765625 C 249.5790252685547 307.7843322753906 250.8972625732422 321.09185791015625 242.82003784179688 331.5496826171875 C 210.1729278564453 341.5583801269531 172.92169189453125 341.88531494140625 174.61277770996094 317.2943115234375 C 158.0825958251953 361.5465393066406 142.71258544921875 250.9654083251953 174.99276733398438 261.88983154296875 C 203.59710693359375 247.11428833007812 231.7731475830078 311.33837890625 208.5216827392578 271.53485107421875 C 175.97659301757812 251.54669189453125 206.0981903076172 240.42453002929688 202.05836486816406 259.6963806152344 C 176.2322235107422 245.1788787841797 230.9278106689453 233.77552795410156 302.2150573730469 194.34722900390625 C 314.98345947265625 278.33355712890625 325.39697265625 260.2318115234375 276.87603759765625 301.0726623535156" fill="rgb(171, 159, 148)" opacity="0.76694256" stroke="rgb(79, 25, 13)" stroke-linecap="round" stroke-linejoin="round" stroke-opacity="0.006509193" stroke-width="0.0"/>
    <path d="M 476.2605285644531 89.57549285888672 C 504.3833312988281 63.10920333862305 476.8366394042969 81.73572540283203 473.895263671875 79.07373809814453 C 440.4767761230469 112.72237396240234 463.49755859375 114.20722961425781 439.7708435058594 113.46231079101562 C 436.75970458984375 126.1895523071289 456.8929138183594 148.18905639648438 399.3956604003906 126.07359313964844 C 377.9887390136719 126.11409759521484 379.390625 89.32738494873047 400.3713684082031 100.02613830566406 C 418.2829895019531 79.5130386352539 411.5534973144531 62.88050079345703 435.2642822265625 44.28095245361328 C 423.8155212402344 46.39055252075195 440.7388610839844 37.388572692871094 459.1209411621094 39.7274169921875 C 454.32373046875 43.74264144897461 480.08428955078125 67.83517456054688 623.4686889648438 -87.8992919921875 C 629.950439453125 56.08430099487305 518.6578979492188 35.424373626708984 476.2605285644531 89.57549285888672" fill="rgb(192, 207, 241)" opacity="0.6562277" stroke="rgb(153, 6, 249)" stroke-linecap="round" stroke-linejoin="round" stroke-opacity="0.56042904" stroke-width="0.0"/>
    <path d="M 440.19915771484375 311.24542236328125 C 436.0351257324219 311.5146484375 430.1654968261719 328.744384765625 438.8408508300781 322.196533203125 C 414.434814453125 342.54559326171875 441.4875793457031 328.9069519042969 393.4006652832031 341.8256530761719 C 400.307373046875 304.25 419.9348449707031 360.7101135253906 408.19384765625 313.37493896484375 C 410.6421813964844 337.1730041503906 399.71807861328125 336.2751159667969 402.6199951171875 307.388671875 C 381.0184631347656 313.7868347167969 422.7321472167969 247.3893280029297 393.3030700683594 298.1412048339844 C 415.9337158203125 284.7196960449219 407.1204528808594 190.37454223632812 436.87225341796875 138.1009063720703 C 420.6961364746094 274.35577392578125 446.1831970214844 311.6737365722656 430.28582763671875 289.9921569824219 C 436.2024841308594 259.19378662109375 429.1421813964844 266.4925231933594 440.19915771484375 311.24542236328125" fill="rgb(181, 203, 247)" opacity="0.68910676" stroke="rgb(152, 200, 14)" stroke-linecap="round" stroke-linejoin="round" stroke-opacity="0.59780794" stroke-width="0.0"/>
    <path d="M 431.0372314453125 131.24256896972656 C 394.0806579589844 124.5331039428711 361.15142822265625 129.19468688964844 372.1478271484375 131.97308349609375 C 333.979248046875 135.02967834472656 371.86175537109375 126.32268524169922 332.946044921875 147.7382049560547 C 243.93258666992188 142.9922332763672 324.3941650390625 143.91876220703125 324.32379150390625 149.3219451904297 C 261.0560607910156 180.54344177246094 268.6880798339844 162.53271484375 284.09942626953125 83.53926086425781 C 316.3201904296875 82.06046295166016 320.21722412109375 87.02284240722656 328.840087890625 106.62307739257812 C 353.5529479980469 87.78128814697266 358.4541931152344 112.81354522705078 324.6691589355469 107.8219985961914 C 370.3407897949219 86.6054458618164 358.2261047363281 66.95259094238281 383.8575744628906 88.4183120727539 C 356.6547546386719 111.35685729980469 439.1853332519531 64.0535659790039 431.0372314453125 131.24256896972656" fill="rgb(188, 206, 252)" opacity="0.6164408" stroke="rgb(139, 218, 13)" stroke-linecap="round" stroke-linejoin="round" stroke-opacity="0.41000405" stroke-width="0.0"/>
    <path d="M 115.38412475585938 99.73680877685547 C 117.4677734375 115.56268310546875 106.95073699951172 90.33193969726562 119.24002075195312 134.5831756591797 C 118.2765884399414 128.7042236328125 89.01407623291016 134.3857879638672 99.16363525390625 124.46581268310547 C 109.31401062011719 94.82149505615234 83.05350494384766 124.3227310180664 109.31658935546875 156.12088012695312 C 57.200069427490234 162.10427856445312 96.51600646972656 109.2618408203125 82.97428894042969 111.98412322998047 C 104.37786865234375 110.75125122070312 77.6686019897461 102.26567077636719 95.23534393310547 98.95022583007812 C 96.78751373291016 116.90805053710938 106.72872161865234 109.19287872314453 102.60843658447266 98.22742462158203 C 84.73387908935547 103.01129150390625 111.49585723876953 72.44886779785156 106.15194702148438 91.96590423583984 C 111.78390502929688 95.7447509765625 126.39500427246094 95.00801849365234 115.38412475585938 99.73680877685547" fill="rgb(49, 56, 41)" opacity="0.73571587" stroke="rgb(248, 63, 190)" stroke-linecap="round" stroke-linejoin="round" stroke-opacity="0.7295165" stroke-width="0.0"/>
    <path d="M 633.357666015625 398.8449401855469 C 640.4885864257812 413.1878967285156 615.0708618164062 426.7393798828125 648.1356811523438 411.66656494140625 C 674.4769287109375 478.4761962890625 693.3931884765625 493.1929016113281 436.70111083984375 494.9270935058594 C 419.465087890625 438.57470703125 436.76849365234375 421.186767578125 558.6066284179688 414.5180358886719 C 491.6390075683594 411.940673828125 527.7176513671875 453.68182373046875 460.8150329589844 317.4815368652344 C 519.0948486328125 202.55921936035156 594.8292846679688 257.21905517578125 584.8418579101562 381.0585021972656 C 626.5704956054688 392.5326232910156 538.4976196289062 265.75152587890625 581.2362060546875 236.09185791015625 C 745.331298828125 224.55828857421875 668.4141845703125 313.1561584472656 654.9857177734375 382.3993835449219 C 648.6598510742188 380.4836120605469 615.8705444335938 387.1486511230469 633.357666015625 398.8449401855469" fill="rgb(24, 44, 0)" opacity="0.67812186" stroke="rgb(202, 67, 174)" stroke-linecap="round" stroke-linejoin="round" stroke-opacity="0.20147854" stroke-width="0.0"/>
    <path d="M 42.809669494628906 194.1190185546875 C 92.46758270263672 262.73968505859375 100.4291000366211 282.72186279296875 60.323211669921875 247.6327362060547 C 17.585798263549805 251.73057556152344 37.39187240600586 265.2734069824219 40.354583740234375 257.1831359863281 C 19.25953483581543 270.7831726074219 22.45824432373047 275.0674743652344 -11.049556732177734 267.8544006347656 C -5.014675140380859 212.14395141601562 -6.401987552642822 221.7919158935547 -11.994969367980957 230.47772216796875 C -10.788798332214355 193.7989959716797 -10.051575660705566 192.18186950683594 -9.339141845703125 175.5469970703125 C -35.38015365600586 143.2207489013672 -34.7281379699707 118.79832458496094 29.444087982177734 54.5586051940918 C 6.08914041519165 230.36883544921875 65.36373901367188 111.2462158203125 27.482751846313477 204.8077850341797 C 12.375467300415039 205.085205078125 48.6848258972168 208.6084747314453 42.809669494628906 194.1190185546875" fill="rgb(14, 23, 6)" opacity="0.7450677" stroke="rgb(22, 52, 115)" stroke-linecap="round" stroke-linejoin="round" stroke-opacity="0.5780977" stroke-width="0.0"/>
    <path d="M 426.3589782714844 406.05792236328125 C 459.7415466308594 383.45562744140625 451.7853088378906 402.6459045410156 442.168701171875 434.4986877441406 C 416.6360778808594 441.2392578125 450.3829345703125 412.8819274902344 415.8880310058594 425.9397888183594 C 405.53289794921875 424.5870361328125 435.0556945800781 419.22705078125 396.6839599609375 417.9850158691406 C 387.55157470703125 417.6146240234375 430.36810302734375 480.5164794921875 361.68328857421875 417.05596923828125 C 439.8816223144531 401.5439147949219 366.8669738769531 397.26190185546875 435.59869384765625 392.28094482421875 C 416.8534851074219 406.1358337402344 418.228271484375 396.06768798828125 411.8251953125 415.94708251953125 C 414.2477722167969 407.9429931640625 415.8717346191406 405.55889892578125 412.70654296875 410.0610046386719 C 411.8185119628906 408.687744140625 435.43499755859375 416.8518981933594 426.3589782714844 406.05792236328125" fill="rgb(255, 231, 201)" opacity="0.5005059" stroke="rgb(143, 248, 118)" stroke-linecap="round" stroke-linejoin="round" stroke-opacity="0.51379657" stroke-width="0.0"/>
    <path d="M 93.60596466064453 97.93140411376953 C 76.2242431640625 119.78752899169922 99.46196746826172 122.39844512939453 82.60850524902344 122.74116516113281 C 86.84066009521484 138.0807647705078 102.9720230102539 149.2240447998047 42.08412551879883 121.94302368164062 C 60.792728424072266 102.67652130126953 55.62105941772461 125.5465087890625 65.06482696533203 113.48523712158203 C 64.14471435546875 102.31439208984375 59.78886032104492 111.30616760253906 63.90436935424805 105.9893798828125 C 64.18253326416016 111.28486633300781 65.40156555175781 108.6861572265625 64.40379333496094 108.56855773925781 C 62.62363052368164 102.13748931884766 79.29261779785156 86.88644409179688 48.611690521240234 90.1651840209961 C -6.618746757507324 110.145263671875 88.99168395996094 37.937870025634766 88.63294982910156 86.00171661376953 C 104.83103942871094 51.55125427246094 94.04532623291016 111.73673248291016 93.60596466064453 97.93140411376953" fill="rgb(255, 254, 253)" opacity="0.5811488" stroke="rgb(189, 188, 40)" stroke-linecap="round" stroke-linejoin="round" stroke-opacity="0.36173832" stroke-width="0.0"/>
    <path d="M 334.4219665527344 441.2099914550781 C 328.5271911621094 466.3817443847656 321.2238464355469 434.938232421875 323.6372375488281 459.6767578125 C 310.2454528808594 457.8125305175781 333.6129150390625 464.0014343261719 330.5235595703125 490.1258850097656 C 268.64154052734375 484.4034423828125 313.1989440917969 497.78997802734375 307.0976867675781 455.4811706542969 C 291.5254821777344 452.4057922363281 313.6026611328125 438.6885681152344 280.1239929199219 455.1289367675781 C 281.6474914550781 426.1183776855469 289.464599609375 426.1027526855469 313.8952941894531 437.1273498535156 C 323.26715087890625 431.76812744140625 340.14447021484375 431.5500793457031 293.5338439941406 436.7928466796875 C 325.4487609863281 426.15509033203125 286.5762023925781 438.58795166015625 351.25689697265625 432.7936706542969 C 339.57037353515625 427.0090026855469 402.8943786621094 424.7667541503906 334.4219665527344 441.2099914550781" fill="rgb(10, 17, 0)" opacity="0.592616" stroke="rgb(12, 101, 200)" stroke-linecap="round" stroke-linejoin="round" stroke-opacity="0.80148846" stroke-width="0.0"/>
    <path d="M 127.62853240966797 20.73622703552246 C 180.95565795898438 -3.026571035385132 169.7158966064453 81.1572265625 129.86843872070312 54.367393493652344 C 115.74486541748047 72.39429473876953 91.51586151123047 65.27552032470703 46.541934967041016 55.683860778808594 C 39.717159271240234 14.224283218383789 41.60203170776367 65.58653259277344 30.64933967590332 49.29972839355469 C 25.148618698120117 -6.041125774383545 49.81183624267578 77.09042358398438 40.724552154541016 1.863558292388916 C 26.709461212158203 -1.5624076128005981 32.398468017578125 15.18507194519043 32.85828399658203 -21.38486099243164 C 52.166603088378906 -8.64831829071045 53.480316162109375 -9.03812313079834 66.990234375 -8.757171630859375 C 84.33164978027344 -9.47514820098877 86.10065460205078 -9.315627098083496 92.52716827392578 -7.769988059997559 C 105.98660278320312 -23.109691619873047 120.22241973876953 -59.11465835571289 127.62853240966797 20.73622703552246" fill="rgb(214, 218, 236)" opacity="0.5410422" stroke="rgb(190, 165, 148)" stroke-linecap="round" stroke-linejoin="round" stroke-opacity="0.14827795" stroke-width="0.0"/>
    <path d="M 412.7969970703125 222.10110473632812 C 413.6923522949219 231.47024536132812 402.3828125 233.42344665527344 404.32440185546875 269.2095031738281 C 391.51580810546875 276.2834777832031 408.1189880371094 250.52120971679688 377.8310852050781 347.3549499511719 C 321.6049499511719 376.3017883300781 334.4838562011719 300.48028564453125 368.4187316894531 248.52345275878906 C 369.23626708984375 195.246337890625 365.4618225097656 211.74278259277344 373.2054748535156 231.48355102539062 C 366.5655212402344 234.0355682373047 383.226318359375 188.88473510742188 391.9117431640625 199.988525390625 C 382.46783447265625 205.53042602539062 362.2986755371094 203.0028533935547 386.5467224121094 204.7498321533203 C 403.6567077636719 160.68356323242188 401.45068359375 167.70367431640625 429.8749084472656 146.45936584472656 C 404.6674499511719 228.06942749023438 412.7088928222656 220.5011749267578 412.7969970703125 222.10110473632812" fill="rgb(31, 41, 64)" opacity="1.0" stroke="rgb(178, 117, 185)" stroke-linecap="round" stroke-linejoin="round" stroke-opacity="0.9318755" stroke-width="0.0"/>
    <path d="M 258.8970642089844 110.69354248046875 C 227.6370849609375 233.65863037109375 239.5076141357422 201.71299743652344 207.20187377929688 188.50048828125 C 199.33389282226562 186.3641815185547 162.24114990234375 199.68328857421875 175.23516845703125 203.46868896484375 C 113.30098724365234 190.13946533203125 169.97227478027344 200.94308471679688 138.99082946777344 198.51783752441406 C 97.01376342773438 236.35531616210938 139.74356079101562 201.02645874023438 139.50735473632812 172.77354431152344 C 125.61397552490234 174.25872802734375 138.4951934814453 163.70187377929688 107.17961883544922 63.976165771484375 C 170.0028076171875 136.12796020507812 163.859130859375 163.40060424804688 169.81517028808594 153.57366943359375 C 163.40704345703125 123.42632293701172 203.83216857910156 162.3726348876953 191.15074157714844 125.09823608398438 C 250.32627868652344 165.64450073242188 199.05149841308594 108.65773010253906 258.8970642089844 110.69354248046875" fill="rgb(255, 255, 255)" opacity="0.58004206" stroke="rgb(175, 114, 6)" stroke-linecap="round" stroke-linejoin="round" stroke-opacity="0.39470664" stroke-width="0.0"/>
    <path d="M 301.9516296386719 412.6217346191406 C 306.9190979003906 428.5809631347656 351.6286926269531 408.4874267578125 315.4554443359375 432.6707763671875 C 293.5081787109375 431.0677185058594 341.37298583984375 414.2743225097656 285.0165100097656 423.8266296386719 C 276.3230895996094 427.66064453125 283.28692626953125 443.19775390625 265.7379150390625 424.75201416015625 C 279.9315490722656 401.69183349609375 318.5086669921875 438.335205078125 287.5933837890625 409.97442626953125 C 293.43109130859375 416.3650817871094 263.6809387207031 422.9227294921875 277.009521484375 407.3680114746094 C 299.6552734375 394.3298645019531 274.2272644042969 399.92266845703125 298.648681640625 388.1022644042969 C 280.5773620605469 401.2262878417969 302.4247131347656 386.7310791015625 302.4355773925781 406.5278015136719 C 308.4855041503906 405.1946105957031 300.5375671386719 398.9248352050781 301.9516296386719 412.6217346191406" fill="rgb(18, 24, 18)" opacity="0.7817272" stroke="rgb(147, 209, 88)" stroke-linecap="round" stroke-linejoin="round" stroke-opacity="0.4985597" stroke-width="0.0"/>
    <path d="M 266.93841552734375 268.3471374511719 C 263.8555603027344 248.74600219726562 260.72991943359375 263.9163818359375 263.7110290527344 278.6133117675781 C 268.7305908203125 300.7501220703125 258.5853576660156 320.8881530761719 225.85826110839844 309.2784729003906 C 238.27572631835938 274.4779357910156 260.7662048339844 261.5238952636719 243.80995178222656 273.478271484375 C 230.4019775390625 245.78509521484375 252.23928833007812 277.5224304199219 251.81112670898438 258.78143310546875 C 245.04786682128906 272.3358154296875 228.900390625 252.43043518066406 250.7852020263672 250.04905700683594 C 243.9986572265625 260.91656494140625 262.9071350097656 265.1999816894531 248.3232879638672 256.16412353515625 C 261.1305236816406 215.4624786376953 260.9417419433594 218.4138641357422 271.51263427734375 246.38272094726562 C 262.7788391113281 239.95361328125 255.95150756835938 274.57366943359375 266.93841552734375 268.3471374511719" fill="rgb(205, 195, 176)" opacity="0.92710817" stroke="rgb(111, 99, 241)" stroke-linecap="round" stroke-linejoin="round" stroke-opacity="0.0783353" stroke-width="0.0"/>
    <path d="M 69.28782653808594 192.76356506347656 C 55.214393615722656 205.29046630859375 65.24132537841797 186.5715789794922 73.64187622070312 204.66639709472656 C 62.40724563598633 199.1804656982422 61.392669677734375 208.418212890625 64.46735382080078 194.6776885986328 C 45.29326248168945 218.71954345703125 50.032562255859375 198.97962951660156 56.254920959472656 202.66293334960938 C 61.40100860595703 194.16690063476562 50.322654724121094 197.41180419921875 53.19147491455078 191.43746948242188 C 65.21586608886719 194.77317810058594 46.14533233642578 188.3570098876953 57.88412857055664 189.7871551513672 C 69.6833267211914 167.54006958007812 40.310821533203125 186.8417510986328 55.03960037231445 187.50350952148438 C 70.66661834716797 186.4617919921875 64.14213562011719 191.40626525878906 71.04045867919922 190.80332946777344 C 77.86099243164062 180.37266540527344 60.78761672973633 196.5396728515625 69.28782653808594 192.76356506347656" fill="rgb(0, 0, 17)" opacity="0.7012349" stroke="rgb(108, 241, 250)" stroke-linecap="round" stroke-linejoin="round" stroke-opacity="0.8702847" stroke-width="0.0"/>
    <path d="M 233.080078125 254.302734375 C 276.5678405761719 331.0541687011719 201.5771942138672 301.6981506347656 222.6773223876953 327.1797180175781 C 220.3659210205078 339.82318115234375 189.53680419921875 316.60107421875 197.89976501464844 318.4622802734375 C 217.1269073486328 323.3467712402344 204.34243774414062 319.1331481933594 183.63002014160156 319.1809997558594 C 204.65647888183594 317.9361267089844 192.6945037841797 278.9580993652344 195.95713806152344 330.37713623046875 C 199.35714721679688 308.458740234375 186.07177734375 302.6559753417969 171.64730834960938 288.8118896484375 C 230.56175231933594 271.9697265625 180.2068328857422 286.3060607910156 215.6923370361328 281.2882995605469 C 206.31179809570312 283.06011962890625 219.5343780517578 315.7705993652344 212.28201293945312 290.05926513671875 C 220.20985412597656 262.8190612792969 206.29800415039062 253.61947631835938 233.080078125 254.302734375" fill="rgb(203, 188, 168)" opacity="0.9206349" stroke="rgb(112, 10, 73)" stroke-linecap="round" stroke-linejoin="round" stroke-opacity="0.46107435" stroke-width="0.0"/>
    <path d="M 473.9864196777344 387.0255432128906 C 480.46893310546875 386.60858154296875 485.0987854003906 396.6324462890625 479.4588928222656 411.79644775390625 C 463.1069641113281 400.8670349121094 470.49530029296875 400.814208984375 467.8176574707031 396.7772216796875 C 467.670166015625 393.2650146484375 465.4823303222656 400.8363037109375 467.6519775390625 396.02325439453125 C 466.4499816894531 387.406005859375 462.4872131347656 394.01788330078125 465.683837890625 396.3750915527344 C 466.1082763671875 393.77410888671875 473.2120056152344 402.6916809082031 467.7929992675781 398.0194396972656 C 467.7244567871094 388.4385681152344 459.0299072265625 388.9882507324219 467.6925354003906 387.6490478515625 C 461.5196228027344 380.1294860839844 485.5207214355469 398.8957214355469 464.497802734375 374.964111328125 C 472.6570739746094 370.61126708984375 479.94122314453125 396.1898498535156 473.9864196777344 387.0255432128906" fill="rgb(185, 177, 160)" opacity="0.8927718" stroke="rgb(102, 34, 217)" stroke-linecap="round" stroke-linejoin="round" stroke-opacity="0.118706174" stroke-width="0.0"/>
    <path d="M 654.6857299804688 427.63616943359375 C 595.1442260742188 671.90869140625 437.5653991699219 510.7333984375 410.0823974609375 488.6922607421875 C 407.0500793457031 486.3712158203125 405.2174377441406 486.943359375 397.95111083984375 482.64532470703125 C 391.7107238769531 476.0578308105469 384.9571838378906 487.580322265625 368.6663513183594 494.5355224609375 C 365.41339111328125 483.0501403808594 377.8581237792969 478.64300537109375 368.9322204589844 477.3864440917969 C 381.4357604980469 465.9476318359375 392.8196716308594 469.76641845703125 382.44598388671875 466.0325927734375 C 387.7783508300781 464.88177490234375 400.78277587890625 437.111083984375 393.02703857421875 464.3901672363281 C 403.24835205078125 474.0372314453125 399.090576171875 457.2351989746094 406.09100341796875 471.53802490234375 C 518.2590942382812 474.08502197265625 370.7990417480469 410.2229309082031 654.6857299804688 427.63616943359375" fill="rgb(16, 28, 8)" opacity="0.81763947" stroke="rgb(187, 97, 235)" stroke-linecap="round" stroke-linejoin="round" stroke-opacity="0.6085817" stroke-width="0.0"/>
    <path d="M 21.687978744506836 300.4342346191406 C 58.02711868286133 266.31805419921875 46.781700134277344 275.3648681640625 49.818931579589844 320.4793701171875 C 27.31205940246582 334.72247314453125 39.89747619628906 314.3088684082031 9.994284629821777 330.9232177734375 C 17.971235275268555 312.89385986328125 -11.260819435119629 322.1322937011719 3.003828525543213 312.7610168457031 C -5.610988616943359 300.6136474609375 -17.524147033691406 280.33966064453125 3.3521506786346436 290.84844970703125 C 17.58563995361328 312.1922912597656 23.401897430419922 307.7236633300781 -24.626413345336914 266.9538879394531 C 21.048185348510742 239.55831909179688 15.184659004211426 241.97787475585938 37.367862701416016 284.51629638671875 C 21.273794174194336 306.8809814453125 6.908333778381348 297.1937561035156 23.630990982055664 299.4220275878906 C 30.102684020996094 284.25537109375 12.670411109924316 313.2747497558594 21.687978744506836 300.4342346191406" fill="rgb(33, 41, 16)" opacity="0.9966128" stroke="rgb(114, 181, 126)" stroke-linecap="round" stroke-linejoin="round" stroke-opacity="0.16951577" stroke-width="0.0"/>
    <path d="M 290.7967834472656 184.05418395996094 C 282.90655517578125 190.16055297851562 278.75408935546875 175.48121643066406 284.74505615234375 189.6204376220703 C 270.9288024902344 180.1190948486328 285.63671875 194.23951721191406 273.6418151855469 192.56414794921875 C 270.6617126464844 201.3268585205078 270.5153503417969 198.21678161621094 269.2021789550781 183.96632385253906 C 260.41937255859375 200.0656280517578 264.3537902832031 169.24427795410156 267.1414794921875 156.75738525390625 C 269.6963806152344 195.45925903320312 271.5487365722656 174.69847106933594 274.49078369140625 179.42041015625 C 267.6639709472656 168.3751678466797 293.39556884765625 179.28517150878906 268.78961181640625 170.6024627685547 C 275.9191589355469 150.46412658691406 269.6872253417969 162.5336456298828 281.77532958984375 169.65966796875 C 290.24993896484375 179.4555206298828 282.1603088378906 171.0393524169922 290.7967834472656 184.05418395996094" fill="rgb(204, 196, 184)" opacity="1.0" stroke="rgb(123, 132, 191)" stroke-linecap="round" stroke-linejoin="round" stroke-opacity="0.8341499" stroke-width="0.0"/>
    <path d="M 57.5394401550293 276.5989685058594 C 72.3341064453125 273.4243469238281 57.62187194824219 289.22454833984375 69.47257995605469 286.0390930175781 C 56.19384002685547 261.4261169433594 110.47991943359375 220.53741455078125 93.13252258300781 313.94818115234375 C 36.545223236083984 333.2674865722656 51.809043884277344 305.1125183105469 53.12751007080078 311.2035217285156 C 40.72569274902344 299.4122619628906 55.109161376953125 303.8702697753906 33.62984085083008 277.80548095703125 C -1.6459466218948364 257.2886962890625 19.351266860961914 221.0785675048828 32.12026596069336 274.2486877441406 C 25.175077438354492 261.5158386230469 53.146453857421875 266.8292236328125 53.1882209777832 269.574951171875 C 123.5682144165039 248.77252197265625 56.3165283203125 269.5012512207031 57.83588790893555 274.0207214355469 C 59.21023178100586 277.680419921875 36.567039489746094 303.4357604980469 57.5394401550293 276.5989685058594" fill="rgb(33, 37, 17)" opacity="0.8896365" stroke="rgb(182, 29, 33)" stroke-linecap="round" stroke-linejoin="round" stroke-opacity="0.8014034" stroke-width="0.0"/>
    <path d="M 503.95574951171875 54.497581481933594 C 473.9931335449219 82.61516571044922 464.31829833984375 72.51285552978516 466.4366149902344 80.23503875732422 C 453.6403503417969 88.9189682006836 470.0185546875 89.67752075195312 435.0763854980469 102.42657470703125 C 441.5213317871094 93.38166046142578 411.84967041015625 133.51214599609375 265.9163818359375 141.89291381835938 C 295.0263671875 47.308197021484375 413.7303771972656 154.93209838867188 425.4930419921875 59.317378997802734 C 423.63818359375 62.83143615722656 431.8648986816406 54.22333908081055 433.4975891113281 49.54221725463867 C 443.4825134277344 48.63541030883789 447.9383239746094 52.057682037353516 450.9317626953125 43.63854217529297 C 465.5735168457031 40.98338317871094 455.68243408203125 60.63087463378906 477.9164123535156 48.37224578857422 C 487.66619873046875 29.20130157470703 503.069580078125 48.81592559814453 503.95574951171875 54.497581481933594" fill="rgb(207, 214, 243)" opacity="0.55328804" stroke="rgb(236, 169, 161)" stroke-linecap="round" stroke-linejoin="round" stroke-opacity="0.7064657" stroke-width="0.0"/>
    <path d="M 77.80755615234375 166.806640625 C 80.91049194335938 175.57217407226562 76.95808410644531 168.9717254638672 77.5760269165039 172.2955780029297 C 75.89344787597656 172.66989135742188 73.92747497558594 174.84970092773438 77.05463409423828 173.80950927734375 C 69.98491668701172 172.19119262695312 72.2884292602539 160.9849853515625 68.64364624023438 172.1160125732422 C 91.35485076904297 190.4276123046875 72.77593994140625 188.60179138183594 64.34046936035156 175.4679412841797 C 64.3033218383789 163.73211669921875 69.6650161743164 169.94195556640625 65.16140747070312 165.00048828125 C 67.23445129394531 164.98838806152344 77.48220825195312 158.76107788085938 69.14444732666016 170.1956787109375 C 62.90385818481445 171.23394775390625 54.562171936035156 170.4039306640625 76.9573745727539 166.0467071533203 C 75.1795883178711 165.14659118652344 81.60298156738281 171.4449462890625 77.80755615234375 166.806640625" fill="rgb(0, 2, 21)" opacity="0.6532203" stroke="rgb(130, 103, 28)" stroke-linecap="round" stroke-linejoin="round" stroke-opacity="0.053539045" stroke-width="0.0"/>
    <path d="M 461.44573974609375 403.3832092285156 C 461.3041687011719 401.86181640625 464.3612365722656 408.5689697265625 465.0965576171875 402.67913818359375 C 459.259521484375 405.1925048828125 460.4641418457031 405.64227294921875 459.19354248046875 401.5802917480469 C 458.1357421875 407.7992248535156 463.025146484375 399.13653564453125 464.0545349121094 408.3402404785156 C 459.49102783203125 399.5115661621094 460.5924987792969 401.3374328613281 464.5185546875 408.0284118652344 C 466.13507080078125 401.7747497558594 462.33502197265625 411.57440185546875 458.1634826660156 398.5510559082031 C 459.11627197265625 390.50946044921875 469.5945739746094 396.36187744140625 461.4216613769531 389.6727294921875 C 462.37298583984375 401.4346618652344 464.3101806640625 392.7709045410156 468.1128234863281 398.714599609375 C 464.0541076660156 409.3794250488281 470.1151428222656 410.0715637207031 461.44573974609375 403.3832092285156" fill="rgb(34, 42, 29)" opacity="0.9613971" stroke="rgb(87, 103, 214)" stroke-linecap="round" stroke-linejoin="round" stroke-opacity="0.59762233" stroke-width="0.0"/>
    <path d="M 143.7832489013672 436.1549987792969 C 152.7178192138672 431.2416076660156 141.45428466796875 449.86700439453125 134.79464721679688 441.4913635253906 C 132.2164764404297 452.90240478515625 147.75511169433594 448.1856689453125 124.04714965820312 443.5372009277344 C 132.68893432617188 463.0307312011719 112.31884002685547 439.81988525390625 113.50318908691406 448.4037170410156 C 127.5594482421875 438.16278076171875 119.4723129272461 427.6221923828125 129.10487365722656 435.1610107421875 C 86.12531280517578 464.78125 168.3844757080078 413.7350769042969 -46.8986930847168 412.0929260253906 C -11.993001937866211 346.4892578125 152.17808532714844 441.9702453613281 115.85649871826172 431.2369079589844 C 160.26449584960938 429.3747863769531 129.57269287109375 429.47967529296875 109.2624740600586 413.0312805175781 C 156.69688415527344 426.9118347167969 136.44482421875 437.72369384765625 143.7832489013672 436.1549987792969" fill="rgb(14, 28, 6)" opacity="0.7388714" stroke="rgb(240, 92, 31)" stroke-linecap="round" stroke-linejoin="round" stroke-opacity="0.3518888" stroke-width="0.0"/>
    <path d="M 407.921142578125 381.0627136230469 C 422.1861267089844 378.7212219238281 398.77716064453125 404.7503356933594 399.6291809082031 391.48297119140625 C 383.62335205078125 400.099609375 396.00994873046875 400.1048278808594 378.3122863769531 401.6665344238281 C 397.5806579589844 401.7456359863281 342.2021789550781 414.59228515625 349.3663024902344 404.4017639160156 C 363.7550048828125 408.1390686035156 325.44830322265625 386.6788024902344 371.50982666015625 383.11688232421875 C 398.90240478515625 359.85321044921875 335.6791076660156 430.64154052734375 382.5062561035156 381.02325439453125 C 410.5433044433594 370.1972961425781 416.2698059082031 379.1590576171875 393.9229431152344 391.19561767578125 C 379.381591796875 379.3680114746094 388.7059631347656 395.37225341796875 381.00115966796875 390.59295654296875 C 384.20123291015625 388.58868408203125 386.73846435546875 400.5026550292969 407.921142578125 381.0627136230469" fill="rgb(174, 158, 140)" opacity="0.93359727" stroke="rgb(223, 209, 109)" stroke-linecap="round" stroke-linejoin="round" stroke-opacity="0.93363166" stroke-width="0.0"/>
    <path d="M 128.67269897460938 189.47361755371094 C 122.33549499511719 188.0227508544922 128.72557067871094 189.68521118164062 126.41915130615234 193.75027465820312 C 125.18299102783203 188.9635009765625 126.60746765136719 197.8217315673828 123.98329162597656 195.73977661132812 C 127.43158721923828 199.04417419433594 127.5956039428711 199.7850799560547 116.47541046142578 196.55445861816406 C 109.70436096191406 231.2850799560547 101.3468017578125 236.58938598632812 83.55860137939453 135.41421508789062 C 136.9458770751953 213.37351989746094 111.90238189697266 162.61410522460938 128.17013549804688 174.5077362060547 C 108.86160278320312 192.99673461914062 118.07209777832031 182.67672729492188 125.04773712158203 185.82162475585938 C 121.3086166381836 183.62661743164062 128.7693328857422 192.61997985839844 127.75064086914062 192.51162719726562 C 124.96105194091797 189.9163360595703 130.27835083007812 193.99295043945312 128.67269897460938 189.47361755371094" fill="rgb(47, 55, 35)" opacity="0.8117574" stroke="rgb(74, 86, 66)" stroke-linecap="round" stroke-linejoin="round" stroke-opacity="0.9684068" stroke-width="0.0"/>
    <path d="M 419.67156982421875 373.4655456542969 C 402.39862060546875 372.73333740234375 420.8950500488281 375.56414794921875 404.1376647949219 373.7014465332031 C 411.3414001464844 369.11328125 386.264404296875 377.00555419921875 407.109130859375 374.213623046875 C 419.979248046875 383.80908203125 420.344970703125 368.6916809082031 414.98394775390625 372.97760009765625 C 413.0549011230469 379.48358154296875 413.4861755371094 365.45635986328125 409.0357666015625 372.02874755859375 C 396.91046142578125 373.2152404785156 407.274658203125 381.29156494140625 412.4132080078125 375.7042236328125 C 388.50823974609375 374.4739990234375 379.2653503417969 372.50128173828125 411.6671447753906 368.30859375 C 421.91497802734375 361.729248046875 424.3828125 376.47796630859375 419.1092529296875 371.8184814453125 C 417.02679443359375 384.2342834472656 420.6253662109375 365.9757385253906 419.67156982421875 373.4655456542969" fill="rgb(198, 180, 157)" opacity="1.0" stroke="rgb(212, 121, 25)" stroke-linecap="round" stroke-linejoin="round" stroke-opacity="0.6473655" stroke-width="0.0"/>
    <path d="M 212.5190887451172 180.81427001953125 C 110.30020141601562 224.01998901367188 150.2099151611328 135.21347045898438 122.95795440673828 148.8997039794922 C 121.65513610839844 145.2192840576172 120.01142120361328 156.07235717773438 117.24088287353516 144.85577392578125 C 116.2621841430664 149.67922973632812 115.82059478759766 148.51560974121094 119.30397033691406 144.45237731933594 C 121.93782806396484 143.6689910888672 121.70223236083984 139.25225830078125 116.7704849243164 149.02174377441406 C 120.33563995361328 138.0629425048828 122.75654602050781 149.37489318847656 117.37227630615234 143.80838012695312 C 115.01897430419922 147.48727416992188 113.58839416503906 147.15200805664062 118.80204772949219 147.75865173339844 C 118.37596893310547 137.508544921875 128.71385192871094 152.36129760742188 119.06087493896484 131.33489990234375 C 178.5106964111328 170.67816162109375 303.117431640625 145.1968994140625 212.5190887451172 180.81427001953125" fill="rgb(252, 252, 253)" opacity="0.77357674" stroke="rgb(4, 79, 82)" stroke-linecap="round" stroke-linejoin="round" stroke-opacity="0.93112516" stroke-width="0.0"/>
    <path d="M 431.7883605957031 434.7735290527344 C 435.2127380371094 422.03582763671875 427.43988037109375 433.9979553222656 419.27276611328125 448.3498229980469 C 420.7061767578125 426.9686279296875 414.72088623046875 435.2193603515625 413.8896179199219 432.04498291015625 C 411.7535095214844 430.9154052734375 414.6092529296875 432.401611328125 412.4883728027344 430.7510681152344 C 412.3301086425781 430.4727478027344 412.4051818847656 432.2081298828125 408.5169677734375 430.40924072265625 C 406.599853515625 428.574951171875 403.7702331542969 427.888916015625 409.7799987792969 426.2021789550781 C 405.7048645019531 424.74420166015625 418.5977783203125 424.6316223144531 413.21661376953125 425.1629333496094 C 416.579833984375 424.40576171875 411.5359191894531 430.4181823730469 422.28143310546875 424.39495849609375 C 420.0735168457031 420.6421813964844 435.1416320800781 415.769775390625 431.7883605957031 434.7735290527344" fill="rgb(29, 36, 25)" opacity="0.94152427" stroke="rgb(80, 120, 16)" stroke-linecap="round" stroke-linejoin="round" stroke-opacity="0.13355553" stroke-width="0.0"/>
    <path d="M 646.5177001953125 17.499549865722656 C 643.9834594726562 9.438340187072754 648.037109375 22.7945499420166 631.398193359375 20.557537078857422 C 625.988525390625 18.81918716430664 633.3588256835938 45.74533462524414 626.2515869140625 20.356552124023438 C 612.441650390625 21.143484115600586 599.2179565429688 23.3547306060791 601.6131591796875 32.032833099365234 C 550.1228637695312 69.58881378173828 585.4443969726562 -8.18292236328125 581.8947143554688 34.87559509277344 C 610.7799072265625 -5.926425457000732 609.7954711914062 1.444512128829956 609.6632080078125 -5.359928607940674 C 607.5780029296875 -6.398834705352783 610.0642700195312 -5.222480297088623 625.3204345703125 -5.17669677734375 C 634.5892944335938 -6.1410369873046875 636.6923217773438 -6.552276134490967 646.48291015625 -10.448472023010254 C 648.3937377929688 -5.530700206756592 650.1052856445312 18.5712833404541 646.5177001953125 17.499549865722656" fill="rgb(130, 141, 163)" opacity="1.0" stroke="rgb(234, 106, 199)" stroke-linecap="round" stroke-linejoin="round" stroke-opacity="0.64881164" stroke-width="0.0"/>
    <path d="M 52.23844909667969 163.6544647216797 C 57.72832489013672 164.52406311035156 55.6122932434082 150.02210998535156 49.350433349609375 157.40655517578125 C 35.26115036010742 152.89157104492188 44.93674850463867 154.63380432128906 48.7585334777832 154.1664276123047 C 47.808128356933594 158.51548767089844 42.0058708190918 150.94627380371094 38.90216827392578 154.1720733642578 C 2.3798828125 149.63172912597656 59.9199104309082 163.82568359375 -15.451419830322266 208.38084411621094 C 28.346616744995117 131.85984802246094 37.67226028442383 139.59951782226562 30.499635696411133 151.2439422607422 C 43.49654006958008 140.23158264160156 39.955108642578125 145.54046630859375 37.13526916503906 139.55645751953125 C 42.4494514465332 134.45094299316406 46.67979049682617 151.47451782226562 46.063262939453125 150.439208984375 C 47.14462661743164 143.67889404296875 54.478511810302734 146.87530517578125 52.23844909667969 163.6544647216797" fill="rgb(11, 15, 9)" opacity="0.7643543" stroke="rgb(133, 158, 202)" stroke-linecap="round" stroke-linejoin="round" stroke-opacity="0.012330331" stroke-width="0.0"/>
    <path d="M 149.29039001464844 220.41241455078125 C 125.13118743896484 239.34762573242188 161.18475341796875 204.80044555664062 142.54742431640625 261.2540283203125 C 128.7745361328125 229.99217224121094 155.5291748046875 258.7229919433594 134.17105102539062 229.27935791015625 C 126.49671173095703 247.04310607910156 129.31491088867188 219.60655212402344 134.16453552246094 226.1121063232422 C 119.3648681640625 228.67640686035156 109.781005859375 228.1458282470703 140.10000610351562 219.31582641601562 C 136.3739013671875 220.89222717285156 139.92752075195312 217.74423217773438 138.09352111816406 220.24932861328125 C 140.04161071777344 219.31190490722656 139.1838836669922 216.90573120117188 138.44471740722656 217.11163330078125 C 130.95433044433594 213.6002655029297 145.68621826171875 222.03822326660156 140.45700073242188 198.33938598632812 C 169.61572265625 178.92739868164062 153.74501037597656 229.56900024414062 149.29039001464844 220.41241455078125" fill="rgb(224, 226, 226)" opacity="0.7478389" stroke="rgb(20, 243, 116)" stroke-linecap="round" stroke-linejoin="round" stroke-opacity="0.23371539" stroke-width="0.0"/>
    <path d="M 101.98506164550781 250.4533233642578 C 93.00281524658203 256.54241943359375 98.9742660522461 240.66607666015625 93.65882873535156 246.24435424804688 C 96.58168029785156 257.61077880859375 120.20414733886719 250.87167358398438 96.9773178100586 256.4689636230469 C 77.1677017211914 284.12237548828125 94.05039978027344 250.0936279296875 87.31019592285156 249.6285400390625 C 87.41521453857422 233.22711181640625 92.50797271728516 244.8606414794922 82.90428161621094 244.6773223876953 C 11.521321296691895 294.15081787109375 54.952293395996094 227.12257385253906 52.557315826416016 253.7766571044922 C 90.92752075195312 245.94749450683594 71.91973114013672 223.6340789794922 89.1686782836914 235.57546997070312 C 92.60569763183594 229.4738006591797 99.05819702148438 227.86769104003906 97.53471374511719 232.55599975585938 C 118.37455749511719 205.2069854736328 90.81987762451172 247.27044677734375 101.98506164550781 250.4533233642578" fill="rgb(18, 17, 6)" opacity="0.78805435" stroke="rgb(4, 103, 110)" stroke-linecap="round" stroke-linejoin="round" stroke-opacity="0.14441621" stroke-width="0.0"/>
    <path d="M 56.3949089050293 78.32591247558594 C 42.27316665649414 82.95431518554688 54.05093765258789 89.40032196044922 40.331199645996094 79.53715515136719 C 43.330265045166016 87.31098175048828 43.429080963134766 76.19723510742188 44.87637710571289 79.83409118652344 C 48.56772232055664 78.21329498291016 45.399803161621094 82.35658264160156 47.02738952636719 78.22747039794922 C 30.51219367980957 83.4959945678711 34.810306549072266 90.43094635009766 26.854848861694336 90.5957260131836 C 47.095703125 75.41462707519531 31.083179473876953 75.9979019165039 42.1285285949707 80.602294921875 C 40.011695861816406 79.38081359863281 45.84097671508789 88.57889556884766 44.38910675048828 67.9521255493164 C 35.041526794433594 71.6731185913086 49.56100845336914 48.65998077392578 47.10077667236328 77.4643325805664 C 58.76362228393555 73.84456634521484 59.732398986816406 67.49674987792969 56.3949089050293 78.32591247558594" fill="rgb(99, 106, 106)" opacity="1.0" stroke="rgb(19, 238, 15)" stroke-linecap="round" stroke-linejoin="round" stroke-opacity="0.56007624" stroke-width="0.0"/>
    <path d="M 254.54867553710938 100.72787475585938 C 276.54534912109375 133.1489715576172 262.0436096191406 94.72344970703125 257.45855712890625 153.3562469482422 C 264.8127746582031 157.02134704589844 266.70062255859375 131.0043182373047 249.58059692382812 157.15455627441406 C 262.7988586425781 251.55892944335938 233.07891845703125 117.29488372802734 191.59185791015625 141.0322265625 C 181.8091278076172 114.37844848632812 183.1851043701172 131.6665802001953 219.81764221191406 105.96700286865234 C 243.2533721923828 85.88407135009766 224.3261260986328 95.39392852783203 237.35552978515625 83.74730682373047 C 238.95135498046875 85.13095092773438 233.50100708007812 67.34223937988281 243.55789184570312 74.26581573486328 C 255.17172241210938 81.17841339111328 245.15382385253906 87.70220184326172 265.25701904296875 85.8511962890625 C 294.2471923828125 38.526180267333984 320.8067932128906 86.19523620605469 254.54867553710938 100.72787475585938" fill="rgb(205, 210, 238)" opacity="0.72553056" stroke="rgb(60, 4, 248)" stroke-linecap="round" stroke-linejoin="round" stroke-opacity="0.29300386" stroke-width="0.0"/>
    <path d="M 458.1944885253906 246.3775634765625 C 460.5585021972656 279.7004699707031 447.7282409667969 269.012939453125 457.8526611328125 273.8050842285156 C 443.9200439453125 311.6601867675781 536.4451293945312 303.9134216308594 444.5648193359375 321.63226318359375 C 439.42254638671875 264.5036315917969 426.48687744140625 280.084228515625 433.1087646484375 261.7666320800781 C 435.8267517089844 264.55487060546875 435.8964538574219 258.4240417480469 433.4618225097656 255.5038299560547 C 429.29119873046875 246.7007293701172 443.5699768066406 252.23606872558594 432.1529846191406 235.65074157714844 C 434.2068786621094 230.7375946044922 438.5693359375 206.5282440185547 437.6221008300781 207.35643005371094 C 478.3064880371094 247.8107147216797 433.7610778808594 227.89181518554688 477.75341796875 252.16015625 C 440.8889465332031 240.5650177001953 444.37542724609375 250.85275268554688 458.1944885253906 246.3775634765625" fill="rgb(0, 14, 38)" opacity="0.59764266" stroke="rgb(162, 213, 83)" stroke-linecap="round" stroke-linejoin="round" stroke-opacity="0.0711671" stroke-width="0.0"/>
    <path d="M 608.2921142578125 187.6656494140625 C 642.8558349609375 202.9661407470703 554.6517333984375 3.4663970470428467 631.9893188476562 57.668453216552734 C 688.6845703125 306.12567138671875 662.160400390625 168.9245147705078 552.7687377929688 232.1102752685547 C 518.6732788085938 61.62163162231445 539.7195434570312 26.744455337524414 544.9810791015625 151.2758026123047 C 575.780517578125 197.63255310058594 561.9806518554688 173.5901641845703 566.010986328125 141.29348754882812 C 552.9619750976562 152.76882934570312 566.3684692382812 122.76515197753906 552.9031372070312 132.01780700683594 C 568.2282104492188 114.90242004394531 558.955078125 143.06407165527344 555.6476440429688 96.57970428466797 C 599.1113891601562 142.59127807617188 601.6993408203125 104.58726501464844 589.63916015625 137.73670959472656 C 607.5584106445312 128.2569122314453 604.3735961914062 149.95860290527344 608.2921142578125 187.6656494140625" fill="rgb(22, 33, 58)" opacity="0.8048088" stroke="rgb(205, 146, 242)" stroke-linecap="round" stroke-linejoin="round" stroke-opacity="0.56644446" stroke-width="0.0"/>
    <path d="M 379.0187683105469 471.4615478515625 C 366.4807434082031 482.6007385253906 373.62646484375 469.0843200683594 369.5768127441406 499.8795166015625 C 352.3231506347656 474.1238708496094 368.8333435058594 472.6623840332031 357.6435546875 474.1439208984375 C 359.5262451171875 478.5645446777344 368.7887268066406 471.57427978515625 351.4091491699219 494.2173767089844 C 342.7393798828125 525.6469116210938 337.9907531738281 459.0811462402344 344.1419982910156 470.62237548828125 C 349.0782775878906 478.5711975097656 349.2173156738281 453.34326171875 349.4999694824219 463.5848693847656 C 375.6626281738281 464.0525817871094 333.320068359375 459.6175537109375 364.3417663574219 460.3181457519531 C 363.67864990234375 462.5746154785156 365.94696044921875 469.0835266113281 367.883544921875 462.9290466308594 C 368.3906555175781 462.4669189453125 367.92352294921875 469.24212646484375 379.0187683105469 471.4615478515625" fill="rgb(213, 192, 165)" opacity="0.6169969" stroke="rgb(176, 0, 24)" stroke-linecap="round" stroke-linejoin="round" stroke-opacity="0.03205717" stroke-width="0.0"/>
    <path d="M 297.6038818359375 389.1792297363281 C 290.8189697265625 388.2274475097656 293.0498046875 389.9609680175781 291.1481628417969 390.0487365722656 C 288.9715270996094 396.4223937988281 280.08319091796875 397.0490417480469 280.5170593261719 394.21197509765625 C 272.79217529296875 393.8663635253906 276.75592041015625 391.04193115234375 273.05340576171875 389.99383544921875 C 253.32469177246094 393.1072082519531 268.9563293457031 388.2052917480469 242.87107849121094 388.3557434082031 C 253.46197509765625 380.5754699707031 205.87754821777344 389.11138916015625 239.66293334960938 365.8902282714844 C 238.8367462158203 316.93939208984375 261.4508361816406 372.5876159667969 252.5120086669922 369.41497802734375 C 320.0108642578125 369.33941650390625 269.2186584472656 368.7507629394531 298.6562194824219 376.6304016113281 C 304.1191711425781 385.1509094238281 316.1193542480469 363.6000671386719 297.6038818359375 389.1792297363281" fill="rgb(135, 139, 151)" opacity="0.9195104" stroke="rgb(190, 128, 210)" stroke-linecap="round" stroke-linejoin="round" stroke-opacity="0.07643772" stroke-width="0.0"/>
    <path d="M 445.1834716796875 190.57882690429688 C 446.1484680175781 179.58932495117188 445.472412109375 203.30606079101562 445.4416198730469 214.50099182128906 C 438.4737854003906 213.90664672851562 455.2267150878906 234.44137573242188 440.4039611816406 231.30160522460938 C 431.53155517578125 206.74229431152344 432.50506591796875 236.52333068847656 432.4769287109375 194.02239990234375 C 434.0128479003906 183.82933044433594 434.1053466796875 214.43475341796875 434.2378845214844 189.49288940429688 C 432.9808654785156 183.2913055419922 432.64031982421875 207.3979949951172 432.55242919921875 174.27374267578125 C 437.38568115234375 168.18443298339844 432.6947326660156 177.5342559814453 437.4877014160156 142.4154510498047 C 468.28021240234375 139.6219482421875 433.3597412109375 136.06658935546875 442.52490234375 165.15138244628906 C 441.731689453125 180.23532104492188 447.4378967285156 174.77468872070312 445.1834716796875 190.57882690429688" fill="rgb(0, 14, 45)" opacity="0.7864448" stroke="rgb(222, 176, 115)" stroke-linecap="round" stroke-linejoin="round" stroke-opacity="0.965654" stroke-width="0.0"/>
    <path d="M 577.7423706054688 86.22102355957031 C 584.2220458984375 85.39380645751953 575.9496459960938 118.2796401977539 586.8677368164062 104.14495086669922 C 591.5488891601562 129.67703247070312 576.339599609375 130.04977416992188 569.315185546875 128.57542419433594 C 576.5740966796875 104.1920166015625 559.7831420898438 112.17324829101562 570.2802734375 110.21410369873047 C 567.154541015625 105.19218444824219 562.9950561523438 91.4369888305664 571.6014404296875 96.21265411376953 C 560.0924682617188 93.47470092773438 573.878662109375 96.57713317871094 559.429931640625 80.11492919921875 C 559.2435913085938 95.97392272949219 560.737548828125 51.95064163208008 581.8292846679688 56.671016693115234 C 569.9872436523438 67.98743438720703 585.5527954101562 93.6385498046875 582.150146484375 104.85517120361328 C 590.889404296875 104.08039855957031 588.6593627929688 86.16722869873047 577.7423706054688 86.22102355957031" fill="rgb(17, 30, 55)" opacity="1.0" stroke="rgb(162, 22, 100)" stroke-linecap="round" stroke-linejoin="round" stroke-opacity="0.3920092" stroke-width="0.0"/>
    <path d="M 15.461780548095703 34.36650085449219 C 33.86281204223633 35.457489013671875 15.890632629394531 47.95478057861328 17.36388397216797 30.53351593017578 C 10.282621383666992 28.51861572265625 10.655716896057129 29.293264389038086 12.577751159667969 30.36775016784668 C 12.898301124572754 28.283601760864258 12.838730812072754 29.244203567504883 12.764175415039062 28.584775924682617 C 12.224509239196777 29.94348907470703 11.754006385803223 30.752887725830078 12.176647186279297 29.059520721435547 C 3.6612613201141357 21.740520477294922 9.994250297546387 32.611610412597656 8.255156517028809 24.805927276611328 C 12.342325210571289 21.769912719726562 11.651090621948242 22.487764358520508 13.136889457702637 23.566261291503906 C 12.813889503479004 24.126449584960938 14.513691902160645 22.397417068481445 15.93476390838623 24.7603816986084 C 22.659080505371094 27.33084487915039 16.457481384277344 29.778696060180664 15.461780548095703 34.36650085449219" fill="rgb(154, 167, 177)" opacity="0.91896725" stroke="rgb(155, 31, 122)" stroke-linecap="round" stroke-linejoin="round" stroke-opacity="0.4154302" stroke-width="0.0"/>
    <path d="M 159.9790802001953 385.76666259765625 C 169.4107666015625 365.98785400390625 170.389892578125 378.4602966308594 162.7319793701172 390.76800537109375 C 137.91366577148438 398.24481201171875 160.80960083007812 385.8116149902344 197.5111846923828 423.1283874511719 C 145.87474060058594 407.5675354003906 157.37060546875 370.8065490722656 148.66668701171875 401.9527587890625 C 147.88304138183594 379.3597412109375 139.6224822998047 401.86053466796875 149.80715942382812 379.50982666015625 C 140.12144470214844 375.4830017089844 129.98622131347656 381.9696960449219 139.37368774414062 375.0892333984375 C 143.45303344726562 370.1102294921875 155.4559326171875 376.43255615234375 158.5643310546875 380.1099548339844 C 158.07704162597656 372.8843994140625 160.95753479003906 371.6289367675781 158.80755615234375 382.99615478515625 C 165.257568359375 383.5125732421875 156.2843780517578 382.9346618652344 159.9790802001953 385.76666259765625" fill="rgb(23, 47, 13)" opacity="0.89512396" stroke="rgb(39, 175, 229)" stroke-linecap="round" stroke-linejoin="round" stroke-opacity="0.059895318" stroke-width="0.0"/>
    <path d="M 313.6958923339844 162.0706024169922 C 312.8107604980469 189.81166076660156 307.69525146484375 160.00282287597656 308.5271911621094 175.923828125 C 287.7855529785156 173.12484741210938 303.09307861328125 217.68618774414062 300.2589111328125 177.39190673828125 C 290.1446838378906 176.1932830810547 297.9618225097656 190.80899047851562 291.3153076171875 183.23617553710938 C 289.2893981933594 184.96890258789062 289.2192687988281 178.0336151123047 276.9474792480469 160.62646484375 C 244.8327178955078 159.2782440185547 257.31231689453125 132.2467498779297 277.37310791015625 153.58981323242188 C 301.71478271484375 152.8135223388672 315.1324768066406 156.45628356933594 292.02618408203125 155.3903045654297 C 333.4986267089844 145.71836853027344 291.9943542480469 146.51829528808594 344.5069580078125 146.3604736328125 C 315.0623779296875 190.6468963623047 317.0766296386719 150.0959014892578 313.6958923339844 162.0706024169922" fill="rgb(91, 134, 211)" opacity="0.7675533" stroke="rgb(174, 146, 178)" stroke-linecap="round" stroke-linejoin="round" stroke-opacity="0.17109971" stroke-width="0.0"/>
    <path d="M 434.8674011230469 304.27044677734375 C 430.9547119140625 329.8899230957031 430.28564453125 329.97064208984375 430.9360656738281 320.6137390136719 C 437.8270568847656 330.9689636230469 419.76458740234375 321.13873291015625 425.598876953125 334.4212341308594 C 404.9117126464844 338.27655029296875 418.30157470703125 344.0924377441406 410.984619140625 318.78326416015625 C 408.63775634765625 321.5503234863281 405.80511474609375 322.03887939453125 408.0042724609375 296.45172119140625 C 410.0210876464844 308.2976989746094 405.9959716796875 322.4664611816406 411.6214599609375 287.3277893066406 C 431.2834777832031 318.16387939453125 418.8833923339844 294.8609313964844 420.4764404296875 197.48756408691406 C 427.9637451171875 161.56048583984375 431.1717529296875 295.400146484375 430.3206787109375 298.5142822265625 C 435.5134582519531 311.8514404296875 431.08306884765625 315.0726013183594 434.8674011230469 304.27044677734375" fill="rgb(231, 243, 255)" opacity="0.6066107" stroke="rgb(172, 203, 137)" stroke-linecap="round" stroke-linejoin="round" stroke-opacity="0.45835948" stroke-width="0.0"/>
    <path d="M 418.7112121582031 352.8012390136719 C 418.738525390625 348.8332214355469 408.87567138671875 358.4060974121094 415.8253479003906 354.9619140625 C 412.6899719238281 360.99169921875 412.03411865234375 351.4651794433594 411.9263610839844 352.8849792480469 C 404.8480224609375 353.0173645019531 411.48455810546875 355.4023742675781 402.4396667480469 349.8163146972656 C 408.0918884277344 344.0083923339844 395.58099365234375 355.89837646484375 379.9156494140625 352.50469970703125 C 403.56390380859375 342.9924621582031 397.3564147949219 348.2762756347656 405.3647766113281 343.0992736816406 C 407.8303527832031 328.60491943359375 409.0097351074219 347.7078552246094 410.87158203125 339.8524169921875 C 414.1252746582031 347.6665954589844 412.6166076660156 335.6875305175781 416.3091735839844 347.5889587402344 C 415.0992126464844 341.2492980957031 424.0406799316406 350.261962890625 418.7112121582031 352.8012390136719" fill="rgb(32, 41, 26)" opacity="0.76830995" stroke="rgb(87, 194, 11)" stroke-linecap="round" stroke-linejoin="round" stroke-opacity="0.9661649" stroke-width="0.0"/>
    <path d="M 328.915283203125 75.03909301757812 C 304.11724853515625 83.21516418457031 318.9738464355469 82.96720123291016 311.09112548828125 86.13883972167969 C 316.61370849609375 80.5882568359375 330.8557434082031 58.65522003173828 328.45294189453125 99.92377471923828 C 237.62229919433594 62.43667221069336 318.4834289550781 197.46829223632812 258.3289489746094 141.186767578125 C 269.2922058105469 10.216176986694336 185.99948120117188 95.92796325683594 251.5475311279297 83.56169128417969 C 271.44610595703125 68.10777282714844 262.3223876953125 63.096805572509766 275.52960205078125 66.2809829711914 C 272.1589050292969 67.62992858886719 280.6537170410156 54.402015686035156 284.11895751953125 57.74824523925781 C 299.6608581542969 68.00201416015625 282.1097717285156 55.05631637573242 306.790283203125 66.70631408691406 C 316.1009216308594 91.27066040039062 305.0447692871094 79.94353485107422 328.915283203125 75.03909301757812" fill="rgb(139, 163, 212)" opacity="0.6246682" stroke="rgb(55, 124, 19)" stroke-linecap="round" stroke-linejoin="round" stroke-opacity="0.65974647" stroke-width="0.0"/>
    <path d="M 96.89397430419922 200.57373046875 C 90.42594146728516 189.55026245117188 94.12432098388672 204.27670288085938 96.9126968383789 199.16087341308594 C 99.44154357910156 256.3154296875 96.6422348022461 207.56723022460938 75.99532318115234 225.73056030273438 C 107.56497192382812 187.5391082763672 83.58130645751953 222.26217651367188 86.47358703613281 205.56715393066406 C 97.19235229492188 211.46823120117188 90.77489471435547 197.69297790527344 84.93257904052734 209.24124145507812 C 81.49071502685547 198.2362060546875 76.62175750732422 183.3477325439453 89.7165298461914 201.82875061035156 C 112.38249969482422 196.24488830566406 84.1302719116211 201.01585388183594 85.17070007324219 194.9467010498047 C 108.8132095336914 192.7125244140625 98.0322494506836 178.04078674316406 102.08484649658203 198.2299041748047 C 99.29953002929688 198.825439453125 97.2551040649414 206.77540588378906 96.89397430419922 200.57373046875" fill="rgb(32, 38, 26)" opacity="0.92904156" stroke="rgb(25, 42, 28)" stroke-linecap="round" stroke-linejoin="round" stroke-opacity="0.3268379" stroke-width="0.0"/>
    <path d="M 138.72927856445312 258.7740173339844 C 132.43145751953125 276.177734375 128.57240295410156 259.6392517089844 130.7774200439453 275.3121643066406 C 118.15621185302734 270.6484375 124.47261810302734 274.0496520996094 120.72265625 280.08203125 C 101.3822021484375 300.9706115722656 134.03848266601562 255.38597106933594 102.2747802734375 286.34515380859375 C 119.20185089111328 260.38336181640625 98.27139282226562 270.0606994628906 110.3571548461914 263.778564453125 C 120.31429290771484 281.1407775878906 126.40946197509766 245.0408477783203 120.26944732666016 270.1683654785156 C 127.42930603027344 264.3765869140625 115.5996322631836 269.06329345703125 125.3822021484375 267.3177185058594 C 115.68767547607422 252.56484985351562 124.20455932617188 276.5655212402344 135.5957794189453 258.8133544921875 C 126.91239929199219 265.41644287109375 137.78404235839844 247.8306884765625 138.72927856445312 258.7740173339844" fill="rgb(12, 13, 0)" opacity="0.6940134" stroke="rgb(49, 218, 166)" stroke-linecap="round" stroke-linejoin="round" stroke-opacity="0.71741617" stroke-width="0.0"/>
    <path d="M 338.7253112792969 152.71426391601562 C 329.046142578125 164.1468963623047 322.4521179199219 174.839599609375 311.01678466796875 174.41465759277344 C 315.2649841308594 196.2017059326172 342.6000061035156 152.01698303222656 324.9772033691406 167.80050659179688 C 311.03729248046875 172.8258056640625 312.70538330078125 173.29627990722656 321.772705078125 166.7723846435547 C 319.7015686035156 167.91786193847656 318.5358581542969 157.8030242919922 300.1988525390625 152.80810546875 C 301.2022705078125 154.92501831054688 312.7842712402344 152.6161651611328 323.215087890625 170.33103942871094 C 353.65240478515625 137.59030151367188 341.0922546386719 150.78958129882812 292.7988586425781 147.27691650390625 C 374.3448791503906 151.46121215820312 335.1177673339844 141.22634887695312 351.6650695800781 142.9942626953125 C 346.9479675292969 173.50181579589844 346.1009826660156 131.21946716308594 338.7253112792969 152.71426391601562" fill="rgb(206, 206, 206)" opacity="0.6114427" stroke="rgb(142, 146, 132)" stroke-linecap="round" stroke-linejoin="round" stroke-opacity="0.09942783" stroke-width="0.0"/>
    <path d="M 282.4522399902344 331.82318115234375 C 303.9678955078125 329.90533447265625 276.92333984375 332.2713928222656 277.6656799316406 326.8809814453125 C 250.07559204101562 336.44122314453125 273.6456298828125 324.2180480957031 282.90631103515625 336.0568542480469 C 252.25852966308594 323.64996337890625 258.9910583496094 340.31951904296875 257.8836975097656 323.723876953125 C 255.93064880371094 346.4312438964844 252.22256469726562 339.1806335449219 258.6242370605469 323.2735290527344 C 266.9247741699219 320.1066589355469 267.4600830078125 318.6172180175781 265.56884765625 319.4897155761719 C 264.5373229980469 317.757568359375 270.8642272949219 316.9606018066406 272.6715087890625 316.9325866699219 C 273.479736328125 312.7201232910156 261.3433837890625 306.4524230957031 272.9744567871094 311.41009521484375 C 281.9056701660156 306.0714416503906 290.0994873046875 326.2779846191406 282.4522399902344 331.82318115234375" fill="rgb(164, 154, 142)" opacity="0.9542405" stroke="rgb(44, 192, 235)" stroke-linecap="round" stroke-linejoin="round" stroke-opacity="0.8095868" stroke-width="0.0"/>
    <path d="M 518.5382690429688 184.6137237548828 C 527.5984497070312 154.39144897460938 531.0416259765625 204.02061462402344 527.3449096679688 230.33807373046875 C 459.7750549316406 243.30259704589844 522.1640625 245.95167541503906 471.2254638671875 271.9369812011719 C 478.43927001953125 178.0877227783203 496.615966796875 267.9955749511719 469.2714538574219 176.28416442871094 C 465.71807861328125 172.12322998046875 468.14013671875 162.825927734375 464.77227783203125 160.94189453125 C 472.02435302734375 180.86660766601562 460.73248291015625 161.8953399658203 476.19317626953125 153.57179260253906 C 475.5561218261719 130.24855041503906 486.72760009765625 167.5729522705078 484.15234375 136.69346618652344 C 506.3251037597656 156.66282653808594 495.1019287109375 159.75384521484375 508.5140075683594 136.3465118408203 C 525.6608276367188 176.71856689453125 500.07293701171875 123.51278686523438 518.5382690429688 184.6137237548828" fill="rgb(21, 33, 57)" opacity="0.8988596" stroke="rgb(171, 78, 92)" stroke-linecap="round" stroke-linejoin="round" stroke-opacity="0.3789766" stroke-width="0.0"/>
  </g>
</svg>
