<?xml version="1.0" ?>
<svg height="480" version="1.1" width="640" xmlns="http://www.w3.org/2000/svg">
  <defs/>
  <g>
    <path d="M 653.3026123046875 311.623779296875 C 651.7780151367188 413.616943359375 653.1438598632812 425.19635009765625 636.0567626953125 496.570556640625 C 524.7650146484375 498.26861572265625 572.370849609375 487.7651062011719 609.4923706054688 465.3579406738281 C 566.9144287109375 484.923095703125 586.0435180664062 514.6511840820312 21.993635177612305 484.4703369140625 C 137.9655303955078 -11.06887435913086 317.1158142089844 93.39105224609375 422.8000793457031 308.69189453125 C 462.19976806640625 251.47540283203125 364.7859191894531 308.8357849121094 217.18165588378906 -19.19777488708496 C 911.8798217773438 -12.418734550476074 833.676513671875 68.76016998291016 700.9736938476562 219.1121063232422 C 569.9514770507812 309.2330322265625 588.7745361328125 295.0254821777344 639.6929321289062 261.02618408203125 C 652.8502807617188 288.5293273925781 650.0947875976562 287.956298828125 653.3026123046875 311.623779296875" fill="rgb(105, 109, 108)" opacity="0.95506775" stroke="rgb(47, 107, 81)" stroke-linecap="round" stroke-linejoin="round" stroke-opacity="0.6581865" stroke-width="0.0"/>
    <path d="M 158.17623901367188 338.0619812011719 C 107.07743835449219 297.40899658203125 166.11459350585938 302.4957580566406 343.42083740234375 508.7540283203125 C -207.30026245117188 485.0258483886719 -152.7303924560547 417.7037048339844 -46.07435989379883 346.7532958984375 C 50.454952239990234 292.8619384765625 26.67889404296875 306.0594787597656 -5.359109878540039 324.34271240234375 C -10.802903175354004 266.1302185058594 -6.10710334777832 288.7419738769531 -11.226627349853516 280.01171875 C -14.354337692260742 238.2805633544922 -21.120159149169922 179.3521270751953 -7.303557872772217 19.80922508239746 C 183.24330139160156 92.7359390258789 66.91637420654297 131.994873046875 44.43159103393555 190.5872344970703 C 103.7200698852539 125.9269790649414 2.3626468181610107 109.03897857666016 121.46956634521484 113.4819107055664 C 139.8887176513672 263.8812561035156 124.78668212890625 319.25616455078125 158.17623901367188 338.0619812011719" fill="rgb(44, 77, 9)" opacity="0.5420841" stroke="rgb(24, 205, 141)" stroke-linecap="round" stroke-linejoin="round" stroke-opacity="0.16433023" stroke-width="0.0"/>
    <path d="M 300.9101867675781 18.03591537475586 C 298.4150390625 65.11402893066406 303.0556945800781 71.46342468261719 399.6711120605469 77.79487609863281 C 702.0081787109375 -105.18817901611328 645.37548828125 49.5231819152832 437.1993408203125 106.73017883300781 C 73.25167083740234 276.84814453125 114.802978515625 197.4644775390625 152.60520935058594 115.95478820800781 C 49.847877502441406 147.668212890625 -9.854140281677246 151.63291931152344 -10.161519050598145 -44.188507080078125 C 115.47280883789062 -43.303714752197266 133.68206787109375 -23.989219665527344 151.5234375 -15.139436721801758 C 211.1370086669922 -5.13960599899292 221.46786499023438 -1.2986292839050293 194.89077758789062 -10.513113975524902 C 197.0776824951172 -11.348499298095703 212.26608276367188 -10.85505485534668 256.5302734375 -10.32719612121582 C 261.7758483886719 -6.44260311126709 271.8163146972656 -31.121925354003906 300.9101867675781 18.03591537475586" fill="rgb(139, 156, 197)" opacity="0.8565629" stroke="rgb(152, 173, 203)" stroke-linecap="round" stroke-linejoin="round" stroke-opacity="0.997595" stroke-width="0.0"/>
    <path d="M 257.6685485839844 209.20079040527344 C 252.15357971191406 187.64759826660156 213.4827117919922 270.892333984375 180.0343017578125 216.98858642578125 C 237.9464569091797 201.59844970703125 184.5242919921875 174.6224365234375 199.41775512695312 212.2073974609375 C 178.9876708984375 219.87298583984375 170.10336303710938 204.4110565185547 144.82289123535156 302.44158935546875 C 141.4202423095703 240.4066619873047 125.8476333618164 193.5887908935547 126.3779296875 145.97018432617188 C 145.93093872070312 146.0306854248047 138.3818359375 145.78363037109375 140.91464233398438 141.70489501953125 C 122.06024169921875 129.0755615234375 87.89796447753906 113.81330108642578 119.74580383300781 96.9486083984375 C 242.68951416015625 116.3703384399414 230.83352661132812 104.34101104736328 259.234375 102.1356201171875 C 268.9792785644531 96.65863800048828 256.9221496582031 57.296905517578125 257.6685485839844 209.20079040527344" fill="rgb(209, 205, 202)" opacity="0.65983814" stroke="rgb(137, 10, 120)" stroke-linecap="round" stroke-linejoin="round" stroke-opacity="0.52441484" stroke-width="0.0"/>
    <path d="M 640.4904174804688 276.5161437988281 C 651.758056640625 349.7052307128906 654.9442138671875 371.35162353515625 657.0885620117188 489.9836120605469 C 620.954345703125 480.9809265136719 640.7819213867188 471.84619140625 635.7601318359375 492.5986022949219 C 479.36077880859375 495.3978576660156 462.35888671875 502.2464294433594 378.309814453125 457.45159912109375 C 330.45806884765625 456.689208984375 425.13482666015625 429.6996154785156 507.9244689941406 421.8126525878906 C 454.1402282714844 295.948486328125 402.5628356933594 494.05859375 433.9363708496094 296.5264892578125 C 432.9686584472656 122.49644470214844 405.17608642578125 77.45843505859375 639.322021484375 35.03114700317383 C 662.9931640625 352.8305358886719 600.668212890625 360.1043395996094 588.1655883789062 357.3121337890625 C 609.052978515625 350.6343994140625 631.161865234375 351.38531494140625 640.4904174804688 276.5161437988281" fill="rgb(0, 17, 0)" opacity="0.52820987" stroke="rgb(34, 16, 78)" stroke-linecap="round" stroke-linejoin="round" stroke-opacity="0.57891494" stroke-width="0.0"/>
    <path d="M 60.1651725769043 73.78998565673828 C 7.401085376739502 91.73983764648438 32.25796890258789 99.11392211914062 52.18381881713867 93.75369262695312 C 59.29202651977539 120.05467987060547 -11.69040298461914 106.3066635131836 52.14088821411133 128.48855590820312 C 33.839439392089844 146.9352264404297 -61.06412124633789 125.44711303710938 -12.658971786499023 126.72053527832031 C -8.45546817779541 107.26679992675781 -8.763927459716797 107.48588562011719 -10.447381019592285 85.87224578857422 C -11.143052101135254 59.18357467651367 -11.158902168273926 58.539058685302734 -11.534364700317383 44.12417984008789 C -44.41445541381836 28.850051879882812 -46.8380126953125 10.668583869934082 46.582881927490234 -14.011322975158691 C 21.049833297729492 41.52910614013672 52.374698638916016 -7.848334789276123 43.08046340942383 51.258792877197266 C 76.12556457519531 70.15122985839844 16.923568725585938 69.96990966796875 60.1651725769043 73.78998565673828" fill="rgb(13, 22, 9)" opacity="0.76048577" stroke="rgb(9, 186, 244)" stroke-linecap="round" stroke-linejoin="round" stroke-opacity="0.2599157" stroke-width="0.0"/>
    <path d="M 73.53092956542969 430.33209228515625 C 66.59481048583984 434.2742919921875 86.23621368408203 396.0982360839844 124.4938735961914 473.4498596191406 C 5.256378650665283 455.1222229003906 52.87922286987305 510.4672546386719 -12.123164176940918 475.09039306640625 C 1.705155849456787 435.8956604003906 0.3286857604980469 436.79541015625 -10.095121383666992 441.104736328125 C -11.031121253967285 424.16253662109375 -4.455327033996582 418.5920104980469 -3.666604995727539 418.79180908203125 C -3.7453079223632812 405.8818359375 -10.58908462524414 423.1036376953125 -12.097755432128906 375.1612854003906 C -0.5503752827644348 373.6828918457031 6.4693427085876465 372.48126220703125 -42.83344650268555 354.7532653808594 C -46.348304748535156 327.4234924316406 8.776774406433105 309.3979187011719 86.06529998779297 334.94482421875 C 108.21743774414062 363.8273010253906 111.91207885742188 435.7151794433594 73.53092956542969 430.33209228515625" fill="rgb(35, 59, 17)" opacity="1.0" stroke="rgb(187, 116, 230)" stroke-linecap="round" stroke-linejoin="round" stroke-opacity="0.03235535" stroke-width="0.0"/>
    <path d="M 119.65153503417969 264.2741394042969 C 46.92490768432617 243.70204162597656 46.58758544921875 281.6029357910156 36.76816177368164 259.19866943359375 C 24.54046058654785 286.0755615234375 124.1823959350586 215.7356414794922 111.39667510986328 304.9598083496094 C -37.42992401123047 380.4779357910156 -11.130719184875488 333.8855285644531 -10.056406021118164 270.9708251953125 C -8.59624195098877 255.29421997070312 -9.772638320922852 253.4723358154297 -9.682596206665039 248.6126251220703 C -10.861170768737793 215.41384887695312 -10.976547241210938 212.50450134277344 -33.54243469238281 158.90174865722656 C 64.1764144897461 86.07845306396484 -12.197990417480469 119.95735168457031 60.93681335449219 182.30787658691406 C 64.16539001464844 186.77232360839844 18.33829116821289 182.66775512695312 58.97054672241211 206.29660034179688 C 78.87870788574219 201.64932250976562 118.99530029296875 10.841665267944336 119.65153503417969 264.2741394042969" fill="rgb(61, 66, 49)" opacity="0.80894566" stroke="rgb(16, 179, 19)" stroke-linecap="round" stroke-linejoin="round" stroke-opacity="0.70934993" stroke-width="0.0"/>
    <path d="M 402.7450256347656 257.23876953125 C 419.41888427734375 272.55877685546875 419.5964050292969 262.382080078125 411.4447021484375 281.4502258300781 C 424.02252197265625 290.3787841796875 372.5699768066406 325.4615783691406 398.99505615234375 353.1490173339844 C 263.5234069824219 370.8381042480469 472.0027770996094 356.2640686035156 301.1410827636719 372.7803039550781 C 318.5715026855469 221.7734375 333.0226745605469 279.0100402832031 334.7291564941406 246.25259399414062 C 301.3402404785156 233.48887634277344 348.1875 245.56988525390625 320.2001037597656 166.1886444091797 C 405.9765319824219 190.2026824951172 343.5220642089844 207.4589080810547 373.1148986816406 210.70204162597656 C 326.898193359375 187.3170928955078 312.94952392578125 129.44598388671875 434.2215576171875 139.23828125 C 401.6433410644531 226.41123962402344 419.08953857421875 225.4032745361328 402.7450256347656 257.23876953125" fill="rgb(71, 73, 90)" opacity="0.8677098" stroke="rgb(235, 132, 4)" stroke-linecap="round" stroke-linejoin="round" stroke-opacity="0.78896534" stroke-width="0.0"/>
    <path d="M 246.811279296875 67.5422592163086 C 372.7163391113281 -134.82073974609375 552.8560791015625 -195.1669464111328 527.3674926757812 61.202972412109375 C 361.4493408203125 136.66184997558594 265.0678405761719 32.4216423034668 170.49652099609375 93.90164184570312 C 181.11851501464844 99.85144805908203 150.85882568359375 97.08964538574219 167.23411560058594 147.2685546875 C 133.9427032470703 82.76708984375 170.9144287109375 51.44995880126953 185.15504455566406 38.05033493041992 C 178.7880401611328 7.684352397918701 165.4186553955078 17.40364646911621 157.02731323242188 -7.547337532043457 C 164.50416564941406 -13.891413688659668 168.6192626953125 -9.899420738220215 185.06678771972656 -10.708806037902832 C 230.53175354003906 -14.249353408813477 239.82839965820312 -11.395950317382812 238.3033447265625 3.221524238586426 C 268.6986389160156 41.64219284057617 239.86886596679688 0.0889601930975914 246.811279296875 67.5422592163086" fill="rgb(70, 104, 193)" opacity="0.6135512" stroke="rgb(17, 216, 243)" stroke-linecap="round" stroke-linejoin="round" stroke-opacity="0.1696802" stroke-width="0.0"/>
    <path d="M 276.7738037109375 301.2411804199219 C 292.41265869140625 305.53955078125 297.3446350097656 264.1910705566406 280.97412109375 310.69561767578125 C 246.90318298339844 309.6888732910156 252.3123016357422 319.4095764160156 242.71604919433594 331.5500183105469 C 210.11683654785156 341.45172119140625 173.19776916503906 341.9719543457031 174.6934051513672 317.1474304199219 C 158.43252563476562 361.43707275390625 142.58456420898438 251.60704040527344 174.8088836669922 261.8416442871094 C 204.16372680664062 248.20114135742188 230.10659790039062 308.7796936035156 208.6045379638672 271.7372741699219 C 175.83399963378906 251.59310913085938 206.24063110351562 240.22891235351562 202.05447387695312 259.69195556640625 C 176.64566040039062 245.23794555664062 228.6881866455078 234.730224609375 302.07757568359375 194.60494995117188 C 318.84759521484375 287.4129638671875 312.1772155761719 267.8406066894531 276.7738037109375 301.2411804199219" fill="rgb(172, 159, 146)" opacity="0.76813394" stroke="rgb(79, 25, 13)" stroke-linecap="round" stroke-linejoin="round" stroke-opacity="0.006509193" stroke-width="0.0"/>
    <path d="M 474.9971008300781 90.50843811035156 C 505.1415100097656 63.67410659790039 472.30010986328125 83.19180297851562 471.345458984375 81.6905288696289 C 440.7611389160156 110.1088638305664 465.2640075683594 114.42931365966797 438.5451354980469 113.48446655273438 C 437.6328430175781 123.22346496582031 456.17962646484375 147.83328247070312 399.3815002441406 126.18890380859375 C 373.2084655761719 122.12274169921875 377.914306640625 92.15509033203125 401.27484130859375 99.36018371582031 C 416.4791259765625 83.28437805175781 408.5389099121094 67.23053741455078 434.88555908203125 43.99799728393555 C 423.91461181640625 46.40162658691406 440.33575439453125 37.901493072509766 457.5076599121094 39.56147003173828 C 468.9591979980469 49.56972122192383 472.8856201171875 63.89004135131836 625.5982666015625 -87.95537567138672 C 629.7625732421875 49.31047821044922 519.889404296875 36.52352523803711 474.9971008300781 90.50843811035156" fill="rgb(197, 212, 244)" opacity="0.6318351" stroke="rgb(153, 6, 249)" stroke-linecap="round" stroke-linejoin="round" stroke-opacity="0.56042904" stroke-width="0.0"/>
    <path d="M 439.8766784667969 310.3861083984375 C 435.29046630859375 312.32904052734375 430.3938903808594 328.65289306640625 438.8341369628906 322.0548095703125 C 414.9509582519531 341.90966796875 439.3143310546875 329.88250732421875 394.14080810546875 341.3570861816406 C 400.341796875 306.6897277832031 420.46258544921875 357.6171569824219 408.76434326171875 317.27618408203125 C 407.98455810546875 337.8023681640625 400.4642333984375 334.1164855957031 402.7833251953125 307.31878662109375 C 381.058837890625 312.7145690917969 422.7392272949219 249.673095703125 393.96514892578125 297.0953674316406 C 416.5155029296875 286.8229064941406 406.8726501464844 194.78636169433594 436.6946716308594 138.46815490722656 C 420.27496337890625 272.8868713378906 443.5728454589844 308.7326354980469 430.3326416015625 291.27911376953125 C 435.4339599609375 261.7940673828125 427.4723815917969 266.48773193359375 439.8766784667969 310.3861083984375" fill="rgb(203, 222, 255)" opacity="0.7197098" stroke="rgb(152, 200, 14)" stroke-linecap="round" stroke-linejoin="round" stroke-opacity="0.59780794" stroke-width="0.0"/>
    <path d="M 431.6216735839844 131.14772033691406 C 395.23114013671875 124.85551452636719 360.2131042480469 128.39898681640625 371.8881530761719 131.98313903808594 C 335.4656066894531 134.75660705566406 370.41162109375 127.00386047363281 333.3488464355469 146.72450256347656 C 244.09933471679688 142.70849609375 322.12530517578125 144.38003540039062 319.9232177734375 146.2295379638672 C 261.50067138671875 162.91802978515625 270.5968933105469 158.76522827148438 285.1588134765625 93.39054107666016 C 315.7548522949219 93.86398315429688 321.0937805175781 89.88495635986328 331.763427734375 102.69457244873047 C 357.4317932128906 89.36348724365234 351.4625244140625 99.01683807373047 330.2059020996094 108.14185333251953 C 371.9289855957031 89.57745361328125 348.5003356933594 68.7031478881836 383.32342529296875 87.04524230957031 C 360.0002746582031 114.21829986572266 431.670654296875 61.94674301147461 431.6216735839844 131.14772033691406" fill="rgb(196, 211, 255)" opacity="0.56353045" stroke="rgb(139, 218, 13)" stroke-linecap="round" stroke-linejoin="round" stroke-opacity="0.41000405" stroke-width="0.0"/>
    <path d="M 115.51937866210938 99.95442962646484 C 117.35939025878906 116.1767349243164 107.3215103149414 89.82548522949219 118.70824432373047 133.89007568359375 C 117.34382629394531 128.20252990722656 89.31964874267578 136.2374267578125 99.1330795288086 123.88453674316406 C 109.64239501953125 95.82647705078125 83.03492736816406 123.56195831298828 108.9081802368164 155.89292907714844 C 57.732486724853516 163.235107421875 96.5670394897461 107.99036407470703 82.8400650024414 112.03732299804688 C 104.49931335449219 110.9353256225586 77.43989562988281 101.99500274658203 95.26786804199219 99.03373718261719 C 96.5589370727539 116.9939956665039 106.69508361816406 109.07978820800781 102.57075500488281 98.18433380126953 C 84.815673828125 103.13395690917969 111.35746765136719 72.40998840332031 106.14373779296875 91.93550872802734 C 112.18584442138672 96.11872863769531 126.49256134033203 94.9784927368164 115.51937866210938 99.95442962646484" fill="rgb(51, 58, 43)" opacity="0.75457346" stroke="rgb(248, 63, 190)" stroke-linecap="round" stroke-linejoin="round" stroke-opacity="0.7295165" stroke-width="0.0"/>
    <path d="M 633.0775756835938 399.0513000488281 C 640.69287109375 413.42364501953125 614.43603515625 425.4114685058594 648.3630981445312 412.77838134765625 C 674.4769287109375 478.4761962890625 693.3931884765625 493.1929016113281 432.3677062988281 497.47137451171875 C 423.9540100097656 442.1107177734375 442.8195495605469 417.0117492675781 558.8631591796875 415.69561767578125 C 525.72265625 393.671875 525.8963012695312 477.63189697265625 461.3279724121094 314.3172912597656 C 520.410888671875 208.11016845703125 592.887451171875 253.5138702392578 584.766845703125 381.7463073730469 C 628.0267333984375 391.3138427734375 537.2860107421875 273.2760314941406 583.08056640625 235.97793579101562 C 739.5538940429688 227.85865783691406 667.5726928710938 318.50164794921875 654.8271484375 379.33349609375 C 648.8384399414062 382.61846923828125 616.1521606445312 385.82220458984375 633.0775756835938 399.0513000488281" fill="rgb(21, 41, 0)" opacity="0.62078065" stroke="rgb(202, 67, 174)" stroke-linecap="round" stroke-linejoin="round" stroke-opacity="0.20147854" stroke-width="0.0"/>
    <path d="M 42.11113739013672 194.35763549804688 C 92.30469512939453 263.26531982421875 100.66449737548828 278.73089599609375 57.30191421508789 247.53683471679688 C 15.74289321899414 257.3954772949219 15.184555053710938 268.7359619140625 41.021976470947266 257.6918029785156 C 19.528034210205078 270.28912353515625 12.769903182983398 273.6535949707031 -11.300661087036133 267.51434326171875 C -5.014675140380859 212.14395141601562 -6.401987552642822 221.7919158935547 -11.994969367980957 230.47772216796875 C -10.788798332214355 193.7989959716797 -10.051575660705566 192.18186950683594 -8.676092147827148 176.0699920654297 C -29.175216674804688 142.4640655517578 -90.21727752685547 109.81932067871094 27.622055053710938 66.93785858154297 C 10.578495979309082 226.34373474121094 62.6456413269043 111.61854553222656 27.512989044189453 204.8961181640625 C 11.691786766052246 205.09007263183594 50.46568298339844 208.4368896484375 42.11113739013672 194.35763549804688" fill="rgb(8, 15, 0)" opacity="0.61038685" stroke="rgb(22, 52, 115)" stroke-linecap="round" stroke-linejoin="round" stroke-opacity="0.5780977" stroke-width="0.0"/>
    <path d="M 425.9837951660156 406.0515441894531 C 456.7824401855469 385.6331481933594 453.6739501953125 397.31549072265625 442.27197265625 433.94793701171875 C 420.9359436035156 444.23492431640625 445.38433837890625 407.2279357910156 416.52728271484375 425.8878173828125 C 405.9621276855469 424.0542907714844 434.66119384765625 419.42047119140625 396.5094299316406 417.98297119140625 C 387.5096130371094 417.4143371582031 430.5862731933594 480.83203125 361.92047119140625 417.18072509765625 C 440.0390625 401.4864196777344 366.9012145996094 397.32568359375 435.5757751464844 392.2878112792969 C 416.03765869140625 406.4230651855469 418.3332214355469 396.2208557128906 411.7073974609375 416.3487854003906 C 414.5240783691406 407.96502685546875 415.9046630859375 405.4446105957031 412.5782775878906 410.151611328125 C 411.2644348144531 408.77105712890625 435.89990234375 416.846923828125 425.9837951660156 406.0515441894531" fill="rgb(240, 216, 186)" opacity="0.5550113" stroke="rgb(143, 248, 118)" stroke-linecap="round" stroke-linejoin="round" stroke-opacity="0.51379657" stroke-width="0.0"/>
    <path d="M 93.48588562011719 97.64445495605469 C 76.34465789794922 119.47228240966797 99.55780792236328 122.21233367919922 82.7552719116211 122.81663513183594 C 87.00056457519531 142.88246154785156 105.81124877929688 144.68603515625 41.81224822998047 121.90068817138672 C 60.8114128112793 102.42637634277344 55.521873474121094 125.45057678222656 64.91858673095703 113.69073486328125 C 65.41617584228516 102.78511810302734 58.95269012451172 111.87950134277344 64.37972259521484 105.96389770507812 C 65.25843048095703 112.46997833251953 63.32020568847656 112.21775817871094 64.89552307128906 108.08572387695312 C 64.12567138671875 93.46283721923828 71.95177459716797 106.54241943359375 64.10616302490234 89.37226104736328 C 12.2471284866333 97.98411560058594 96.84738159179688 44.17088317871094 87.03057861328125 86.82093811035156 C 105.63650512695312 48.74616241455078 93.94816589355469 111.24049377441406 93.48588562011719 97.64445495605469" fill="rgb(255, 252, 248)" opacity="0.58983964" stroke="rgb(189, 188, 40)" stroke-linecap="round" stroke-linejoin="round" stroke-opacity="0.36173832" stroke-width="0.0"/>
    <path d="M 334.501220703125 441.14013671875 C 328.9083557128906 466.5776062011719 321.36541748046875 434.9273986816406 323.610107421875 459.6928405761719 C 310.458740234375 458.94525146484375 332.07830810546875 461.6767578125 331.3139343261719 490.7874450683594 C 271.4369201660156 488.09893798828125 312.9682922363281 495.48248291015625 306.9300231933594 455.43206787109375 C 291.38232421875 452.46771240234375 313.2545166015625 438.5361328125 280.43096923828125 454.85833740234375 C 280.7798156738281 422.19964599609375 294.6551208496094 428.7528381347656 313.984375 437.11212158203125 C 323.1004333496094 431.85736083984375 340.19366455078125 431.2143859863281 293.7543029785156 436.8909912109375 C 323.8575439453125 426.2288818359375 287.7243347167969 438.4731140136719 350.3906555175781 432.6406555175781 C 342.8753967285156 426.2108459472656 400.755615234375 425.5143127441406 334.501220703125 441.14013671875" fill="rgb(15, 21, 0)" opacity="0.6098421" stroke="rgb(12, 101, 200)" stroke-linecap="round" stroke-linejoin="round" stroke-opacity="0.80148846" stroke-width="0.0"/>
    <path d="M 127.4952392578125 20.599733352661133 C 179.45999145507812 -2.6723642349243164 171.232421875 80.12179565429688 130.51498413085938 54.670352935791016 C 116.80204010009766 70.99671936035156 91.45191955566406 67.26333618164062 45.97392654418945 55.27079391479492 C 40.43498229980469 13.836692810058594 41.26447296142578 66.05533599853516 30.90650177001953 49.4228401184082 C 25.547731399536133 -5.716875076293945 49.905677795410156 77.0201187133789 40.690181732177734 1.4913897514343262 C 25.212926864624023 1.2512742280960083 31.854555130004883 7.173127174377441 39.84169387817383 -22.12571144104004 C 52.166603088378906 -8.64831829071045 53.480316162109375 -9.03812313079834 66.990234375 -8.757171630859375 C 84.33164978027344 -9.47514820098877 86.10065460205078 -9.315627098083496 92.39348602294922 -7.7898945808410645 C 104.47802734375 -21.996906280517578 120.78826141357422 -56.084930419921875 127.4952392578125 20.599733352661133" fill="rgb(218, 220, 232)" opacity="0.53099036" stroke="rgb(190, 165, 148)" stroke-linecap="round" stroke-linejoin="round" stroke-opacity="0.14827795" stroke-width="0.0"/>
    <path d="M 412.20501708984375 220.9011688232422 C 415.8890075683594 227.87103271484375 404.9095458984375 229.67611694335938 404.1966552734375 259.81427001953125 C 402.4549865722656 282.73175048828125 404.9032287597656 239.4929962158203 379.56964111328125 346.7784729003906 C 319.6526794433594 378.1686706542969 336.1429443359375 297.676513671875 368.3812561035156 248.44749450683594 C 369.0464782714844 196.0491180419922 365.5894470214844 211.8631134033203 372.9983825683594 231.57467651367188 C 366.40252685546875 234.35433959960938 382.9203796386719 188.70819091796875 391.77178955078125 200.21607971191406 C 377.60650634765625 205.84063720703125 366.60186767578125 203.4507293701172 386.1175537109375 204.737548828125 C 402.86767578125 160.35435485839844 406.31201171875 164.01185607910156 429.8930969238281 146.69720458984375 C 404.80615234375 228.44337463378906 412.7844543457031 219.64227294921875 412.20501708984375 220.9011688232422" fill="rgb(32, 42, 64)" opacity="1.0" stroke="rgb(178, 117, 185)" stroke-linecap="round" stroke-linejoin="round" stroke-opacity="0.9318755" stroke-width="0.0"/>
    <path d="M 259.9228210449219 109.29691314697266 C 230.7335662841797 237.94058227539062 231.96505737304688 197.7716827392578 209.49554443359375 187.8490447998047 C 199.35707092285156 186.5943603515625 161.7963409423828 198.4613037109375 175.64402770996094 202.85682678222656 C 123.96925354003906 192.3529510498047 170.78883361816406 212.2127685546875 136.83984375 197.700439453125 C 134.18983459472656 206.71023559570312 127.18669891357422 213.3625030517578 140.52902221679688 172.99282836914062 C 124.82413482666016 174.4442138671875 137.84495544433594 161.52090454101562 107.28095245361328 64.36783599853516 C 165.18991088867188 132.0784912109375 164.3285675048828 161.23065185546875 168.5117645263672 149.16961669921875 C 173.35760498046875 126.72748565673828 198.12380981445312 162.87338256835938 190.1943817138672 124.00308227539062 C 253.61917114257812 162.235595703125 192.0276336669922 113.16929626464844 259.9228210449219 109.29691314697266" fill="rgb(250, 250, 255)" opacity="0.6341936" stroke="rgb(175, 114, 6)" stroke-linecap="round" stroke-linejoin="round" stroke-opacity="0.39470664" stroke-width="0.0"/>
    <path d="M 301.962646484375 412.58233642578125 C 307.3202819824219 428.8473815917969 350.6208801269531 407.95184326171875 315.8362121582031 432.87060546875 C 293.4178466796875 431.6333923339844 341.4023132324219 414.15411376953125 285.1828308105469 423.8271179199219 C 276.4588317871094 427.7188415527344 283.6159362792969 443.0909423828125 265.75946044921875 424.869873046875 C 280.0917053222656 401.6661682128906 317.31610107421875 437.45770263671875 287.9214172363281 410.1430358886719 C 292.3887023925781 416.4211120605469 263.5439758300781 422.31195068359375 277.2621765136719 407.21221923828125 C 298.9393005371094 394.94384765625 275.1156311035156 399.2735595703125 297.74810791015625 388.57513427734375 C 281.4014587402344 400.86297607421875 302.1004943847656 386.9091796875 302.5303955078125 406.3030700683594 C 308.2979431152344 405.3037414550781 301.0387878417969 399.0397033691406 301.962646484375 412.58233642578125" fill="rgb(24, 29, 22)" opacity="0.8220686" stroke="rgb(147, 209, 88)" stroke-linecap="round" stroke-linejoin="round" stroke-opacity="0.4985597" stroke-width="0.0"/>
    <path d="M 267.0060119628906 268.3004455566406 C 263.42578125 247.1595458984375 260.97308349609375 267.56524658203125 263.7170715332031 279.0938720703125 C 267.99871826171875 300.1999816894531 261.11468505859375 319.8454284667969 225.2635498046875 310.3094482421875 C 235.8656463623047 276.1415710449219 255.59999084472656 267.9681701660156 244.11085510253906 272.7301025390625 C 229.9492950439453 247.37977600097656 252.92713928222656 276.3263244628906 251.8629913330078 259.0693664550781 C 243.67202758789062 272.3831787109375 229.57473754882812 252.08753967285156 250.68055725097656 250.19261169433594 C 243.94041442871094 260.6842956542969 262.8436584472656 265.1632385253906 248.38229370117188 256.40521240234375 C 260.7308044433594 217.1394805908203 260.7336730957031 216.8707275390625 271.3367614746094 246.34776306152344 C 262.6349792480469 239.61265563964844 255.91159057617188 274.9781494140625 267.0060119628906 268.3004455566406" fill="rgb(205, 195, 176)" opacity="0.93049175" stroke="rgb(111, 99, 241)" stroke-linecap="round" stroke-linejoin="round" stroke-opacity="0.0783353" stroke-width="0.0"/>
    <path d="M 68.42445373535156 193.26861572265625 C 56.638023376464844 204.8026885986328 63.627071380615234 186.71469116210938 73.3991470336914 204.2991485595703 C 61.00782775878906 199.39495849609375 62.0858039855957 207.86453247070312 64.68482971191406 194.5994873046875 C 45.34633255004883 218.39157104492188 49.55168914794922 199.35946655273438 56.26641082763672 202.69546508789062 C 61.132789611816406 193.9579315185547 50.207828521728516 197.28102111816406 53.64857864379883 191.30873107910156 C 65.0772705078125 194.3050537109375 45.893062591552734 188.0406951904297 58.26366424560547 190.1452178955078 C 61.55370330810547 169.15866088867188 45.50900650024414 187.09153747558594 53.31906509399414 187.25282287597656 C 69.56669616699219 187.12094116210938 62.6380500793457 188.9832000732422 70.33636474609375 191.0375213623047 C 78.24776458740234 181.5703887939453 62.082191467285156 194.94288635253906 68.42445373535156 193.26861572265625" fill="rgb(0, 0, 17)" opacity="0.7059144" stroke="rgb(108, 241, 250)" stroke-linecap="round" stroke-linejoin="round" stroke-opacity="0.8702847" stroke-width="0.0"/>
    <path d="M 232.1248321533203 253.6943817138672 C 274.8152770996094 320.8126525878906 221.2262725830078 281.50384521484375 221.39849853515625 330.04931640625 C 216.4772186279297 334.84039306640625 188.98316955566406 319.0458068847656 200.5233154296875 319.1056823730469 C 215.2040557861328 322.2184753417969 203.59080505371094 319.8286437988281 184.89337158203125 318.83624267578125 C 203.99234008789062 316.5146789550781 192.74635314941406 280.6243896484375 196.04586791992188 329.1743469238281 C 199.6701202392578 308.9380187988281 186.35218811035156 302.7689208984375 171.86367797851562 288.9743957519531 C 230.64846801757812 272.27838134765625 180.5537872314453 286.2377014160156 215.55169677734375 281.4382629394531 C 206.96978759765625 283.23040771484375 219.4702606201172 315.56317138671875 212.381103515625 290.1970520019531 C 220.12890625 259.0356140136719 206.66168212890625 256.0793762207031 232.1248321533203 253.6943817138672" fill="rgb(202, 187, 167)" opacity="0.9226644" stroke="rgb(112, 10, 73)" stroke-linecap="round" stroke-linejoin="round" stroke-opacity="0.46107435" stroke-width="0.0"/>
    <path d="M 474.302001953125 386.94647216796875 C 481.3044128417969 387.26751708984375 484.697021484375 397.3426513671875 479.4433288574219 411.6467590332031 C 464.3296813964844 401.5013122558594 468.87841796875 399.7518615722656 468.60467529296875 395.5467834472656 C 468.89215087890625 393.154296875 468.99102783203125 400.6579895019531 467.510009765625 395.0758361816406 C 465.7391357421875 388.76641845703125 464.057373046875 392.6333312988281 465.1432800292969 395.8360290527344 C 467.3261413574219 395.27484130859375 471.5799865722656 399.5516052246094 468.4322204589844 399.09991455078125 C 467.1620178222656 387.72808837890625 459.3575134277344 388.84808349609375 467.8322448730469 387.6483459472656 C 461.6127624511719 380.0414733886719 485.3040771484375 398.7154541015625 464.5854187011719 374.9509582519531 C 473.0227355957031 370.7408142089844 480.0955505371094 396.073486328125 474.302001953125 386.94647216796875" fill="rgb(176, 169, 153)" opacity="1.0" stroke="rgb(102, 34, 217)" stroke-linecap="round" stroke-linejoin="round" stroke-opacity="0.118706174" stroke-width="0.0"/>
    <path d="M 655.083740234375 431.2759704589844 C 594.8477172851562 671.593994140625 437.5106201171875 510.6863098144531 410.0813903808594 488.69189453125 C 407.0500793457031 486.3712158203125 405.2174377441406 486.943359375 397.95111083984375 482.64532470703125 C 391.7107238769531 476.0578308105469 384.9571838378906 487.580322265625 368.8448486328125 494.86065673828125 C 365.3463439941406 484.90765380859375 374.7068786621094 478.714599609375 371.5002136230469 478.2726135253906 C 377.8752136230469 470.0523681640625 392.88909912109375 464.8893737792969 382.1031494140625 466.86785888671875 C 388.1551208496094 462.413330078125 401.5192565917969 442.2302551269531 392.5321044921875 464.1277770996094 C 402.8623046875 474.5604553222656 401.6062316894531 457.24609375 404.72564697265625 471.388671875 C 499.10711669921875 479.1059265136719 401.8926086425781 399.5364990234375 655.083740234375 431.2759704589844" fill="rgb(17, 29, 8)" opacity="0.8362174" stroke="rgb(187, 97, 235)" stroke-linecap="round" stroke-linejoin="round" stroke-opacity="0.6085817" stroke-width="0.0"/>
    <path d="M 20.142436981201172 302.3432312011719 C 51.766700744628906 270.81744384765625 48.220638275146484 274.2283630371094 48.81981658935547 320.5423889160156 C 28.185998916625977 334.900634765625 40.21562576293945 314.23260498046875 9.687098503112793 331.23663330078125 C 17.717988967895508 312.5601806640625 -11.301775932312012 321.48150634765625 3.16477370262146 312.5373840332031 C -4.391136169433594 300.97021484375 -18.890451431274414 287.7278137207031 3.528773069381714 290.6692810058594 C 16.039857864379883 313.02392578125 25.34006118774414 306.0811767578125 -25.89463996887207 268.9852294921875 C 6.129827499389648 241.20989990234375 18.566802978515625 242.77926635742188 37.0272102355957 284.701171875 C 21.303810119628906 306.7705993652344 6.4451470375061035 297.7229919433594 23.644105911254883 299.3426208496094 C 29.48046875 285.5389709472656 15.077543258666992 309.1356201171875 20.142436981201172 302.3432312011719" fill="rgb(32, 41, 16)" opacity="0.99617475" stroke="rgb(114, 181, 126)" stroke-linecap="round" stroke-linejoin="round" stroke-opacity="0.16951577" stroke-width="0.0"/>
    <path d="M 290.8157043457031 183.7898712158203 C 282.9694519042969 189.9608154296875 278.79376220703125 175.62631225585938 284.8595886230469 189.4763946533203 C 270.7277526855469 180.08399963378906 285.5010681152344 194.66180419921875 273.7310791015625 192.57470703125 C 270.74078369140625 201.69212341308594 270.8506164550781 197.97943115234375 269.31781005859375 183.54820251464844 C 260.6587829589844 202.6167449951172 264.961181640625 164.87844848632812 266.9681701660156 157.40830993652344 C 269.8763732910156 195.71524047851562 271.24969482421875 174.0902557373047 274.56866455078125 179.48953247070312 C 268.58258056640625 168.40921020507812 292.4950866699219 179.7783660888672 268.3590087890625 170.50877380371094 C 275.8554382324219 155.1033477783203 268.06549072265625 157.72097778320312 284.7026672363281 172.7937469482422 C 288.8872375488281 177.00537109375 282.7926940917969 172.0211944580078 290.8157043457031 183.7898712158203" fill="rgb(204, 196, 184)" opacity="1.0" stroke="rgb(123, 132, 191)" stroke-linecap="round" stroke-linejoin="round" stroke-opacity="0.8341499" stroke-width="0.0"/>
    <path d="M 57.47683334350586 276.5622863769531 C 72.11502838134766 273.9506530761719 57.34513473510742 289.6322937011719 69.44770812988281 285.989501953125 C 56.75584030151367 262.3475036621094 110.82049560546875 219.26527404785156 93.01634216308594 314.09332275390625 C 31.530315399169922 333.70684814453125 57.790245056152344 303.3111877441406 49.746185302734375 307.85626220703125 C 38.97165298461914 291.7508850097656 54.237552642822266 300.03643798828125 33.499107360839844 277.8598327636719 C -0.9500564336776733 255.7377471923828 13.566993713378906 227.88099670410156 35.346031188964844 276.02423095703125 C 38.409934997558594 264.4573669433594 51.37167739868164 266.03125 52.21839141845703 269.6182861328125 C 126.79276275634766 250.92942810058594 58.24882888793945 268.63995361328125 58.116416931152344 273.1051330566406 C 57.72273254394531 280.7385559082031 37.89809036254883 300.73358154296875 57.47683334350586 276.5622863769531" fill="rgb(27, 31, 13)" opacity="0.7936854" stroke="rgb(182, 29, 33)" stroke-linecap="round" stroke-linejoin="round" stroke-opacity="0.8014034" stroke-width="0.0"/>
  </g>
</svg>
